<svg height="512" viewBox="0 0 64 64" width="512" xmlns="http://www.w3.org/2000/svg" xmlns:xlink="http://www.w3.org/1999/xlink"><linearGradient id="gradient_ice" gradientUnits="userSpaceOnUse" x1="-19.329" x2="45.639" y1="56.68" y2="-17.311"><stop offset="0" stop-color="#fff200"/><stop offset="1" stop-color="#cd118c"/></linearGradient><linearGradient id="gradient_ice-2" x1="-17.277" x2="47.691" xlink:href="#gradient_ice" y1="58.482" y2="-15.509"/><linearGradient id="gradient_ice-3" x1="-13.324" x2="51.644" xlink:href="#gradient_ice" y1="61.953" y2="-12.039"/><linearGradient id="gradient_ice-4" x1="-15.225" x2="49.743" xlink:href="#gradient_ice" y1="60.284" y2="-13.707"/><linearGradient id="gradient_ice-5" x1="-6.039" x2="58.929" xlink:href="#gradient_ice" y1="68.35" y2="-5.642"/><linearGradient id="gradient_ice-6" x1="-.599" x2="64.369" xlink:href="#gradient_ice" y1="73.126" y2="-.865"/><linearGradient id="gradient_ice-7" x1="4.483" x2="69.451" xlink:href="#gradient_ice" y1="77.588" y2="3.597"/><linearGradient id="gradient_ice-8" x1="-.805" x2="64.163" xlink:href="#gradient_ice" y1="72.945" y2="-1.046"/><linearGradient id="gradient_ice-9" x1="3.147" x2="68.115" xlink:href="#gradient_ice" y1="76.415" y2="2.424"/><linearGradient id="gradient_ice-10" x1="1.247" x2="66.215" xlink:href="#gradient_ice" y1="74.747" y2=".755"/><linearGradient id="gradient_ice-11" x1="-2.582" x2="62.386" xlink:href="#gradient_ice" y1="71.385" y2="-2.606"/><linearGradient id="gradient_ice-12" x1="4.111" x2="69.079" xlink:href="#gradient_ice" y1="77.262" y2="3.271"/><g id="mail-Envelope-letter-postal"><path d="m10 20h4v2h-4z" fill="url(#gradient_ice)"/><path d="m10 23h6v2h-6z" fill="url(#gradient_ice-2)"/><path d="m18 23h4v2h-4z" fill="url(#gradient_ice-3)"/><path d="m10 26h8v2h-8z" fill="url(#gradient_ice-4)"/><path d="m23 32h4v2h-4z" fill="url(#gradient_ice-5)"/><path d="m27 35h10v2h-10z" fill="url(#gradient_ice-6)"/><path d="m39 35h4v2h-4z" fill="url(#gradient_ice-7)"/><path d="m27 38h4v2h-4z" fill="url(#gradient_ice-8)"/><path d="m33 38h6v2h-6z" fill="url(#gradient_ice-9)"/><path d="m27 41h6v2h-6z" fill="url(#gradient_ice-10)"/><path d="m61 13h-58a1 1 0 0 0 -1 1v36a1 1 0 0 0 1 1h58a1 1 0 0 0 1-1v-36a1 1 0 0 0 -1-1zm-10.59 2h3.18l-1 1h-3.18zm-6 0h3.18l-1 1h-3.18zm-6 0h3.18l-1 1h-3.18zm-6 0h3.18l-1 1h-3.18zm-6 0h3.18l-1 1h-3.18zm-6 0h3.18l-1 1h-3.18zm-6 0h3.18l-1 1h-3.18zm-6 0h3.18l-1 1h-3.18zm-4.41 0h1.59l-1.59 1.59zm0 4.41 1-1v3.18l-1 1zm0 6 1-1v3.18l-1 1zm0 6 1-1v3.18l-1 1zm0 6 1-1v3.18l-1 1zm0 6 1-1v3.18l-1 1zm3.59 5.59h-3.18l1.13-1.13a.91.91 0 0 0 .46.13h2.59zm6 0h-3.18l1-1h3.18zm6 0h-3.18l1-1h3.18zm6 0h-3.18l1-1h3.18zm6 0h-3.18l1-1h3.18zm6 0h-3.18l1-1h3.18zm6 0h-3.18l1-1h3.18zm6 0h-3.18l1-1h3.18zm6 0h-3.18l1-1h3.18zm1.41-3h-50v-28h50zm-1.59-30 1-1h3.18l-1.13 1.13a.91.91 0 0 0 -.46-.13zm4.59 33h-1.59l1.59-1.59zm0-4.41-1 1v-3.18l1-1zm0-6-1 1v-3.18l1-1zm0-6-1 1v-3.18l1-1zm0-6-1 1v-3.18l1-1zm0-6-1 1v-3.18l1-1z" fill="url(#gradient_ice-11)"/><path d="m56 23v-2h-1a1 1 0 0 0 -1-1v-1h-2v1h-1v-1h-2v1h-1v-1h-2v1a1 1 0 0 0 -1 1h-1v2h1v1h-1v2h1v1h-1v2h1a1 1 0 0 0 1 1v1h2v-1h1v1h2v-1h1v1h2v-1a1 1 0 0 0 1-1h1v-2h-1v-1h1v-2h-1v-1zm-3 5h-6v-6h6z" fill="url(#gradient_ice-12)"/></g></svg>