<svg height="480pt" viewBox="0 0 480 480" width="480pt" xmlns="http://www.w3.org/2000/svg" xmlns:xlink="http://www.w3.org/1999/xlink"><linearGradient id="a"><stop offset="0" stop-color="#fff200"/><stop offset="1" stop-color="#cd118c"/></linearGradient><linearGradient id="b" gradientUnits="userSpaceOnUse" x1="62.152" x2="438.152" xlink:href="#a" y1="459.472" y2="-4.528"/><linearGradient id="c" gradientUnits="userSpaceOnUse" x1="85.056" x2="461.056" xlink:href="#a" y1="478.024" y2="14.024"/><path d="m240 0c-132.546875 0-240 107.453125-240 240s107.453125 240 240 240 240-107.453125 240-240c-.148438-132.484375-107.515625-239.851562-240-240zm0 464c-123.710938 0-224-100.289062-224-224s100.289062-224 224-224 224 100.289062 224 224c-.140625 123.652344-100.347656 223.859375-224 224zm0 0" fill="url(#b)"/><path d="m368 312h-8v-80c-.09375-53.890625-36.070312-101.125-88-115.535156v-20.464844c0-17.671875-14.328125-32-32-32s-32 14.328125-32 32v20.464844c-51.929688 14.410156-87.90625 61.644531-88 115.535156v80h-8c-13.253906 0-24 10.746094-24 24s10.746094 24 24 24h77.601562c9.171876 19.539062 28.8125 32.011719 50.398438 32.011719s41.226562-12.472657 50.398438-32.011719h77.601562c13.253906 0 24-10.746094 24-24s-10.746094-24-24-24zm-144-216c0-8.835938 7.164062-16 16-16s16 7.164062 16 16v17.191406c-10.609375-1.589844-21.390625-1.589844-32 0zm-88 136c0-57.4375 46.5625-104 104-104s104 46.5625 104 104v80h-208zm104 144c-12.59375.007812-24.453125-5.921875-32-16h64c-7.546875 10.078125-19.40625 16.007812-32 16zm128-32h-256c-4.417969 0-8-3.582031-8-8s3.582031-8 8-8h256c4.417969 0 8 3.582031 8 8s-3.582031 8-8 8zm0 0" fill="url(#c)"/></svg>