<svg height="480pt" viewBox="0 0 480 480" width="480pt" xmlns="http://www.w3.org/2000/svg" xmlns:xlink="http://www.w3.org/1999/xlink"><linearGradient id="a"><stop offset="0" stop-color="#fff200"/><stop offset="1" stop-color="#cd118c"/></linearGradient><linearGradient id="b" gradientUnits="userSpaceOnUse" x1="-2.992" x2="437.008" xlink:href="#a" y1="500.664" y2="28.664"/><linearGradient id="c" gradientUnits="userSpaceOnUse" x1="2.992" x2="442.992" xlink:href="#a" y1="506.248" y2="34.248"/><linearGradient id="d" gradientUnits="userSpaceOnUse" x1="-82.976" x2="357.024" xlink:href="#a" y1="426.104" y2="-45.896"/><linearGradient id="e" gradientUnits="userSpaceOnUse" x1="-31.616" x2="408.384" xlink:href="#a" y1="473.984" y2="1.984"/><linearGradient id="f" gradientUnits="userSpaceOnUse" x1="-8.072" x2="431.928" xlink:href="#a" y1="495.936" y2="23.936"/><path d="m240 0c-132.546875 0-240 107.453125-240 240s107.453125 240 240 240 240-107.453125 240-240c-.148438-132.484375-107.515625-239.851562-240-240zm0 464c-123.710938 0-224-100.289062-224-224s100.289062-224 224-224 224 100.289062 224 224c-.140625 123.652344-100.347656 223.859375-224 224zm0 0" fill="url(#b)"/><path d="m384 120h-16v-16c0-4.417969-3.582031-8-8-8h-240c-4.417969 0-8 3.582031-8 8v16h-16c-4.417969 0-8 3.582031-8 8v248c0 4.417969 3.582031 8 8 8h136v8h16v-8h136c4.417969 0 8-3.582031 8-8v-248c0-4.417969-3.582031-8-8-8zm-32 8v216h-104v-232h104zm-224-16h104v232h-104zm-24 256v-232h8v216c0 4.417969 3.582031 8 8 8h112v8zm272 0h-128v-8h112c4.417969 0 8-3.582031 8-8v-216h8zm0 0" fill="url(#c)"/><path d="m144 136h72v16h-72zm0 0" fill="url(#d)"/><path d="m264 136h24v16h-24zm0 0" fill="url(#e)"/><path d="m304 136h32v16h-32zm0 0" fill="url(#f)"/></svg>