<svg height="480pt" viewBox="0 0 480 480" width="480pt" xmlns="http://www.w3.org/2000/svg" xmlns:xlink="http://www.w3.org/1999/xlink"><linearGradient id="a"><stop offset="0" stop-color="#fff200"/><stop offset="1" stop-color="#cd118c"/></linearGradient><linearGradient id="b" gradientUnits="userSpaceOnUse" x1="-12.2" x2="475.8" xlink:href="#a" y1="483.928" y2="11.928"/><linearGradient id="c" gradientUnits="userSpaceOnUse" x1="-16.064" x2="471.936" xlink:href="#a" y1="479.936" y2="7.936"/><linearGradient id="d" gradientUnits="userSpaceOnUse" x1="-.208" x2="487.792" xlink:href="#a" y1="496.328" y2="24.328"/><linearGradient id="e" gradientUnits="userSpaceOnUse" x1="-4.2" x2="483.8" xlink:href="#a" y1="492.2" y2="20.2"/><path d="m240 0c-132.546875 0-240 107.453125-240 240s107.453125 240 240 240 240-107.453125 240-240c-.148438-132.484375-107.515625-239.851562-240-240zm0 464c-123.710938 0-224-100.289062-224-224s100.289062-224 224-224 224 100.289062 224 224c-.140625 123.652344-100.347656 223.859375-224 224zm0 0" fill="url(#b)"/><path d="m384 88h-288c-4.417969 0-8 3.582031-8 8v80c0 4.417969 3.582031 8 8 8h8v200c0 4.417969 3.582031 8 8 8h256c4.417969 0 8-3.582031 8-8v-200h8c4.417969 0 8-3.582031 8-8v-80c0-4.417969-3.582031-8-8-8zm-24 288h-240v-192h240zm16-208h-272v-64h272zm0 0" fill="url(#c)"/><path d="m328 216h-176v96h176zm-16 80h-144v-64h144zm0 0" fill="url(#d)"/><path d="m184 248h112v16h-112zm0 0" fill="url(#e)"/></svg>