<svg height="480pt" viewBox="0 0 480 480" width="480pt" xmlns="http://www.w3.org/2000/svg" xmlns:xlink="http://www.w3.org/1999/xlink"><linearGradient id="a"><stop offset="0" stop-color="#fff200"/><stop offset="1" stop-color="#cd118c"/></linearGradient><linearGradient id="b" gradientUnits="userSpaceOnUse" x1="16" x2="440" xlink:href="#a" y1="464" y2="40"/><linearGradient id="c" gradientUnits="userSpaceOnUse" x1="-32" x2="392" xlink:href="#a" y1="416" y2="-8"/><linearGradient id="d" gradientUnits="userSpaceOnUse" x1="4" x2="428" xlink:href="#a" y1="452" y2="28"/><linearGradient id="e" gradientUnits="userSpaceOnUse" x1="-28" x2="396" xlink:href="#a" y1="420" y2="-4"/><linearGradient id="f" gradientUnits="userSpaceOnUse" x1="36" x2="460" xlink:href="#a" y1="484" y2="60"/><linearGradient id="g" gradientUnits="userSpaceOnUse" x1="68" x2="492" xlink:href="#a" y1="516" y2="92"/><linearGradient id="h" gradientUnits="userSpaceOnUse" x1="100" x2="524" xlink:href="#a" y1="548" y2="124"/><path d="m240 0c-132.546875 0-240 107.453125-240 240s107.453125 240 240 240 240-107.453125 240-240c-.148438-132.484375-107.515625-239.851562-240-240zm0 464c-123.710938 0-224-100.289062-224-224s100.289062-224 224-224 224 100.289062 224 224c-.140625 123.652344-100.347656 223.859375-224 224zm0 0" fill="url(#b)"/><path d="m352 88h-224c-4.417969 0-8 3.582031-8 8v288c0 4.417969 3.582031 8 8 8h224c4.417969 0 8-3.582031 8-8v-288c0-4.417969-3.582031-8-8-8zm-8 288h-208v-272h208zm0 0" fill="url(#b)"/><path d="m152 176h176c4.417969 0 8-3.582031 8-8v-48c0-4.417969-3.582031-8-8-8h-176c-4.417969 0-8 3.582031-8 8v48c0 4.417969 3.582031 8 8 8zm8-48h160v32h-160zm0 0" fill="url(#c)"/><path d="m256 192h-32c-4.417969 0-8 3.582031-8 8v32c0 4.417969 3.582031 8 8 8h32c4.417969 0 8-3.582031 8-8v-32c0-4.417969-3.582031-8-8-8zm-8 32h-16v-16h16zm0 0" fill="url(#d)"/><path d="m192 192h-32c-4.417969 0-8 3.582031-8 8v32c0 4.417969 3.582031 8 8 8h32c4.417969 0 8-3.582031 8-8v-32c0-4.417969-3.582031-8-8-8zm-8 32h-16v-16h16zm0 0" fill="url(#e)"/><path d="m320 192h-32c-4.417969 0-8 3.582031-8 8v32c0 4.417969 3.582031 8 8 8h32c4.417969 0 8-3.582031 8-8v-32c0-4.417969-3.582031-8-8-8zm-8 32h-16v-16h16zm0 0" fill="url(#f)"/><path d="m256 256h-32c-4.417969 0-8 3.582031-8 8v32c0 4.417969 3.582031 8 8 8h32c4.417969 0 8-3.582031 8-8v-32c0-4.417969-3.582031-8-8-8zm-8 32h-16v-16h16zm0 0" fill="url(#f)"/><path d="m192 256h-32c-4.417969 0-8 3.582031-8 8v32c0 4.417969 3.582031 8 8 8h32c4.417969 0 8-3.582031 8-8v-32c0-4.417969-3.582031-8-8-8zm-8 32h-16v-16h16zm0 0" fill="url(#d)"/><path d="m320 256h-32c-4.417969 0-8 3.582031-8 8v32c0 4.417969 3.582031 8 8 8h32c4.417969 0 8-3.582031 8-8v-32c0-4.417969-3.582031-8-8-8zm-8 32h-16v-16h16zm0 0" fill="url(#g)"/><path d="m256 320h-32c-4.417969 0-8 3.582031-8 8v32c0 4.417969 3.582031 8 8 8h32c4.417969 0 8-3.582031 8-8v-32c0-4.417969-3.582031-8-8-8zm-8 32h-16v-16h16zm0 0" fill="url(#g)"/><path d="m192 320h-32c-4.417969 0-8 3.582031-8 8v32c0 4.417969 3.582031 8 8 8h32c4.417969 0 8-3.582031 8-8v-32c0-4.417969-3.582031-8-8-8zm-8 32h-16v-16h16zm0 0" fill="url(#f)"/><path d="m320 320h-32c-4.417969 0-8 3.582031-8 8v32c0 4.417969 3.582031 8 8 8h32c4.417969 0 8-3.582031 8-8v-32c0-4.417969-3.582031-8-8-8zm-8 32h-16v-16h16zm0 0" fill="url(#h)"/></svg>