<svg height="480pt" viewBox="0 0 480 480" width="480pt" xmlns="http://www.w3.org/2000/svg" xmlns:xlink="http://www.w3.org/1999/xlink"><linearGradient id="a"><stop offset="0" stop-color="#fff200"/><stop offset="1" stop-color="#cd118c"/></linearGradient><linearGradient id="b" gradientUnits="userSpaceOnUse" x1="43.96" x2="459.96" xlink:href="#a" y1="420.96" y2="36.96"/><linearGradient id="c" gradientUnits="userSpaceOnUse" x1="-9.712" x2="406.288" xlink:href="#a" y1="362.808" y2="-21.192"/><linearGradient id="d" gradientUnits="userSpaceOnUse" x1="59.912" x2="475.912" xlink:href="#a" y1="438.24" y2="54.24"/><path d="m240 0c-132.546875 0-240 107.453125-240 240s107.453125 240 240 240 240-107.453125 240-240c-.148438-132.484375-107.515625-239.851562-240-240zm0 464c-123.710938 0-224-100.289062-224-224s100.289062-224 224-224 224 100.289062 224 224c-.140625 123.652344-100.347656 223.859375-224 224zm0 0" fill="url(#b)"/><path d="m368 88h-256c-13.253906 0-24 10.746094-24 24v256c0 13.253906 10.746094 24 24 24h256c13.253906 0 24-10.746094 24-24v-256c0-13.253906-10.746094-24-24-24zm-256 16h256c4.417969 0 8 3.582031 8 8v48h-272v-48c0-4.417969 3.582031-8 8-8zm256 272h-256c-4.417969 0-8-3.582031-8-8v-192h272v192c0 4.417969-3.582031 8-8 8zm0 0" fill="url(#b)"/><path d="m160 128h152v16h-152zm0 0" fill="url(#c)"/><path d="m352 184h-224c-4.417969 0-8 3.582031-8 8v160c0 4.417969 3.582031 8 8 8h224c4.417969 0 8-3.582031 8-8v-160c0-4.417969-3.582031-8-8-8zm-8 32h-16v-16h16zm-144 48h16v16h-16zm-16 16h-16v-16h16zm64-32h-16v-16h16zm16-16h16v16h-16zm-16 32v16h-16v-16zm-32-16h-16v-16h16zm0 48v16h-16v-16zm16 0h16v16h-16zm32 0h16v16h-16zm0-16v-16h16v16zm32-16h16v16h-16zm0-16v-16h16v16zm0-32v-16h16v16zm-16 0h-16v-16h16zm-32 0h-16v-16h16zm-32 0h-16v-16h16zm-32 0h-16v-16h16zm0 16v16h-16v-16zm-32 16h-16v-16h16zm0 16v16h-16v-16zm0 32v16h-16v-16zm16 0h16v16h-16zm16 32v16h-16v-16zm16 0h16v16h-16zm32 0h16v16h-16zm32 0h16v16h-16zm32 0h16v16h-16zm0-16v-16h16v16zm32-16h16v16h-16zm0-16v-16h16v16zm0-32v-16h16v16zm-176-48v16h-16v-16zm-16 128h16v16h-16zm192 16v-16h16v16zm0 0" fill="url(#d)"/></svg>