<svg height="480pt" viewBox="0 0 480 480" width="480pt" xmlns="http://www.w3.org/2000/svg" xmlns:xlink="http://www.w3.org/1999/xlink"><linearGradient id="a"><stop offset="0" stop-color="#fff200"/><stop offset="1" stop-color="#cd118c"/></linearGradient><linearGradient id="b" gradientUnits="userSpaceOnUse" x1="19.928" x2="459.928" xlink:href="#a" y1="452.072" y2="28.072"/><linearGradient id="c" gradientUnits="userSpaceOnUse" x1="-17.544" x2="422.456" xlink:href="#a" y1="413.192" y2="-10.808"/><linearGradient id="d" gradientUnits="userSpaceOnUse" x1="6.296" x2="446.296" xlink:href="#a" y1="437.928" y2="13.928"/><linearGradient id="e" gradientUnits="userSpaceOnUse" x1="35.912" x2="475.912" xlink:href="#a" y1="468.664" y2="44.664"/><linearGradient id="f" gradientUnits="userSpaceOnUse" x1="55.896" x2="495.896" xlink:href="#a" y1="489.408" y2="65.408"/><path d="m240 0c-132.546875 0-240 107.453125-240 240s107.453125 240 240 240 240-107.453125 240-240c-.148438-132.484375-107.515625-239.851562-240-240zm0 464c-123.710938 0-224-100.289062-224-224s100.289062-224 224-224 224 100.289062 224 224c-.140625 123.652344-100.347656 223.859375-224 224zm0 0" fill="url(#b)"/><path d="m120 88v304h240v-235.3125l-68.6875-68.6875zm176 27.3125 36.6875 36.6875h-28.6875c-4.417969 0-8-3.582031-8-8zm-160 260.6875v-272h144v40c0 13.253906 10.746094 24 24 24h40v208zm0 0" fill="url(#b)"/><path d="m160 184h104v16h-104zm0 0" fill="url(#c)"/><path d="m160 224h120v16h-120zm0 0" fill="url(#d)"/><path d="m160 264h160v16h-160zm0 0" fill="url(#e)"/><path d="m160 304h160v16h-160zm0 0" fill="url(#f)"/></svg>