<svg height="480pt" viewBox="0 0 480 480" width="480pt" xmlns="http://www.w3.org/2000/svg" xmlns:xlink="http://www.w3.org/1999/xlink"><linearGradient id="a"><stop offset="0" stop-color="#fff200"/><stop offset="1" stop-color="#cd118c"/></linearGradient><linearGradient id="b" gradientUnits="userSpaceOnUse" x1="95.624" x2="391.624" xlink:href="#a" y1="450.704" y2="18.704"/><linearGradient id="c" gradientUnits="userSpaceOnUse" x1="61.904" x2="357.904" xlink:href="#a" y1="427.6" y2="-4.4"/><path d="m240 0c-132.546875 0-240 107.453125-240 240s107.453125 240 240 240 240-107.453125 240-240c-.148438-132.484375-107.515625-239.851562-240-240zm0 464c-123.710938 0-224-100.289062-224-224s100.289062-224 224-224 224 100.289062 224 224c-.140625 123.652344-100.347656 223.859375-224 224zm0 0" fill="url(#b)"/><path d="m375.390625 100.9375c-1.238281-2.988281-4.15625-4.9375-7.390625-4.9375h-208c-4.417969 0-8 3.582031-8 8v16h-24c-4.417969 0-8 3.582031-8 8v88c0 4.417969 3.582031 8 8 8v168c0 4.417969 3.582031 8 8 8h24c4.417969 0 8-3.582031 8-8v-168h120c4.417969 0 8-3.582031 8-8v-24h72c3.234375 0 6.152344-1.949219 7.390625-4.9375s.550781-6.429688-1.734375-8.71875l-34.34375-34.34375 34.34375-34.34375c2.289062-2.289062 2.972656-5.730469 1.734375-8.71875zm-223.390625 283.0625h-8v-160h8zm128-176h-144v-72h16v48c0 4.417969 3.582031 8 8 8h120zm42.34375-69.65625c-3.121094 3.125-3.121094 8.1875 0 11.3125l26.34375 26.34375h-180.6875v-64h180.6875zm0 0" fill="url(#c)"/></svg>