<svg height="480pt" viewBox="0 0 480 480" width="480pt" xmlns="http://www.w3.org/2000/svg" xmlns:xlink="http://www.w3.org/1999/xlink"><linearGradient id="a" gradientUnits="userSpaceOnUse" x1="39.592" x2="447.592" y1="432.552" y2="40.552"><stop offset="0" stop-color="#fff200"/><stop offset="1" stop-color="#cd118c"/></linearGradient><g fill="url(#a)"><path d="m240 0c-132.546875 0-240 107.453125-240 240s107.453125 240 240 240 240-107.453125 240-240c-.148438-132.484375-107.515625-239.851562-240-240zm0 464c-123.710938 0-224-100.289062-224-224s100.289062-224 224-224 224 100.289062 224 224c-.140625 123.652344-100.347656 223.859375-224 224zm0 0"/><path d="m375.761719 160.800781-56.5625-56.570312-39.199219 39.203125v-55.433594h-80v55.433594l-39.199219-39.203125-56.5625 56.570312 39.203125 39.199219h-55.441406v80h55.433594l-39.203125 39.199219 56.570312 56.570312 39.199219-39.203125v55.433594h80v-55.433594l39.199219 39.203125 56.5625-56.570312-39.203125-39.199219h55.441406v-80h-55.433594zm.238281 55.199219v48h-51.199219l-1.890625 5.328125c-1.023437 2.902344-2.207031 5.746094-3.542968 8.519531l-2.398438 5.113282 36.238281 36.230468-34.007812 33.953125-36.222657-36.234375-5.105468 2.402344c-2.777344 1.328125-5.625 2.507812-8.527344 3.542969l-5.34375 1.945312v51.199219h-48v-51.199219l-5.335938-1.890625c-2.902343-1.03125-5.75-2.214844-8.527343-3.542968l-5.105469-2.398438-36.230469 36.175781-33.9375-33.945312 36.242188-36.230469-2.441407-5.113281c-1.335937-2.773438-2.519531-5.617188-3.542968-8.519531l-1.921875-5.335938h-51.199219v-48h51.199219l1.890625-5.328125c1.023437-2.902344 2.207031-5.746094 3.542968-8.519531l2.4375-5.113282-36.207031-36.238281 33.9375-33.945312 36.222657 36.234375 5.105468-2.402344c2.785156-1.328125 5.636719-2.507812 8.542969-3.542969l5.328125-1.945312v-51.199219h48v51.199219l5.320312 1.898437c2.90625 1.03125 5.757813 2.214844 8.542969 3.542969l5.105469 2.398437 36.230469-36.183593 33.9375 33.945312-36.242188 36.230469 2.402344 5.113281c1.335937 2.773438 2.515625 5.617188 3.542969 8.519531l1.960937 5.335938zm0 0"/><path d="m240 176c-35.347656 0-64 28.652344-64 64s28.652344 64 64 64 64-28.652344 64-64c-.039062-35.328125-28.671875-63.960938-64-64zm0 112c-26.507812 0-48-21.492188-48-48s21.492188-48 48-48 48 21.492188 48 48c-.027344 26.5-21.5 47.972656-48 48zm0 0"/></g></svg>