<svg height="480pt" viewBox="0 0 480 480" width="480pt" xmlns="http://www.w3.org/2000/svg" xmlns:xlink="http://www.w3.org/1999/xlink"><linearGradient id="a"><stop offset="0" stop-color="#fff200"/><stop offset="1" stop-color="#cd118c"/></linearGradient><linearGradient id="b" gradientUnits="userSpaceOnUse" x1="43.4" x2="459.4" xlink:href="#a" y1="444.16" y2="12.16"/><linearGradient id="c" gradientUnits="userSpaceOnUse" x1="47.24" x2="463.24" xlink:href="#a" y1="447.864" y2="15.864"/><path d="m240 0c-132.546875 0-240 107.453125-240 240s107.453125 240 240 240 240-107.453125 240-240c-.148438-132.484375-107.515625-239.851562-240-240zm0 464c-123.710938 0-224-100.289062-224-224s100.289062-224 224-224 224 100.289062 224 224c-.140625 123.652344-100.347656 223.859375-224 224zm0 0" fill="url(#b)"/><path d="m384 120h-92.40625c9.597656-14.679688 9.832031-32.457031-.65625-42.9375-10.777344-10.789062-29.296875-10.292969-44.210938.113281-5.421874-6.726562-12.785156-11.625-21.085937-14.023437-7.261719-2.09375-15.058594-1.199219-21.65625 2.488281-15.464844 8.976563-18.855469 31.199219-7.695313 50.703125.742188 1.289062 1.597657 2.457031 2.496094 3.65625h-102.785156c-4.417969 0-8 3.582031-8 8v80c0 4.417969 3.582031 8 8 8h8v168c0 4.417969 3.582031 8 8 8h256c4.417969 0 8-3.582031 8-8v-168h8c4.417969 0 8-3.582031 8-8v-80c0-4.417969-3.582031-8-8-8zm-104.375-31.625c6.128906 6.128906 3.527344 19.089844-5.679688 28.289062-1.210937 1.210938-2.507812 2.324219-3.890624 3.335938h-13.933594c3.085937-9.5 2.621094-19.792969-1.304688-28.976562 8.757813-6.664063 19.421875-8.03125 24.808594-2.648438zm-31.625 111.625h-16v-64h16zm-36-120.511719c2.925781-1.542969 6.34375-1.859375 9.503906-.878906 6.902344 2.273437 12.6875 7.074219 16.199219 13.4375l.410156.800781c5.6875 10.25 5.261719 22.089844-.625 27.160156h-15.753906c-4.839844-2.769531-8.847656-6.796874-11.589844-11.65625-6.480469-11.304687-5.617187-24.519531 1.855469-28.863281zm-108 56.511719h112v64h-112zm16 240v-160h96v160zm112 0v-160h16v160zm128 0h-96v-160h96zm16-176h-112v-64h112zm0 0" fill="url(#c)"/></svg>