<svg height="480pt" viewBox="0 0 480 480" width="480pt" xmlns="http://www.w3.org/2000/svg" xmlns:xlink="http://www.w3.org/1999/xlink"><linearGradient id="a"><stop offset="0" stop-color="#fff200"/><stop offset="1" stop-color="#cd118c"/></linearGradient><linearGradient id="b" gradientUnits="userSpaceOnUse" x1="80.304" x2="392.304" xlink:href="#a" y1="424.264" y2="64.264"/><linearGradient id="c" gradientUnits="userSpaceOnUse" x1="63.44" x2="375.44" xlink:href="#a" y1="409.648" y2="49.648"/><path d="m240 0c-132.546875 0-240 107.453125-240 240s107.453125 240 240 240 240-107.453125 240-240c-.148438-132.484375-107.515625-239.851562-240-240zm0 464c-123.710938 0-224-100.289062-224-224s100.289062-224 224-224 224 100.289062 224 224c-.140625 123.652344-100.347656 223.859375-224 224zm0 0" fill="url(#b)"/><path d="m312 112c-28.710938-.117188-55.636719 13.90625-72 37.496094-16.363281-23.589844-43.289062-37.613282-72-37.496094-48.578125.058594-87.941406 39.421875-88 88 0 99.832031 150.089844 174.734375 156.472656 177.871094l3.527344 1.738281 3.527344-1.738281c6.382812-3.136719 156.472656-78.039063 156.472656-177.871094-.058594-48.578125-39.421875-87.941406-88-88zm-72 249.695312c-22.449219-11.816406-144-79.605468-144-161.695312-.011719-33.582031 23.210938-62.707031 55.953125-70.175781s66.296875 8.707031 80.847656 38.976562l7.199219 14.917969 7.199219-14.917969c14.550781-30.269531 48.105469-46.445312 80.847656-38.976562s55.964844 36.59375 55.953125 70.175781c0 82-121.558594 149.871094-144 161.695312zm0 0" fill="url(#c)"/></svg>