<svg height="480pt" viewBox="0 0 480 480" width="480pt" xmlns="http://www.w3.org/2000/svg" xmlns:xlink="http://www.w3.org/1999/xlink"><linearGradient id="a"><stop offset="0" stop-color="#fff200"/><stop offset="1" stop-color="#cd118c"/></linearGradient><linearGradient id="b" gradientUnits="userSpaceOnUse" x1="46.08" x2="446.08" xlink:href="#a" y1="430.04" y2="38.04"/><linearGradient id="c" gradientUnits="userSpaceOnUse" x1="39.56" x2="439.56" xlink:href="#a" y1="423.384" y2="31.384"/><linearGradient id="d" gradientUnits="userSpaceOnUse" x1="51.496" x2="451.496" xlink:href="#a" y1="435.568" y2="43.568"/><linearGradient id="e" gradientUnits="userSpaceOnUse" x1="51.888" x2="451.888" xlink:href="#a" y1="435.968" y2="43.968"/><path d="m240 0c-132.546875 0-240 107.453125-240 240s107.453125 240 240 240 240-107.453125 240-240c-.148438-132.484375-107.515625-239.851562-240-240zm0 464c-123.710938 0-224-100.289062-224-224s100.289062-224 224-224 224 100.289062 224 224c-.140625 123.652344-100.347656 223.859375-224 224zm0 0" fill="url(#b)"/><path d="m298.113281 98c-21.542969.011719-41.949219 9.667969-55.613281 26.320312-13.667969 16.652344-19.160156 38.550782-14.972656 59.679688l-127.40625 127.433594 67.878906 67.878906 33.9375-33.9375-45.25-45.253906-11.3125 11.3125 33.9375 33.941406-11.3125 11.3125-45.257812-45.253906 122.53125-122.523438-1.21875-4.46875c-6.117188-23.027344 3.003906-47.40625 22.734374-60.761718 19.734376-13.355469 45.757813-12.761719 64.859376 1.480468l-90.113282 90.105469 5.65625 5.65625c8.917969 8.964844 20.070313 15.378906 32.304688 18.582031 27.050781 7.3125 55.886718-1.730468 73.914062-23.183594 18.027344-21.457031 21.972656-51.417968 10.105469-76.804687-11.863281-25.386719-37.382813-41.585937-65.402344-41.515625zm39.589844 111.601562c-14.171875 14.121094-34.800781 19.609376-54.117187 14.398438-6.882813-1.78125-13.34375-4.898438-19.019532-9.175781l78.402344-78.398438c16.667969 22.292969 14.429688 53.449219-5.257812 73.132813zm0 0" fill="url(#c)"/><path d="m201.945312 254.855469 33.933594 33.945312 33.945313-33.953125-33.945313-33.9375zm33.933594 11.320312-11.3125-11.320312 11.3125-11.3125 11.320313 11.3125zm0 0" fill="url(#d)"/><path d="m162.34375 294.464844 33.9375 33.933594 33.941406-33.933594-33.941406-33.945313zm33.9375 11.3125-11.3125-11.3125 11.3125-11.3125 11.320312 11.3125zm0 0" fill="url(#e)"/></svg>