<svg height="480pt" viewBox="0 0 480 480" width="480pt" xmlns="http://www.w3.org/2000/svg" xmlns:xlink="http://www.w3.org/1999/xlink"><linearGradient id="a"><stop offset="0" stop-color="#fff200"/><stop offset="1" stop-color="#cd118c"/></linearGradient><linearGradient id="b" gradientUnits="userSpaceOnUse" x1="21.488" x2="477.488" xlink:href="#a" y1="470.016" y2="-9.984"/><linearGradient id="c" gradientUnits="userSpaceOnUse" x1="23.88" x2="479.88" xlink:href="#a" y1="472.28" y2="-7.72"/><linearGradient id="d" gradientUnits="userSpaceOnUse" x1="-3.64" x2="452.36" xlink:href="#a" y1="446.144" y2="-33.856"/><linearGradient id="e" gradientUnits="userSpaceOnUse" x1="22.328" x2="478.328" xlink:href="#a" y1="470.816" y2="-9.184"/><linearGradient id="f" gradientUnits="userSpaceOnUse" x1="19.384" x2="475.384" xlink:href="#a" y1="468.016" y2="-11.984"/><linearGradient id="g" gradientUnits="userSpaceOnUse" x1="69.848" x2="525.848" xlink:href="#a" y1="515.952" y2="35.952"/><linearGradient id="h" gradientUnits="userSpaceOnUse" x1="22.752" x2="478.752" xlink:href="#a" y1="471.208" y2="-8.792"/><linearGradient id="i" gradientUnits="userSpaceOnUse" x1="73.208" x2="529.208" xlink:href="#a" y1="519.152" y2="39.152"/><path d="m240 0c-132.546875 0-240 107.453125-240 240s107.453125 240 240 240 240-107.453125 240-240c-.148438-132.484375-107.515625-239.851562-240-240zm0 464c-123.710938 0-224-100.289062-224-224s100.289062-224 224-224 224 100.289062 224 224c-.140625 123.652344-100.347656 223.859375-224 224zm0 0" fill="url(#b)"/><path d="m152 128h-48v-8h-16v224c-.011719 10.613281 4.199219 20.792969 11.703125 28.296875s17.683594 11.714844 28.296875 11.703125h240c13.253906 0 24-10.746094 24-24v-264h-240zm-24 240c-6.367188.011719-12.480469-2.511719-16.984375-7.015625s-7.027344-10.617187-7.015625-16.984375v-200h48v200c0 13.253906-10.746094 24-24 24zm40-256h208v248c0 4.417969-3.582031 8-8 8h-208c5.203125-6.917969 8.011719-15.34375 8-24zm0 0" fill="url(#c)"/><path d="m360 128h-176v56h176zm-16 40h-144v-24h144zm0 0" fill="url(#d)"/><path d="m184 200h176v16h-176zm0 0" fill="url(#e)"/><path d="m184 232h104v16h-104zm0 0" fill="url(#f)"/><path d="m304 232h56v16h-56zm0 0" fill="url(#g)"/><path d="m184 264h56v16h-56zm0 0" fill="url(#h)"/><path d="m256 264h104v16h-104zm0 0" fill="url(#i)"/></svg>