<svg height="480pt" viewBox="0 0 480 480" width="480pt" xmlns="http://www.w3.org/2000/svg" xmlns:xlink="http://www.w3.org/1999/xlink"><linearGradient id="a"><stop offset="0" stop-color="#fff200"/><stop offset="1" stop-color="#cd118c"/></linearGradient><linearGradient id="b" gradientUnits="userSpaceOnUse" x1="34.224" x2="442.224" xlink:href="#a" y1="425.6" y2="57.6"/><linearGradient id="c" gradientUnits="userSpaceOnUse" x1="12.192" x2="420.192" xlink:href="#a" y1="401.168" y2="33.168"/><linearGradient id="d" gradientUnits="userSpaceOnUse" x1="2.4" x2="410.4" xlink:href="#a" y1="390.312" y2="22.312"/><linearGradient id="e" gradientUnits="userSpaceOnUse" x1="89.928" x2="497.928" xlink:href="#a" y1="487.36" y2="119.36"/><path d="m240 0c-132.546875 0-240 107.453125-240 240s107.453125 240 240 240 240-107.453125 240-240c-.148438-132.484375-107.515625-239.851562-240-240zm0 464c-123.710938 0-224-100.289062-224-224s100.289062-224 224-224 224 100.289062 224 224c-.140625 123.652344-100.347656 223.859375-224 224zm0 0" fill="url(#b)"/><path d="m240 96c-46.351562 0-80 37.007812-80 88 0 66.824219 71.632812 131.265625 74.6875 133.976562l5.3125 4.726563 5.3125-4.726563c3.054688-2.710937 74.6875-67.152343 74.6875-133.976562 0-50.992188-33.648438-88-80-88zm0 204.96875c-16.222656-16-64-67.199219-64-116.96875 0-42.398438 26.320312-72 64-72s64 29.601562 64 72c0 49.734375-47.777344 100.992188-64 116.96875zm0 0" fill="url(#c)"/><path d="m240 134.0625c-23.160156 0-41.9375 18.777344-41.9375 41.9375s18.777344 41.9375 41.9375 41.9375 41.9375-18.777344 41.9375-41.9375c-.023438-23.152344-18.785156-41.914062-41.9375-41.9375zm0 67.875c-14.324219 0-25.9375-11.613281-25.9375-25.9375s11.613281-25.9375 25.9375-25.9375 25.9375 11.613281 25.9375 25.9375c-.015625 14.320312-11.617188 25.921875-25.9375 25.9375zm0 0" fill="url(#d)"/><path d="m240 328c-6.542969 0-64 .671875-64 24s57.457031 24 64 24 64-.671875 64-24-57.457031-24-64-24zm0 32c-15.953125.941406-31.90625-1.792969-46.632812-8 14.726562-6.207031 30.679687-8.941406 46.632812-8 15.953125-.941406 31.90625 1.792969 46.632812 8-14.726562 6.207031-30.679687 8.941406-46.632812 8zm0 0" fill="url(#e)"/></svg>