<svg height="480pt" viewBox="0 0 480 480" width="480pt" xmlns="http://www.w3.org/2000/svg" xmlns:xlink="http://www.w3.org/1999/xlink"><linearGradient id="a"><stop offset="0" stop-color="#fff200"/><stop offset="1" stop-color="#cd118c"/></linearGradient><linearGradient id="b" gradientUnits="userSpaceOnUse" x1="69.872" x2="445.872" xlink:href="#a" y1="413.752" y2="29.752"/><linearGradient id="c" gradientUnits="userSpaceOnUse" x1="76" x2="452" xlink:href="#a" y1="419.744" y2="35.744"/><linearGradient id="d" gradientUnits="userSpaceOnUse" x1="96.48" x2="472.48" xlink:href="#a" y1="439.8" y2="55.8"/><path d="m240 0c-132.546875 0-240 107.453125-240 240s107.453125 240 240 240 240-107.453125 240-240c-.148438-132.484375-107.515625-239.851562-240-240zm0 464c-123.710938 0-224-100.289062-224-224s100.289062-224 224-224 224 100.289062 224 224c-.140625 123.652344-100.347656 223.859375-224 224zm0 0" fill="url(#b)"/><path d="m320 88h-160v112h-24v192h208v-192h-24zm-144 16h128v96h-16v-88h-96v88h-16zm96 96h-64v-72h64zm56 16v160h-176v-160zm0 0" fill="url(#c)"/><path d="m240 240c-16.09375-.019531-29.6875 11.9375-31.71875 27.90625-2.035156 15.964844 8.132812 30.945312 23.71875 34.957031v49.136719h16v-49.136719c15.585938-4.011719 25.753906-18.992187 23.71875-34.957031-2.03125-15.96875-15.625-27.925781-31.71875-27.90625zm0 48c-8.835938 0-16-7.164062-16-16s7.164062-16 16-16 16 7.164062 16 16-7.164062 16-16 16zm0 0" fill="url(#d)"/></svg>