<svg height="480pt" viewBox="0 0 480 480" width="480pt" xmlns="http://www.w3.org/2000/svg" xmlns:xlink="http://www.w3.org/1999/xlink"><linearGradient id="a"><stop offset="0" stop-color="#fff200"/><stop offset="1" stop-color="#cd118c"/></linearGradient><linearGradient id="b" gradientUnits="userSpaceOnUse" x1="26.568" x2="434.568" xlink:href="#a" y1="465.984" y2="33.984"/><linearGradient id="c" gradientUnits="userSpaceOnUse" x1="27.984" x2="435.984" xlink:href="#a" y1="467.312" y2="35.312"/><linearGradient id="d" gradientUnits="userSpaceOnUse" x1="29.152" x2="437.152" xlink:href="#a" y1="468.424" y2="36.424"/><path d="m240 0c-132.546875 0-240 107.453125-240 240s107.453125 240 240 240 240-107.453125 240-240c-.148438-132.484375-107.515625-239.851562-240-240zm0 464c-123.710938 0-224-100.289062-224-224s100.289062-224 224-224 224 100.289062 224 224c-.140625 123.652344-100.347656 223.859375-224 224zm0 0" fill="url(#b)"/><path d="m288 88c-40.613281-.054688-77.535156 23.570312-94.503906 60.472656-16.96875 36.898438-10.871094 80.304688 15.609375 111.101563l-118.761719 118.769531 11.3125 11.3125 118.769531-118.761719c34.980469 29.972657 85.519531 33.34375 124.171875 8.285157 38.65625-25.054688 56.210938-72.566407 43.132813-116.738282-13.078125-44.167968-53.664063-74.464844-99.730469-74.441406zm0 192c-48.601562 0-88-39.398438-88-88s39.398438-88 88-88 88 39.398438 88 88c-.058594 48.578125-39.421875 87.941406-88 88zm0 0" fill="url(#c)"/><path d="m288 112v16c35.328125.039062 63.960938 28.671875 64 64h16c-.046875-44.164062-35.835938-79.953125-80-80zm0 0" fill="url(#d)"/></svg>