<svg height="480pt" viewBox="0 0 480 480" width="480pt" xmlns="http://www.w3.org/2000/svg" xmlns:xlink="http://www.w3.org/1999/xlink"><linearGradient id="a"><stop offset="0" stop-color="#fff200"/><stop offset="1" stop-color="#cd118c"/></linearGradient><linearGradient id="b" gradientUnits="userSpaceOnUse" x1="58.808" x2="466.808" xlink:href="#a" y1="442.512" y2="-13.488"/><linearGradient id="c" gradientUnits="userSpaceOnUse" x1="48.864" x2="456.864" xlink:href="#a" y1="433.616" y2="-22.384"/><linearGradient id="d" gradientUnits="userSpaceOnUse" x1="114.464" x2="522.464" xlink:href="#a" y1="492.304" y2="36.304"/><path d="m240 0c-132.546875 0-240 107.453125-240 240s107.453125 240 240 240 240-107.453125 240-240c-.148438-132.484375-107.515625-239.851562-240-240zm0 464c-123.710938 0-224-100.289062-224-224s100.289062-224 224-224 224 100.289062 224 224c-.140625 123.652344-100.347656 223.859375-224 224zm0 0" fill="url(#b)"/><path d="m336 88h-192c-4.417969 0-8 3.582031-8 8v288c0 4.417969 3.582031 8 8 8h192c4.417969 0 8-3.582031 8-8v-288c0-4.417969-3.582031-8-8-8zm-8 288h-176v-272h176zm0 0" fill="url(#b)"/><path d="m168 328h144c4.417969 0 8-3.582031 8-8v-200c0-4.417969-3.582031-8-8-8h-144c-4.417969 0-8 3.582031-8 8v200c0 4.417969 3.582031 8 8 8zm8-200h128v184h-128zm0 0" fill="url(#c)"/><path d="m256 352c0 8.835938-7.164062 16-16 16s-16-7.164062-16-16 7.164062-16 16-16 16 7.164062 16 16zm0 0" fill="url(#d)"/></svg>