<svg height="480pt" viewBox="0 0 480 480" width="480pt" xmlns="http://www.w3.org/2000/svg" xmlns:xlink="http://www.w3.org/1999/xlink"><linearGradient id="a"><stop offset="0" stop-color="#fff200"/><stop offset="1" stop-color="#cd118c"/></linearGradient><linearGradient id="b" gradientUnits="userSpaceOnUse" x1="23.264" x2="447.264" xlink:href="#a" y1="489.456" y2="1.456"/><linearGradient id="c" gradientUnits="userSpaceOnUse" x1="7.416" x2="431.416" xlink:href="#a" y1="475.688" y2="-12.312"/><path d="m240 0c-132.546875 0-240 107.453125-240 240s107.453125 240 240 240 240-107.453125 240-240c-.148438-132.484375-107.515625-239.851562-240-240zm0 464c-123.710938 0-224-100.289062-224-224s100.289062-224 224-224 224 100.289062 224 224c-.140625 123.652344-100.347656 223.859375-224 224zm0 0" fill="url(#b)"/><path d="m88 304h128v16h-48v48h144v-48h-48v-16h128v-192h-304zm208 32v16h-112v-16zm-48-16h-16v-16h16zm-144-192h272v160h-272zm0 0" fill="url(#c)"/></svg>