<svg height="480pt" viewBox="0 0 480 480" width="480pt" xmlns="http://www.w3.org/2000/svg" xmlns:xlink="http://www.w3.org/1999/xlink"><linearGradient id="a"><stop offset="0" stop-color="#fff200"/><stop offset="1" stop-color="#cd118c"/></linearGradient><linearGradient id="b" gradientUnits="userSpaceOnUse" x1="4" x2="484" xlink:href="#a" y1="476" y2="-4"/><linearGradient id="c" gradientUnits="userSpaceOnUse" x1="-22" x2="458" xlink:href="#a" y1="450" y2="-30"/><path d="m240 0c-132.546875 0-240 107.453125-240 240s107.453125 240 240 240 240-107.453125 240-240c-.148438-132.484375-107.515625-239.851562-240-240zm0 464c-123.710938 0-224-100.289062-224-224s100.289062-224 224-224 224 100.289062 224 224c-.140625 123.652344-100.347656 223.859375-224 224zm0 0" fill="url(#b)"/><path d="m394.585938 232.433594-304-104c-3.195313-1.089844-6.730469-.0625-8.835938 2.574218-2.105469 2.636719-2.332031 6.308594-.566406 9.183594l61.425781 99.808594-61.425781 99.808594c-1.765625 2.875-1.539063 6.546875.566406 9.183594 2.105469 2.636718 5.640625 3.664062 8.835938 2.574218l304-104c3.230468-1.105468 5.40625-4.148437 5.40625-7.566406s-2.175782-6.460938-5.40625-7.566406zm-288.089844-81.648438 237.398437 81.214844h-187.421875zm49.976562 97.214844h187.421875l-237.398437 81.214844zm0 0" fill="url(#c)"/></svg>