<svg height="480pt" viewBox="0 0 480 480" width="480pt" xmlns="http://www.w3.org/2000/svg" xmlns:xlink="http://www.w3.org/1999/xlink"><linearGradient id="a"><stop offset="0" stop-color="#fff200"/><stop offset="1" stop-color="#cd118c"/></linearGradient><linearGradient id="b" gradientUnits="userSpaceOnUse" x1="57.576" x2="465.576" xlink:href="#a" y1="426.008" y2="10.008"/><linearGradient id="c" gradientUnits="userSpaceOnUse" x1="90.192" x2="498.192" xlink:href="#a" y1="458" y2="42"/><linearGradient id="d" gradientUnits="userSpaceOnUse" x1="13.048" x2="421.048" xlink:href="#a" y1="382.336" y2="-33.664"/><path d="m240 0c-132.546875 0-240 107.453125-240 240s107.453125 240 240 240 240-107.453125 240-240c-.148438-132.484375-107.515625-239.851562-240-240zm0 464c-123.710938 0-224-100.289062-224-224s100.289062-224 224-224 224 100.289062 224 224c-.140625 123.652344-100.347656 223.859375-224 224zm0 0" fill="url(#b)"/><path d="m336 88h-64c-4.417969 0-8 3.582031-8 8v288c0 4.417969 3.582031 8 8 8h64c4.417969 0 8-3.582031 8-8v-288c0-4.417969-3.582031-8-8-8zm-8 288h-48v-24h24v-16h-24v-16h24v-16h-24v-16h24v-16h-24v-24h40v-16h-40v-24h24v-16h-24v-16h24v-16h-24v-16h24v-16h-24v-24h48zm0 0" fill="url(#c)"/><path d="m208 128h-16v-16c0-13.253906-10.746094-24-24-24h-16c-13.253906 0-24 10.746094-24 24v16h-8v16h8v192.335938c0 1.246093.292969 2.476562.855469 3.59375l24 47.671874c1.359375 2.695313 4.125 4.398438 7.144531 4.398438 3.03125 0 5.796875-1.714844 7.152344-4.425781l24-48c.554687-1.109375.847656-2.332031.847656-3.574219v-192h8v40h16v-48c0-4.417969-3.582031-8-8-8zm-64-16c0-4.417969 3.582031-8 8-8h16c4.417969 0 8 3.582031 8 8v16h-32zm16 254.160156-11.199219-22.160156h22.238281zm16-38.160156h-32v-184h32zm0 0" fill="url(#d)"/></svg>