<svg height="480pt" viewBox="0 0 480 480" width="480pt" xmlns="http://www.w3.org/2000/svg" xmlns:xlink="http://www.w3.org/1999/xlink"><linearGradient id="a"><stop offset="0" stop-color="#fff200"/><stop offset="1" stop-color="#cd118c"/></linearGradient><linearGradient id="b" gradientUnits="userSpaceOnUse" x1="77.352" x2="421.352" xlink:href="#a" y1="444.256" y2="12.256"/><linearGradient id="c" gradientUnits="userSpaceOnUse" x1="78.424" x2="422.424" xlink:href="#a" y1="445.12" y2="13.12"/><path d="m240 0c-132.546875 0-240 107.453125-240 240s107.453125 240 240 240 240-107.453125 240-240c-.148438-132.484375-107.515625-239.851562-240-240zm0 464c-123.710938 0-224-100.289062-224-224s100.289062-224 224-224 224 100.289062 224 224c-.140625 123.652344-100.347656 223.859375-224 224zm0 0" fill="url(#b)"/><path d="m376 99.800781c-11.1875-11.1875-26.585938-17.121093-42.386719-16.332031s-30.53125 8.222656-40.550781 20.46875l-17.328125 21.175781c-2.601563 3.175781-2.371094 7.8125.53125 10.71875l5.664063 5.664063-22.632813 22.625-5.65625-5.65625c-15.632813-15.59375-40.9375-15.59375-56.570313 0l-22.621093 22.625c-3.125 3.121094-3.125 8.1875 0 11.308594l33.941406 33.945312-100.847656 100.855469c-1.222657 1.226562-2.019531 2.8125-2.261719 4.527343l-5.65625 39.601563c-.328125 2.296875.355469 4.621094 1.875 6.371094s3.726562 2.757812 6.042969 2.757812c.382812 0 .761719-.027343 1.136719-.082031l39.601562-5.65625c1.714844-.242188 3.300781-1.039062 4.527344-2.261719l100.847656-100.855469 33.945312 33.933594c3.121094 3.125 8.1875 3.125 11.308594 0l22.625-22.625c15.621094-15.617187 15.621094-40.945312 0-56.566406l-5.65625-5.65625 22.625-22.632812 5.664063 5.65625c2.90625 2.902343 7.53125 3.132812 10.710937.535156l21.191406-17.316406c12.242188-10.023438 19.671876-24.75 20.460938-40.550782.785156-15.796875-5.148438-31.191406-16.332031-42.378906zm-133.65625 160.488281-98.96875 98.957032-26.398438 3.769531 3.765626-26.398437 98.976562-98.960938 11.3125 11.3125zm123.59375-85.746093-15.539062 12.738281-6.191407-6.191406c-3.175781-3-8.140625-3-11.320312 0l-33.933594 33.941406c-3.125 3.125-3.125 8.1875 0 11.3125l11.3125 11.3125c9.371094 9.371094 9.371094 24.570312 0 33.945312l-16.96875 16.964844-101.863281-101.824218 16.964844-16.964844c9.375-9.375 24.574218-9.375 33.945312 0l11.3125 11.3125c3.125 3.121094 8.1875 3.121094 11.3125 0l33.941406-33.9375c1.503906-1.5 2.347656-3.535156 2.347656-5.660156s-.84375-4.160157-2.347656-5.660157l-6.191406-6.230469 12.738281-15.578124c7.15625-8.746094 17.679688-14.058594 28.96875-14.621094 11.289063-.5625 22.289063 3.675781 30.277344 11.667968l4.183594 4.195313c7.992187 7.988281 12.230469 18.988281 11.667969 30.273437-.5625 11.285157-5.875 21.808594-14.617188 28.964844zm0 0" fill="url(#c)"/></svg>