<svg height="480pt" viewBox="0 0 480 480" width="480pt" xmlns="http://www.w3.org/2000/svg" xmlns:xlink="http://www.w3.org/1999/xlink"><linearGradient id="a"><stop offset="0" stop-color="#fff200"/><stop offset="1" stop-color="#cd118c"/></linearGradient><linearGradient id="b" gradientUnits="userSpaceOnUse" x1="-31.152" x2="456.848" xlink:href="#a" y1="488.928" y2="40.928"/><linearGradient id="c" gradientUnits="userSpaceOnUse" x1="-41.8" x2="446.2" xlink:href="#a" y1="477.328" y2="29.328"/><linearGradient id="d" gradientUnits="userSpaceOnUse" x1="13.776" x2="501.776" xlink:href="#a" y1="537.864" y2="89.864"/><path d="m240 0c-132.546875 0-240 107.453125-240 240s107.453125 240 240 240 240-107.453125 240-240c-.148438-132.484375-107.515625-239.851562-240-240zm0 464c-123.710938 0-224-100.289062-224-224s100.289062-224 224-224 224 100.289062 224 224c-.140625 123.652344-100.347656 223.859375-224 224zm0 0" fill="url(#b)"/><path d="m304 208.472656v-16.472656h8c2.402344 0 4.679688-1.078125 6.199219-2.941406 1.519531-1.859375 2.121093-4.304688 1.640625-6.660156l-7.679688-38.398438 7.679688-38.398438c.480468-2.355468-.121094-4.800781-1.640625-6.660156-1.519531-1.863281-3.796875-2.941406-6.199219-2.941406h-192c-2.402344 0-4.679688 1.078125-6.199219 2.941406-1.519531 1.859375-2.121093 4.304688-1.640625 6.660156l7.679688 38.398438-7.679688 38.398438c-.480468 2.355468.121094 4.800781 1.640625 6.660156 1.519531 1.863281 3.796875 2.941406 6.199219 2.941406h8v200c0 2.882812 1.550781 5.542969 4.0625 6.960938 2.507812 1.421874 5.585938 1.378906 8.058594-.105469l75.878906-45.527344 75.878906 45.527344c2.472656 1.484375 5.550782 1.527343 8.058594.105469 2.511719-1.417969 4.0625-4.078126 4.0625-6.960938v-40.472656c36.339844-4.179688 63.769531-34.949219 63.769531-71.527344s-27.429687-67.347656-63.769531-71.527344zm-174.238281-96.472656h172.476562l-6.078125 30.398438c-.214844 1.035156-.214844 2.101562 0 3.136718l6.078125 30.402344h-172.476562l6.078125-30.402344c.214844-1.035156.214844-2.101562 0-3.136718zm158.238281 265.871094-67.878906-40.726563c-2.535156-1.523437-5.707032-1.523437-8.242188 0l-67.878906 40.726563v-185.871094h144v16.441406c-1.769531.199219-3.503906.511719-5.238281.796875-.441407.082031-.890625.121094-1.328125.21875-2.265625.464844-4.488282 1.039063-6.664063 1.710938-.632812.199219-1.226562.449219-1.839843.664062-1.546876.519531-3.082032 1.046875-4.570313 1.671875-.800781.335938-1.597656.726563-2.335937 1.089844-1.269532.582031-2.542969 1.160156-3.765626 1.8125-.800781.441406-1.601562.9375-2.402343 1.410156-1.136719.65625-2.261719 1.320313-3.351563 2.039063-.800781.527343-1.601562 1.105469-2.398437 1.671875-1.035157.738281-2.066407 1.488281-3.050781 2.28125-.796876.617187-1.511719 1.261718-2.246094 1.910156-.945313.800781-1.878906 1.648438-2.777344 2.519531-.710938.691407-1.398438 1.402344-2.085938 2.121094-.855468.898437-1.699218 1.808594-2.503906 2.753906-.648437.75-1.28125 1.519531-1.90625 2.300781-.765625.976563-1.511718 1.976563-2.230468 2.992188-.578126.800781-1.144532 1.601562-1.6875 2.464844-.679688 1.050781-1.320313 2.121094-1.953126 3.199218-.496093.867188-.992187 1.722657-1.457031 2.601563-.589843 1.128906-1.128906 2.28125-1.65625 3.449219-.414062.886718-.796875 1.773437-1.199219 2.6875-.496093 1.207031-.925781 2.449218-1.359374 3.695312-.3125.910156-.648438 1.808594-.929688 2.734375-.398438 1.320313-.710938 2.671875-1.039062 4-.207032.890625-.457032 1.761719-.640626 2.664063-.292968 1.523437-.503906 3.074218-.703124 4.625-.105469.800781-.246094 1.519531-.328126 2.296875-.222656 2.375-.351562 4.777343-.351562 7.175781s.128906 4.800781.359375 7.113281c.082031.796875.226563 1.527344.328125 2.292969.199219 1.554688.410156 3.105469.703125 4.625.183594.90625.433594 1.777344.640625 2.664062.328125 1.351563.640625 2.703126 1.039062 4 .28125.929688.617188 1.824219.929688 2.738282.433594 1.246094.863281 2.488281 1.359375 3.695312.367187.910156.800781 1.800782 1.199219 2.6875.53125 1.167969 1.066406 2.320313 1.65625 3.449219.464844.878906.960937 1.734375 1.457031 2.597656.632813 1.089844 1.273437 2.160157 1.953125 3.199219.542969.800781 1.109375 1.65625 1.6875 2.464844.71875 1.019531 1.464844 2.015625 2.230469 2.992187.625.800781 1.257812 1.550781 1.90625 2.304688.796875.945312 1.648437 1.855469 2.503906 2.75.6875.722656 1.375 1.433593 2.085937 2.121093.898438.871094 1.832032 1.703126 2.777344 2.519532.734375.648437 1.472656 1.296875 2.246094 1.914062.984375.800782 2.015625 1.542969 3.050781 2.277344.796875.570312 1.550781 1.144531 2.398438 1.671875 1.089843.722656 2.214843 1.386719 3.351562 2.042969.800781.472656 1.601563.96875 2.402344 1.40625 1.222656.65625 2.496094 1.234375 3.765625 1.816406.800781.359375 1.535156.753906 2.335938 1.089844 1.488281.621094 3.023437 1.152344 4.570312 1.671875.613281.214843 1.207031.460937 1.839844.664062 2.175781.671875 4.398437 1.246094 6.664062 1.710938.4375.09375.886719.136719 1.328125.214843 1.734375.320313 3.46875.632813 5.238281.800782zm8-41.871094c-30.929688 0-56-25.070312-56-56s25.070312-56 56-56 56 25.070312 56 56c-.035156 30.914062-25.085938 55.964844-56 56zm0 0" fill="url(#c)"/><path d="m304 240c0-2.773438-1.433594-5.347656-3.792969-6.808594-2.355469-1.457031-5.300781-1.589844-7.78125-.351562l-16 8 7.148438 14.320312 4.425781-2.214844v51.054688h-8v16h32v-16h-8zm0 0" fill="url(#d)"/></svg>