<svg height="480pt" viewBox="0 0 480 480" width="480pt" xmlns="http://www.w3.org/2000/svg" xmlns:xlink="http://www.w3.org/1999/xlink"><linearGradient id="a"><stop offset="0" stop-color="#fff200"/><stop offset="1" stop-color="#cd118c"/></linearGradient><linearGradient id="b" gradientUnits="userSpaceOnUse" x1="43.096" x2="403.096" xlink:href="#a" y1="419.4" y2="91.4"/><linearGradient id="c" gradientUnits="userSpaceOnUse" x1="35.016" x2="395.016" xlink:href="#a" y1="410.528" y2="82.528"/><linearGradient id="d" gradientUnits="userSpaceOnUse" x1="-16.548858" x2="343.451142" xlink:href="#a" y1="353.925261" y2="25.925261"/><linearGradient id="e" gradientUnits="userSpaceOnUse" x1="66.920635" x2="426.920635" xlink:href="#a" y1="445.513613" y2="117.513613"/><path d="m240 0c-132.546875 0-240 107.453125-240 240s107.453125 240 240 240 240-107.453125 240-240c-.148438-132.484375-107.515625-239.851562-240-240zm0 464c-123.710938 0-224-100.289062-224-224s100.289062-224 224-224 224 100.289062 224 224c-.140625 123.652344-100.347656 223.859375-224 224zm0 0" fill="url(#b)"/><path d="m374.472656 121.960938-5.65625-5.6875-128.617187 128.613281-128.613281-128.613281-5.65625 5.6875c-33.292969 33.210937-34.539063 86.746093-2.832032 121.472656 31.710938 34.726562 85.136719 38.335937 121.230469 8.191406l4.574219 4.574219-38.398438 38.402343c-17.117187-11.328124-40.03125-7.859374-53.03125 8.027344-13 15.886719-11.863281 39.035156 2.632813 53.570313l5.65625 5.746093 94.476562-94.488281 94.441407 94.542969 5.65625-5.742188c14.492187-14.539062 15.628906-37.6875 2.632812-53.574218-13-15.886719-35.914062-19.355469-53.03125-8.027344l-38.402344-38.398438 4.585938-4.578124c15.722656 13.179687 35.601562 20.378906 56.117187 20.320312 35.492188-.117188 67.441407-21.53125 81.039063-54.3125 13.597656-32.785156 6.183594-70.523438-18.804688-95.726562zm-206.3125 134.039062c-27.570312-.121094-52.65625-15.957031-64.621094-40.800781-11.964843-24.839844-8.707031-54.328125 8.390626-75.960938l101.007812 101.019531c-12.6875 10.214844-28.492188 15.769532-44.777344 15.742188zm-21.417968 82.34375c-4.382813-9.175781-2.503907-20.121094 4.6875-27.3125 7.191406-7.191406 18.136718-9.070312 27.3125-4.6875zm165.257812-34.34375c8.242188 0 15.90625 4.226562 20.300781 11.199219 4.394531 6.96875 4.90625 15.707031 1.355469 23.144531l-32-32c3.230469-1.542969 6.765625-2.34375 10.34375-2.34375zm.238281-48c-16.292969.039062-32.109375-5.519531-44.796875-15.742188l101.03125-101.019531c17.09375 21.632813 20.351563 51.121094 8.386719 75.960938-11.960937 24.84375-37.046875 40.679687-64.621094 40.800781zm0 0" fill="url(#c)"/><path d="m106.34375 173.65625 11.3125-11.316406 72 72-11.3125 11.316406zm0 0" fill="url(#d)"/><path d="m290.339844 234.34375 72-72 11.3125 11.316406-72 72zm0 0" fill="url(#e)"/></svg>