<svg height="480pt" viewBox="0 0 480 480" width="480pt" xmlns="http://www.w3.org/2000/svg" xmlns:xlink="http://www.w3.org/1999/xlink"><linearGradient id="a"><stop offset="0" stop-color="#fff200"/><stop offset="1" stop-color="#cd118c"/></linearGradient><linearGradient id="b" gradientUnits="userSpaceOnUse" x1="63.384" x2="455.384" xlink:href="#a" y1="467.08" y2="-36.92"/><linearGradient id="c" gradientUnits="userSpaceOnUse" x1="72.576" x2="464.576" xlink:href="#a" y1="474.224" y2="-29.776"/><path d="m240 0c-132.546875 0-240 107.453125-240 240s107.453125 240 240 240 240-107.453125 240-240c-.148438-132.484375-107.515625-239.851562-240-240zm0 464c-123.710938 0-224-100.289062-224-224s100.289062-224 224-224 224 100.289062 224 224c-.140625 123.652344-100.347656 223.859375-224 224zm0 0" fill="url(#b)"/><path d="m352 175.703125v-91.351563l-224 86.152344v13.496094h-48v112h48v13.496094l224 86.152344v-91.351563c24.492188-12.0625 40.003906-36.996094 40.003906-64.296875s-15.511718-52.234375-40.003906-64.296875zm-256 104.296875v-80h32v80zm240 92.351562-192-73.847656v-117.007812l192-73.847656zm16-86.542968v-91.617188c15.03125 10.410156 23.996094 27.527344 23.996094 45.808594s-8.964844 35.398438-23.996094 45.808594zm0 0" fill="url(#c)"/></svg>