<svg height="480pt" viewBox="0 0 480 480" width="480pt" xmlns="http://www.w3.org/2000/svg" xmlns:xlink="http://www.w3.org/1999/xlink"><linearGradient id="a" gradientUnits="userSpaceOnUse" x1="50.032" x2="418.032" y1="450.616" y2="42.616"><stop offset="0" stop-color="#fff200"/><stop offset="1" stop-color="#cd118c"/></linearGradient><g fill="url(#a)"><path d="m240 0c-132.546875 0-240 107.453125-240 240s107.453125 240 240 240 240-107.453125 240-240c-.148438-132.484375-107.515625-239.851562-240-240zm0 464c-123.710938 0-224-100.289062-224-224s100.289062-224 224-224 224 100.289062 224 224c-.140625 123.652344-100.347656 223.859375-224 224zm0 0"/><path d="m236.855469 53.441406-24 41.597656 13.863281 8-24 41.601563c-12.625 21.773437-14.203125 48.242187-4.246094 71.359375-25.035156 2.925781-47.199218 17.542969-59.753906 39.398438l-24 41.601562-13.863281-8-24 41.601562 166.289062 96 24-41.601562-13.863281-8 24-41.601562c12.640625-21.785157 14.214844-48.269532 4.246094-71.398438 25.035156-2.929688 47.199218-17.542969 59.753906-39.398438l24-41.601562 13.863281 8 24-41.601562zm.425781 351.261719-138.5625-80 8-13.855469 138.5625 80zm114.144531-229.695313-24 41.601563c-11.949219 20.816406-34.59375 33.140625-58.5625 31.871094l-15.550781-.800781 8.441406 13.121093c13.066406 20.125 13.710938 45.890625 1.671875 66.648438l-24 41.597656-110.851562-64 24-41.597656c11.882812-20.886719 34.570312-33.238281 58.5625-31.875l15.550781.800781-8.441406-13.175781c-13.066406-20.125-13.710938-45.890625-1.671875-66.648438l24-41.597656zm21.855469-5.855468-138.5625-80 8-13.855469 138.5625 80zm0 0"/></g></svg>