<svg height="480pt" viewBox="0 0 480 480" width="480pt" xmlns="http://www.w3.org/2000/svg" xmlns:xlink="http://www.w3.org/1999/xlink"><linearGradient id="a"><stop offset="0" stop-color="#fff200"/><stop offset="1" stop-color="#cd118c"/></linearGradient><linearGradient id="b" gradientUnits="userSpaceOnUse" x1="33.12" x2="497.12" xlink:href="#a" y1="432.608" y2=".608"/><linearGradient id="c" gradientUnits="userSpaceOnUse" x1="31.8" x2="495.8" xlink:href="#a" y1="431.192" y2="-.808"/><linearGradient id="d" gradientUnits="userSpaceOnUse" x1="81.96" x2="545.96" xlink:href="#a" y1="485.072" y2="53.072"/><linearGradient id="e" gradientUnits="userSpaceOnUse" x1="5.608" x2="469.608" xlink:href="#a" y1="403.056" y2="-28.944"/><path d="m240 0c-132.546875 0-240 107.453125-240 240s107.453125 240 240 240 240-107.453125 240-240c-.148438-132.484375-107.515625-239.851562-240-240zm0 464c-123.710938 0-224-100.289062-224-224s100.289062-224 224-224 224 100.289062 224 224c-.140625 123.652344-100.347656 223.859375-224 224zm0 0" fill="url(#b)"/><path d="m384 144h-288c-8.835938 0-16 7.164062-16 16v8h-8v176h304v-16h8c8.835938 0 16-7.164062 16-16v-152c0-8.835938-7.164062-16-16-16zm-296 184v-144h272v32h-40c-22.089844 0-40 17.910156-40 40s17.910156 40 40 40h40v32zm272-48h-40c-13.253906 0-24-10.746094-24-24s10.746094-24 24-24h40zm24 32h-8v-144h-280v-8h288zm0 0" fill="url(#c)"/><path d="m344 256c0 8.835938-7.164062 16-16 16s-16-7.164062-16-16 7.164062-16 16-16 16 7.164062 16 16zm0 0" fill="url(#d)"/><path d="m112 288h-16v32h32v-16h-16zm0 0" fill="url(#e)"/></svg>