<svg height="480pt" viewBox="0 0 480 480" width="480pt" xmlns="http://www.w3.org/2000/svg" xmlns:xlink="http://www.w3.org/1999/xlink"><linearGradient id="a" gradientUnits="userSpaceOnUse" x1="88" x2="392" y1="424" y2="56"><stop offset="0" stop-color="#fff200"/><stop offset="1" stop-color="#cd118c"/></linearGradient><g fill="url(#a)"><path d="m240 0c-132.546875 0-240 107.453125-240 240s107.453125 240 240 240 240-107.453125 240-240c-.148438-132.484375-107.515625-239.851562-240-240zm0 464c-123.710938 0-224-100.289062-224-224s100.289062-224 224-224 224 100.289062 224 224c-.140625 123.652344-100.347656 223.859375-224 224zm0 0"/><path d="m240 72c-92.785156 0-168 75.214844-168 168s75.214844 168 168 168 168-75.214844 168-168c-.105469-92.738281-75.261719-167.894531-168-168zm79.816406 160c-.304687-15.863281-1.707031-31.6875-4.191406-47.359375 41.597656 10.398437 68.703125 28.710937 74.878906 47.359375zm-16 0h-55.816406v-55.816406c17.066406.308594 34.082031 1.957031 50.886719 4.929687 2.972656 16.804688 4.621093 33.820313 4.929687 50.886719zm-55.816406-71.816406v-70.6875c18.648438 6.175781 36.984375 33.296875 47.359375 74.878906-15.671875-2.484375-31.496094-3.886719-47.359375-4.191406zm-16-70.6875v70.6875c-15.863281.304687-31.6875 1.707031-47.359375 4.191406 10.375-41.582031 28.710937-68.703125 47.359375-74.878906zm0 86.6875v55.816406h-55.816406c.308594-17.066406 1.957031-34.082031 4.929687-50.886719 16.804688-2.972656 33.820313-4.621093 50.886719-4.929687zm-71.816406 55.816406h-70.6875c6.175781-18.648438 33.296875-36.984375 74.878906-47.359375-2.484375 15.671875-3.886719 31.496094-4.191406 47.359375zm0 16c.304687 15.863281 1.707031 31.6875 4.191406 47.359375-41.597656-10.398437-68.703125-28.710937-74.878906-47.359375zm16 0h55.816406v55.816406c-17.066406-.308594-34.082031-1.957031-50.886719-4.929687-2.972656-16.804688-4.621093-33.820313-4.929687-50.886719zm55.816406 71.816406v70.6875c-18.648438-6.175781-36.984375-33.296875-47.359375-74.878906 15.671875 2.484375 31.496094 3.886719 47.359375 4.191406zm16 70.6875v-70.6875c15.863281-.304687 31.6875-1.707031 47.359375-4.191406-10.375 41.582031-28.710937 68.703125-47.359375 74.878906zm0-86.6875v-55.816406h55.816406c-.308594 17.066406-1.957031 34.082031-4.929687 50.886719-16.804688 2.972656-33.820313 4.621093-50.886719 4.929687zm71.816406-55.816406h70.6875c-6.175781 18.648438-33.296875 36.984375-74.878906 47.359375 2.484375-15.671875 3.886719-31.496094 4.191406-47.359375zm66.785156-47.550781c-21.820312-16.621094-47.253906-27.859375-74.234374-32.800781-4.941407-26.980469-16.179688-52.414063-32.800782-74.234376 52.132813 14.175782 92.859375 54.902344 107.035156 107.035157zm-186.152343-107.050781c-16.621094 21.820312-27.859375 47.253906-32.800781 74.234374-26.980469 4.941407-52.414063 16.179688-74.234376 32.800782 14.175782-52.132813 54.902344-92.859375 107.035157-107.035156zm-107.050781 186.152343c21.820312 16.621094 47.253906 27.859375 74.234374 32.800781 4.941407 26.980469 16.179688 52.414063 32.800782 74.234376-52.132813-14.175782-92.859375-54.902344-107.035156-107.035157zm186.152343 107.050781c16.621094-21.820312 27.859375-47.253906 32.800781-74.234374 26.980469-4.941407 52.414063-16.179688 74.234376-32.800782-14.175782 52.132813-54.902344 92.859375-107.035157 107.035156zm0 0"/></g></svg>