<svg id="File_management" height="512" viewBox="0 0 64 64" width="512" xmlns="http://www.w3.org/2000/svg" xmlns:xlink="http://www.w3.org/1999/xlink" data-name="File management"><linearGradient id="gradient_ice" gradientUnits="userSpaceOnUse" x1="1.86" x2="55.878" y1="65.065" y2="15.643"><stop offset="0" stop-color="#fff200"/><stop offset="1" stop-color="#cd118c"/></linearGradient><linearGradient id="gradient_ice-2" x1="-16.928" x2="37.091" xlink:href="#gradient_ice" y1="44.53" y2="-4.892"/><linearGradient id="gradient_ice-3" x1="-11.46" x2="42.559" xlink:href="#gradient_ice" y1="50.506" y2="1.085"/><linearGradient id="gradient_ice-4" x1="-11.02" x2="42.998" xlink:href="#gradient_ice" y1="50.987" y2="1.565"/><linearGradient id="gradient_ice-5" x1="-4.864" x2="49.155" xlink:href="#gradient_ice" y1="57.716" y2="8.294"/><path d="m61 6h-11.87l-3.4-3.68a.99.99 0 0 0 -.73-.32h-30a1 1 0 0 0 -1 1v17.75a17 17 0 0 0 0 32.5v3.75a1 1 0 0 0 1 1h9v3a1 1 0 0 0 1 1h36a1 1 0 0 0 1-1v-54a1 1 0 0 0 -1-1zm-15-.44 8.72 9.44h-8.72zm-42 31.44a15 15 0 1 1 15 15 15.018 15.018 0 0 1 -15-15zm12 19v-2.28a17.432 17.432 0 0 0 3 .28 17 17 0 0 0 0-34 17.432 17.432 0 0 0 -3 .28v-16.28h28v12a1 1 0 0 0 1 1h11v39zm44 4h-34v-2h31a1 1 0 0 0 1-1v-41a.977.977 0 0 0 -.27-.68l-6.75-7.32h9.02z" fill="url(#gradient_ice)"/><path d="m20 7h6v2h-6z" fill="url(#gradient_ice-2)"/><path d="m29 7h12v2h-12z" fill="url(#gradient_ice-3)"/><path d="m20 12h21v2h-21z" fill="url(#gradient_ice-4)"/><path d="m30.781 33.375-4-5a1 1 0 0 0 -.726-.375 1.031 1.031 0 0 0 -.762.292l-8.367 8.368-4.3-3.441a1 1 0 0 0 -1.406.156l-4 5a1 1 0 0 0 .167 1.415l9 7a1 1 0 0 0 1.292-.055l13-12a1 1 0 0 0 .102-1.36zm-13.836 11.315-7.531-5.857 2.742-3.427 4.219 3.375a1 1 0 0 0 1.332-.074l8.21-8.21 2.72 3.4z" fill="url(#gradient_ice-5)"/></svg>