<svg id="File_management" height="512" viewBox="0 0 64 64" width="512" xmlns="http://www.w3.org/2000/svg" xmlns:xlink="http://www.w3.org/1999/xlink" data-name="File management"><linearGradient id="gradient_ice" gradientUnits="userSpaceOnUse" x1="3.49" x2="58.658" y1="67.229" y2="10.911"><stop offset="0" stop-color="#fff200"/><stop offset="1" stop-color="#cd118c"/></linearGradient><linearGradient id="gradient_ice-2" x1="-16.162" x2="39.006" xlink:href="#gradient_ice" y1="47.978" y2="-8.34"/><linearGradient id="gradient_ice-3" x1="-10.038" x2="45.13" xlink:href="#gradient_ice" y1="53.976" y2="-2.341"/><linearGradient id="gradient_ice-4" x1="-9.835" x2="45.333" xlink:href="#gradient_ice" y1="54.175" y2="-2.142"/><linearGradient id="gradient_ice-5" x1="1.564" x2="56.732" xlink:href="#gradient_ice" y1="65.341" y2="9.024"/><linearGradient id="gradient_ice-6" x1="4.063" x2="59.231" xlink:href="#gradient_ice" y1="67.79" y2="11.472"/><linearGradient id="gradient_ice-7" x1="6.562" x2="61.731" xlink:href="#gradient_ice" y1="70.238" y2="13.921"/><linearGradient id="gradient_ice-8" x1="4.979" x2="60.148" xlink:href="#gradient_ice" y1="68.688" y2="12.37"/><linearGradient id="gradient_ice-9" x1="7.021" x2="62.189" xlink:href="#gradient_ice" y1="70.687" y2="14.37"/><linearGradient id="gradient_ice-10" x1="11.103" x2="66.271" xlink:href="#gradient_ice" y1="74.686" y2="18.369"/><linearGradient id="gradient_ice-11" x1="-4.196" x2="50.972" xlink:href="#gradient_ice" y1="59.7" y2="3.382"/><linearGradient id="gradient_ice-12" x1=".553" x2="55.721" xlink:href="#gradient_ice" y1="64.352" y2="8.034"/><path d="m61 6h-11.87l-3.4-3.68a.99.99 0 0 0 -.73-.32h-30a1 1 0 0 0 -1 1v25.56l-11.87 20.95a1 1 0 0 0 .87 1.49h11v6a1 1 0 0 0 1 1h9v3a1 1 0 0 0 1 1h36a1 1 0 0 0 1-1v-54a1 1 0 0 0 -1-1zm-15-.44 8.72 9.44h-8.72zm-41.28 43.44 15.28-26.97 15.28 26.97zm11.28 7v-5h21a1 1 0 0 0 .87-1.49l-17-30a1.037 1.037 0 0 0 -1.74 0l-3.13 5.52v-21.03h28v12a1 1 0 0 0 1 1h11v39zm44 4h-34v-2h31a1 1 0 0 0 1-1v-41a.977.977 0 0 0 -.27-.68l-6.75-7.32h9.02z" fill="url(#gradient_ice)"/><path d="m20 7h6v2h-6z" fill="url(#gradient_ice-2)"/><path d="m29 7h12v2h-12z" fill="url(#gradient_ice-3)"/><path d="m20 12h21v2h-21z" fill="url(#gradient_ice-4)"/><path d="m36 20h18v2h-18z" fill="url(#gradient_ice-5)"/><path d="m36 25h18v2h-18z" fill="url(#gradient_ice-6)"/><path d="m36 30h18v2h-18z" fill="url(#gradient_ice-7)"/><path d="m36 35h2v2h-2z" fill="url(#gradient_ice-8)"/><path d="m40 35h2v2h-2z" fill="url(#gradient_ice-9)"/><path d="m44 35h10v2h-10z" fill="url(#gradient_ice-10)"/><path d="m22 29h-4a1 1 0 0 0 -1 1v10a1 1 0 0 0 1 1h4a1 1 0 0 0 1-1v-10a1 1 0 0 0 -1-1zm-1 10h-2v-8h2z" fill="url(#gradient_ice-11)"/><path d="m22 42h-4a1 1 0 0 0 -1 1v3a1 1 0 0 0 1 1h4a1 1 0 0 0 1-1v-3a1 1 0 0 0 -1-1zm-1 3h-2v-1h2z" fill="url(#gradient_ice-12)"/></svg>