<svg id="File_management" height="512" viewBox="0 0 64 64" width="512" xmlns="http://www.w3.org/2000/svg" xmlns:xlink="http://www.w3.org/1999/xlink" data-name="File management"><linearGradient id="gradient_ice" gradientUnits="userSpaceOnUse" x1="2.39" x2="56.409" y1="67.473" y2="7.707"><stop offset="0" stop-color="#fff200"/><stop offset="1" stop-color="#cd118c"/></linearGradient><linearGradient id="gradient_ice-2" x1="-17.228" x2="36.791" xlink:href="#gradient_ice" y1="49.741" y2="-10.024"/><linearGradient id="gradient_ice-3" x1="-11.174" x2="42.845" xlink:href="#gradient_ice" y1="55.214" y2="-4.552"/><linearGradient id="gradient_ice-4" x1="-9.734" x2="44.285" xlink:href="#gradient_ice" y1="56.515" y2="-3.251"/><linearGradient id="gradient_ice-5" x1="-3.892" x2="50.127" xlink:href="#gradient_ice" y1="61.795" y2="2.03"/><linearGradient id="gradient_ice-6" x1=".829" x2="54.847" xlink:href="#gradient_ice" y1="66.062" y2="6.296"/><path d="m61 23h-3v-13a1 1 0 0 0 -1-1h-6.84l-7.49-6.74a.971.971 0 0 0 -.67-.26h-28a1 1 0 0 0 -1 1v6h-6a1 1 0 0 0 -1 1v5h-3a1 1 0 0 0 -1 1v39a1 1 0 0 0 1 1h37.93l4.04 4.04a5.005 5.005 0 0 0 8.54-3.53 4.2 4.2 0 0 0 -.05-.51h7.54a1 1 0 0 0 1-1v-31a1 1 0 0 0 -1-1zm-5-12v12h-3v-11a1 1 0 0 0 -.33-.74l-.29-.26zm-13-5.75 6.39 5.75h-6.39zm-28-1.25h26v8a1 1 0 0 0 1 1h9v10h-12.07a17 17 0 0 0 -2.95-2h11.02a1 1 0 0 0 0-2h-19a16.976 16.976 0 0 0 -4.12.53l-1.98-3.98a1 1 0 0 0 -.9-.55h-6zm28 32a15 15 0 1 1 -15-15 15.018 15.018 0 0 1 15 15zm-35-25h5v4h-5zm-4 43v-37h16.38l1.56 3.13a16.99 16.99 0 1 0 14 30.89l2.99 2.98zm46.62 4.62a3.034 3.034 0 0 1 -4.23 0l-8.69-8.68a17.082 17.082 0 0 0 4.24-4.24l8.68 8.69a2.958 2.958 0 0 1 0 4.23zm9.38-4.62h-7.19a5.124 5.124 0 0 0 -.77-1.03l-9.02-9.02a16.939 16.939 0 0 0 -2.08-18.95h19.06z" fill="url(#gradient_ice)"/><path d="m18 7h5v2h-5z" fill="url(#gradient_ice-2)"/><path d="m26 7h11v2h-11z" fill="url(#gradient_ice-3)"/><path d="m24 11h13v2h-13z" fill="url(#gradient_ice-4)"/><path d="m27 15h21v2h-21z" fill="url(#gradient_ice-5)"/><path d="m28 23a13 13 0 1 0 13 13 13.015 13.015 0 0 0 -13-13zm0 24a11 11 0 1 1 11-11 11.013 11.013 0 0 1 -11 11z" fill="url(#gradient_ice-6)"/></svg>