<svg id="File_management" height="512" viewBox="0 0 64 64" width="512" xmlns="http://www.w3.org/2000/svg" xmlns:xlink="http://www.w3.org/1999/xlink" data-name="File management"><linearGradient id="gradient_ice" gradientUnits="userSpaceOnUse" x1="-12.056" x2="50.008" y1="59.056" y2="-3.008"><stop offset="0" stop-color="#fff200"/><stop offset="1" stop-color="#cd118c"/></linearGradient><linearGradient id="gradient_ice-2" x1="-8.306" x2="53.758" xlink:href="#gradient_ice" y1="62.806" y2=".742"/><linearGradient id="gradient_ice-3" x1="-9.056" x2="53.008" xlink:href="#gradient_ice" y1="62.056" y2="-.008"/><linearGradient id="gradient_ice-4" x1="-10.056" x2="52.008" xlink:href="#gradient_ice" y1="61.056" y2="-1.008"/><linearGradient id="gradient_ice-5" x1="-8.056" x2="54.008" xlink:href="#gradient_ice" y1="63.056" y2=".992"/><linearGradient id="gradient_ice-6" x1="-4.056" x2="58.008" xlink:href="#gradient_ice" y1="67.056" y2="4.992"/><linearGradient id="gradient_ice-7" x1="-13.306" x2="48.758" xlink:href="#gradient_ice" y1="57.806" y2="-4.258"/><linearGradient id="gradient_ice-8" x1=".444" x2="62.508" xlink:href="#gradient_ice" y1="71.556" y2="9.492"/><linearGradient id="gradient_ice-9" x1="3.444" x2="65.508" xlink:href="#gradient_ice" y1="74.556" y2="12.492"/><linearGradient id="gradient_ice-10" x1="-2.306" x2="59.758" xlink:href="#gradient_ice" y1="68.806" y2="6.742"/><linearGradient id="gradient_ice-11" x1="-4.306" x2="57.758" xlink:href="#gradient_ice" y1="66.806" y2="4.742"/><linearGradient id="gradient_ice-12" x1="1.194" x2="63.258" xlink:href="#gradient_ice" y1="72.306" y2="10.242"/><linearGradient id="gradient_ice-13" x1="5.194" x2="67.258" xlink:href="#gradient_ice" y1="76.306" y2="14.242"/><path d="m14 23h18v2h-18z" fill="url(#gradient_ice)"/><path d="m21 27h11v2h-11z" fill="url(#gradient_ice-2)"/><path d="m14 31h14v2h-14z" fill="url(#gradient_ice-3)"/><path d="m14 35h2v2h-2z" fill="url(#gradient_ice-4)"/><path d="m18 35h2v2h-2z" fill="url(#gradient_ice-5)"/><path d="m22 35h10v2h-10z" fill="url(#gradient_ice-6)"/><path d="m14 27h5v2h-5z" fill="url(#gradient_ice-7)"/><path d="m30 31h20v2h-20z" fill="url(#gradient_ice-8)"/><path d="m34 35h16v2h-16z" fill="url(#gradient_ice-9)"/><path d="m34 27h9v2h-9z" fill="url(#gradient_ice-10)"/><path d="m34 23h9v2h-9z" fill="url(#gradient_ice-11)"/><path d="m61.99 39.97a1.012 1.012 0 0 0 -.04-.29l-4-12a1.014 1.014 0 0 0 -.95-.68h-2a1 1 0 0 0 -.25-.66l-1.75-2v-9.34a1 1 0 0 0 -1-1h-1v-3a1 1 0 0 0 -1-1h-36a1 1 0 0 0 -1 1v3h-1a1 1 0 0 0 -1 1v3h-1a1 1 0 0 0 -1 1v8h-2a1.014 1.014 0 0 0 -.95.68l-4 12a1.012 1.012 0 0 0 -.04.29c0 .01-.01.02-.01.03v21a1 1 0 0 0 1 1h58a1 1 0 0 0 1-1v-21c0-.01-.01-.02-.01-.03zm-6.99-10.97h1.28l3.33 10h-4.61zm-3.2-3h-3.8v-4.34zm-36.8-14h34v2h-34zm-2 4h38v6.05l-3.25-3.71a.981.981 0 0 0 -.75-.34h-34zm-2 4h35v7a1 1 0 0 0 1 1h6v11h-42zm-3.28 9h1.28v10h-4.61zm52.28 31h-56v-19h56z" fill="url(#gradient_ice-12)"/><path d="m45 46h-26a1 1 0 0 0 -1 1v5a1 1 0 0 0 1 1h26a1 1 0 0 0 1-1v-5a1 1 0 0 0 -1-1zm-1 5h-24v-3h24z" fill="url(#gradient_ice-13)"/></svg>