<svg id="File_management" height="512" viewBox="0 0 64 64" width="512" xmlns="http://www.w3.org/2000/svg" xmlns:xlink="http://www.w3.org/1999/xlink" data-name="File management"><linearGradient id="gradient_ice" gradientUnits="userSpaceOnUse" x1="-.507" x2="55.811" y1="70.507" y2="14.189"><stop offset="0" stop-color="#fff200"/><stop offset="1" stop-color="#cd118c"/></linearGradient><linearGradient id="gradient_ice-2" x1="-20.507" x2="35.811" xlink:href="#gradient_ice" y1="50.507" y2="-5.811"/><linearGradient id="gradient_ice-3" x1="-14.507" x2="41.811" xlink:href="#gradient_ice" y1="56.507" y2=".189"/><linearGradient id="gradient_ice-5" x1="-12.507" x2="43.811" xlink:href="#gradient_ice" y1="58.507" y2="2.189"/><linearGradient id="gradient_ice-6" x1="-9.507" x2="46.811" xlink:href="#gradient_ice" y1="61.507" y2="5.189"/><linearGradient id="gradient_ice-7" x1="-5.007" x2="51.311" xlink:href="#gradient_ice" y1="66.007" y2="9.689"/><path d="m61 6h-11.87l-3.4-3.68a.99.99 0 0 0 -.73-.32h-30a1 1 0 0 0 -1 1v25h-2v-3a1 1 0 0 0 -1-1h-4a1 1 0 0 0 -1 1v3h-3a1 1 0 0 0 -1 1v32a1 1 0 0 0 1 1h58a1 1 0 0 0 1-1v-54a1 1 0 0 0 -1-1zm-15-.44 8.72 9.44h-8.72zm-38 20.44h2v5h-2zm34 34h-38v-23h38zm0-25h-38v-5h2v2a1 1 0 0 0 1 1h4a1 1 0 0 0 1-1v-2h22v2a1 1 0 0 0 1 1h4a1 1 0 0 0 1-1v-2h2zm-6-4v-5h2v5zm7-3h-3v-3a1 1 0 0 0 -1-1h-4a1 1 0 0 0 -1 1v3h-18v-24h28v12a1 1 0 0 0 1 1h11v39h-12v-27a1 1 0 0 0 -1-1zm17 32h-16v-2h13a1 1 0 0 0 1-1v-41a.977.977 0 0 0 -.27-.68l-6.75-7.32h9.02z" fill="url(#gradient_ice)"/><path d="m19 7h6v2h-6z" fill="url(#gradient_ice-2)"/><path d="m27 7h14v2h-14z" fill="url(#gradient_ice-3)"/><path d="m19 11h22v2h-22z" fill="url(#gradient_ice-3)"/><path d="m19 15h22v2h-22z" fill="url(#gradient_ice-5)"/><path d="m12 39h-5a1 1 0 0 0 -1 1v5a1 1 0 0 0 1 1h5a1 1 0 0 0 1-1v-5a1 1 0 0 0 -1-1zm-1 5h-3v-3h3z" fill="url(#gradient_ice-6)"/><path d="m21 39h-5a1 1 0 0 0 -1 1v5a1 1 0 0 0 1 1h5a1 1 0 0 0 1-1v-5a1 1 0 0 0 -1-1zm-1 5h-3v-3h3z" fill="url(#gradient_ice-7)"/><path d="m30 39h-5a1 1 0 0 0 -1 1v5a1 1 0 0 0 1 1h5a1 1 0 0 0 1-1v-5a1 1 0 0 0 -1-1zm-1 5h-3v-3h3z" fill="url(#gradient_ice)"/><path d="m12 48h-5a1 1 0 0 0 -1 1v5a1 1 0 0 0 1 1h5a1 1 0 0 0 1-1v-5a1 1 0 0 0 -1-1zm-1 5h-3v-3h3z" fill="url(#gradient_ice-7)"/><path d="m21 48h-5a1 1 0 0 0 -1 1v5a1 1 0 0 0 1 1h5a1 1 0 0 0 1-1v-5a1 1 0 0 0 -1-1zm-1 5h-3v-3h3z" fill="url(#gradient_ice)"/></svg>