<svg id="File_management" height="512" viewBox="0 0 64 64" width="512" xmlns="http://www.w3.org/2000/svg" xmlns:xlink="http://www.w3.org/1999/xlink" data-name="File management"><linearGradient id="gradient_ice" gradientUnits="userSpaceOnUse" x1="-.965" x2="57.651" y1="62.806" y2="5.339"><stop offset="0" stop-color="#fff200"/><stop offset="1" stop-color="#cd118c"/></linearGradient><linearGradient id="gradient_ice-2" x1="-11.589" x2="47.027" xlink:href="#gradient_ice" y1="51.969" y2="-5.497"/><linearGradient id="gradient_ice-3" x1="-6.933" x2="51.683" xlink:href="#gradient_ice" y1="56.718" y2="-.748"/><linearGradient id="gradient_ice-4" x1="-5.913" x2="52.703" xlink:href="#gradient_ice" y1="57.758" y2=".291"/><linearGradient id="gradient_ice-5" x1="-6.854" x2="51.762" xlink:href="#gradient_ice" y1="56.798" y2="-.668"/><linearGradient id="gradient_ice-6" x1="-2.198" x2="56.418" xlink:href="#gradient_ice" y1="61.548" y2="4.081"/><linearGradient id="gradient_ice-7" x1=".291" x2="58.907" xlink:href="#gradient_ice" y1="64.087" y2="6.62"/><path d="m49 10a12.8 12.8 0 0 0 -1.942.148 13 13 0 0 0 -24.13.032 10.7 10.7 0 0 0 -1.928-.18 11.021 11.021 0 0 0 -10.949 10h-.051a8 8 0 0 0 0 16h5v12a1 1 0 0 0 1 1h8.282l.461 2h-5.743a1 1 0 0 0 -.569 1.822l13 9a1 1 0 0 0 1.138 0l13-9a1 1 0 0 0 -.569-1.822h-5.743l.461-2h8.282a1 1 0 0 0 1-1v-12a13 13 0 0 0 0-26zm-7.2 43-9.8 6.784-9.8-6.784h3.8a1 1 0 0 0 .975-1.225l-2.718-11.775h15.486l-2.718 11.775a1 1 0 0 0 .975 1.225zm5.2-6h-6.82l1.8-7.775a1 1 0 0 0 -.98-1.225h-18a1 1 0 0 0 -.975 1.225l1.795 7.775h-6.82v-29h21v8a1 1 0 0 0 1 1h8zm-7-27.586 5.586 5.586h-5.586zm9 14.586v-8a1 1 0 0 0 -.293-.707l-9-9a1 1 0 0 0 -.707-.293h-23a1 1 0 0 0 -1 1v17h-5a6 6 0 0 1 0-12 5.423 5.423 0 0 1 .846.068 1.054 1.054 0 0 0 .8-.268 1.088 1.088 0 0 0 .354-.8 8.956 8.956 0 0 1 11.311-8.685 1 1 0 0 0 1.211-.661 11 11 0 0 1 20.937-.054 1 1 0 0 0 1.175.664 10.567 10.567 0 0 1 2.366-.264 11 11 0 0 1 0 22z" fill="url(#gradient_ice)"/><path d="m19 20h2v2h-2z" fill="url(#gradient_ice-2)"/><path d="m23 20h13v2h-13z" fill="url(#gradient_ice-3)"/><path d="m19 24h17v2h-17z" fill="url(#gradient_ice-4)"/><path d="m19 28h5v2h-5z" fill="url(#gradient_ice-5)"/><path d="m26 28h10v2h-10z" fill="url(#gradient_ice-6)"/><path d="m19 32h26v2h-26z" fill="url(#gradient_ice-7)"/></svg>