<?xml version="1.0" encoding="UTF-8"?>
<svg xmlns="http://www.w3.org/2000/svg" xmlns:xlink="http://www.w3.org/1999/xlink" id="File_management" data-name="File management" viewBox="0 0 64 64" width="512" height="512"><defs><linearGradient id="gradient_ice" x1="3.614" y1="69.097" x2="58.782" y2="15.079" gradientUnits="userSpaceOnUse"><stop offset="0" stop-color="#fff200"/><stop offset="1" stop-color="#cd118c"/></linearGradient><linearGradient id="gradient_ice-2" x1="7.712" y1="73.282" x2="62.88" y2="19.264" xlink:href="#gradient_ice"/></defs><path d="M61.97,39.76l-3-12A1,1,0,0,0,58,27H49.31l-4.83-4.72a1.017,1.017,0,0,0-.7-.28H42.16l5.59-6.34A1,1,0,0,0,47,14H39.39L42.95,3.32a1,1,0,0,0-.14-.9A.983.983,0,0,0,42,2H22a.983.983,0,0,0-.81.42,1,1,0,0,0-.14.9L24.61,14H17a1,1,0,0,0-.75,1.66L21.84,22H11a1,1,0,0,0-1,1v4H7a1.014,1.014,0,0,0-.95.68l-4,12A1.185,1.185,0,0,0,2,40V61a1,1,0,0,0,1,1H61a1,1,0,0,0,1-1V40A.986.986,0,0,0,61.97,39.76ZM57.22,29l2.5,10H54V32a1.022,1.022,0,0,0-.3-.72L51.36,29ZM45,25.59,50.54,31H45ZM19.22,16H26a.983.983,0,0,0,.81-.42,1,1,0,0,0,.14-.9L23.39,4H40.61L37.05,14.68a1,1,0,0,0,.14.9A.983.983,0,0,0,38,16h6.78L32,30.49ZM12,24H23.61l7.64,8.66a1,1,0,0,0,1.5,0L40.39,24H43v8a1,1,0,0,0,1,1h8v6H12ZM7.72,29H10V39H4.39ZM60,60H4V41H60Z" style="fill:url(#gradient_ice)"/><path d="M45,46H19a1,1,0,0,0-1,1v5a1,1,0,0,0,1,1H45a1,1,0,0,0,1-1V47A1,1,0,0,0,45,46Zm-1,5H20V48H44Z" style="fill:url(#gradient_ice-2)"/></svg>
