<svg id="File_management" height="512" viewBox="0 0 64 64" width="512" xmlns="http://www.w3.org/2000/svg" xmlns:xlink="http://www.w3.org/1999/xlink" data-name="File management"><linearGradient id="gradient_ice" gradientUnits="userSpaceOnUse" x1="3.492" x2="60.959" y1="65.508" y2="8.041"><stop offset="0" stop-color="#fff200"/><stop offset="1" stop-color="#cd118c"/></linearGradient><linearGradient id="gradient_ice-2" x1="-.508" x2="56.959" xlink:href="#gradient_ice" y1="61.508" y2="4.041"/><linearGradient id="gradient_ice-3" x1="-3.19" x2="54.277" xlink:href="#gradient_ice" y1="58.825" y2="1.359"/><linearGradient id="gradient_ice-4" x1="-15.508" x2="41.959" xlink:href="#gradient_ice" y1="46.508" y2="-10.959"/><linearGradient id="gradient_ice-5" x1="-9.508" x2="47.959" xlink:href="#gradient_ice" y1="52.508" y2="-4.959"/><linearGradient id="gradient_ice-6" x1="-9.258" x2="48.209" xlink:href="#gradient_ice" y1="52.758" y2="-4.709"/><path d="m59.681 15.267-14-13a1 1 0 0 0 -.681-.267h-30a1 1 0 0 0 -1 1v16.706a19.954 19.954 0 0 0 0 34.588v6.706a1 1 0 0 0 1 1h44a1 1 0 0 0 1-1v-45a1 1 0 0 0 -.319-.733zm-13.681-9.974 10.453 9.707h-10.453zm-40 31.707a18 18 0 1 1 18 18 18.021 18.021 0 0 1 -18-18zm10 23v-4.682a20 20 0 1 0 0-36.636v-14.682h28v12a1 1 0 0 0 1 1h13v43z" fill="url(#gradient_ice)"/><path d="m40 37a16 16 0 1 0 -16 16 16.019 16.019 0 0 0 16-16zm-29.949 1h1.949v-2h-1.949a14 14 0 0 1 12.949-12.949v1.949h2v-1.949a14 14 0 0 1 12.949 12.949h-1.949v2h1.949a14 14 0 0 1 -12.949 12.949v-1.949h-2v1.949a14 14 0 0 1 -12.949-12.949z" fill="url(#gradient_ice-2)"/><path d="m24 38a.994.994 0 0 0 .5-.132l7-4-1-1.736-6.381 3.646-7.464-6.53-1.318 1.5 8 7a1 1 0 0 0 .663.252z" fill="url(#gradient_ice-3)"/><path d="m20 7h6v2h-6z" fill="url(#gradient_ice-4)"/><path d="m29 7h12v2h-12z" fill="url(#gradient_ice-5)"/><path d="m20 12h21v2h-21z" fill="url(#gradient_ice-6)"/></svg>