<svg id="File_management" height="512" viewBox="0 0 64 64" width="512" xmlns="http://www.w3.org/2000/svg" xmlns:xlink="http://www.w3.org/1999/xlink" data-name="File management"><linearGradient id="gradient_ice" gradientUnits="userSpaceOnUse" x1=".046" x2="55.214" y1="62.426" y2="10.706"><stop offset="0" stop-color="#fff200"/><stop offset="1" stop-color="#cd118c"/></linearGradient><linearGradient id="gradient_ice-2" x1=".467" x2="55.635" xlink:href="#gradient_ice" y1="62.875" y2="11.155"/><linearGradient id="gradient_ice-3" x1="-20.115" x2="35.053" xlink:href="#gradient_ice" y1="40.921" y2="-10.799"/><linearGradient id="gradient_ice-4" x1="-13.567" x2="41.602" xlink:href="#gradient_ice" y1="47.906" y2="-3.814"/><linearGradient id="gradient_ice-5" x1="-17.153" x2="38.015" xlink:href="#gradient_ice" y1="44.081" y2="-7.639"/><linearGradient id="gradient_ice-6" x1="-10.604" x2="44.564" xlink:href="#gradient_ice" y1="51.066" y2="-.654"/><path d="m55.707 13.293-11-11a1 1 0 0 0 -.707-.293h-34a1 1 0 0 0 -1 1v58a1 1 0 0 0 1 1h45a1 1 0 0 0 1-1v-47a1 1 0 0 0 -.293-.707zm-10.707-7.879 7.586 7.586h-7.586zm-34 54.586v-56h32v10a1 1 0 0 0 1 1h10v45z" fill="url(#gradient_ice)"/><path d="m47 36h-7.719l3.689-14.757a1 1 0 0 0 -.97-1.243h-20a1 1 0 0 0 -.97 1.243l3.689 14.757h-7.719a1 1 0 0 0 -.769 1.64l15 18a1 1 0 0 0 1.538 0l15-18a1 1 0 0 0 -.769-1.64zm-15 17.438-12.865-15.438h6.865a1 1 0 0 0 .97-1.243l-3.689-14.757h17.438l-3.689 14.757a1 1 0 0 0 .97 1.243h6.865z" fill="url(#gradient_ice-2)"/><path d="m14 7h2v2h-2z" fill="url(#gradient_ice-3)"/><path d="m18 7h22v2h-22z" fill="url(#gradient_ice-4)"/><path d="m14 12h4v2h-4z" fill="url(#gradient_ice-5)"/><path d="m20 12h20v2h-20z" fill="url(#gradient_ice-6)"/></svg>