<svg id="File_management" height="512" viewBox="0 0 64 64" width="512" xmlns="http://www.w3.org/2000/svg" xmlns:xlink="http://www.w3.org/1999/xlink" data-name="File management"><linearGradient id="gradient_ice" gradientUnits="userSpaceOnUse" x1="-21.056" x2="37.56" y1="46.802" y2="-12.963"><stop offset="0" stop-color="#fff200"/><stop offset="1" stop-color="#cd118c"/></linearGradient><linearGradient id="gradient_ice-2" x1="-14.94" x2="43.676" xlink:href="#gradient_ice" y1="52.801" y2="-6.964"/><linearGradient id="gradient_ice-3" x1="-14.979" x2="43.637" xlink:href="#gradient_ice" y1="52.763" y2="-7.003"/><linearGradient id="gradient_ice-4" x1="-12.979" x2="45.637" xlink:href="#gradient_ice" y1="54.724" y2="-5.042"/><linearGradient id="gradient_ice-5" x1="-11.489" x2="47.127" xlink:href="#gradient_ice" y1="56.185" y2="-3.58"/><linearGradient id="gradient_ice-6" x1="-9.49" x2="49.126" xlink:href="#gradient_ice" y1="58.146" y2="-1.619"/><linearGradient id="gradient_ice-7" x1="-5.49" x2="53.126" xlink:href="#gradient_ice" y1="62.069" y2="2.303"/><linearGradient id="gradient_ice-8" x1="-12.077" x2="46.539" xlink:href="#gradient_ice" y1="55.608" y2="-4.157"/><linearGradient id="gradient_ice-9" x1="-10.039" x2="48.578" xlink:href="#gradient_ice" y1="57.608" y2="-2.157"/><linearGradient id="gradient_ice-10" x1="-5.451" x2="53.165" xlink:href="#gradient_ice" y1="62.107" y2="2.342"/><linearGradient id="gradient_ice-11" x1="-.393" x2="58.223" xlink:href="#gradient_ice" y1="67.068" y2="7.302"/><path d="m14 7h6v2h-6z" fill="url(#gradient_ice)"/><path d="m22 7h14v2h-14z" fill="url(#gradient_ice-2)"/><path d="m14 11h22v2h-22z" fill="url(#gradient_ice-3)"/><path d="m14 15h22v2h-22z" fill="url(#gradient_ice-4)"/><path d="m14 19h20v2h-20z" fill="url(#gradient_ice-5)"/><path d="m14 23h20v2h-20z" fill="url(#gradient_ice-6)"/><path d="m14 31h20v2h-20z" fill="url(#gradient_ice-7)"/><path d="m14 27h2v2h-2z" fill="url(#gradient_ice-8)"/><path d="m18 27h2v2h-2z" fill="url(#gradient_ice-9)"/><path d="m22 27h12v2h-12z" fill="url(#gradient_ice-10)"/><path d="m58 33a4.091 4.091 0 0 0 -1 .14v-26.14a1 1 0 0 0 -1-1h-11.87l-3.4-3.68a.99.99 0 0 0 -.73-.32h-30a1 1 0 0 0 -1 1v54a1 1 0 0 0 1 1h9v3a1 1 0 0 0 1 1h38a1 1 0 0 0 1-1v-5.85l2.96-9.86a.967.967 0 0 0 .04-.29v-8a4 4 0 0 0 -4-4zm-3-25v25.38a4.054 4.054 0 0 0 -2-1.24v-16.14a.977.977 0 0 0 -.27-.68l-6.75-7.32zm-14-2.44 8.72 9.44h-8.72zm-4 54.44h-16v-2h16zm0-4h-26v-52h28v12a1 1 0 0 0 1 1h11v15.14a4.07 4.07 0 0 0 -1.58.83 3.954 3.954 0 0 0 -3.42-1.97 3.906 3.906 0 0 0 -2 .56v-8.56a4 4 0 0 0 -8 0v17.07l-1.81-3.01a3.965 3.965 0 0 0 -3.43-1.95 4 4 0 0 0 -3.45 6.03l5.67 10.43a1.5 1.5 0 0 0 .19.25l3.83 3.61zm23-11.15-2.96 9.86a.967.967 0 0 0 -.04.29v5h-18v-5a1.014 1.014 0 0 0 -.31-.73l-4.03-3.8-5.61-10.32a2 2 0 1 1 3.42-2.06l3.67 6.1a1 1 0 0 0 1.86-.52v-20.67a2.006 2.006 0 0 1 2-2 2.015 2.015 0 0 1 2 2v17h2v-5a2 2 0 0 1 4 0v6h2v-5a2 2 0 0 1 4 0v6h2v-5a2 2 0 0 1 4 0z" fill="url(#gradient_ice-11)"/></svg>