<svg id="File_management" height="512" viewBox="0 0 64 64" width="512" xmlns="http://www.w3.org/2000/svg" xmlns:xlink="http://www.w3.org/1999/xlink" data-name="File management"><linearGradient id="gradient_ice" gradientUnits="userSpaceOnUse" x1="-2.098" x2="48.473" y1="60.945" y2="6.926"><stop offset="0" stop-color="#fff200"/><stop offset="1" stop-color="#cd118c"/></linearGradient><linearGradient id="gradient_ice-2" x1="-1.65" x2="48.921" xlink:href="#gradient_ice" y1="61.365" y2="7.346"/><linearGradient id="gradient_ice-3" x1="-.72" x2="49.851" xlink:href="#gradient_ice" y1="62.235" y2="8.216"/><linearGradient id="gradient_ice-4" x1="1.276" x2="51.846" xlink:href="#gradient_ice" y1="64.103" y2="10.085"/><linearGradient id="gradient_ice-5" x1="5.669" x2="56.24" xlink:href="#gradient_ice" y1="68.217" y2="14.198"/><linearGradient id="gradient_ice-6" x1="-18.834" x2="31.737" xlink:href="#gradient_ice" y1="45.277" y2="-8.742"/><linearGradient id="gradient_ice-7" x1="-18.171" x2="32.4" xlink:href="#gradient_ice" y1="45.898" y2="-8.121"/><linearGradient id="gradient_ice-8" x1="-19.373" x2="31.198" xlink:href="#gradient_ice" y1="44.773" y2="-9.246"/><linearGradient id="gradient_ice-9" x1="-14.31" x2="36.261" xlink:href="#gradient_ice" y1="49.513" y2="-4.506"/><linearGradient id="gradient_ice-10" x1="-11.781" x2="38.79" xlink:href="#gradient_ice" y1="51.88" y2="-2.139"/><linearGradient id="gradient_ice-11" x1="-23.897" x2="26.674" xlink:href="#gradient_ice" y1="40.538" y2="-13.481"/><linearGradient id="gradient_ice-12" x1="-.964" x2="49.607" xlink:href="#gradient_ice" y1="62.007" y2="7.988"/><linearGradient id="gradient_ice-13" x1="-.3" x2="50.27" xlink:href="#gradient_ice" y1="62.628" y2="8.609"/><linearGradient id="gradient_ice-14" x1="-1.502" x2="49.068" xlink:href="#gradient_ice" y1="61.503" y2="7.484"/><linearGradient id="gradient_ice-15" x1="3.56" x2="54.131" xlink:href="#gradient_ice" y1="66.242" y2="12.223"/><linearGradient id="gradient_ice-16" x1="6.089" x2="56.66" xlink:href="#gradient_ice" y1="68.609" y2="14.591"/><linearGradient id="gradient_ice-17" x1="-6.027" x2="44.544" xlink:href="#gradient_ice" y1="57.267" y2="3.248"/><linearGradient id="gradient_ice-18" x1="-5.114" x2="45.457" xlink:href="#gradient_ice" y1="58.122" y2="4.103"/><path d="m61.71 15.29-9-9a1.033 1.033 0 0 0 -.71-.29h-21.59l-3.7-3.71a1.033 1.033 0 0 0 -.71-.29h-23a1 1 0 0 0 -1 1v35a1 1 0 0 0 1 1h11v22a1 1 0 0 0 1 1h32a1 1 0 0 0 1-1v-18h13a1 1 0 0 0 1-1v-26a1.033 1.033 0 0 0 -.29-.71zm-8.71-5.88 5.59 5.59h-5.59zm-26-4 5.59 5.59h-5.59zm-13 20.59v11h-10v-33h21v8a1 1 0 0 0 1 1h8v12h-19a1 1 0 0 0 -1 1zm32 34h-30v-33h21v8a1 1 0 0 0 1 1h8zm-7-26v-5.59l5.59 5.59zm21 7h-12v-6a1.033 1.033 0 0 0 -.29-.71l-9-9a1.033 1.033 0 0 0 -.71-.29h-2v-13a1.033 1.033 0 0 0 -.29-.71l-3.3-3.29h18.59v8a1 1 0 0 0 1 1h8z" fill="url(#gradient_ice)"/><path d="m42 10h7v2h-7z" fill="url(#gradient_ice-2)"/><path d="m38 14h11v2h-11z" fill="url(#gradient_ice-3)"/><path d="m38 18h11v2h-11z" fill="url(#gradient_ice-4)"/><path d="m38 22h20v2h-20z" fill="url(#gradient_ice-5)"/><path d="m11 6h12v2h-12z" fill="url(#gradient_ice-6)"/><path d="m6 10h17v2h-17z" fill="url(#gradient_ice-7)"/><path d="m6 14h5v2h-5z" fill="url(#gradient_ice-8)"/><path d="m13 14h10v2h-10z" fill="url(#gradient_ice-9)"/><path d="m6 18h26v2h-26z" fill="url(#gradient_ice-10)"/><path d="m6 6h3v2h-3z" fill="url(#gradient_ice-11)"/><path d="m23 29h12v2h-12z" fill="url(#gradient_ice-12)"/><path d="m18 33h17v2h-17z" fill="url(#gradient_ice-13)"/><path d="m18 37h5v2h-5z" fill="url(#gradient_ice-14)"/><path d="m25 37h10v2h-10z" fill="url(#gradient_ice-15)"/><path d="m18 41h26v2h-26z" fill="url(#gradient_ice-16)"/><path d="m18 29h3v2h-3z" fill="url(#gradient_ice-17)"/><path d="m38 10h2v2h-2z" fill="url(#gradient_ice-18)"/></svg>