<svg id="File_management" height="512" viewBox="0 0 64 64" width="512" xmlns="http://www.w3.org/2000/svg" xmlns:xlink="http://www.w3.org/1999/xlink" data-name="File management"><linearGradient id="gradient_ice" gradientUnits="userSpaceOnUse" x1="2.654" x2="52.076" y1="62.54" y2="11.969"><stop offset="0" stop-color="#fff200"/><stop offset="1" stop-color="#cd118c"/></linearGradient><linearGradient id="gradient_ice-2" x1="7.955" x2="57.377" xlink:href="#gradient_ice" y1="67.72" y2="17.149"/><linearGradient id="gradient_ice-3" x1="-18.294" x2="31.128" xlink:href="#gradient_ice" y1="42.068" y2="-8.503"/><linearGradient id="gradient_ice-4" x1="-11.133" x2="38.289" xlink:href="#gradient_ice" y1="49.066" y2="-1.505"/><linearGradient id="gradient_ice-5" x1="-15.283" x2="34.139" xlink:href="#gradient_ice" y1="45.01" y2="-5.56"/><linearGradient id="gradient_ice-6" x1="-8.122" x2="41.3" xlink:href="#gradient_ice" y1="52.009" y2="1.438"/><linearGradient id="gradient_ice-7" x1="-12.272" x2="37.149" xlink:href="#gradient_ice" y1="47.953" y2="-2.618"/><linearGradient id="gradient_ice-8" x1="-9.203" x2="40.218" xlink:href="#gradient_ice" y1="50.952" y2=".381"/><path d="m55.707 13.293-11-11a1 1 0 0 0 -.707-.293h-34a1 1 0 0 0 -1 1v58a1 1 0 0 0 1 1h45a1 1 0 0 0 1-1v-47a1 1 0 0 0 -.293-.707zm-10.707-7.879 7.586 7.586h-7.586zm-34 54.586v-56h32v10a1 1 0 0 0 1 1h10v45z" fill="url(#gradient_ice)"/><path d="m32.769 20.36a1.036 1.036 0 0 0 -1.538 0l-15 18a1 1 0 0 0 .769 1.64h7.719l-3.689 14.757a1 1 0 0 0 .97 1.243h20a1 1 0 0 0 .97-1.243l-3.689-14.757h7.719a1 1 0 0 0 .769-1.64zm5.231 17.64a1 1 0 0 0 -.97 1.243l3.689 14.757h-17.438l3.689-14.757a1 1 0 0 0 -.97-1.243h-6.865l12.865-15.438 12.865 15.438z" fill="url(#gradient_ice-2)"/><path d="m14 7h2v2h-2z" fill="url(#gradient_ice-3)"/><path d="m18 7h22v2h-22z" fill="url(#gradient_ice-4)"/><path d="m14 12h4v2h-4z" fill="url(#gradient_ice-5)"/><path d="m20 12h20v2h-20z" fill="url(#gradient_ice-6)"/><path d="m14 17h6v2h-6z" fill="url(#gradient_ice-7)"/><path d="m22 17h2v2h-2z" fill="url(#gradient_ice-8)"/></svg>