<svg id="File_management" height="512" viewBox="0 0 64 64" width="512" xmlns="http://www.w3.org/2000/svg" xmlns:xlink="http://www.w3.org/1999/xlink" data-name="File management"><linearGradient id="gradient_ice" gradientUnits="userSpaceOnUse" x1="-2.099" x2="51.919" y1="69.501" y2="10.885"><stop offset="0" stop-color="#fff200"/><stop offset="1" stop-color="#cd118c"/></linearGradient><linearGradient id="gradient_ice-2" x1="-14.266" x2="39.753" xlink:href="#gradient_ice" y1="58.289" y2="-.327"/><linearGradient id="gradient_ice-3" x1="-9.129" x2="44.89" xlink:href="#gradient_ice" y1="63.023" y2="4.407"/><linearGradient id="gradient_ice-4" x1="-8.217" x2="45.802" xlink:href="#gradient_ice" y1="63.863" y2="5.247"/><linearGradient id="gradient_ice-5" x1="-9.468" x2="44.55" xlink:href="#gradient_ice" y1="62.71" y2="4.094"/><linearGradient id="gradient_ice-6" x1="-4.331" x2="49.688" xlink:href="#gradient_ice" y1="67.445" y2="8.828"/><linearGradient id="gradient_ice-7" x1="-1.797" x2="52.222" xlink:href="#gradient_ice" y1="69.78" y2="11.164"/><linearGradient id="gradient_ice-8" x1="-15.369" x2="38.65" xlink:href="#gradient_ice" y1="57.273" y2="-1.344"/><linearGradient id="gradient_ice-9" x1="-10.232" x2="43.787" xlink:href="#gradient_ice" y1="62.007" y2="3.391"/><linearGradient id="gradient_ice-10" x1="-9.32" x2="44.699" xlink:href="#gradient_ice" y1="62.847" y2="4.231"/><linearGradient id="gradient_ice-11" x1="-10.571" x2="43.448" xlink:href="#gradient_ice" y1="61.694" y2="3.078"/><linearGradient id="gradient_ice-12" x1="-5.434" x2="48.585" xlink:href="#gradient_ice" y1="66.428" y2="7.812"/><linearGradient id="gradient_ice-13" x1="-2.9" x2="51.119" xlink:href="#gradient_ice" y1="68.764" y2="10.148"/><linearGradient id="gradient_ice-14" x1="-21.487" x2="32.532" xlink:href="#gradient_ice" y1="51.635" y2="-6.982"/><linearGradient id="gradient_ice-15" x1="17.288" x2="71.307" xlink:href="#gradient_ice" y1="87.368" y2="28.752"/><path d="m61.71 11.29-9-9a1.033 1.033 0 0 0 -.71-.29h-23a1 1 0 0 0 -1 1v26.59l-1.29-1.3a1.033 1.033 0 0 0 -.71-.29h-23a1 1 0 0 0 -1 1v33a1 1 0 0 0 1 1h32a1 1 0 0 0 1-1v-24a1.033 1.033 0 0 0 -.29-.71l-.3-.29h25.59a1 1 0 0 0 1-1v-24a1.033 1.033 0 0 0 -.29-.71zm-8.71-5.88 5.59 5.59h-5.59zm-26 26 5.59 5.59h-5.59zm7 29.59h-30v-31h21v8a1 1 0 0 0 1 1h8zm26-26h-26.59l-3.41-3.41v-27.59h21v8a1 1 0 0 0 1 1h8z" fill="url(#gradient_ice)"/><path d="m32 6h2v2h-2z" fill="url(#gradient_ice-2)"/><path d="m36 6h13v2h-13z" fill="url(#gradient_ice-3)"/><path d="m32 10h17v2h-17z" fill="url(#gradient_ice-4)"/><path d="m32 14h5v2h-5z" fill="url(#gradient_ice-5)"/><path d="m39 14h10v2h-10z" fill="url(#gradient_ice-6)"/><path d="m32 18h26v2h-26z" fill="url(#gradient_ice-7)"/><path d="m6 32h2v2h-2z" fill="url(#gradient_ice-8)"/><path d="m10 32h13v2h-13z" fill="url(#gradient_ice-9)"/><path d="m6 36h17v2h-17z" fill="url(#gradient_ice-10)"/><path d="m6 40h5v2h-5z" fill="url(#gradient_ice-11)"/><path d="m13 40h10v2h-10z" fill="url(#gradient_ice-12)"/><path d="m6 44h26v2h-26z" fill="url(#gradient_ice-13)"/><path d="m6 24h6a1 1 0 0 0 1-1v-6h3v3a1 1 0 0 0 1.659.753l8-7a1 1 0 0 0 0-1.506l-8-7a1 1 0 0 0 -1.659.753v3h-10a1 1 0 0 0 -1 1v13a1 1 0 0 0 1 1zm1-13h10a1 1 0 0 0 1-1v-1.8l5.481 4.8-5.481 4.8v-1.8a1 1 0 0 0 -1-1h-5a1 1 0 0 0 -1 1v6h-4z" fill="url(#gradient_ice-14)"/><path d="m58 41h-6a1 1 0 0 0 -1 1v6h-3v-3a1 1 0 0 0 -1.658-.753l-8 7a1 1 0 0 0 0 1.506l8 7a1 1 0 0 0 .658.247.983.983 0 0 0 .413-.09 1 1 0 0 0 .587-.91v-3h10a1 1 0 0 0 1-1v-13a1 1 0 0 0 -1-1zm-1 13h-10a1 1 0 0 0 -1 1v1.8l-5.481-4.8 5.481-4.8v1.8a1 1 0 0 0 1 1h5a1 1 0 0 0 1-1v-6h4z" fill="url(#gradient_ice-15)"/></svg>