<svg id="File_management" height="512" viewBox="0 0 64 64" width="512" xmlns="http://www.w3.org/2000/svg" xmlns:xlink="http://www.w3.org/1999/xlink" data-name="File management"><linearGradient id="gradient_ice" gradientUnits="userSpaceOnUse" x1="2.2" x2="58.518" y1="67.51" y2="10.043"><stop offset="0" stop-color="#fff200"/><stop offset="1" stop-color="#cd118c"/></linearGradient><linearGradient id="gradient_ice-2" x1="-1.931" x2="54.386" xlink:href="#gradient_ice" y1="63.461" y2="5.994"/><linearGradient id="gradient_ice-3" x1="-16.938" x2="39.379" xlink:href="#gradient_ice" y1="48.754" y2="-8.713"/><linearGradient id="gradient_ice-4" x1="-10.817" x2="45.5" xlink:href="#gradient_ice" y1="54.752" y2="-2.714"/><linearGradient id="gradient_ice-5" x1="-10.613" x2="45.704" xlink:href="#gradient_ice" y1="54.952" y2="-2.515"/><path d="m59.681 15.267-14-13a1 1 0 0 0 -.681-.267h-30a1 1 0 0 0 -1 1v16.962a.965.965 0 0 0 -1.313.067l-5.658 5.658a1 1 0 0 0 0 1.414l3.434 3.433a15.014 15.014 0 0 0 -.602 1.466h-4.861a1 1 0 0 0 -1 1v8a1 1 0 0 0 1 1h4.861a15.014 15.014 0 0 0 .6 1.466l-3.432 3.434a1 1 0 0 0 0 1.414l5.658 5.658a1.02 1.02 0 0 0 1.313.064v6.964a1 1 0 0 0 1 1h44a1 1 0 0 0 1-1v-45a1 1 0 0 0 -.319-.733zm-13.681-9.974 10.453 9.707h-10.453zm-36.85 42.313 3.24-3.239a1 1 0 0 0 .172-1.183 12.985 12.985 0 0 1 -1.016-2.469 1 1 0 0 0 -.959-.715h-4.587v-6h4.587a1 1 0 0 0 .959-.715 12.985 12.985 0 0 1 1.016-2.469 1 1 0 0 0 -.172-1.183l-3.24-3.239 4.244-4.244 3.239 3.24a1 1 0 0 0 1.183.173 12.923 12.923 0 0 1 2.469-1.017 1 1 0 0 0 .715-.959v-4.587h6v4.587a1 1 0 0 0 .715.959 12.923 12.923 0 0 1 2.469 1.017 1 1 0 0 0 1.183-.173l3.239-3.24 4.244 4.244-3.24 3.239a1 1 0 0 0 -.173 1.183 12.923 12.923 0 0 1 1.017 2.469 1 1 0 0 0 .959.715h4.587v6h-4.587a1 1 0 0 0 -.959.715 12.923 12.923 0 0 1 -1.017 2.469 1 1 0 0 0 .173 1.183l3.24 3.239-4.244 4.244-3.239-3.24a1 1 0 0 0 -1.183-.172 12.985 12.985 0 0 1 -2.469 1.016 1 1 0 0 0 -.715.959v4.587h-6v-4.587a1 1 0 0 0 -.715-.959 12.985 12.985 0 0 1 -2.469-1.016 1 1 0 0 0 -1.183.172l-3.239 3.24zm6.85 12.394v-7.929l1.534-1.534a15.014 15.014 0 0 0 1.466.6v4.863a1 1 0 0 0 1 1h8a1 1 0 0 0 1-1v-4.861a15.014 15.014 0 0 0 1.466-.6l3.434 3.432a1 1 0 0 0 1.414 0l5.658-5.658a1 1 0 0 0 0-1.414l-3.434-3.433a15.014 15.014 0 0 0 .6-1.466h4.862a1 1 0 0 0 1-1v-8a1 1 0 0 0 -1-1h-4.861a15.014 15.014 0 0 0 -.6-1.466l3.432-3.434a1 1 0 0 0 0-1.414l-5.658-5.658a1.029 1.029 0 0 0 -1.414 0l-3.433 3.434a15.014 15.014 0 0 0 -1.466-.6v-4.862a1 1 0 0 0 -1-1h-8a1 1 0 0 0 -1 1v4.861a15.014 15.014 0 0 0 -1.466.6l-1.534-1.532v-17.929h28v12a1 1 0 0 0 1 1h13v43z" fill="url(#gradient_ice)"/><path d="m24 44a7 7 0 1 0 -7-7 7.008 7.008 0 0 0 7 7zm0-12a5 5 0 1 1 -5 5 5.006 5.006 0 0 1 5-5z" fill="url(#gradient_ice-2)"/><path d="m20 7h6v2h-6z" fill="url(#gradient_ice-3)"/><path d="m29 7h12v2h-12z" fill="url(#gradient_ice-4)"/><path d="m20 12h21v2h-21z" fill="url(#gradient_ice-5)"/></svg>