<svg id="File_management" height="512" viewBox="0 0 64 64" width="512" xmlns="http://www.w3.org/2000/svg" xmlns:xlink="http://www.w3.org/1999/xlink" data-name="File management"><linearGradient id="gradient_ice" gradientUnits="userSpaceOnUse" x1="-.472" x2="59.294" y1="62.012" y2="5.694"><stop offset="0" stop-color="#fff200"/><stop offset="1" stop-color="#cd118c"/></linearGradient><linearGradient id="gradient_ice-2" x1="5.115" x2="64.88" xlink:href="#gradient_ice" y1="67.94" y2="11.623"/><linearGradient id="gradient_ice-3" x1="4.524" x2="64.29" xlink:href="#gradient_ice" y1="67.314" y2="10.996"/><linearGradient id="gradient_ice-4" x1="1.352" x2="61.117" xlink:href="#gradient_ice" y1="63.947" y2="7.63"/><linearGradient id="gradient_ice-5" x1="9.698" x2="69.463" xlink:href="#gradient_ice" y1="72.804" y2="16.486"/><linearGradient id="gradient_ice-6" x1="10.989" x2="70.754" xlink:href="#gradient_ice" y1="74.174" y2="17.857"/><linearGradient id="gradient_ice-7" x1="12.985" x2="72.751" xlink:href="#gradient_ice" y1="76.293" y2="19.975"/><linearGradient id="gradient_ice-8" x1="14.982" x2="74.747" xlink:href="#gradient_ice" y1="78.411" y2="22.094"/><linearGradient id="gradient_ice-9" x1="1.472" x2="61.237" xlink:href="#gradient_ice" y1="64.075" y2="7.757"/><path d="m61.75 26.34-7-8a.981.981 0 0 0 -.75-.34h-9v-15a1 1 0 0 0 -1-1h-38a1 1 0 0 0 -1 1v33h-2a1 1 0 0 0 -1 1v24a1 1 0 0 0 1 1h40a1 1 0 0 0 1-1v-3h17a1 1 0 0 0 1-1v-30a1 1 0 0 0 -.25-.66zm-6.75-4.68 3.8 4.34h-3.8zm-12.5-17.66-4.17 10h-12.33v-1.18a3 3 0 1 0 -2 0v1.18h-11.38l-5-10zm-17.5 7a1 1 0 1 1 1-1 1 1 0 0 1 -1 1zm1 9a1 1 0 1 1 -1-1 1 1 0 0 1 1 1zm-19-12.76 4.11 8.21a.977.977 0 0 0 .89.55h12v1.18a3 3 0 1 0 2 0v-1.18h13a.987.987 0 0 0 .92-.62l3.08-7.38v10h-10a1 1 0 0 0 -1 1v17h-25zm32.63 30.76-16.63 10.81-16.63-10.81zm-35.63.84 13.33 8.67-13.33 11.33zm1.72 21.16 13.36-11.36 3.38 2.2a.991.991 0 0 0 1.08 0l3.38-2.2 13.36 11.36zm36.28-1.16-13.33-11.33 13.33-8.67zm18-2.84h-16v-19a1 1 0 0 0 -1-1h-9v-16h19v7a1 1 0 0 0 1 1h6z" fill="url(#gradient_ice)"/><path d="m44 27h7v2h-7z" fill="url(#gradient_ice-2)"/><path d="m37 31h10v2h-10z" fill="url(#gradient_ice-3)"/><path d="m37 27h5v2h-5z" fill="url(#gradient_ice-4)"/><path d="m49 31h8v2h-8z" fill="url(#gradient_ice-5)"/><path d="m46 35h11v2h-11z" fill="url(#gradient_ice-6)"/><path d="m46 39h11v2h-11z" fill="url(#gradient_ice-7)"/><path d="m46 43h11v2h-11z" fill="url(#gradient_ice-8)"/><path d="m37 23h14v2h-14z" fill="url(#gradient_ice-9)"/></svg>