<svg id="File_management" height="512" viewBox="0 0 64 64" width="512" xmlns="http://www.w3.org/2000/svg" xmlns:xlink="http://www.w3.org/1999/xlink" data-name="File management"><linearGradient id="gradient_ice" gradientUnits="userSpaceOnUse" x1="-8.206" x2="48.112" y1="61.847" y2="3.23"><stop offset="0" stop-color="#fff200"/><stop offset="1" stop-color="#cd118c"/></linearGradient><linearGradient id="gradient_ice-2" x1="7.782" x2="64.099" xlink:href="#gradient_ice" y1="77.207" y2="18.591"/><linearGradient id="gradient_ice-3" x1="-22.521" x2="33.797" xlink:href="#gradient_ice" y1="48.093" y2="-10.523"/><linearGradient id="gradient_ice-4" x1="-15.241" x2="41.077" xlink:href="#gradient_ice" y1="55.087" y2="-3.529"/><linearGradient id="gradient_ice-5" x1="-18.983" x2="37.335" xlink:href="#gradient_ice" y1="51.492" y2="-7.124"/><linearGradient id="gradient_ice-6" x1="-11.703" x2="44.615" xlink:href="#gradient_ice" y1="58.487" y2="-.129"/><linearGradient id="gradient_ice-7" x1="-11.805" x2="44.513" xlink:href="#gradient_ice" y1="58.389" y2="-.227"/><linearGradient id="gradient_ice-8" x1="-15.027" x2="41.291" xlink:href="#gradient_ice" y1="55.293" y2="-3.323"/><linearGradient id="gradient_ice-9" x1="-5.147" x2="51.171" xlink:href="#gradient_ice" y1="64.786" y2="6.169"/><linearGradient id="gradient_ice-10" x1="-13.049" x2="43.269" xlink:href="#gradient_ice" y1="57.194" y2="-1.423"/><linearGradient id="gradient_ice-11" x1="-2.129" x2="54.189" xlink:href="#gradient_ice" y1="67.685" y2="9.069"/><linearGradient id="gradient_ice-12" x1="-10.969" x2="45.349" xlink:href="#gradient_ice" y1="59.192" y2=".576"/><linearGradient id="gradient_ice-13" x1="9.963" x2="66.281" xlink:href="#gradient_ice" y1="79.303" y2="20.687"/><linearGradient id="gradient_ice-14" x1="13.501" x2="69.819" xlink:href="#gradient_ice" y1="82.703" y2="24.086"/><linearGradient id="gradient_ice-15" x1="9.342" x2="65.659" xlink:href="#gradient_ice" y1="78.706" y2="20.09"/><linearGradient id="gradient_ice-16" x1=".604" x2="56.921" xlink:href="#gradient_ice" y1="70.311" y2="11.694"/><linearGradient id="gradient_ice-17" x1="2.062" x2="58.379" xlink:href="#gradient_ice" y1="71.711" y2="13.095"/><path d="m54.74 13.327-10-11a1 1 0 0 0 -.74-.327h-34a1 1 0 0 0 -1 1v36a1 1 0 0 0 1.555.832l5.445-3.632 5.445 3.63a.988.988 0 0 0 .871.116l5.765-1.921 5.755.959a1.014 1.014 0 0 0 .8-.217l5.391-4.495 7.373 5.528a1 1 0 0 0 .6.2.983.983 0 0 0 .316-.052l6-2a1 1 0 0 0 .684-.948v-23a1 1 0 0 0 -.26-.673zm-9.74-7.74 6.739 7.413h-6.739zm3.181 32.3-7.581-5.687a1 1 0 0 0 -1.241.031l-5.647 4.707-5.548-.924a1 1 0 0 0 -.48.038l-5.537 1.848-5.592-3.728a1 1 0 0 0 -1.11 0l-4.445 2.96v-33.132h32v10a1 1 0 0 0 1 1h9v21.279z" fill="url(#gradient_ice)"/><path d="m54.585 40.188a.991.991 0 0 0 -.9-.136l-5.554 1.848-7.6-4.75a1 1 0 0 0 -1.171.079l-5.571 4.644-5.472-1.823a.991.991 0 0 0 -.632 0l-5.538 1.85-5.592-3.728a1 1 0 0 0 -1.11 0l-6 4a1 1 0 0 0 -.445.828v18a1 1 0 0 0 1 1h44a1 1 0 0 0 1-1v-20a1 1 0 0 0 -.415-.812zm-1.585 19.812h-42v-16.465l5-3.335 5.445 3.63a.988.988 0 0 0 .871.116l5.684-1.892 5.684 1.894a1 1 0 0 0 .957-.179l5.443-4.538 7.386 4.617a.99.99 0 0 0 .846.1l4.684-1.56z" fill="url(#gradient_ice-2)"/><path d="m14 7h4v2h-4z" fill="url(#gradient_ice-3)"/><path d="m20 7h20v2h-20z" fill="url(#gradient_ice-4)"/><path d="m14 12h8v2h-8z" fill="url(#gradient_ice-5)"/><path d="m24 12h16v2h-16z" fill="url(#gradient_ice-6)"/><path d="m14 17h26v2h-26z" fill="url(#gradient_ice-7)"/><path d="m14 22h4v2h-4z" fill="url(#gradient_ice-8)"/><path d="m20 22h30v2h-30z" fill="url(#gradient_ice-9)"/><path d="m14 27h2v2h-2z" fill="url(#gradient_ice-10)"/><path d="m22 27h28v2h-28z" fill="url(#gradient_ice-11)"/><path d="m18 27h2v2h-2z" fill="url(#gradient_ice-12)"/><path d="m34 46h14v2h-14z" fill="url(#gradient_ice-13)"/><path d="m42 51h2v2h-2z" fill="url(#gradient_ice-14)"/><path d="m30 51h10v2h-10z" fill="url(#gradient_ice-15)"/><path d="m14 46h18v2h-18z" fill="url(#gradient_ice-16)"/><path d="m14 51h14v2h-14z" fill="url(#gradient_ice-17)"/></svg>