<svg id="File_management" height="512" viewBox="0 0 64 64" width="512" xmlns="http://www.w3.org/2000/svg" xmlns:xlink="http://www.w3.org/1999/xlink" data-name="File management"><linearGradient id="gradient_ice" gradientUnits="userSpaceOnUse" x1="3.64" x2="57.658" y1="64.651" y2="11.781"><stop offset="0" stop-color="#fff200"/><stop offset="1" stop-color="#cd118c"/></linearGradient><linearGradient id="gradient_ice-2" x1="-15.207" x2="38.812" xlink:href="#gradient_ice" y1="45.394" y2="-7.475"/><linearGradient id="gradient_ice-3" x1="-9.336" x2="44.683" xlink:href="#gradient_ice" y1="51.393" y2="-1.477"/><linearGradient id="gradient_ice-4" x1="-9.038" x2="44.98" xlink:href="#gradient_ice" y1="51.697" y2="-1.172"/><linearGradient id="gradient_ice-5" x1="-2.706" x2="51.313" xlink:href="#gradient_ice" y1="58.167" y2="5.298"/><path d="m59.681 15.267-14-13a1 1 0 0 0 -.681-.267h-30a1 1 0 0 0 -1 1v18.832l-8.258 2.2a1 1 0 0 0 -.742.968v14.338a11.056 11.056 0 0 0 5.34 9.433l3.66 2.2v10.029a1 1 0 0 0 1 1h44a1 1 0 0 0 1-1v-45a1 1 0 0 0 -.319-.733zm-13.681-9.974 10.453 9.707h-10.453zm-39 34.045v-13.57l14-3.733 14 3.733v13.57a9.046 9.046 0 0 1 -4.37 7.718l-9.63 5.778-9.63-5.778a9.046 9.046 0 0 1 -4.37-7.718zm9 20.662v-7.834l4.485 2.691a1 1 0 0 0 1.03 0l10.145-6.086a11.056 11.056 0 0 0 5.34-9.433v-14.338a1 1 0 0 0 -.742-.966l-15-4a1 1 0 0 0 -.516 0l-4.742 1.266v-17.3h28v12a1 1 0 0 0 1 1h13v43z" fill="url(#gradient_ice)"/><path d="m20 7h6v2h-6z" fill="url(#gradient_ice-2)"/><path d="m29 7h12v2h-12z" fill="url(#gradient_ice-3)"/><path d="m20 12h21v2h-21z" fill="url(#gradient_ice-4)"/><path d="m21.515 50.192 8.085-4.852a7.032 7.032 0 0 0 3.4-6v-11.267a1 1 0 0 0 -.742-.966l-11-2.934a1 1 0 0 0 -.516 0l-11 2.934a1 1 0 0 0 -.742.966v11.265a7.032 7.032 0 0 0 3.4 6l8.087 4.852a1 1 0 0 0 1.03 0zm-8.087-6.567a5.023 5.023 0 0 1 -2.428-4.287v-10.5l10-2.666 10 2.666v10.5a5.022 5.022 0 0 1 -2.428 4.287l-7.572 4.544z" fill="url(#gradient_ice-5)"/></svg>