<svg id="File_management" height="512" viewBox="0 0 64 64" width="512" xmlns="http://www.w3.org/2000/svg" xmlns:xlink="http://www.w3.org/1999/xlink" data-name="File management"><linearGradient id="gradient_ice" gradientUnits="userSpaceOnUse" x1="3.616" x2="61.082" y1="67.854" y2="-2.255"><stop offset="0" stop-color="#fff200"/><stop offset="1" stop-color="#cd118c"/></linearGradient><linearGradient id="gradient_ice-2" x1=".794" x2="58.261" xlink:href="#gradient_ice" y1="65.542" y2="-4.568"/><linearGradient id="gradient_ice-3" x1="1.559" x2="59.025" xlink:href="#gradient_ice" y1="66.168" y2="-3.941"/><linearGradient id="gradient_ice-4" x1="3.52" x2="60.987" xlink:href="#gradient_ice" y1="67.776" y2="-2.334"/><linearGradient id="gradient_ice-5" x1="8.172" x2="65.639" xlink:href="#gradient_ice" y1="71.59" y2="1.48"/><linearGradient id="gradient_ice-6" x1="-3.094" x2="54.373" xlink:href="#gradient_ice" y1="62.355" y2="-7.755"/><linearGradient id="gradient_ice-7" x1="5.025" x2="62.492" xlink:href="#gradient_ice" y1="69.01" y2="-1.1"/><linearGradient id="gradient_ice-8" x1="5.491" x2="62.957" xlink:href="#gradient_ice" y1="69.391" y2="-.718"/><linearGradient id="gradient_ice-9" x1="3.863" x2="61.33" xlink:href="#gradient_ice" y1="68.057" y2="-2.052"/><linearGradient id="gradient_ice-10" x1="9.545" x2="67.012" xlink:href="#gradient_ice" y1="72.715" y2="2.605"/><linearGradient id="gradient_ice-11" x1="12.104" x2="69.571" xlink:href="#gradient_ice" y1="74.813" y2="4.703"/><linearGradient id="gradient_ice-12" x1="-.657" x2="56.809" xlink:href="#gradient_ice" y1="64.352" y2="-5.757"/><path d="m61.71 15.29-9-9a1.033 1.033 0 0 0 -.71-.29h-21.96l-1.84-1.85a1.008 1.008 0 0 0 -1.42 0l-2.78 2.78v-3.93a1 1 0 0 0 -1-1h-8a1 1 0 0 0 -1 1v3.93l-2.78-2.78a1.008 1.008 0 0 0 -1.42 0l-5.65 5.65a1.008 1.008 0 0 0 0 1.42l2.78 2.78h-3.93a1 1 0 0 0 -1 1v8a1 1 0 0 0 1 1h3.93l-2.78 2.78a1.008 1.008 0 0 0 0 1.42l5.65 5.65a1.008 1.008 0 0 0 1.42 0l2.78-2.78v3.93a1 1 0 0 0 1 1h7v11h-16a4 4 0 0 0 0 8h16v6a1 1 0 0 0 1 1h32a1 1 0 0 0 1-1v-18h5a1 1 0 0 0 1-1v-26a1.033 1.033 0 0 0 -.29-.71zm-54.71 37.71h-1a2.006 2.006 0 0 1 -2-2 2.015 2.015 0 0 1 2-2h1zm4 0h-2v-4h2zm42-43.59 5.59 5.59h-5.59zm-37 24.59v-3.7a.992.992 0 0 0 -.67-.94 10.023 10.023 0 0 1 -1.05-.44 1.022 1.022 0 0 0 -1.15.19l-2.62 2.62-4.24-4.24 2.62-2.62a1.022 1.022 0 0 0 .19-1.15 10.023 10.023 0 0 1 -.44-1.05.992.992 0 0 0 -.94-.67h-3.7v-6h3.7a.992.992 0 0 0 .94-.67 10.023 10.023 0 0 1 .44-1.05 1.022 1.022 0 0 0 -.19-1.15l-2.62-2.62 4.24-4.24 2.62 2.62a1.025 1.025 0 0 0 1.15.19 10.023 10.023 0 0 1 1.05-.44.992.992 0 0 0 .67-.94v-3.7h6v3.7a.992.992 0 0 0 .67.94 10.023 10.023 0 0 1 1.05.44 1.022 1.022 0 0 0 1.15-.19l2.62-2.62 4.24 4.24-2.62 2.62a1.022 1.022 0 0 0 -.19 1.15 10.023 10.023 0 0 1 .44 1.05.992.992 0 0 0 .94.67h3.7v6h-3.7a.992.992 0 0 0 -.94.67 10.023 10.023 0 0 1 -.44 1.05 1.022 1.022 0 0 0 .19 1.15l.14.13h-4.98a7.966 7.966 0 1 0 -2.27 1.41v7.59zm3-9a6 6 0 1 1 6-6 6 6 0 0 1 -6 6zm-6 28v-4h24v4zm41 7h-30v-5h14a1.046 1.046 0 0 0 .39-.08l7-3a1 1 0 0 0 0-1.84l-7-3a1.036 1.036 0 0 0 -.39-.07v-.01h-14v-20h21v8a1 1 0 0 0 1 1h8zm-15-7.52v-2.96l3.46 1.48zm8-18.48v-5.59l5.59 5.59zm13 7h-4v-6a1.033 1.033 0 0 0 -.29-.71l-9-9a1.033 1.033 0 0 0 -.71-.29h-13.93l-1-1h3.93a1 1 0 0 0 1-1v-8a1 1 0 0 0 -1-1h-3.93l2.78-2.78a1.008 1.008 0 0 0 0-1.42l-1.81-1.8h18.96v8a1 1 0 0 0 1 1h8z" fill="url(#gradient_ice)"/><path d="m42 10h7v2h-7z" fill="url(#gradient_ice-2)"/><path d="m38 14h11v2h-11z" fill="url(#gradient_ice-3)"/><path d="m38 18h11v2h-11z" fill="url(#gradient_ice-4)"/><path d="m38 22h20v2h-20z" fill="url(#gradient_ice-5)"/><path d="m38 10h2v2h-2z" fill="url(#gradient_ice-6)"/><path d="m31 29h12v2h-12z" fill="url(#gradient_ice-7)"/><path d="m26 33h17v2h-17z" fill="url(#gradient_ice-8)"/><path d="m26 37h5v2h-5z" fill="url(#gradient_ice-9)"/><path d="m33 37h10v2h-10z" fill="url(#gradient_ice-10)"/><path d="m26 41h26v2h-26z" fill="url(#gradient_ice-11)"/><path d="m26 29h3v2h-3z" fill="url(#gradient_ice-12)"/></svg>