<svg id="File_management" height="512" viewBox="0 0 64 64" width="512" xmlns="http://www.w3.org/2000/svg" xmlns:xlink="http://www.w3.org/1999/xlink" data-name="File management"><linearGradient id="gradient_ice" gradientUnits="userSpaceOnUse" x1="3.922" x2="60.24" y1="67.469" y2="8.852"><stop offset="0" stop-color="#fff200"/><stop offset="1" stop-color="#cd118c"/></linearGradient><linearGradient id="gradient_ice-2" x1="-15.868" x2="40.45" xlink:href="#gradient_ice" y1="48.454" y2="-10.162"/><linearGradient id="gradient_ice-3" x1="-9.628" x2="46.689" xlink:href="#gradient_ice" y1="54.45" y2="-4.167"/><linearGradient id="gradient_ice-4" x1="-9.47" x2="46.847" xlink:href="#gradient_ice" y1="54.601" y2="-4.015"/><linearGradient id="gradient_ice-5" x1="2.067" x2="58.384" xlink:href="#gradient_ice" y1="65.686" y2="7.07"/><linearGradient id="gradient_ice-6" x1="4.565" x2="60.882" xlink:href="#gradient_ice" y1="68.086" y2="9.47"/><linearGradient id="gradient_ice-7" x1="7.583" x2="63.9" xlink:href="#gradient_ice" y1="70.985" y2="12.369"/><linearGradient id="gradient_ice-8" x1="6.961" x2="63.278" xlink:href="#gradient_ice" y1="70.388" y2="11.772"/><linearGradient id="gradient_ice-9" x1="11.641" x2="67.958" xlink:href="#gradient_ice" y1="74.884" y2="16.268"/><linearGradient id="gradient_ice-10" x1="-4.958" x2="51.359" xlink:href="#gradient_ice" y1="58.936" y2=".32"/><path d="m61 6h-11.87l-3.4-3.68a.99.99 0 0 0 -.73-.32h-30a1 1 0 0 0 -1 1v14.75a17 17 0 0 0 0 32.5v6.75a1 1 0 0 0 1 1h9v3a1 1 0 0 0 1 1h36a1 1 0 0 0 1-1v-54a1 1 0 0 0 -1-1zm-15-.44 8.72 9.44h-8.72zm-42 28.44a15 15 0 1 1 15 15 15.018 15.018 0 0 1 -15-15zm12 22v-5.28a17.432 17.432 0 0 0 3 .28 16.861 16.861 0 0 0 7.94-1.98l6.99 6.98zm10 4v-2h9.93l2.01 2zm17.62-1.38a3.043 3.043 0 0 1 -4.23 0l-10.69-10.68a17.082 17.082 0 0 0 4.24-4.24l10.68 10.69a2.958 2.958 0 0 1 0 4.23zm-9.6-16.68a16.982 16.982 0 0 0 -15.02-24.94 17.432 17.432 0 0 0 -3 .28v-13.28h28v12a1 1 0 0 0 1 1h11v39h-9.54a4.994 4.994 0 0 0 -1.42-3.03zm25.98 18.06h-14.93a4.919 4.919 0 0 0 1.18-2h10.75a1 1 0 0 0 1-1v-41a.977.977 0 0 0 -.27-.68l-6.75-7.32h9.02z" fill="url(#gradient_ice)"/><path d="m20 7h6v2h-6z" fill="url(#gradient_ice-2)"/><path d="m29 7h12v2h-12z" fill="url(#gradient_ice-3)"/><path d="m20 12h21v2h-21z" fill="url(#gradient_ice-4)"/><path d="m36 20h18v2h-18z" fill="url(#gradient_ice-5)"/><path d="m36 25h18v2h-18z" fill="url(#gradient_ice-6)"/><path d="m38 30h16v2h-16z" fill="url(#gradient_ice-7)"/><path d="m38 35h4v2h-4z" fill="url(#gradient_ice-8)"/><path d="m44 35h10v2h-10z" fill="url(#gradient_ice-9)"/><path d="m32 34a13 13 0 1 0 -13 13 13.015 13.015 0 0 0 13-13zm-24 0a11 11 0 1 1 11 11 11.013 11.013 0 0 1 -11-11z" fill="url(#gradient_ice-10)"/></svg>