<svg id="File_management" height="512" viewBox="0 0 64 64" width="512" xmlns="http://www.w3.org/2000/svg" xmlns:xlink="http://www.w3.org/1999/xlink" data-name="File management"><linearGradient id="gradient_ice" gradientUnits="userSpaceOnUse" x1="2.584" x2="56.603" y1="68.756" y2="11.289"><stop offset="0" stop-color="#fff200"/><stop offset="1" stop-color="#cd118c"/></linearGradient><linearGradient id="gradient_ice-2" x1="-8.891" x2="45.128" xlink:href="#gradient_ice" y1="57.969" y2=".503"/><linearGradient id="gradient_ice-3" x1="-1.459" x2="52.56" xlink:href="#gradient_ice" y1="64.956" y2="7.489"/><linearGradient id="gradient_ice-4" x1="-1.586" x2="52.433" xlink:href="#gradient_ice" y1="64.836" y2="7.369"/><linearGradient id="gradient_ice-5" x1=".41" x2="54.429" xlink:href="#gradient_ice" y1="66.713" y2="9.246"/><linearGradient id="gradient_ice-6" x1="-17.12" x2="36.899" xlink:href="#gradient_ice" y1="50.234" y2="-7.233"/><linearGradient id="gradient_ice-7" x1="-14.997" x2="39.022" xlink:href="#gradient_ice" y1="52.23" y2="-5.236"/><linearGradient id="gradient_ice-8" x1="-6.502" x2="47.517" xlink:href="#gradient_ice" y1="60.215" y2="2.748"/><linearGradient id="gradient_ice-9" x1="-6.63" x2="47.389" xlink:href="#gradient_ice" y1="60.095" y2="2.628"/><linearGradient id="gradient_ice-10" x1="-4.633" x2="49.385" xlink:href="#gradient_ice" y1="61.972" y2="4.505"/><linearGradient id="gradient_ice-11" x1=".283" x2="54.302" xlink:href="#gradient_ice" y1="66.593" y2="9.126"/><linearGradient id="gradient_ice-12" x1="-6.768" x2="47.251" xlink:href="#gradient_ice" y1="59.966" y2="2.499"/><path d="m61 33h-3v-13a1 1 0 0 0 -1-1h-3v-7h3a1 1 0 0 0 1-1v-4a5 5 0 0 0 -5-5h-38a5 5 0 0 0 -5 5v12h-3a1 1 0 0 0 -1 1v6h-3a1 1 0 0 0 -1 1v34a1 1 0 0 0 1 1h58a1 1 0 0 0 1-1v-27a1 1 0 0 0 -1-1zm-5-12v12h-2v-12zm-3-17a3.009 3.009 0 0 1 3 3v3h-36v-3a4.985 4.985 0 0 0 -1-3zm-41 3a3 3 0 0 1 6 0v4a1 1 0 0 0 1 1h33v21h-26.42l-3.71-6.5a1 1 0 0 0 -.87-.5h-9zm-4 14h2v5h-2zm52 39h-56v-32h16.42l3.71 6.5a1 1 0 0 0 .87.5h35z" fill="url(#gradient_ice)"/><path d="m7 39h2v2h-2z" fill="url(#gradient_ice-2)"/><path d="m15 39h14v2h-14z" fill="url(#gradient_ice-3)"/><path d="m7 43h22v2h-22z" fill="url(#gradient_ice-4)"/><path d="m7 47h22v2h-22z" fill="url(#gradient_ice-5)"/><path d="m15 14h2v2h-2z" fill="url(#gradient_ice-6)"/><path d="m19 14h2v2h-2z" fill="url(#gradient_ice-7)"/><path d="m23 14h26v2h-26z" fill="url(#gradient_ice-8)"/><path d="m15 18h34v2h-34z" fill="url(#gradient_ice-9)"/><path d="m15 22h34v2h-34z" fill="url(#gradient_ice-10)"/><path d="m26 26h23v2h-23z" fill="url(#gradient_ice-11)"/><path d="m11 39h2v2h-2z" fill="url(#gradient_ice-12)"/></svg>