<svg id="File_management" height="512" viewBox="0 0 64 64" width="512" xmlns="http://www.w3.org/2000/svg" xmlns:xlink="http://www.w3.org/1999/xlink" data-name="File management"><linearGradient id="gradient_ice" gradientUnits="userSpaceOnUse" x1="-1.714" x2="62.649" y1="69.586" y2="8.671"><stop offset="0" stop-color="#fff200"/><stop offset="1" stop-color="#cd118c"/></linearGradient><linearGradient id="gradient_ice-2" x1="-21.255" x2="43.107" xlink:href="#gradient_ice" y1="48.938" y2="-11.977"/><linearGradient id="gradient_ice-3" x1="-15.585" x2="48.777" xlink:href="#gradient_ice" y1="54.929" y2="-5.986"/><linearGradient id="gradient_ice-4" x1="-15.478" x2="48.884" xlink:href="#gradient_ice" y1="55.042" y2="-5.873"/><linearGradient id="gradient_ice-5" x1="-13.481" x2="50.881" xlink:href="#gradient_ice" y1="57.152" y2="-3.763"/><linearGradient id="gradient_ice-6" x1="-12.893" x2="51.47" xlink:href="#gradient_ice" y1="57.774" y2="-3.141"/><linearGradient id="gradient_ice-7" x1="-6.278" x2="58.085" xlink:href="#gradient_ice" y1="64.763" y2="3.848"/><linearGradient id="gradient_ice-8" x1="-6.171" x2="58.192" xlink:href="#gradient_ice" y1="64.876" y2="3.961"/><linearGradient id="gradient_ice-9" x1="-4.174" x2="60.189" xlink:href="#gradient_ice" y1="66.986" y2="6.071"/><linearGradient id="gradient_ice-10" x1="-11.003" x2="53.36" xlink:href="#gradient_ice" y1="59.771" y2="-1.144"/><path d="m61 6h-11.87l-3.39-3.68a1.029 1.029 0 0 0 -.74-.32h-30a1 1 0 0 0 -1 1v19h-11a1 1 0 0 0 -1 1v38a1 1 0 0 0 1 1h58a1 1 0 0 0 1-1v-54a1 1 0 0 0 -1-1zm-15-.44 1.96 2.12 6.76 7.32h-8.72zm5 54.44h-47v-36h16.35l3.74 8.41a.987.987 0 0 0 .91.59h26zm-26.68-32h23.68v3h-22.35zm27.68 3h-2v-4a1 1 0 0 0 -1-1h-25.57l-1.52-3.41a.987.987 0 0 0 -.91-.59h-5v-18h28v12a1 1 0 0 0 1 1h11v39h-3v-24a1 1 0 0 0 -1-1zm8 29h-7v-2h4a1 1 0 0 0 1-1v-41a.977.977 0 0 0 -.27-.68l-6.76-7.32h9.03z" fill="url(#gradient_ice)"/><path d="m19 7h6v2h-6z" fill="url(#gradient_ice-2)"/><path d="m27 7h14v2h-14z" fill="url(#gradient_ice-3)"/><path d="m19 11h22v2h-22z" fill="url(#gradient_ice-4)"/><path d="m19 15h22v2h-22z" fill="url(#gradient_ice-5)"/><path d="m7 37h2v2h-2z" fill="url(#gradient_ice-6)"/><path d="m15 37h14v2h-14z" fill="url(#gradient_ice-7)"/><path d="m7 41h22v2h-22z" fill="url(#gradient_ice-8)"/><path d="m7 45h22v2h-22z" fill="url(#gradient_ice-9)"/><path d="m11 37h2v2h-2z" fill="url(#gradient_ice-10)"/></svg>