<svg id="File_management" height="512" viewBox="0 0 64 64" width="512" xmlns="http://www.w3.org/2000/svg" xmlns:xlink="http://www.w3.org/1999/xlink" data-name="File management"><linearGradient id="gradient_ice" gradientUnits="userSpaceOnUse" x1="-.432" x2="58.184" y1="66.188" y2="8.721"><stop offset="0" stop-color="#fff200"/><stop offset="1" stop-color="#cd118c"/></linearGradient><linearGradient id="gradient_ice-2" x1="-19.262" x2="39.354" xlink:href="#gradient_ice" y1="46.982" y2="-10.485"/><linearGradient id="gradient_ice-3" x1="-13.871" x2="44.746" xlink:href="#gradient_ice" y1="52.481" y2="-4.986"/><linearGradient id="gradient_ice-4" x1="-13.831" x2="44.785" xlink:href="#gradient_ice" y1="52.521" y2="-4.946"/><linearGradient id="gradient_ice-5" x1="-6.931" x2="51.685" xlink:href="#gradient_ice" y1="59.56" y2="2.093"/><linearGradient id="gradient_ice-6" x1="-4.931" x2="53.685" xlink:href="#gradient_ice" y1="61.599" y2="4.132"/><linearGradient id="gradient_ice-7" x1="4.871" x2="63.487" xlink:href="#gradient_ice" y1="71.597" y2="14.13"/><linearGradient id="gradient_ice-8" x1="2.693" x2="61.309" xlink:href="#gradient_ice" y1="69.376" y2="11.909"/><path d="m61 23h-3v-13a1 1 0 0 0 -1-1h-6.84l-7.49-6.74a.971.971 0 0 0 -.67-.26h-28a1 1 0 0 0 -1 1v6h-6a1 1 0 0 0 -1 1v5h-3a1 1 0 0 0 -1 1v39a1 1 0 0 0 1 1h16.06a16.954 16.954 0 0 0 25.88 0h16.06a1 1 0 0 0 1-1v-31a1 1 0 0 0 -1-1zm-5-12v12h-3v-11a1 1 0 0 0 -.33-.74l-.29-.26zm-13-5.75 6.39 5.75h-6.39zm-28-1.25h26v8a1 1 0 0 0 1 1h9v10h-25.38l-3.73-7.45a.977.977 0 0 0 -.89-.55h-6zm-7 7h5v4h-5zm24 49a15 15 0 1 1 15-15 15.018 15.018 0 0 1 -15 15zm28-6h-13.6a17 17 0 1 0 -28.8 0h-13.6v-37h16.38l3.73 7.45a.977.977 0 0 0 .89.55h35z" fill="url(#gradient_ice)"/><path d="m18 7h5v2h-5z" fill="url(#gradient_ice-2)"/><path d="m26 7h11v2h-11z" fill="url(#gradient_ice-3)"/><path d="m18 11h19v2h-19z" fill="url(#gradient_ice-4)"/><path d="m27 15h21v2h-21z" fill="url(#gradient_ice-5)"/><path d="m27 19h21v2h-21z" fill="url(#gradient_ice-6)"/><path d="m32 32a13 13 0 1 0 13 13 13.015 13.015 0 0 0 -13-13zm1 23.949v-1.949h-2v1.949a11.01 11.01 0 0 1 -9.949-9.949h1.949v-2h-1.949a11.01 11.01 0 0 1 9.949-9.949v1.949h2v-1.949a11.01 11.01 0 0 1 9.949 9.949h-1.949v2h1.949a11.01 11.01 0 0 1 -9.949 9.949z" fill="url(#gradient_ice-7)"/><path d="m32.033 43.726-5.393-4.494-1.28 1.536 6 5a1 1 0 0 0 1.24.032l4-3-1.2-1.6z" fill="url(#gradient_ice-8)"/></svg>