<svg id="File_management" height="512" viewBox="0 0 64 64" width="512" xmlns="http://www.w3.org/2000/svg" xmlns:xlink="http://www.w3.org/1999/xlink" data-name="File management"><linearGradient id="gradient_ice" gradientUnits="userSpaceOnUse" x1="1.917" x2="55.935" y1="65.266" y2="10.098"><stop offset="0" stop-color="#fff200"/><stop offset="1" stop-color="#cd118c"/></linearGradient><linearGradient id="gradient_ice-2" x1="-17.223" x2="36.796" xlink:href="#gradient_ice" y1="46.525" y2="-8.643"/><linearGradient id="gradient_ice-3" x1="-11.607" x2="42.412" xlink:href="#gradient_ice" y1="52.024" y2="-3.144"/><linearGradient id="gradient_ice-4" x1="-11.649" x2="42.369" xlink:href="#gradient_ice" y1="51.982" y2="-3.186"/><linearGradient id="gradient_ice-5" x1="-4.545" x2="49.474" xlink:href="#gradient_ice" y1="58.939" y2="3.771"/><linearGradient id="gradient_ice-6" x1="-2.545" x2="51.474" xlink:href="#gradient_ice" y1="60.897" y2="5.729"/><path d="m61 23h-3v-13a1 1 0 0 0 -1-1h-6.84l-7.49-6.74a.971.971 0 0 0 -.67-.26h-28a1 1 0 0 0 -1 1v6h-6a1 1 0 0 0 -1 1v5h-3a1 1 0 0 0 -1 1v39a1 1 0 0 0 1 1h23.25l5 5.66a1 1 0 0 0 1.5 0l5-5.66h23.25a1 1 0 0 0 1-1v-31a1 1 0 0 0 -1-1zm-5-12v12h-3v-11a1 1 0 0 0 -.33-.74l-.29-.26zm-13-5.75 6.39 5.75h-6.39zm-28-1.25h26v8a1 1 0 0 0 1 1h9v10h-25.38l-3.73-7.45a.988.988 0 0 0 -.89-.55h-6zm-7 7h5v4h-5zm24 48.49-12.78-14.49h6.78a1 1 0 0 0 .79-.38 1.022 1.022 0 0 0 .18-.86l-3.69-14.76h17.44l-3.69 14.76a1.022 1.022 0 0 0 .18.86 1 1 0 0 0 .79.38h6.78zm28-5.49h-20.49l8.24-9.34a1 1 0 0 0 -.75-1.66h-7.72l3.69-14.76a1.022 1.022 0 0 0 -.18-.86 1 1 0 0 0 -.79-.38h-20a1 1 0 0 0 -.79.38 1.022 1.022 0 0 0 -.18.86l3.69 14.76h-7.72a1 1 0 0 0 -.75 1.66l8.24 9.34h-20.49v-37h16.38l3.73 7.45a.988.988 0 0 0 .89.55h35z" fill="url(#gradient_ice)"/><path d="m18 7h5v2h-5z" fill="url(#gradient_ice-2)"/><path d="m26 7h11v2h-11z" fill="url(#gradient_ice-3)"/><path d="m18 11h19v2h-19z" fill="url(#gradient_ice-4)"/><path d="m27 15h21v2h-21z" fill="url(#gradient_ice-5)"/><path d="m27 19h21v2h-21z" fill="url(#gradient_ice-6)"/></svg>