<svg id="File_management" height="512" viewBox="0 0 64 64" width="512" xmlns="http://www.w3.org/2000/svg" xmlns:xlink="http://www.w3.org/1999/xlink" data-name="File management"><linearGradient id="gradient_ice" gradientUnits="userSpaceOnUse" x1="1.766" x2="55.785" y1="64.734" y2="10.715"><stop offset="0" stop-color="#fff200"/><stop offset="1" stop-color="#cd118c"/></linearGradient><linearGradient id="gradient_ice-2" x1="-17.234" x2="36.785" xlink:href="#gradient_ice" y1="45.734" y2="-8.285"/><linearGradient id="gradient_ice-3" x1="-11.734" x2="42.285" xlink:href="#gradient_ice" y1="51.234" y2="-2.785"/><linearGradient id="gradient_ice-5" x1="-4.734" x2="49.285" xlink:href="#gradient_ice" y1="58.234" y2="4.215"/><linearGradient id="gradient_ice-6" x1="-2.734" x2="51.285" xlink:href="#gradient_ice" y1="60.234" y2="6.215"/><linearGradient id="gradient_ice-7" x1="7.016" x2="61.035" xlink:href="#gradient_ice" y1="69.984" y2="15.965"/><path d="m61 23h-3v-13a1 1 0 0 0 -1-1h-6.838l-7.493-6.743a1 1 0 0 0 -.669-.257h-28a1 1 0 0 0 -1 1v6h-6a1 1 0 0 0 -1 1v5h-3a1 1 0 0 0 -1 1v39a1 1 0 0 0 1 1h15.958l3.85 3.849a1 1 0 0 0 1.414 0l2.778-2.778v3.929a1 1 0 0 0 1 1h8a1 1 0 0 0 1-1v-3.929l2.778 2.778a1 1 0 0 0 1.414 0l3.85-3.849h15.958a1 1 0 0 0 1-1v-31a1 1 0 0 0 -1-1zm-5-12v12h-3v-11a1 1 0 0 0 -.331-.743l-.285-.257zm-13-5.755 6.394 5.755h-6.394zm-2-1.245v8a1 1 0 0 0 1 1h9v10h-25.382l-3.718-7.447a1 1 0 0 0 -.9-.553h-6v-11zm-33 7h5v4h-5zm32.485 46.728-2.615-2.615a1 1 0 0 0 -1.139-.2 10.942 10.942 0 0 1 -1.065.442 1 1 0 0 0 -.666.945v3.7h-6v-3.7a1 1 0 0 0 -.666-.943 10.942 10.942 0 0 1 -1.065-.442 1 1 0 0 0 -1.139.2l-2.615 2.615-4.243-4.243 2.615-2.615a1 1 0 0 0 .2-1.139 10.942 10.942 0 0 1 -.442-1.065 1 1 0 0 0 -.945-.668h-3.7v-6h3.7a1 1 0 0 0 .943-.666 10.942 10.942 0 0 1 .442-1.065 1 1 0 0 0 -.2-1.139l-2.615-2.615 4.243-4.243 2.615 2.615a1 1 0 0 0 1.139.2 10.942 10.942 0 0 1 1.065-.442 1 1 0 0 0 .668-.945v-3.7h6v3.7a1 1 0 0 0 .666.943 10.942 10.942 0 0 1 1.065.442 1 1 0 0 0 1.139-.2l2.615-2.615 4.243 4.243-2.615 2.617a1 1 0 0 0 -.2 1.139 10.942 10.942 0 0 1 .442 1.065 1 1 0 0 0 .945.666h3.7v6h-3.7a1 1 0 0 0 -.943.666 10.942 10.942 0 0 1 -.442 1.065 1 1 0 0 0 .2 1.139l2.615 2.615zm19.515-3.728h-13.023a.985.985 0 0 0 -.128-1.222l-2.778-2.778h3.929a1 1 0 0 0 1-1v-8a1 1 0 0 0 -1-1h-3.929l2.778-2.778a1 1 0 0 0 0-1.414l-5.657-5.657a1 1 0 0 0 -1.414 0l-2.778 2.778v-3.929a1 1 0 0 0 -1-1h-8a1 1 0 0 0 -1 1v3.929l-2.778-2.778a1 1 0 0 0 -1.414 0l-5.657 5.657a1 1 0 0 0 0 1.414l2.778 2.778h-3.929a1 1 0 0 0 -1 1v8a1 1 0 0 0 1 1h3.929l-2.778 2.778a.985.985 0 0 0 -.128 1.222h-13.023v-37h16.382l3.723 7.447a1 1 0 0 0 .895.553h35z" fill="url(#gradient_ice)"/><path d="m18 7h5v2h-5z" fill="url(#gradient_ice-2)"/><path d="m26 7h11v2h-11z" fill="url(#gradient_ice-3)"/><path d="m18 11h19v2h-19z" fill="url(#gradient_ice-3)"/><path d="m27 15h21v2h-21z" fill="url(#gradient_ice-5)"/><path d="m27 19h21v2h-21z" fill="url(#gradient_ice-6)"/><path d="m32 37a8 8 0 1 0 8 8 8.009 8.009 0 0 0 -8-8zm0 14a6 6 0 1 1 6-6 6.006 6.006 0 0 1 -6 6z" fill="url(#gradient_ice-7)"/></svg>