<svg id="File_management" height="512" viewBox="0 0 64 64" width="512" xmlns="http://www.w3.org/2000/svg" xmlns:xlink="http://www.w3.org/1999/xlink" data-name="File management"><linearGradient id="gradient_ice" gradientUnits="userSpaceOnUse" x1="1.484" x2="57.802" y1="65.679" y2="8.213"><stop offset="0" stop-color="#fff200"/><stop offset="1" stop-color="#cd118c"/></linearGradient><linearGradient id="gradient_ice-2" x1="-17.65" x2="38.668" xlink:href="#gradient_ice" y1="46.928" y2="-10.539"/><linearGradient id="gradient_ice-3" x1="-12.039" x2="44.279" xlink:href="#gradient_ice" y1="52.427" y2="-5.04"/><linearGradient id="gradient_ice-4" x1="-12.079" x2="44.238" xlink:href="#gradient_ice" y1="52.387" y2="-5.08"/><linearGradient id="gradient_ice-5" x1="-4.979" x2="51.339" xlink:href="#gradient_ice" y1="59.346" y2="1.879"/><linearGradient id="gradient_ice-6" x1="-2.979" x2="53.338" xlink:href="#gradient_ice" y1="61.305" y2="3.839"/><linearGradient id="gradient_ice-7" x1="8.962" x2="65.28" xlink:href="#gradient_ice" y1="73.008" y2="15.541"/><path d="m61 23h-3v-13a1 1 0 0 0 -1-1h-6.84l-7.49-6.74a.971.971 0 0 0 -.67-.26h-28a1 1 0 0 0 -1 1v6h-6a1 1 0 0 0 -1 1v5h-3a1 1 0 0 0 -1 1v39a1 1 0 0 0 1 1h17v5a1 1 0 0 0 1 1h22a1 1 0 0 0 1-1v-5h17a1 1 0 0 0 1-1v-31a1 1 0 0 0 -1-1zm-5-12v12h-3v-11a1 1 0 0 0 -.33-.74l-.29-.26zm-13-5.75 6.39 5.75h-6.39zm-28-1.25h26v8a1 1 0 0 0 1 1h9v10h-25.38l-3.73-7.45a.977.977 0 0 0 -.89-.55h-6zm-7 7h5v4h-5zm34 49h-20v-19h20zm-10-29a6 6 0 0 0 -6 6v2h-2v-2a8 8 0 0 1 16 0v2h-2v-2a6 6 0 0 0 -6-6zm4 6v2h-8v-2a4 4 0 0 1 8 0zm24 17h-16v-14a1 1 0 0 0 -1-1h-1v-2a10 10 0 0 0 -20 0v2h-1a1 1 0 0 0 -1 1v14h-16v-37h16.38l3.73 7.45a.977.977 0 0 0 .89.55h35z" fill="url(#gradient_ice)"/><path d="m18 7h5v2h-5z" fill="url(#gradient_ice-2)"/><path d="m26 7h11v2h-11z" fill="url(#gradient_ice-3)"/><path d="m18 11h19v2h-19z" fill="url(#gradient_ice-4)"/><path d="m27 15h21v2h-21z" fill="url(#gradient_ice-5)"/><path d="m27 19h21v2h-21z" fill="url(#gradient_ice-6)"/><path d="m32 44a3 3 0 0 0 -3 3v5a3 3 0 0 0 6 0v-5a3 3 0 0 0 -3-3zm1 8a1 1 0 0 1 -2 0v-5a1 1 0 0 1 2 0z" fill="url(#gradient_ice-7)"/></svg>