<svg id="File_management" height="512" viewBox="0 0 64 64" width="512" xmlns="http://www.w3.org/2000/svg" xmlns:xlink="http://www.w3.org/1999/xlink" data-name="File management"><linearGradient id="gradient_ice" gradientUnits="userSpaceOnUse" x1="-.284" x2="58.332" y1="65.303" y2="8.985"><stop offset="0" stop-color="#fff200"/><stop offset="1" stop-color="#cd118c"/></linearGradient><linearGradient id="gradient_ice-2" x1="-18.936" x2="39.68" xlink:href="#gradient_ice" y1="45.89" y2="-10.428"/><linearGradient id="gradient_ice-3" x1="-13.656" x2="44.96" xlink:href="#gradient_ice" y1="51.385" y2="-4.932"/><linearGradient id="gradient_ice-4" x1="-13.578" x2="45.038" xlink:href="#gradient_ice" y1="51.467" y2="-4.851"/><linearGradient id="gradient_ice-5" x1="-6.779" x2="51.837" xlink:href="#gradient_ice" y1="58.543" y2="2.225"/><linearGradient id="gradient_ice-6" x1="-4.781" x2="53.835" xlink:href="#gradient_ice" y1="60.623" y2="4.305"/><path d="m61 23h-3v-13a1 1 0 0 0 -1-1h-6.84l-7.49-6.74a.971.971 0 0 0 -.67-.26h-28a1 1 0 0 0 -1 1v6h-6a1 1 0 0 0 -1 1v5h-3a1 1 0 0 0 -1 1v39a1 1 0 0 0 1 1h19.22l-1.19 4.76a1.022 1.022 0 0 0 .18.86 1 1 0 0 0 .79.38h20a1 1 0 0 0 .79-.38 1.022 1.022 0 0 0 .18-.86l-1.19-4.76h19.22a1 1 0 0 0 1-1v-31a1 1 0 0 0 -1-1zm-5-12v12h-3v-11a1 1 0 0 0 -.33-.74l-.29-.26zm-13-5.75 6.39 5.75h-6.39zm-28-1.25h26v8a1 1 0 0 0 1 1h9v10h-25.38l-3.73-7.45a.988.988 0 0 0 -.89-.55h-6zm-7 7h5v4h-5zm15.28 49 3.69-14.76a1.022 1.022 0 0 0 -.18-.86 1 1 0 0 0 -.79-.38h-6.78l12.78-14.49 12.78 14.49h-6.78a1 1 0 0 0 -.79.38 1.022 1.022 0 0 0 -.18.86l3.69 14.76zm36.72-6h-18.72l-2-8h7.72a1 1 0 0 0 .75-1.66l-15-17a1.033 1.033 0 0 0 -1.5 0l-15 17a1 1 0 0 0 .75 1.66h7.72l-2 8h-18.72v-37h16.38l3.73 7.45a.988.988 0 0 0 .89.55h35z" fill="url(#gradient_ice)"/><path d="m18 7h5v2h-5z" fill="url(#gradient_ice-2)"/><path d="m26 7h11v2h-11z" fill="url(#gradient_ice-3)"/><path d="m18 11h19v2h-19z" fill="url(#gradient_ice-4)"/><path d="m27 15h21v2h-21z" fill="url(#gradient_ice-5)"/><path d="m27 19h21v2h-21z" fill="url(#gradient_ice-6)"/></svg>