<svg id="File_management" height="512" viewBox="0 0 64 64" width="512" xmlns="http://www.w3.org/2000/svg" xmlns:xlink="http://www.w3.org/1999/xlink" data-name="File management"><linearGradient id="gradient_ice" gradientUnits="userSpaceOnUse" x1="-1.909" x2="49.811" y1="65.764" y2="7.148"><stop offset="0" stop-color="#fff200"/><stop offset="1" stop-color="#cd118c"/></linearGradient><linearGradient id="gradient_ice-2" x1="3.647" x2="55.367" xlink:href="#gradient_ice" y1="70.667" y2="12.051"/><linearGradient id="gradient_ice-3" x1="-9.119" x2="42.601" xlink:href="#gradient_ice" y1="59.402" y2=".786"/><linearGradient id="gradient_ice-4" x1="-1.248" x2="50.472" xlink:href="#gradient_ice" y1="66.348" y2="7.731"/><linearGradient id="gradient_ice-5" x1="-1.512" x2="50.208" xlink:href="#gradient_ice" y1="66.114" y2="7.498"/><linearGradient id="gradient_ice-6" x1=".472" x2="52.192" xlink:href="#gradient_ice" y1="67.865" y2="9.249"/><linearGradient id="gradient_ice-7" x1="-6.87" x2="44.85" xlink:href="#gradient_ice" y1="61.387" y2="2.77"/><path d="m42 21a5 5 0 1 0 -5-5 5.006 5.006 0 0 0 5 5zm0-8a3 3 0 1 1 -3 3 3 3 0 0 1 3-3z" fill="url(#gradient_ice)"/><path d="m61 33h-3v-13a1 1 0 0 0 -1-1h-3v-12a1 1 0 0 0 -1-1h-42a1 1 0 0 0 -1 1v12h-3a1 1 0 0 0 -1 1v6h-3a1 1 0 0 0 -1 1v34a1 1 0 0 0 1 1h58a1 1 0 0 0 1-1v-27a1 1 0 0 0 -1-1zm-7-12h2v12h-2zm-42-13h40v25h-2.61l-12.71-11.73a.988.988 0 0 0 -1.13-.16l-7.14 3.57-4.54-8.17a1 1 0 0 0 -.87-.51h-.01a.988.988 0 0 0 -.87.53l-5.01 9.47h-5.11zm34.44 25h-20.86l-3.71-6.5a1 1 0 0 0 -.87-.5h-1.63l3.65-6.9 4.11 7.39a1 1 0 0 0 1.32.4l7.38-3.69zm-38.44-12h2v5h-2zm52 39h-56v-32h16.42l3.71 6.5a1 1 0 0 0 .87.5h35z" fill="url(#gradient_ice-2)"/><path d="m7 39h2v2h-2z" fill="url(#gradient_ice-3)"/><path d="m15 39h14v2h-14z" fill="url(#gradient_ice-4)"/><path d="m7 43h22v2h-22z" fill="url(#gradient_ice-5)"/><path d="m7 47h22v2h-22z" fill="url(#gradient_ice-6)"/><path d="m11 39h2v2h-2z" fill="url(#gradient_ice-7)"/></svg>