<svg id="File_management" height="512" viewBox="0 0 64 64" width="512" xmlns="http://www.w3.org/2000/svg" xmlns:xlink="http://www.w3.org/1999/xlink" data-name="File management"><linearGradient id="gradient_ice" gradientUnits="userSpaceOnUse" x1="1.495" x2="61.261" y1="62.797" y2="4.181"><stop offset="0" stop-color="#fff200"/><stop offset="1" stop-color="#cd118c"/></linearGradient><linearGradient id="gradient_ice-2" x1="-15.854" x2="43.911" xlink:href="#gradient_ice" y1="45.107" y2="-13.509"/><linearGradient id="gradient_ice-3" x1="-8.99" x2="50.775" xlink:href="#gradient_ice" y1="52.106" y2="-6.51"/><linearGradient id="gradient_ice-4" x1="-12.374" x2="47.391" xlink:href="#gradient_ice" y1="48.656" y2="-9.961"/><linearGradient id="gradient_ice-5" x1="-3.059" x2="56.707" xlink:href="#gradient_ice" y1="58.154" y2="-.462"/><linearGradient id="gradient_ice-6" x1="-5.462" x2="54.303" xlink:href="#gradient_ice" y1="55.703" y2="-2.913"/><linearGradient id="gradient_ice-7" x1="-8.356" x2="51.41" xlink:href="#gradient_ice" y1="52.753" y2="-5.863"/><linearGradient id="gradient_ice-8" x1="-1.001" x2="58.764" xlink:href="#gradient_ice" y1="60.251" y2="1.635"/><linearGradient id="gradient_ice-9" x1="3.853" x2="63.619" xlink:href="#gradient_ice" y1="65.201" y2="6.585"/><linearGradient id="gradient_ice-10" x1="-1.146" x2="58.62" xlink:href="#gradient_ice" y1="60.104" y2="1.488"/><path d="m61 2h-45a1 1 0 0 0 -1 1v26.7l-12.64 10.53a1 1 0 0 0 0 1.54l12.64 10.53v8.7a1 1 0 0 0 1 1h33a1.014 1.014 0 0 0 .68-.26l12-11a1.029 1.029 0 0 0 .32-.74v-47a1 1 0 0 0 -1-1zm-56.44 39 15.44-12.87v6.87a1.022 1.022 0 0 0 .37.78 1.007 1.007 0 0 0 .84.2l17.79-3.75v17.54l-17.79-3.75a1.007 1.007 0 0 0 -.84.2 1.022 1.022 0 0 0 -.37.78v6.87zm45.44 17.73v-7.73h8.43zm10-9.73h-11a1 1 0 0 0 -1 1v10h-31v-6.03l3.36 2.8a1 1 0 0 0 .64.23 1.023 1.023 0 0 0 .42-.09 1 1 0 0 0 .58-.91v-7.77l17.79 3.75a1.007 1.007 0 0 0 .84-.2 1.022 1.022 0 0 0 .37-.78v-20a1.022 1.022 0 0 0 -.37-.78 1.007 1.007 0 0 0 -.84-.2l-17.79 3.75v-7.77a1 1 0 0 0 -1.64-.77l-3.36 2.8v-24.03h43z" fill="url(#gradient_ice)"/><path d="m21 6h4v2h-4z" fill="url(#gradient_ice-2)"/><path d="m27 6h20v2h-20z" fill="url(#gradient_ice-3)"/><path d="m21 11h8v2h-8z" fill="url(#gradient_ice-4)"/><path d="m31 11h26v2h-26z" fill="url(#gradient_ice-5)"/><path d="m21 16h26v2h-26z" fill="url(#gradient_ice-6)"/><path d="m21 21h4v2h-4z" fill="url(#gradient_ice-7)"/><path d="m27 21h22v2h-22z" fill="url(#gradient_ice-8)"/><path d="m49 16h8v2h-8z" fill="url(#gradient_ice-9)"/><path d="m49 6h8v2h-8z" fill="url(#gradient_ice-10)"/></svg>