<svg id="File_management" height="512" viewBox="0 0 64 64" width="512" xmlns="http://www.w3.org/2000/svg" xmlns:xlink="http://www.w3.org/1999/xlink" data-name="File management"><linearGradient id="gradient_ice" gradientUnits="userSpaceOnUse" x1="4.59" x2="59.758" y1="70.282" y2="7.069"><stop offset="0" stop-color="#fff200"/><stop offset="1" stop-color="#cd118c"/></linearGradient><linearGradient id="gradient_ice-2" x1="-15.815" x2="39.354" xlink:href="#gradient_ice" y1="52.475" y2="-10.739"/><linearGradient id="gradient_ice-3" x1="-9.003" x2="46.165" xlink:href="#gradient_ice" y1="58.42" y2="-4.794"/><linearGradient id="gradient_ice-4" x1="-9.08" x2="46.088" xlink:href="#gradient_ice" y1="58.352" y2="-4.861"/><linearGradient id="gradient_ice-5" x1="3.114" x2="58.282" xlink:href="#gradient_ice" y1="68.994" y2="5.781"/><linearGradient id="gradient_ice-6" x1="5.591" x2="60.759" xlink:href="#gradient_ice" y1="71.156" y2="7.943"/><linearGradient id="gradient_ice-7" x1="8.068" x2="63.236" xlink:href="#gradient_ice" y1="73.318" y2="10.104"/><linearGradient id="gradient_ice-8" x1="6.004" x2="61.172" xlink:href="#gradient_ice" y1="71.516" y2="8.303"/><linearGradient id="gradient_ice-9" x1="8.274" x2="63.443" xlink:href="#gradient_ice" y1="73.498" y2="10.285"/><linearGradient id="gradient_ice-10" x1="12.816" x2="67.984" xlink:href="#gradient_ice" y1="77.461" y2="14.248"/><linearGradient id="gradient_ice-11" x1="-4.183" x2="50.985" xlink:href="#gradient_ice" y1="62.626" y2="-.587"/><path d="m61 6h-11.87l-3.4-3.68a.99.99 0 0 0 -.73-.32h-30a1 1 0 0 0 -1 1v14.2a10.017 10.017 0 0 0 -8 9.8v2h-1a1 1 0 0 0 -1 1v21a1 1 0 0 0 1 1h9v5a1 1 0 0 0 1 1h9v3a1 1 0 0 0 1 1h36a1 1 0 0 0 1-1v-54a1 1 0 0 0 -1-1zm-15-.44 8.72 9.44h-8.72zm-38 21.44a8 8 0 0 1 16 0v2h-2v-2a6 6 0 0 0 -12 0v2h-2zm12 0v2h-4v-6a4 4 0 0 1 4 4zm-6-3.44v5.44h-2v-2a3.98 3.98 0 0 1 2-3.44zm-8 26.44v-19h20v19zm10 6v-4h11a1 1 0 0 0 1-1v-21a1 1 0 0 0 -1-1h-1v-2a10.016 10.016 0 0 0 -10-10v-13h28v12a1 1 0 0 0 1 1h11v39zm44 4h-34v-2h31a1 1 0 0 0 1-1v-41a.977.977 0 0 0 -.27-.68l-6.75-7.32h9.02z" fill="url(#gradient_ice)"/><path d="m20 7h6v2h-6z" fill="url(#gradient_ice-2)"/><path d="m29 7h12v2h-12z" fill="url(#gradient_ice-3)"/><path d="m20 12h21v2h-21z" fill="url(#gradient_ice-4)"/><path d="m36 20h18v2h-18z" fill="url(#gradient_ice-5)"/><path d="m36 25h18v2h-18z" fill="url(#gradient_ice-6)"/><path d="m36 30h18v2h-18z" fill="url(#gradient_ice-7)"/><path d="m36 35h2v2h-2z" fill="url(#gradient_ice-8)"/><path d="m40 35h2v2h-2z" fill="url(#gradient_ice-9)"/><path d="m44 35h10v2h-10z" fill="url(#gradient_ice-10)"/><path d="m19 42v-5a3 3 0 0 0 -6 0v5a3 3 0 0 0 6 0zm-4 0v-5a1 1 0 0 1 2 0v5a1 1 0 0 1 -2 0z" fill="url(#gradient_ice-11)"/></svg>