<svg id="File_management" height="512" viewBox="0 0 64 64" width="512" xmlns="http://www.w3.org/2000/svg" xmlns:xlink="http://www.w3.org/1999/xlink" data-name="File management"><linearGradient id="gradient_ice" gradientUnits="userSpaceOnUse" x1="3.665" x2="63.536" y1="67.557" y2="5.555"><stop offset="0" stop-color="#fff200"/><stop offset="1" stop-color="#cd118c"/></linearGradient><linearGradient id="gradient_ice-2" x1="-14.109" x2="45.763" xlink:href="#gradient_ice" y1="50.393" y2="-11.608"/><linearGradient id="gradient_ice-3" x1="-7.899" x2="51.972" xlink:href="#gradient_ice" y1="56.39" y2="-5.612"/><linearGradient id="gradient_ice-4" x1="-7.97" x2="51.901" xlink:href="#gradient_ice" y1="56.321" y2="-5.68"/><linearGradient id="gradient_ice-5" x1="-2.608" x2="57.263" xlink:href="#gradient_ice" y1="61.499" y2="-.502"/><linearGradient id="gradient_ice-6" x1="-.609" x2="59.262" xlink:href="#gradient_ice" y1="63.429" y2="1.428"/><linearGradient id="gradient_ice-7" x1="1.39" x2="61.261" xlink:href="#gradient_ice" y1="65.359" y2="3.358"/><linearGradient id="gradient_ice-8" x1="4.941" x2="64.812" xlink:href="#gradient_ice" y1="68.789" y2="6.787"/><linearGradient id="gradient_ice-9" x1="9.857" x2="69.728" xlink:href="#gradient_ice" y1="73.536" y2="11.535"/><linearGradient id="gradient_ice-10" x1="-17.143" x2="42.729" xlink:href="#gradient_ice" y1="47.464" y2="-14.537"/><linearGradient id="gradient_ice-11" x1="-10.933" x2="48.938" xlink:href="#gradient_ice" y1="53.46" y2="-8.541"/><path d="m61 6h-11.87l-3.4-3.68a.99.99 0 0 0 -.73-.32h-30a1 1 0 0 0 -1 1v35h-5a7 7 0 0 0 0 14h5v5a1 1 0 0 0 1 1h9v3a1 1 0 0 0 1 1h36a1 1 0 0 0 1-1v-54a1 1 0 0 0 -1-1zm-47 44h-5a5 5 0 0 1 0-10h5zm32-44.44 8.72 9.44h-8.72zm-30 50.44v-4h13a9 9 0 0 0 0-18h-8v2h8a7 7 0 0 1 0 14h-13v-10h12a3 3 0 0 1 0 6h-10v2h10a5 5 0 0 0 0-10h-12v-34h28v12a1 1 0 0 0 1 1h11v39zm44 4h-34v-2h31a1 1 0 0 0 1-1v-41a.977.977 0 0 0 -.27-.68l-6.75-7.32h9.02z" fill="url(#gradient_ice)"/><path d="m19 12h6v2h-6z" fill="url(#gradient_ice-2)"/><path d="m27 12h14v2h-14z" fill="url(#gradient_ice-3)"/><path d="m19 16h22v2h-22z" fill="url(#gradient_ice-4)"/><path d="m19 20h35v2h-35z" fill="url(#gradient_ice-5)"/><path d="m19 24h35v2h-35z" fill="url(#gradient_ice-6)"/><path d="m19 28h35v2h-35z" fill="url(#gradient_ice-7)"/><path d="m37 32h5v2h-5z" fill="url(#gradient_ice-8)"/><path d="m44 32h10v2h-10z" fill="url(#gradient_ice-9)"/><path d="m19 8h2v2h-2z" fill="url(#gradient_ice-10)"/><path d="m23 8h18v2h-18z" fill="url(#gradient_ice-11)"/></svg>