<svg id="File_management" height="512" viewBox="0 0 64 64" width="512" xmlns="http://www.w3.org/2000/svg" xmlns:xlink="http://www.w3.org/1999/xlink" data-name="File management"><linearGradient id="gradient_ice" gradientUnits="userSpaceOnUse" x1="-6.37" x2="56.843" y1="69.182" y2="7.118"><stop offset="0" stop-color="#fff200"/><stop offset="1" stop-color="#cd118c"/></linearGradient><linearGradient id="gradient_ice-2" x1="-14.001" x2="49.213" xlink:href="#gradient_ice" y1="61.41" y2="-.654"/><linearGradient id="gradient_ice-3" x1="-18.418" x2="44.795" xlink:href="#gradient_ice" y1="56.911" y2="-5.154"/><linearGradient id="gradient_ice-4" x1="4.301" x2="67.514" xlink:href="#gradient_ice" y1="80.05" y2="17.986"/><linearGradient id="gradient_ice-5" x1="4.582" x2="67.796" xlink:href="#gradient_ice" y1="80.337" y2="18.273"/><linearGradient id="gradient_ice-6" x1="9.282" x2="72.495" xlink:href="#gradient_ice" y1="85.123" y2="23.059"/><linearGradient id="gradient_ice-7" x1="14.226" x2="77.44" xlink:href="#gradient_ice" y1="90.16" y2="28.096"/><linearGradient id="gradient_ice-8" x1="12.263" x2="75.476" xlink:href="#gradient_ice" y1="88.16" y2="26.096"/><linearGradient id="gradient_ice-9" x1="8.336" x2="71.55" xlink:href="#gradient_ice" y1="84.161" y2="22.097"/><linearGradient id="gradient_ice-10" x1="9.491" x2="72.704" xlink:href="#gradient_ice" y1="85.336" y2="23.272"/><linearGradient id="gradient_ice-11" x1=".447" x2="63.66" xlink:href="#gradient_ice" y1="76.125" y2="14.061"/><linearGradient id="gradient_ice-12" x1="1.465" x2="64.678" xlink:href="#gradient_ice" y1="77.162" y2="15.098"/><linearGradient id="gradient_ice-13" x1="-.08" x2="63.133" xlink:href="#gradient_ice" y1="75.588" y2="13.524"/><linearGradient id="gradient_ice-14" x1="-4.007" x2="59.206" xlink:href="#gradient_ice" y1="71.589" y2="9.525"/><linearGradient id="gradient_ice-15" x1="-2.571" x2="60.643" xlink:href="#gradient_ice" y1="73.051" y2="10.987"/><path d="m61 22h-7v-10a1 1 0 0 0 -.33-.74l-10-9a.971.971 0 0 0 -.67-.26h-32a1 1 0 0 0 -1 1v19h-7a1 1 0 0 0 -1 1v28a1 1 0 0 0 1 1h8v9a1 1 0 0 0 1 1h40a1 1 0 0 0 1-1v-9h8a1 1 0 0 0 1-1v-28a1 1 0 0 0 -1-1zm-17-16.75 6.39 5.75h-6.39zm-32-1.25h30v8a1 1 0 0 0 1 1h9v9h-40zm39 56h-38v-18h38zm1-20h-40a1 1 0 0 0 -1 1v2h-2v-5h46v5h-2v-2a1 1 0 0 0 -1-1zm8 10h-7v-5h3a1 1 0 0 0 1-1v-7a1 1 0 0 0 -1-1h-48a1 1 0 0 0 -1 1v7a1 1 0 0 0 1 1h3v5h-7v-26h56z" fill="url(#gradient_ice)"/><path d="m21 26h-5a1 1 0 0 0 -1 1v5a1 1 0 0 0 1 1h5a1 1 0 0 0 1-1v-5a1 1 0 0 0 -1-1zm-1 5h-3v-3h3z" fill="url(#gradient_ice-2)"/><path d="m12 26h-5a1 1 0 0 0 -1 1v5a1 1 0 0 0 1 1h5a1 1 0 0 0 1-1v-5a1 1 0 0 0 -1-1zm-1 5h-3v-3h3z" fill="url(#gradient_ice-3)"/><path d="m31 44h18v2h-18z" fill="url(#gradient_ice-4)"/><path d="m31 48h11v2h-11z" fill="url(#gradient_ice-5)"/><path d="m35 52h14v2h-14z" fill="url(#gradient_ice-6)"/><path d="m47 56h2v2h-2z" fill="url(#gradient_ice-7)"/><path d="m43 56h2v2h-2z" fill="url(#gradient_ice-8)"/><path d="m31 56h10v2h-10z" fill="url(#gradient_ice-9)"/><path d="m44 48h5v2h-5z" fill="url(#gradient_ice-10)"/><path d="m15 52h18v2h-18z" fill="url(#gradient_ice-11)"/><path d="m15 56h14v2h-14z" fill="url(#gradient_ice-12)"/><path d="m25 48h4v2h-4z" fill="url(#gradient_ice-13)"/><path d="m15 48h8v2h-8z" fill="url(#gradient_ice-14)"/><path d="m23 44h6v2h-6z" fill="url(#gradient_ice-15)"/></svg>