<svg id="File_management" height="512" viewBox="0 0 64 64" width="512" xmlns="http://www.w3.org/2000/svg" xmlns:xlink="http://www.w3.org/1999/xlink" data-name="File management"><linearGradient id="gradient_ice" gradientUnits="userSpaceOnUse" x1="4.416" x2="54.987" y1="68.156" y2="15.286"><stop offset="0" stop-color="#fff200"/><stop offset="1" stop-color="#cd118c"/></linearGradient><linearGradient id="gradient_ice-2" x1="-15.428" x2="35.143" xlink:href="#gradient_ice" y1="49.175" y2="-3.695"/><linearGradient id="gradient_ice-3" x1="-8.117" x2="42.454" xlink:href="#gradient_ice" y1="56.168" y2="3.298"/><linearGradient id="gradient_ice-4" x1="-11.886" x2="38.685" xlink:href="#gradient_ice" y1="52.563" y2="-.307"/><linearGradient id="gradient_ice-5" x1="-4.575" x2="45.996" xlink:href="#gradient_ice" y1="59.556" y2="6.686"/><linearGradient id="gradient_ice-6" x1="-4.688" x2="45.882" xlink:href="#gradient_ice" y1="59.447" y2="6.578"/><linearGradient id="gradient_ice-7" x1="-7.935" x2="42.636" xlink:href="#gradient_ice" y1="56.341" y2="3.472"/><linearGradient id="gradient_ice-8" x1="1.987" x2="52.558" xlink:href="#gradient_ice" y1="65.832" y2="12.963"/><linearGradient id="gradient_ice-9" x1="-10.205" x2="40.365" xlink:href="#gradient_ice" y1="54.17" y2="1.301"/><linearGradient id="gradient_ice-10" x1="-2.104" x2="48.467" xlink:href="#gradient_ice" y1="61.919" y2="9.05"/><linearGradient id="gradient_ice-11" x1="12.329" x2="62.9" xlink:href="#gradient_ice" y1="75.724" y2="22.855"/><linearGradient id="gradient_ice-12" x1="9.718" x2="60.289" xlink:href="#gradient_ice" y1="73.227" y2="20.357"/><linearGradient id="gradient_ice-13" x1="14.94" x2="65.511" xlink:href="#gradient_ice" y1="78.222" y2="25.352"/><linearGradient id="gradient_ice-14" x1="17.551" x2="68.122" xlink:href="#gradient_ice" y1="80.719" y2="27.85"/><path d="m61.74 14.327-10-11a1 1 0 0 0 -.74-.327h-34a1 1 0 0 0 -1 1v20.525a9.224 9.224 0 0 0 -2.743-1.242 9 9 0 0 0 -6.145 16.828 9.005 9.005 0 0 0 3.874 17.125 8.769 8.769 0 0 0 2.27-.3 9.251 9.251 0 0 0 2.744-1.236v4.3a1 1 0 0 0 1 1h44a1 1 0 0 0 1-1v-45a1 1 0 0 0 -.26-.673zm-9.74-7.74 6.739 7.413h-6.739zm-47.78 27.156a7.052 7.052 0 0 1 1.159-5.925 7 7 0 0 1 12.5 5.46 1 1 0 0 0 .56 1.088l1.673.781-8.312 3.874a1.2 1.2 0 0 0 -.322-.039 7 7 0 0 1 -7.258-5.239zm8.52 21.265a6.946 6.946 0 0 1 -7.358-2.6 7.052 7.052 0 0 1 -1.161-5.93 7 7 0 0 1 6.779-5.255c.161 0 .322.006.484.016a.969.969 0 0 0 .493-.091l24.264-11.317a8.98 8.98 0 0 1 8.481.468l3.072 1.869-29.358 13.69a1 1 0 0 0 -.561 1.089 6.943 6.943 0 0 1 -1.756 6.053h-.119v.116a7.124 7.124 0 0 1 -3.26 1.892zm20.384-13.793 14.67 6.842-3.073 1.869a8.991 8.991 0 0 1 -8.478.468l-11.393-5.321zm-15.124 17.785v-5.113a8.913 8.913 0 0 0 1.952-6.53l2.533-1.181 12.915 6.03a10.984 10.984 0 0 0 10.362-.571l4.67-2.84a1 1 0 0 0 -.1-1.761l-14.842-6.922 14.843-6.922a1 1 0 0 0 .1-1.76l-4.669-2.84a10.977 10.977 0 0 0 -10.364-.571l-12.925 6.025-2.522-1.177a8.928 8.928 0 0 0 -1.953-6.528v-21.339h32v10a1 1 0 0 0 1 1h9v43z" fill="url(#gradient_ice)"/><path d="m21 8h4v2h-4z" fill="url(#gradient_ice-2)"/><path d="m27 8h20v2h-20z" fill="url(#gradient_ice-3)"/><path d="m21 13h8v2h-8z" fill="url(#gradient_ice-4)"/><path d="m31 13h16v2h-16z" fill="url(#gradient_ice-5)"/><path d="m21 18h26v2h-26z" fill="url(#gradient_ice-6)"/><path d="m21 23h4v2h-4z" fill="url(#gradient_ice-7)"/><path d="m27 23h30v2h-30z" fill="url(#gradient_ice-8)"/><path d="m11 37a5.009 5.009 0 1 0 -2.11-.471 5.007 5.007 0 0 0 2.11.471zm-2.819-3.973a3 3 0 1 1 1.551 1.693 2.979 2.979 0 0 1 -1.551-1.693z" fill="url(#gradient_ice-9)"/><path d="m12.71 43.523a5 5 0 1 0 2.821 2.585 4.967 4.967 0 0 0 -2.821-2.585zm-.442 7.417a3 3 0 1 1 1.451-3.986 2.984 2.984 0 0 1 -1.451 3.986z" fill="url(#gradient_ice-10)"/><path d="m45 39h3v2h-3z" fill="url(#gradient_ice-11)"/><path d="m40 39h3v2h-3z" fill="url(#gradient_ice-12)"/><path d="m50 39h3v2h-3z" fill="url(#gradient_ice-13)"/><path d="m55 39h3v2h-3z" fill="url(#gradient_ice-14)"/></svg>