<svg id="File_management" height="512" viewBox="0 0 64 64" width="512" xmlns="http://www.w3.org/2000/svg" xmlns:xlink="http://www.w3.org/1999/xlink" data-name="File management"><linearGradient id="gradient_ice" gradientUnits="userSpaceOnUse" x1="5.654" x2="56.225" y1="68.022" y2="11.704"><stop offset="0" stop-color="#fff200"/><stop offset="1" stop-color="#cd118c"/></linearGradient><linearGradient id="gradient_ice-2" x1="-14.581" x2="35.99" xlink:href="#gradient_ice" y1="49.852" y2="-6.466"/><linearGradient id="gradient_ice-3" x1="-7.938" x2="42.633" xlink:href="#gradient_ice" y1="55.817" y2="-.501"/><linearGradient id="gradient_ice-4" x1="-7.943" x2="42.627" xlink:href="#gradient_ice" y1="55.812" y2="-.506"/><linearGradient id="gradient_ice-5" x1="-5.261" x2="45.31" xlink:href="#gradient_ice" y1="58.22" y2="1.903"/><linearGradient id="gradient_ice-6" x1="4.061" x2="54.632" xlink:href="#gradient_ice" y1="66.591" y2="10.274"/><linearGradient id="gradient_ice-7" x1="6.547" x2="57.117" xlink:href="#gradient_ice" y1="68.823" y2="12.506"/><linearGradient id="gradient_ice-8" x1="9.032" x2="59.603" xlink:href="#gradient_ice" y1="71.055" y2="14.738"/><linearGradient id="gradient_ice-9" x1="7.089" x2="57.66" xlink:href="#gradient_ice" y1="69.31" y2="12.993"/><linearGradient id="gradient_ice-10" x1="9.303" x2="59.874" xlink:href="#gradient_ice" y1="71.299" y2="14.981"/><linearGradient id="gradient_ice-11" x1="13.732" x2="64.303" xlink:href="#gradient_ice" y1="75.276" y2="18.958"/><path d="m61 6h-11.87l-3.4-3.68a.99.99 0 0 0 -.73-.32h-30a1 1 0 0 0 -1 1v14.28l-11.32 3.77a1.014 1.014 0 0 0 -.68.95v15.34a11.067 11.067 0 0 0 5.34 9.43l6.66 4v6.23a1 1 0 0 0 1 1h9v3a1 1 0 0 0 1 1h36a1 1 0 0 0 1-1v-54a1 1 0 0 0 -1-1zm-15-.44 8.72 9.44h-8.72zm-37.63 39.5a9.047 9.047 0 0 1 -4.37-7.72v-14.62l14-4.67 14 4.67v14.62a9.047 9.047 0 0 1 -4.37 7.72l-9.63 5.77zm7.63 10.94v-4.03l1.49.89a1 1 0 0 0 1.02 0l10.15-6.09a11.067 11.067 0 0 0 5.34-9.43v-15.34a1.014 1.014 0 0 0 -.68-.95l-15-5a1 1 0 0 0 -.64 0l-1.68.56v-12.61h28v12a1 1 0 0 0 1 1h11v39zm44 4h-34v-2h31a1 1 0 0 0 1-1v-41a.977.977 0 0 0 -.27-.68l-6.75-7.32h9.02z" fill="url(#gradient_ice)"/><path d="m20 7h6v2h-6z" fill="url(#gradient_ice-2)"/><path d="m29 7h12v2h-12z" fill="url(#gradient_ice-3)"/><path d="m20 12h21v2h-21z" fill="url(#gradient_ice-4)"/><path d="m18.515 48.192 8.085-4.852a7.032 7.032 0 0 0 3.4-6v-12.34a1 1 0 0 0 -.737-.965l-11-3a1 1 0 0 0 -.526 0l-11 3a1 1 0 0 0 -.737.965v12.338a7.032 7.032 0 0 0 3.4 6l8.087 4.852a1 1 0 0 0 1.03 0zm-8.087-6.567a5.023 5.023 0 0 1 -2.428-4.287v-11.574l10-2.727 10 2.727v11.574a5.022 5.022 0 0 1 -2.428 4.287l-7.572 4.544z" fill="url(#gradient_ice-5)"/><path d="m36 20h18v2h-18z" fill="url(#gradient_ice-6)"/><path d="m36 25h18v2h-18z" fill="url(#gradient_ice-7)"/><path d="m36 30h18v2h-18z" fill="url(#gradient_ice-8)"/><path d="m36 35h2v2h-2z" fill="url(#gradient_ice-9)"/><path d="m40 35h2v2h-2z" fill="url(#gradient_ice-10)"/><path d="m44 35h10v2h-10z" fill="url(#gradient_ice-11)"/></svg>