<svg id="File_management" height="512" viewBox="0 0 64 64" width="512" xmlns="http://www.w3.org/2000/svg" xmlns:xlink="http://www.w3.org/1999/xlink" data-name="File management"><linearGradient id="gradient_ice" gradientUnits="userSpaceOnUse" x1="3.559" x2="58.727" y1="70.177" y2="13.86"><stop offset="0" stop-color="#fff200"/><stop offset="1" stop-color="#cd118c"/></linearGradient><linearGradient id="gradient_ice-2" x1="7.736" x2="62.904" xlink:href="#gradient_ice" y1="74.269" y2="17.952"/><linearGradient id="gradient_ice-3" x1="-8.546" x2="46.622" xlink:href="#gradient_ice" y1="58.319" y2="2.002"/><path d="m61.97 39.76-3-12a1 1 0 0 0 -.97-.76h-4v-4a1 1 0 0 0 -1-1h-5.04c.01-.22.04-.44.04-.66v-14.34a1 1 0 0 0 -.74-.97l-15-4a1.142 1.142 0 0 0 -.52 0l-15 4a1 1 0 0 0 -.74.97v14.34c0 .22.03.44.04.66h-4.04a1 1 0 0 0 -1 1v4h-4a1.014 1.014 0 0 0 -.95.68l-4 12a1.185 1.185 0 0 0 -.05.32v21a1 1 0 0 0 1 1h58a1 1 0 0 0 1-1v-21a.986.986 0 0 0 -.03-.24zm-7.97-10.76h3.22l2.5 10h-5.72zm-36-21.23 14-3.73 14 3.73v13.57a9.047 9.047 0 0 1 -4.37 7.72l-9.63 5.77-9.63-5.77a9.047 9.047 0 0 1 -4.37-7.72zm-5 16.23h3.34a11.031 11.031 0 0 0 5 6.77l10.15 6.09a1 1 0 0 0 1.02 0l10.15-6.09a11.031 11.031 0 0 0 5-6.77h4.34v15h-39zm-5.28 5h3.28v10h-6.61zm52.28 31h-56v-19h56z" fill="url(#gradient_ice)"/><path d="m45 46h-26a1 1 0 0 0 -1 1v5a1 1 0 0 0 1 1h26a1 1 0 0 0 1-1v-5a1 1 0 0 0 -1-1zm-1 5h-24v-3h24z" fill="url(#gradient_ice-2)"/><path d="m23.4 27.34 8.087 4.852a1 1 0 0 0 1.03 0l8.083-4.852a7.036 7.036 0 0 0 3.4-6v-11.267a1 1 0 0 0 -.742-.966l-11-2.934a1 1 0 0 0 -.516 0l-11 2.934a1 1 0 0 0 -.742.966v11.265a7.036 7.036 0 0 0 3.4 6.002zm-1.4-16.499 10-2.666 10 2.666v10.5a5.022 5.022 0 0 1 -2.428 4.287l-7.572 4.541-7.572-4.544a5.022 5.022 0 0 1 -2.428-4.287z" fill="url(#gradient_ice-3)"/></svg>