<svg id="File_management" height="512" viewBox="0 0 64 64" width="512" xmlns="http://www.w3.org/2000/svg" xmlns:xlink="http://www.w3.org/1999/xlink" data-name="File management"><linearGradient id="gradient_ice" gradientUnits="userSpaceOnUse" x1="4.357" x2="58.376" y1="69.937" y2="9.023"><stop offset="0" stop-color="#fff200"/><stop offset="1" stop-color="#cd118c"/></linearGradient><linearGradient id="gradient_ice-2" x1="-15.953" x2="38.065" xlink:href="#gradient_ice" y1="51.926" y2="-8.989"/><linearGradient id="gradient_ice-3" x1="-9.236" x2="44.783" xlink:href="#gradient_ice" y1="57.883" y2="-3.032"/><linearGradient id="gradient_ice-4" x1="-9.273" x2="44.746" xlink:href="#gradient_ice" y1="57.85" y2="-3.065"/><linearGradient id="gradient_ice-5" x1="-2.439" x2="51.579" xlink:href="#gradient_ice" y1="63.91" y2="2.995"/><linearGradient id="gradient_ice-6" x1="2.039" x2="56.058" xlink:href="#gradient_ice" y1="67.882" y2="6.967"/><linearGradient id="gradient_ice-7" x1="6.517" x2="60.536" xlink:href="#gradient_ice" y1="71.853" y2="10.938"/><path d="m61 6h-11.87l-3.4-3.68a.99.99 0 0 0 -.73-.32h-30a1 1 0 0 0 -1 1v14.42a5.014 5.014 0 0 0 -3 4.58v3h-8a1 1 0 0 0 -1 1v6a1 1 0 0 0 1 1h1.07l1.93 28.07a1 1 0 0 0 1 .93h54a1 1 0 0 0 1-1v-54a1 1 0 0 0 -1-1zm-15-.44 8.72 9.44h-8.72zm-30-1.56h28v12a1 1 0 0 0 1 1h11v39h-19.65l1.58-23h1.07a1 1 0 0 0 1-1v-6a1 1 0 0 0 -1-1h-8v-3a5 5 0 0 0 -5-5h-10zm-3 18a3.009 3.009 0 0 1 3-3h10a3.009 3.009 0 0 1 3 3v3h-2v-3a1 1 0 0 0 -1-1h-10a1 1 0 0 0 -1 1v3h-2zm12 1v2h-8v-2zm-21 8v-4h34v4zm30.07 29h-26.14l-1.86-27h29.86zm25.93 0h-23.93l.14-2h20.79a1 1 0 0 0 1-1v-41a.977.977 0 0 0 -.27-.68l-6.75-7.32h9.02z" fill="url(#gradient_ice)"/><path d="m20 7h6v2h-6z" fill="url(#gradient_ice-2)"/><path d="m29 7h12v2h-12z" fill="url(#gradient_ice-3)"/><path d="m20 12h21v2h-21z" fill="url(#gradient_ice-4)"/><path d="m15 36h-4a1 1 0 0 0 -1 1v19a1 1 0 0 0 1 1h4a1 1 0 0 0 1-1v-19a1 1 0 0 0 -1-1zm-1 19h-2v-17h2z" fill="url(#gradient_ice-5)"/><path d="m23 36h-4a1 1 0 0 0 -1 1v19a1 1 0 0 0 1 1h4a1 1 0 0 0 1-1v-19a1 1 0 0 0 -1-1zm-1 19h-2v-17h2z" fill="url(#gradient_ice-6)"/><path d="m31 36h-4a1 1 0 0 0 -1 1v19a1 1 0 0 0 1 1h4a1 1 0 0 0 1-1v-19a1 1 0 0 0 -1-1zm-1 19h-2v-17h2z" fill="url(#gradient_ice-7)"/></svg>