<svg id="File_management" height="512" viewBox="0 0 64 64" width="512" xmlns="http://www.w3.org/2000/svg" xmlns:xlink="http://www.w3.org/1999/xlink" data-name="File management"><linearGradient id="gradient_ice" gradientUnits="userSpaceOnUse" x1="1.74" x2="51.161" y1="63.3" y2="11.58"><stop offset="0" stop-color="#fff200"/><stop offset="1" stop-color="#cd118c"/></linearGradient><linearGradient id="gradient_ice-2" x1="-9.843" x2="39.578" xlink:href="#gradient_ice" y1="52.232" y2=".511"/><linearGradient id="gradient_ice-3" x1="-4.878" x2="44.544" xlink:href="#gradient_ice" y1="56.977" y2="5.257"/><linearGradient id="gradient_ice-4" x1="-3.925" x2="45.496" xlink:href="#gradient_ice" y1="57.887" y2="6.167"/><linearGradient id="gradient_ice-5" x1="-5.064" x2="44.358" xlink:href="#gradient_ice" y1="56.799" y2="5.079"/><linearGradient id="gradient_ice-6" x1="-.098" x2="49.324" xlink:href="#gradient_ice" y1="61.544" y2="9.824"/><linearGradient id="gradient_ice-7" x1="2.423" x2="51.844" xlink:href="#gradient_ice" y1="63.953" y2="12.233"/><path d="m49 10a12.58 12.58 0 0 0 -1.94.15 13 13 0 0 0 -24.13.03 10.668 10.668 0 0 0 -1.93-.18 11.023 11.023 0 0 0 -10.95 10h-.05a8 8 0 0 0 0 16h5v14a1 1 0 0 0 1 1h7.82l-1.79 7.77a1 1 0 0 0 .97 1.23h18a1 1 0 0 0 .97-1.23l-1.79-7.77h7.82a1 1 0 0 0 1-1v-14a13 13 0 0 0 0-26zm-24.74 48 2.71-11.78a.984.984 0 0 0 -.19-.84 1 1 0 0 0 -.78-.38h-3.8l9.8-6.78 9.8 6.78h-3.8a1 1 0 0 0 -.78.38.984.984 0 0 0 -.19.84l2.71 11.78zm22.74-9h-7.28l-.46-2h5.74a1 1 0 0 0 .57-1.82l-13-9a.992.992 0 0 0 -1.14 0l-13 9a1 1 0 0 0 .57 1.82h5.74l-.46 2h-7.28v-31h21v8a1 1 0 0 0 1 1h8zm-7-24v-5.59l5.59 5.59zm9 9v-8a1.033 1.033 0 0 0 -.29-.71l-9-9a1.033 1.033 0 0 0 -.71-.29h-23a1 1 0 0 0 -1 1v17h-5a6 6 0 0 1 0-12 5.038 5.038 0 0 1 .85.07 1.046 1.046 0 0 0 .8-.27 1.1 1.1 0 0 0 .35-.8 8.939 8.939 0 0 1 11.31-8.68 1.011 1.011 0 0 0 1.21-.67 11 11 0 0 1 20.94-.05.992.992 0 0 0 1.17.66 11 11 0 1 1 2.37 21.74z" fill="url(#gradient_ice)"/><path d="m19 20h2v2h-2z" fill="url(#gradient_ice-2)"/><path d="m23 20h13v2h-13z" fill="url(#gradient_ice-3)"/><path d="m19 24h17v2h-17z" fill="url(#gradient_ice-4)"/><path d="m19 28h5v2h-5z" fill="url(#gradient_ice-5)"/><path d="m26 28h10v2h-10z" fill="url(#gradient_ice-6)"/><path d="m19 32h26v2h-26z" fill="url(#gradient_ice-7)"/></svg>