<?xml version="1.0" encoding="UTF-8"?>
<svg xmlns="http://www.w3.org/2000/svg" xmlns:xlink="http://www.w3.org/1999/xlink" id="File_management" data-name="File management" viewBox="0 0 64 64" width="512" height="512"><defs><linearGradient id="gradient_ice" x1="2.912" y1="73.253" x2="67.275" y2="12.339" gradientUnits="userSpaceOnUse"><stop offset="0" stop-color="#fff200"/><stop offset="1" stop-color="#cd118c"/></linearGradient><linearGradient id="gradient_ice-2" x1="4.797" y1="75.245" x2="69.16" y2="14.331" xlink:href="#gradient_ice"/></defs><path d="M61.97,39.76l-3-12A1,1,0,0,0,58,27H50.38l-3.59-4.61A.985.985,0,0,0,46,22H39.97l-.62-2H46a1,1,0,0,0,.75-1.66l-14-16a1.033,1.033,0,0,0-1.5,0l-14,16A1,1,0,0,0,18,20h6.65l-.62,2H11a1,1,0,0,0-1,1v4H7a1.014,1.014,0,0,0-.95.68l-4,12A1.185,1.185,0,0,0,2,40V61a1,1,0,0,0,1,1H61a1,1,0,0,0,1-1V40A.986.986,0,0,0,61.97,39.76ZM57.22,29l2.5,10H54V32a.961.961,0,0,0-.21-.61L51.93,29ZM47,25.91,50.96,31H47ZM26.96,19.29a.991.991,0,0,0-.16-.88A.968.968,0,0,0,26,18H20.2L32,4.52,43.8,18H38a.968.968,0,0,0-.8.41.991.991,0,0,0-.16.88L40.65,31H23.35ZM12,24H23.42l-2.38,7.71a.991.991,0,0,0,.16.88A.968.968,0,0,0,22,33H42a.968.968,0,0,0,.8-.41.991.991,0,0,0,.16-.88L40.58,24H45v8a1,1,0,0,0,1,1h6v6H12ZM7.72,29H10V39H4.39ZM60,60H4V41H60Z" style="fill:url(#gradient_ice)"/><path d="M45,46H19a1,1,0,0,0-1,1v5a1,1,0,0,0,1,1H45a1,1,0,0,0,1-1V47A1,1,0,0,0,45,46Zm-1,5H20V48H44Z" style="fill:url(#gradient_ice-2)"/></svg>
