<svg height="512" viewBox="0 0 64 64" width="512" xmlns="http://www.w3.org/2000/svg" xmlns:xlink="http://www.w3.org/1999/xlink"><linearGradient id="gradient_ice" gradientUnits="userSpaceOnUse" x1="10.619" x2="65.662" y1="62.531" y2="3.879"><stop offset="0" stop-color="#fff200"/><stop offset="1" stop-color="#cd118c"/></linearGradient><linearGradient id="gradient_ice-2" x1="5.093" x2="60.135" xlink:href="#gradient_ice" y1="57.344" y2="-1.308"/><g id="bag-mail-delivery-postal"><path d="m61 21h-7v-10a9.014 9.014 0 0 0 -9-9h-24a9.014 9.014 0 0 0 -9 9v10h-3a7.008 7.008 0 0 0 -7 7v18a1 1 0 0 0 1 1h2v14a1 1 0 0 0 1 1h55a1 1 0 0 0 1-1v-39a1 1 0 0 0 -1-1zm-47-10a7.008 7.008 0 0 1 7-7h24a7.008 7.008 0 0 1 7 7v10h-2v-10a5 5 0 0 0 -5-5h-24a5 5 0 0 0 -5 5v10h-2zm34 0v10h-30v-10a3.009 3.009 0 0 1 3-3h24a3.009 3.009 0 0 1 3 3zm-44 34v-17a5 5 0 0 1 5-5h43.09a6.97 6.97 0 0 0 -2.09 5v17zm24 2v3h-4v-3zm27 13h-48v-1h48zm0-3h-48v-10h15v4a1 1 0 0 0 1 1h6a1 1 0 0 0 1-1v-4h21a1 1 0 0 0 1-1v-18a4.939 4.939 0 0 1 3-4.56zm5 3h-3v-37h3z" fill="url(#gradient_ice)"/><path d="m38 26h-22a1 1 0 0 0 -1 1v14a1 1 0 0 0 1 1h22a1 1 0 0 0 1-1v-14a1 1 0 0 0 -1-1zm-1 14h-20v-9.32l9.52 5.2a1.02 1.02 0 0 0 .96 0l9.52-5.2zm0-11.59-10 5.45-10-5.45v-.41h20z" fill="url(#gradient_ice-2)"/></g></svg>