<svg height="512" viewBox="0 0 64 64" width="512" xmlns="http://www.w3.org/2000/svg" xmlns:xlink="http://www.w3.org/1999/xlink"><linearGradient id="gradient_ice" gradientUnits="userSpaceOnUse" x1="-3.526" x2="58.735" y1="62.892" y2="8.752"><stop offset="0" stop-color="#fff200"/><stop offset="1" stop-color="#cd118c"/></linearGradient><linearGradient id="gradient_ice-2" x1=".188" x2="62.449" xlink:href="#gradient_ice" y1="67.163" y2="13.023"/><g id="box-mail-letter-postal"><path d="m61 2h-58a1 1 0 0 0 -1 1v58a1 1 0 0 0 1 1h58a1 1 0 0 0 1-1v-58a1 1 0 0 0 -1-1zm-33 2h8v11.92l-3.38-2.7a.984.984 0 0 0 -1.24 0l-3.38 2.7zm-24 0h22v6h-22zm56 56h-56v-48h22v6a1 1 0 0 0 .57.9.981.981 0 0 0 1.05-.12l4.38-3.5 4.38 3.5a.961.961 0 0 0 .62.22.907.907 0 0 0 .43-.1 1 1 0 0 0 .57-.9v-6h22zm0-50h-22v-6h22z" fill="url(#gradient_ice)"/><path d="m58 39h-2v-2a1 1 0 0 0 -1-1h-18v-15a1 1 0 0 0 -1-1h-30a1 1 0 0 0 -1 1v37a1 1 0 0 0 1 1h52a1 1 0 0 0 1-1v-18a1 1 0 0 0 -1-1zm-4.97-1-14.98 8.84-15.07-8.84zm-19.2-16-4.29 5h-17.08l-4.29-5zm-10.83 35h-16v-33.3l4.24 4.95a1.011 1.011 0 0 0 .76.35h9v1h-2a1 1 0 0 0 -1 1v3a1 1 0 0 0 1 1h3a1 1 0 0 0 1-1v-2h2v-2h-2v-1h7a1.011 1.011 0 0 0 .76-.35l4.24-4.95v12.3h-14a1 1 0 0 0 -1 1v18a1 1 0 0 0 1 1h2zm-2-25v1h-1v-1zm1 22v-14.25l15.55 9.11a.993.993 0 0 0 .5.14 1.03 1.03 0 0 0 .51-.14l15.44-9.11v14.25zm35 3h-32v-1h30a1 1 0 0 0 1-1v-14h1z" fill="url(#gradient_ice-2)"/></g></svg>