<svg height="512" viewBox="0 0 64 64" width="512" xmlns="http://www.w3.org/2000/svg" xmlns:xlink="http://www.w3.org/1999/xlink"><linearGradient id="gradient_ice" gradientUnits="userSpaceOnUse" x1="-3.584" x2="46.044" y1="62.901" y2="3.347"><stop offset="0" stop-color="#fff200"/><stop offset="1" stop-color="#cd118c"/></linearGradient><linearGradient id="gradient_ice-2" x1="-12.24" x2="37.388" xlink:href="#gradient_ice" y1="55.688" y2="-3.866"/><linearGradient id="gradient_ice-3" x1="-9.387" x2="40.241" xlink:href="#gradient_ice" y1="58.065" y2="-1.489"/><linearGradient id="gradient_ice-4" x1="2.219" x2="51.847" xlink:href="#gradient_ice" y1="67.737" y2="8.183"/><linearGradient id="gradient_ice-5" x1="5.17" x2="54.798" xlink:href="#gradient_ice" y1="70.196" y2="10.642"/><linearGradient id="gradient_ice-6" x1="9.399" x2="59.028" xlink:href="#gradient_ice" y1="73.721" y2="14.167"/><linearGradient id="gradient_ice-7" x1="25.039" x2="74.667" xlink:href="#gradient_ice" y1="86.753" y2="27.2"/><linearGradient id="gradient_ice-8" x1="10.088" x2="59.716" xlink:href="#gradient_ice" y1="74.294" y2="14.741"/><linearGradient id="gradient_ice-9" x1="16.285" x2="65.913" xlink:href="#gradient_ice" y1="79.458" y2="19.904"/><g id="box-postal-delivery"><path d="m25 33h-14a1 1 0 0 0 -1 1v6a1 1 0 0 0 1 1h14a1 1 0 0 0 1-1v-6a1 1 0 0 0 -1-1zm-1 6h-12v-4h12z" fill="url(#gradient_ice)"/><path d="m10 25h5v2h-5z" fill="url(#gradient_ice-2)"/><path d="m10 29h8v2h-8z" fill="url(#gradient_ice-3)"/><path d="m57 26h-7v-23a1 1 0 0 0 -1-1h-42a1 1 0 0 0 -1 1v42a1 1 0 0 0 1 1h23v4h-20a4 4 0 0 0 0 8h20v3a1 1 0 0 0 1 1h26a1 1 0 0 0 1-1v-34a1 1 0 0 0 -1-1zm-45 30h-2a2 2 0 0 1 0-4h2zm4 0h-2v-4h2zm18-52h14v3h-14zm-10 0h8v8.92l-3.38-2.7a.984.984 0 0 0 -1.24 0l-3.38 2.7zm-16 0h14v3h-14zm0 40v-35h14v6a1 1 0 0 0 .57.9.981.981 0 0 0 1.05-.12l4.38-3.5 4.38 3.5a.961.961 0 0 0 .62.22.907.907 0 0 0 .43-.1 1 1 0 0 0 .57-.9v-6h14v17h-17a1 1 0 0 0 -1 1v17zm10 12v-4h20.61l-.56 1.68a1 1 0 0 0 0 .64l.56 1.68zm38 4h-24v-2h8a1 1 0 0 0 .45-.11l6-3a1 1 0 0 0 0-1.78l-6-3a1 1 0 0 0 -.45-.11h-8v-22h24zm-15.95-6 .53-1.59 3.18 1.59-3.18 1.59z" fill="url(#gradient_ice-4)"/><path d="m35 31h4v2h-4z" fill="url(#gradient_ice-5)"/><path d="m35 36h10v2h-10z" fill="url(#gradient_ice-6)"/><path d="m45 57h8v2h-8z" fill="url(#gradient_ice-7)"/><path d="m35 41h4v2h-4z" fill="url(#gradient_ice-8)"/><path d="m42 41h11v2h-11z" fill="url(#gradient_ice-9)"/></g></svg>