<svg height="512" viewBox="0 0 64 64" width="512" xmlns="http://www.w3.org/2000/svg" xmlns:xlink="http://www.w3.org/1999/xlink"><linearGradient id="gradient_ice" gradientUnits="userSpaceOnUse" x1="1.39" x2="61.846" y1="64.11" y2="3.654"><stop offset="0" stop-color="#fff200"/><stop offset="1" stop-color="#cd118c"/></linearGradient><linearGradient id="gradient_ice-2" x1="-12.36" x2="48.096" xlink:href="#gradient_ice" y1="50.36" y2="-10.096"/><linearGradient id="gradient_ice-3" x1="-6.86" x2="53.596" xlink:href="#gradient_ice" y1="55.86" y2="-4.596"/><linearGradient id="gradient_ice-4" x1="-.86" x2="59.596" xlink:href="#gradient_ice" y1="61.86" y2="1.404"/><linearGradient id="gradient_ice-5" x1="4.64" x2="65.096" xlink:href="#gradient_ice" y1="67.36" y2="6.904"/><linearGradient id="gradient_ice-6" x1="-6.36" x2="54.096" xlink:href="#gradient_ice" y1="56.36" y2="-4.096"/><linearGradient id="gradient_ice-7" x1="-.36" x2="60.096" xlink:href="#gradient_ice" y1="62.36" y2="1.904"/><g id="calendar-mail-envelope-postal"><path d="m61 38h-3v-28a1 1 0 0 0 -1-1h-5v-5a1 1 0 0 0 -1-1h-7a1 1 0 0 0 -1 1v5h-26v-5a1 1 0 0 0 -1-1h-7a1 1 0 0 0 -1 1v5h-5a1 1 0 0 0 -1 1v50a1 1 0 0 0 1 1h54a1 1 0 0 0 1-1v-2h3a1 1 0 0 0 1-1v-18a1 1 0 0 0 -1-1zm-1.97 2-14.98 8.84-15.07-8.84zm-25.03-2v-3h4v3zm11 0v-3h4v3zm0-33h5v8h-5zm-35 0h5v8h-5zm-6 6h4v3a1 1 0 0 0 1 1h7a1 1 0 0 0 1-1v-3h26v3a1 1 0 0 0 1 1h7a1 1 0 0 0 1-1v-3h4v6h-52zm52 48h-52v-40h52v19h-5v-4a1 1 0 0 0 -1-1h-6a1 1 0 0 0 -1 1v4h-3v-4a1 1 0 0 0 -1-1h-6a1 1 0 0 0 -1 1v4h-4v-4a1 1 0 0 0 -1-1h-6a1 1 0 0 0 -1 1v6a1 1 0 0 0 1 1h5v4h-5a1 1 0 0 0 -1 1v6a1 1 0 0 0 1 1h5v4a1 1 0 0 0 1 1h29zm-30-24v4h-4v-4zm0 12v4h-4v-4zm34 9h-32v-14.25l15.55 9.11a.993.993 0 0 0 .5.14 1.03 1.03 0 0 0 .51-.14l15.44-9.11z" fill="url(#gradient_ice)"/><path d="m16 21h-6a1 1 0 0 0 -1 1v6a1 1 0 0 0 1 1h6a1 1 0 0 0 1-1v-6a1 1 0 0 0 -1-1zm-1 6h-4v-4h4z" fill="url(#gradient_ice-2)"/><path d="m21 29h6a1 1 0 0 0 1-1v-6a1 1 0 0 0 -1-1h-6a1 1 0 0 0 -1 1v6a1 1 0 0 0 1 1zm1-6h4v4h-4z" fill="url(#gradient_ice-3)"/><path d="m33 29h6a1 1 0 0 0 1-1v-6a1 1 0 0 0 -1-1h-6a1 1 0 0 0 -1 1v6a1 1 0 0 0 1 1zm1-6h4v4h-4z" fill="url(#gradient_ice-4)"/><path d="m44 29h6a1 1 0 0 0 1-1v-6a1 1 0 0 0 -1-1h-6a1 1 0 0 0 -1 1v6a1 1 0 0 0 1 1zm1-6h4v4h-4z" fill="url(#gradient_ice-5)"/><path d="m16 33h-6a1 1 0 0 0 -1 1v6a1 1 0 0 0 1 1h6a1 1 0 0 0 1-1v-6a1 1 0 0 0 -1-1zm-1 6h-4v-4h4z" fill="url(#gradient_ice-6)"/><path d="m16 45h-6a1 1 0 0 0 -1 1v6a1 1 0 0 0 1 1h6a1 1 0 0 0 1-1v-6a1 1 0 0 0 -1-1zm-1 6h-4v-4h4z" fill="url(#gradient_ice-7)"/></g></svg>