<svg height="512" viewBox="0 0 64 64" width="512" xmlns="http://www.w3.org/2000/svg" xmlns:xlink="http://www.w3.org/1999/xlink"><linearGradient id="gradient_ice" gradientUnits="userSpaceOnUse" x1="4.937" x2="66.295" y1="71.108" y2="-9.2"><stop offset="0" stop-color="#fff200"/><stop offset="1" stop-color="#cd118c"/></linearGradient><linearGradient id="gradient_ice-2" x1="-.418" x2="60.941" xlink:href="#gradient_ice" y1="67.017" y2="-13.29"/><linearGradient id="gradient_ice-3" x1="6.216" x2="67.574" xlink:href="#gradient_ice" y1="72.085" y2="-8.222"/><linearGradient id="gradient_ice-4" x1="2.881" x2="64.24" xlink:href="#gradient_ice" y1="69.538" y2="-10.77"/><linearGradient id="gradient_ice-5" x1="18.844" x2="80.202" xlink:href="#gradient_ice" y1="81.734" y2="1.426"/><g id="cart-box-Package-delivery-postal"><path d="m61 51v-19a1 1 0 0 0 -1-1h-9v-19a1 1 0 0 0 -1-1h-20a1 1 0 0 0 -1 1v19h-9a1 1 0 0 0 -1 1v19h-1v-2a1.033 1.033 0 0 0 -.29-.71l-3-3a1.033 1.033 0 0 0 -.71-.29h-2v-23h1a1 1 0 0 0 .97-.76l2-8a1.022 1.022 0 0 0 -.18-.86 1 1 0 0 0 -.79-.38h-12a1 1 0 0 0 -.79.38 1.022 1.022 0 0 0 -.18.86l2 8a1 1 0 0 0 .97.76h1v23h-3a1 1 0 0 0 -1 1v9h.09a6.638 6.638 0 0 0 -.09 1 6 6 0 0 0 11.91 1h6.09v4a1 1 0 0 0 1 1h6a1 1 0 0 0 1-1v-4h8v4a1 1 0 0 0 1 1h6a1 1 0 0 0 1-1v-4h8v4a1 1 0 0 0 1 1h6a1 1 0 0 0 1-1v-4h1a1 1 0 0 0 1-1v-4a1 1 0 0 0 -1-1zm-56.47-36-.25-1h9.44l-.25 1zm1.25 5-.75-3h7.94l-.75 3zm4.22 2v23h-2v-23zm-2 38a4 4 0 1 1 4-4 4 4 0 0 1 -4 4zm8-5h-2.09a5.984 5.984 0 0 0 -9.91-3.46v-4.54h9.59l2.41 2.41zm37-22h6v1h-6zm-1.45 4.89a1.03 1.03 0 0 0 .45.11 1.014 1.014 0 0 0 .53-.15 1 1 0 0 0 .47-.85v-1h6v15h-18v-15h6v1a1 1 0 0 0 1.45.89l1.55-.77zm-10.55-3.89v-1h6v1zm10-1v2.38l-.55-.27a.975.975 0 0 0 -.9 0l-.55.27v-2.38zm-8-20h6v1h-6zm-4 0h2v2.38l-.55-.27a.975.975 0 0 0 -.9 0l-.55.27zm-8 0h6v1h-6zm0 3h6v1a1 1 0 0 0 1.45.89l1.55-.77 1.55.77a1.03 1.03 0 0 0 .45.11 1.014 1.014 0 0 0 .53-.15 1 1 0 0 0 .47-.85v-1h6v15h-18zm8 17v1h-6v-1zm-10 0h2v2.38l-.55-.27a.975.975 0 0 0 -.9 0l-.55.27zm-8 0h6v1h-6zm0 3h6v1a1 1 0 0 0 1.45.89l1.55-.77 1.55.77a1.03 1.03 0 0 0 .45.11 1.014 1.014 0 0 0 .53-.15 1 1 0 0 0 .47-.85v-1h6v15h-18zm5 24h-4v-3h4zm16 0h-4v-3h4zm16 0h-4v-3h4zm2-5h-42v-2h42z" fill="url(#gradient_ice)"/><path d="m8 53a3 3 0 1 0 3 3 3 3 0 0 0 -3-3zm0 4a1 1 0 1 1 1-1 1 1 0 0 1 -1 1z" fill="url(#gradient_ice-2)"/><path d="m27 45h-4a1 1 0 0 0 -1 1v3a1 1 0 0 0 1 1h4a1 1 0 0 0 1-1v-3a1 1 0 0 0 -1-1zm-1 3h-2v-1h2z" fill="url(#gradient_ice-3)"/><path d="m33 30h4a1 1 0 0 0 1-1v-3a1 1 0 0 0 -1-1h-4a1 1 0 0 0 -1 1v3a1 1 0 0 0 1 1zm1-3h2v1h-2z" fill="url(#gradient_ice-4)"/><path d="m47 45h-4a1 1 0 0 0 -1 1v3a1 1 0 0 0 1 1h4a1 1 0 0 0 1-1v-3a1 1 0 0 0 -1-1zm-1 3h-2v-1h2z" fill="url(#gradient_ice-5)"/></g></svg>