<svg height="512" viewBox="0 0 64 64" width="512" xmlns="http://www.w3.org/2000/svg" xmlns:xlink="http://www.w3.org/1999/xlink"><linearGradient id="gradient_ice" gradientUnits="userSpaceOnUse" x1="-3.381" x2="59.782" y1="66.328" y2="-2.249"><stop offset="0" stop-color="#fff200"/><stop offset="1" stop-color="#cd118c"/></linearGradient><linearGradient id="gradient_ice-2" x1="-12.194" x2="50.969" xlink:href="#gradient_ice" y1="58.211" y2="-10.366"/><linearGradient id="gradient_ice-3" x1="2.47" x2="65.634" xlink:href="#gradient_ice" y1="71.718" y2="3.141"/><linearGradient id="gradient_ice-4" x1="4.15" x2="67.314" xlink:href="#gradient_ice" y1="73.265" y2="4.688"/><linearGradient id="gradient_ice-5" x1="-2.114" x2="61.049" xlink:href="#gradient_ice" y1="67.495" y2="-1.082"/><linearGradient id="gradient_ice-6" x1="16.281" x2="79.444" xlink:href="#gradient_ice" y1="84.438" y2="15.861"/><linearGradient id="gradient_ice-7" x1="-23.3" x2="39.864" xlink:href="#gradient_ice" y1="47.982" y2="-20.595"/><linearGradient id="gradient_ice-8" x1="-21.306" x2="41.857" xlink:href="#gradient_ice" y1="49.818" y2="-18.759"/><linearGradient id="gradient_ice-9" x1="-19.313" x2="43.85" xlink:href="#gradient_ice" y1="51.654" y2="-16.923"/><linearGradient id="gradient_ice-10" x1="-17.32" x2="45.843" xlink:href="#gradient_ice" y1="53.49" y2="-15.087"/><g id="Delivery_Truck-cargo-transport-mail" data-name="Delivery Truck-cargo-transport-mail"><path d="m61.24 25.03-7.35-1.84-1.9-13.33a1 1 0 0 0 -.99-.86h-12v-1a1 1 0 0 0 -1-1h-34a1 1 0 0 0 -1 1v31a1 1 0 0 0 -1 1v4a1 1 0 0 0 1 1h1v5a1 1 0 0 0 1 1h2.08a6.991 6.991 0 0 0 13.84 0h20.16a6.991 6.991 0 0 0 13.84 0h3.08a1 1 0 0 0 1-1v-5h2a1 1 0 0 0 1-1v-18a1 1 0 0 0 -.76-.97zm-56.24-16.03h32v23h-32zm0 25h32v5h-32zm2.08 15h-1.08v-4h3.11a6.968 6.968 0 0 0 -2.03 4zm6.92 6a5 5 0 1 1 5-5 5 5 0 0 1 -5 5zm27.08-6h-20.16a6.968 6.968 0 0 0 -2.03-4h24.22a6.968 6.968 0 0 0 -2.03 4zm6.92 6a5 5 0 1 1 5-5 5 5 0 0 1 -5 5zm9-6h-2.08a6.968 6.968 0 0 0 -2.03-4h4.11zm3-6h-56v-2h56zm0-4h-21v-28h11.13l1.88 13.14a1 1 0 0 0 .75.83l7.24 1.81z" fill="url(#gradient_ice)"/><path d="m34 12h-22a1 1 0 0 0 -1 1v14a1 1 0 0 0 1 1h22a1 1 0 0 0 1-1v-14a1 1 0 0 0 -1-1zm-1 14h-20v-9.32l9.52 5.2a1.02 1.02 0 0 0 .96 0l9.52-5.2zm0-11.59-10 5.45-10-5.45v-.41h20z" fill="url(#gradient_ice-2)"/><path d="m41 38h9a1 1 0 0 0 1-1v-13a.978.978 0 0 0 -.017-.179l-2-11a1 1 0 0 0 -.983-.821h-7a1 1 0 0 0 -1 1v24a1 1 0 0 0 1 1zm1-2v-11h7v11zm5.165-22 1.635 9h-6.8v-9z" fill="url(#gradient_ice-3)"/><path d="m43 29h2v2h-2z" fill="url(#gradient_ice-4)"/><path d="m14 47a3 3 0 1 0 3 3 3 3 0 0 0 -3-3zm0 4a1 1 0 1 1 1-1 1 1 0 0 1 -1 1z" fill="url(#gradient_ice-5)"/><path d="m48 47a3 3 0 1 0 3 3 3 3 0 0 0 -3-3zm0 4a1 1 0 1 1 1-1 1 1 0 0 1 -1 1z" fill="url(#gradient_ice-6)"/><path d="m7 13h2v2h-2z" fill="url(#gradient_ice-7)"/><path d="m7 17h2v2h-2z" fill="url(#gradient_ice-8)"/><path d="m7 21h2v2h-2z" fill="url(#gradient_ice-9)"/><path d="m7 25h2v2h-2z" fill="url(#gradient_ice-10)"/></g></svg>