<svg height="512" viewBox="0 0 64 64" width="512" xmlns="http://www.w3.org/2000/svg" xmlns:xlink="http://www.w3.org/1999/xlink"><linearGradient id="gradient_ice" gradientUnits="userSpaceOnUse" x1="2.37" x2="51.096" y1="47.984" y2="1.965"><stop offset="0" stop-color="#fff200"/><stop offset="1" stop-color="#cd118c"/></linearGradient><linearGradient id="gradient_ice-2" x1="-.958" x2="47.768" xlink:href="#gradient_ice" y1="44.46" y2="-1.559"/><linearGradient id="gradient_ice-3" x1="2.716" x2="51.442" xlink:href="#gradient_ice" y1="48.351" y2="2.332"/><linearGradient id="gradient_ice-4" x1="7.195" x2="55.921" xlink:href="#gradient_ice" y1="53.093" y2="7.074"/><linearGradient id="gradient_ice-5" x1="4.269" x2="52.995" xlink:href="#gradient_ice" y1="49.995" y2="3.977"/><linearGradient id="gradient_ice-6" x1="7.334" x2="56.06" xlink:href="#gradient_ice" y1="53.24" y2="7.221"/><linearGradient id="gradient_ice-7" x1="-14.672" x2="34.054" xlink:href="#gradient_ice" y1="29.94" y2="-16.079"/><linearGradient id="gradient_ice-8" x1="-12.703" x2="36.023" xlink:href="#gradient_ice" y1="32.025" y2="-13.994"/><linearGradient id="gradient_ice-9" x1="-9.874" x2="38.852" xlink:href="#gradient_ice" y1="35.02" y2="-10.999"/><linearGradient id="gradient_ice-10" x1="5.559" x2="54.285" xlink:href="#gradient_ice" y1="51.361" y2="5.342"/><linearGradient id="gradient_ice-11" x1="6.973" x2="55.699" xlink:href="#gradient_ice" y1="52.858" y2="6.84"/><linearGradient id="gradient_ice-12" x1="8.388" x2="57.114" xlink:href="#gradient_ice" y1="54.356" y2="8.337"/><linearGradient id="gradient_ice-13" x1="9.802" x2="58.528" xlink:href="#gradient_ice" y1="55.854" y2="9.835"/><linearGradient id="gradient_ice-14" x1="11.216" x2="59.942" xlink:href="#gradient_ice" y1="57.351" y2="11.332"/><linearGradient id="gradient_ice-15" x1="12.631" x2="61.357" xlink:href="#gradient_ice" y1="58.849" y2="12.83"/><linearGradient id="gradient_ice-16" x1="8.776" x2="57.502" xlink:href="#gradient_ice" y1="54.767" y2="8.748"/><g id="find-Envelope-mail-address"><path d="m61 4h-58a1 1 0 0 0 -1 1v30a1 1 0 0 0 1 1h17.41a15.99 15.99 0 0 0 8.59 4.71v2.29a1 1 0 0 0 -1 1v14a4 4 0 0 0 8 0v-14a1 1 0 0 0 -1-1v-2.29a15.99 15.99 0 0 0 8.59-4.71h17.41a1 1 0 0 0 1-1v-30a1 1 0 0 0 -1-1zm-27 54a2 2 0 0 1 -4 0v-6h4zm0-8h-4v-1h4zm0-3h-4v-2h4zm-3-4v-2.05c.33.02.66.05 1 .05s.67-.03 1-.05v2.05zm1-4a14 14 0 1 1 14-14 14.015 14.015 0 0 1 -14 14zm28-5h-14.78a16 16 0 1 0 -26.44 0h-14.78v-28h56z" fill="url(#gradient_ice)"/><path d="m24 18h4v2h-4z" fill="url(#gradient_ice-2)"/><path d="m24 23h9v2h-9z" fill="url(#gradient_ice-3)"/><path d="m35 23h6v2h-6z" fill="url(#gradient_ice-4)"/><path d="m24 28h5v2h-5z" fill="url(#gradient_ice-5)"/><path d="m31 28h4v2h-4z" fill="url(#gradient_ice-6)"/><path d="m6 8h3v2h-3z" fill="url(#gradient_ice-7)"/><path d="m6 11h5v2h-5z" fill="url(#gradient_ice-8)"/><path d="m13 11h3v2h-3z" fill="url(#gradient_ice-9)"/><path d="m24 32h2v2h-2z" fill="url(#gradient_ice-10)"/><path d="m27 32h2v2h-2z" fill="url(#gradient_ice-11)"/><path d="m30 32h2v2h-2z" fill="url(#gradient_ice-12)"/><path d="m33 32h2v2h-2z" fill="url(#gradient_ice-13)"/><path d="m36 32h2v2h-2z" fill="url(#gradient_ice-14)"/><path d="m39 32h2v2h-2z" fill="url(#gradient_ice-15)"/><path d="m49 18v1h2v-1h1v1h2v-1h1v1h2v-1a1 1 0 0 0 1-1h1v-2h-1v-1h1v-2h-1v-1h1v-2h-1a1 1 0 0 0 -1-1v-1h-2v1h-1v-1h-2v1h-1v-1h-2v1a1 1 0 0 0 -1 1h-1v2h1v1h-1v2h1v1h-1v2h1a1 1 0 0 0 1 1zm1-8h6v6h-6z" fill="url(#gradient_ice-16)"/></g></svg>