<svg id="Capa_1" enable-background="new 0 0 64 64" height="512" viewBox="0 0 64 64" width="512" xmlns="http://www.w3.org/2000/svg" xmlns:xlink="http://www.w3.org/1999/xlink"><linearGradient id="lg1"><stop offset="0" stop-color="#fff200"/><stop offset="1" stop-color="#cd118c"/></linearGradient><linearGradient id="SVGID_1_" gradientTransform="matrix(1 0 0 -1 0 65.197)" gradientUnits="userSpaceOnUse" x1="10.089" x2="64.229" xlink:href="#lg1" y1="-6.806" y2="60.869"/><linearGradient id="SVGID_2_" gradientTransform="matrix(1 0 0 -1 0 65.197)" gradientUnits="userSpaceOnUse" x1=".622" x2="54.775" xlink:href="#lg1" y1=".76" y2="68.452"/><g id="hand-file-mail-letter-Envelop"><path d="m47.5 53h-9.26c1.381-2.066.825-4.861-1.242-6.242-.739-.494-1.609-.758-2.498-.758h-6.37l-10.87-2.96c-.136-.04-.279-.05-.42-.03l-4.84.81v-.82c0-.552-.448-1-1-1h-8c-.552 0-1 .448-1 1v18c0 .552.448 1 1 1h8c.552 0 1-.448 1-1v-1.48l5.61 2.4c.123.052.256.08.39.08h29.5c2.485 0 4.5-2.015 4.5-4.5s-2.015-4.5-4.5-4.5zm-37.5 7h-6v-16h6zm37.5 0h-29.29l-6.21-2.66v-11.49l4.95-.83 10.79 2.94c.084.029.172.042.26.04h6.5c1.381 0 2.5 1.119 2.5 2.5s-1.119 2.5-2.5 2.5h-9.5v2h22.5c1.381 0 2.5 1.119 2.5 2.5s-1.119 2.5-2.5 2.5z" fill="url(#SVGID_1_)"/><path d="m8 3v37c0 .552.448 1 1 1h52c.552 0 1-.448 1-1v-18c0-.552-.448-1-1-1h-2v-2c0-.552-.448-1-1-1h-18v-15c0-.959-1-1-1-1h-30s-1-.082-1 1zm48.03 17-14.98 8.84-15.07-8.84zm-19.2-16-4.29 5h-17.08l-4.29-5zm-10.83 35h-16v-33.3l4.24 4.95c.191.221.468.349.76.35h9v1h-2c-.552 0-1 .448-1 1v3c0 .552.448 1 1 1h3c.552 0 1-.448 1-1v-2h2v-2h-2v-1h7c.292-.001.569-.129.76-.35l4.24-4.95v12.3h-14c-.552 0-1 .448-1 1v18c0 .552.448 1 1 1h2zm-2-25v1h-1v-1zm1 22v-14.25l15.55 9.11c.151.09.324.139.5.14.179-.001.355-.05.51-.14l15.44-9.11v14.25zm35 3h-32v-1h30c.552 0 1-.448 1-1v-14h1z" fill="url(#SVGID_2_)"/></g></svg>