<svg height="512" viewBox="0 0 64 64" width="512" xmlns="http://www.w3.org/2000/svg" xmlns:xlink="http://www.w3.org/1999/xlink"><linearGradient id="gradient_ice" gradientUnits="userSpaceOnUse" x1="8.532" x2="54.551" y1="69.217" y2=".64"><stop offset="0" stop-color="#fff200"/><stop offset="1" stop-color="#cd118c"/></linearGradient><linearGradient id="gradient_ice-2" x1="-15.835" x2="30.184" xlink:href="#gradient_ice" y1="52.866" y2="-15.711"/><linearGradient id="gradient_ice-3" x1="7.493" x2="53.512" xlink:href="#gradient_ice" y1="68.52" y2="-.057"/><g id="laptop-mail-download-internet"><path d="m61 45v-29a3.009 3.009 0 0 0 -3-3h-17.75l1.41-1.25a1.008 1.008 0 0 0 .27-1.11.989.989 0 0 0 -.93-.64h-3v-7a1 1 0 0 0 -1-1h-10a1 1 0 0 0 -1 1v7h-3a.989.989 0 0 0 -.93.64 1.008 1.008 0 0 0 .27 1.11l1.41 1.25h-17.75a3.009 3.009 0 0 0 -3 3v29a1 1 0 0 0 -1 1v5a3.009 3.009 0 0 0 3 3h54a3.009 3.009 0 0 0 3-3v-5a1 1 0 0 0 -1-1zm-34-33a1 1 0 0 0 1-1v-7h8v7a1 1 0 0 0 1 1h1.37l-6.37 5.66-6.37-5.66zm-22 4a1 1 0 0 1 1-1h20l5.34 4.75a1 1 0 0 0 1.32 0l5.34-4.75h20a1 1 0 0 1 1 1v29h-54zm31 31v1h-8v-1zm24 4a1 1 0 0 1 -1 1h-54a1 1 0 0 1 -1-1v-4h22v2a1 1 0 0 0 1 1h10a1 1 0 0 0 1-1v-2h22z" fill="url(#gradient_ice)"/><path d="m6 17v3h2v-2h2v-2h-3a1 1 0 0 0 -1 1z" fill="url(#gradient_ice-2)"/><path d="m49 22h-34a1 1 0 0 0 -1 1v18a1 1 0 0 0 1 1h34a1 1 0 0 0 1-1v-18a1 1 0 0 0 -1-1zm-1.97 2-14.98 8.84-15.07-8.84zm.97 16h-32v-14.25l15.55 9.11a.993.993 0 0 0 .5.14 1.03 1.03 0 0 0 .51-.14l15.44-9.11z" fill="url(#gradient_ice-3)"/></g></svg>