<svg height="512" viewBox="0 0 64 64" width="512" xmlns="http://www.w3.org/2000/svg" xmlns:xlink="http://www.w3.org/1999/xlink"><linearGradient id="gradient_ice" gradientUnits="userSpaceOnUse" x1="11.011" x2="60.639" y1="64.292" y2="-9.699"><stop offset="0" stop-color="#fff200"/><stop offset="1" stop-color="#cd118c"/></linearGradient><linearGradient id="gradient_ice-2" x1="-13.473" x2="36.156" xlink:href="#gradient_ice" y1="47.87" y2="-26.121"/><linearGradient id="gradient_ice-3" x1="10.549" x2="60.177" xlink:href="#gradient_ice" y1="63.982" y2="-10.009"/><g id="laptop-mail-upload-internet"><path d="m59 13h-21v-1h3a.989.989 0 0 0 .93-.64 1.008 1.008 0 0 0 -.27-1.11l-9-8a1 1 0 0 0 -1.32 0l-9 8a1.008 1.008 0 0 0 -.27 1.11.989.989 0 0 0 .93.64h3v1h-21a3.009 3.009 0 0 0 -3 3v34a3.009 3.009 0 0 0 3 3h21v3h-5a1 1 0 0 0 -1 1v4a1 1 0 0 0 1 1h22a1 1 0 0 0 1-1v-4a1 1 0 0 0 -1-1h-5v-3h21a3.009 3.009 0 0 0 3-3v-34a3.009 3.009 0 0 0 -3-3zm-33.37-3 6.37-5.66 6.37 5.66h-1.37a1 1 0 0 0 -1 1v7h-8v-7a1 1 0 0 0 -1-1zm16.37 48v2h-20v-2zm-14-2v-3h8v3zm32-6a1 1 0 0 1 -1 1h-54a1 1 0 0 1 -1-1v-2h56zm0-4h-56v-30a1 1 0 0 1 1-1h21v4a1 1 0 0 0 1 1h10a1 1 0 0 0 1-1v-4h21a1 1 0 0 1 1 1z" fill="url(#gradient_ice)"/><path d="m5 17v3h2v-2h2v-2h-3a1 1 0 0 0 -1 1z" fill="url(#gradient_ice-2)"/><path d="m49 22h-34a1 1 0 0 0 -1 1v18a1 1 0 0 0 1 1h34a1 1 0 0 0 1-1v-18a1 1 0 0 0 -1-1zm-1.968 2-14.982 8.84-15.074-8.84zm-31.032 16v-14.255l15.546 9.117a1 1 0 0 0 1.014 0l15.44-9.111v14.249z" fill="url(#gradient_ice-3)"/></g></svg>