<svg id="Capa_1" enable-background="new 0 0 64 64" height="512" viewBox="0 0 64 64" width="512" xmlns="http://www.w3.org/2000/svg" xmlns:xlink="http://www.w3.org/1999/xlink"><linearGradient id="lg1"><stop offset="0" stop-color="#fff200"/><stop offset="1" stop-color="#cd118c"/></linearGradient><linearGradient id="SVGID_1_" gradientTransform="matrix(1 0 0 -1 0 65.197)" gradientUnits="userSpaceOnUse" x1="1.346" x2="59.096" xlink:href="#lg1" y1="-13.374" y2="58.812"/><linearGradient id="SVGID_2_" gradientTransform="matrix(1 0 0 -1 0 65.197)" gradientUnits="userSpaceOnUse" x1="1.571" x2="59.32" xlink:href="#lg1" y1="-13.553" y2="58.633"/><linearGradient id="SVGID_3_" gradientTransform="matrix(1 0 0 -1 0 65.197)" gradientUnits="userSpaceOnUse" x1="-2.688" x2="55.083" xlink:href="#lg1" y1="-10.189" y2="62.025"/><g id="mail-clock-box-Package"><path d="m33 24c0 6.627 5.373 12 12 12s12-5.373 12-12-5.373-12-12-12c-6.624.007-11.993 5.376-12 12zm21.949-1h-.949v2h.949c-.481 4.729-4.22 8.468-8.949 8.949v-.949h-2v.949c-4.729-.481-8.468-4.22-8.949-8.949h.949v-2h-.949c.481-4.729 4.22-8.468 8.949-8.949v.949h2v-.949c4.729.481 8.468 4.22 8.949 8.949z" fill="url(#SVGID_1_)"/><path d="m46 22.278v-5.278h-2v5.278c-.954.55-1.283 1.769-.733 2.723.357.62 1.018 1.001 1.733.999.173-.002.345-.028.511-.075l2.782 2.782 1.414-1.414-2.782-2.782c.047-.166.073-.338.075-.511-.002-.711-.383-1.368-1-1.722z" fill="url(#SVGID_2_)"/><path d="m15 62h46s1 .032 1-1v-26c0-.552-.448-1-1-1h-4.85c5.533-6.137 5.044-15.598-1.093-21.131-2.503-2.257-5.694-3.602-9.057-3.819v-6.05c0-.552-.448-1-1-1h-42c-.552 0-1 .448-1 1v42c0 .552.448 1 1 1h11v15s.028 1 1 1zm43-38c0 7.18-5.82 13-13 13s-13-5.82-13-13 5.82-13 13-13c7.177.007 12.993 5.823 13 13zm-28-20h14v3h-14zm-10 0h8v8.92l-3.38-2.7c-.361-.293-.879-.293-1.24 0l-3.38 2.7zm-16 0h14v3h-14zm10 31v9h-10v-35h14v6c.001.385.223.735.57.9.343.168.753.121 1.05-.12l4.38-3.5 4.38 3.5c.174.144.394.222.62.22.149.003.297-.032.43-.1.347-.165.569-.515.57-.9v-6h14v.05c-8.246.531-14.5 7.647-13.969 15.893.217 3.363 1.562 6.554 3.819 9.057h-18.85c-.552 0-1 .448-1 1zm2 3.65 16.79 8.76-16.79 11.68zm2.19 21.35 16.6-11.55 2.75 1.44c.289.147.631.147.92 0l2.75-1.44 16.6 11.55zm41.81-.91-16.79-11.68 16.79-8.76zm0-22.7-22 11.48-22-11.48v-.39h20.04c5.304 4 12.616 4 17.92 0h6.04z" fill="url(#SVGID_3_)"/></g></svg>