<?xml version="1.0"?>
<svg xmlns="http://www.w3.org/2000/svg" xmlns:xlink="http://www.w3.org/1999/xlink" viewBox="0 0 64 64" width="512" height="512"><defs><linearGradient id="gradient_ice" x1="6.393" y1="71.92" x2="57.826" y2="-0.267" gradientUnits="userSpaceOnUse"><stop offset="0" stop-color="#fff200"/><stop offset="1" stop-color="#cd118c"/></linearGradient></defs><g id="mail-delivery-postal"><path d="M32,2A23.029,23.029,0,0,0,9,25a23.393,23.393,0,0,0,.33,3.92,1,1,0,0,0,1.95.12L21,42H15a1,1,0,0,0-1,1V61a1,1,0,0,0,1,1H49a1,1,0,0,0,1-1V43a1,1,0,0,0-1-1H43l9.72-12.96a1.008,1.008,0,0,0,.96.71h.06a1.01,1.01,0,0,0,.93-.83A23.393,23.393,0,0,0,55,25,23.029,23.029,0,0,0,32,2Zm0,2c2.45,0,5.85,7.86,5.99,20.7a7.985,7.985,0,0,0-11.98.01C26.15,11.86,29.55,4,32,4Zm5.64,23.99L33.27,42H30.73L26.35,27.98a5.991,5.991,0,0,1,11.29.01ZM11,25.35V25A21.01,21.01,0,0,1,28.37,4.34c-2.72,3.87-4.22,11.98-4.36,19.97A8.976,8.976,0,0,0,18,22,9.072,9.072,0,0,0,11,25.35Zm1.25,1.66A7.056,7.056,0,0,1,18,24a6.984,6.984,0,0,1,6.1,3.57c.02.04.03.07.05.11l.03.06L28.64,42H23.5ZM48,60H16V45.75l15.55,9.11a.993.993,0,0,0,.5.14,1.03,1.03,0,0,0,.51-.14L48,45.75Zm-.97-16L32.05,52.84,16.98,44ZM40.5,42H35.36L39.8,27.79c.02-.03.03-.06.05-.09s.04-.09.06-.14A6.982,6.982,0,0,1,46,24a7.056,7.056,0,0,1,5.75,3.01ZM53,25.35A9.072,9.072,0,0,0,46,22a8.936,8.936,0,0,0-6.01,2.32c-.14-7.99-1.64-16.11-4.36-19.98A21.01,21.01,0,0,1,53,25Z" style="fill:url(#gradient_ice)"/></g></svg>
