<?xml version="1.0"?>
<svg xmlns="http://www.w3.org/2000/svg" xmlns:xlink="http://www.w3.org/1999/xlink" viewBox="0 0 64 64" width="512" height="512"><defs><linearGradient id="gradient_ice" x1="0.891" y1="69.053" x2="65.858" y2="0.476" gradientUnits="userSpaceOnUse"><stop offset="0" stop-color="#fff200"/><stop offset="1" stop-color="#cd118c"/></linearGradient><linearGradient id="gradient_ice-2" x1="-16.081" y1="52.975" x2="48.887" y2="-15.603" xlink:href="#gradient_ice"/><linearGradient id="gradient_ice-3" x1="-16.03" y1="53.023" x2="48.938" y2="-15.554" xlink:href="#gradient_ice"/></defs><g id="mail-file-clock-time"><path d="M60.71,17.29l-9-9A1.033,1.033,0,0,0,51,8H29.97A14.983,14.983,0,1,0,10.55,30H10a1,1,0,0,0-1,1V57a1,1,0,0,0,1,1h7v3a1,1,0,0,0,1,1H60a1,1,0,0,0,1-1V18A1.033,1.033,0,0,0,60.71,17.29ZM52,11.41,57.59,17H52ZM5,17A13,13,0,1,1,18,30,13.012,13.012,0,0,1,5,17ZM33,43.87,11,32.39V32H55v.39Zm22-9.22V55.09L38.21,43.41Zm-44,0,16.79,8.76L11,55.09ZM13.19,56l16.6-11.55,2.75,1.44a1.017,1.017,0,0,0,.92,0l2.75-1.44L52.81,56ZM59,60H19V58H56a1,1,0,0,0,1-1V31a1,1,0,0,0-1-1H25.45a14.962,14.962,0,0,0,5.81-20H50v8a1,1,0,0,0,1,1h8Z" style="fill:url(#gradient_ice)"/><path d="M18,5A12,12,0,1,0,30,17,12.013,12.013,0,0,0,18,5Zm1,21.949V26H17v.949A10.015,10.015,0,0,1,8.051,18H9V16H8.051A10.015,10.015,0,0,1,17,7.051V8h2V7.051A10.015,10.015,0,0,1,27.949,16H27v2h.949A10.015,10.015,0,0,1,19,26.949Z" style="fill:url(#gradient_ice-2)"/><path d="M20,17a1.993,1.993,0,0,0-1-1.722V10H17v5.278A1.994,1.994,0,0,0,18,19a1.96,1.96,0,0,0,.511-.075l2.782,2.782,1.414-1.414-2.782-2.782A1.96,1.96,0,0,0,20,17Z" style="fill:url(#gradient_ice-3)"/></g></svg>
