<?xml version="1.0"?>
<svg xmlns="http://www.w3.org/2000/svg" xmlns:xlink="http://www.w3.org/1999/xlink" viewBox="0 0 64 64" width="512" height="512"><defs><linearGradient id="gradient_ice" x1="7.21" y1="69.983" x2="64.057" y2="-1.301" gradientUnits="userSpaceOnUse"><stop offset="0" stop-color="#fff200"/><stop offset="1" stop-color="#cd118c"/></linearGradient></defs><g id="mail-file-Letter-postal"><path d="M60,5H51.41l-2.7-2.71A1.033,1.033,0,0,0,48,2H15a1,1,0,0,0-1,1V22H4a1,1,0,0,0-1,1V49a1,1,0,0,0,1,1H6v2a1,1,0,0,0,1,1h7v5a1,1,0,0,0,1,1h2v2a1,1,0,0,0,1,1H60a1,1,0,0,0,1-1V6A1,1,0,0,0,60,5ZM49,5.41,54.59,11H49ZM5,24H49v.39L27,35.87,5,24.39Zm44,2.65V47.09L32.21,35.41ZM5,47.09V26.65l16.79,8.76ZM23.79,36.45l2.75,1.44a1.017,1.017,0,0,0,.92,0l2.75-1.44L46.81,48H7.19ZM8,51V50H50a1,1,0,0,0,1-1V27h1V51Zm8,6V53H53a1,1,0,0,0,1-1V26a1,1,0,0,0-1-1H51V23a1,1,0,0,0-1-1H16V4H47v8a1,1,0,0,0,1,1h8V57Zm43,3H19V59H57a1,1,0,0,0,1-1V12a1.033,1.033,0,0,0-.29-.71L53.41,7H59Z" style="fill:url(#gradient_ice)"/></g></svg>
