<?xml version="1.0"?>
<svg xmlns="http://www.w3.org/2000/svg" xmlns:xlink="http://www.w3.org/1999/xlink" viewBox="0 0 64 64" width="512" height="512"><defs><linearGradient id="gradient_ice" x1="0.401" y1="73.67" x2="65.369" y2="4.19" gradientUnits="userSpaceOnUse"><stop offset="0" stop-color="#fff200"/><stop offset="1" stop-color="#cd118c"/></linearGradient></defs><g id="mail-globe-postal"><path d="M61,42H52.66A27,27,0,1,0,13,50.74V61a1,1,0,0,0,1,1H61a1,1,0,0,0,1-1V43A1,1,0,0,0,61,42Zm-1.97,2L44.05,52.84,28.98,44Zm-8.7-2H45V30h8.96A24.693,24.693,0,0,1,50.33,42Zm3.64-14H45V25a1,1,0,0,0-1-1H40.79a52.328,52.328,0,0,0-1.51-9.06,26.916,26.916,0,0,0,6.85-4.12A24.9,24.9,0,0,1,53.97,28ZM44.6,9.49a24.85,24.85,0,0,1-5.89,3.52,22.073,22.073,0,0,0-4.59-8.48A24.875,24.875,0,0,1,44.6,9.49ZM30,4.15c2.69.73,5.15,4.34,6.82,9.57A24.878,24.878,0,0,1,30,14.95Zm0,12.8a26.979,26.979,0,0,0,7.38-1.31A49.375,49.375,0,0,1,38.78,24H30ZM41.83,26l-4.29,5H20.46l-4.29-5ZM19.22,24a49.375,49.375,0,0,1,1.4-8.36A26.979,26.979,0,0,0,28,16.95V24ZM28,4.15v10.8a24.878,24.878,0,0,1-6.82-1.23C22.85,8.49,25.31,4.88,28,4.15Zm-4.12.38a22.073,22.073,0,0,0-4.59,8.48A24.85,24.85,0,0,1,13.4,9.49,24.875,24.875,0,0,1,23.88,4.53ZM13,48.2A25.047,25.047,0,0,1,4.03,30H13ZM13,25v3H4.03a24.9,24.9,0,0,1,7.84-17.18,26.916,26.916,0,0,0,6.85,4.12A52.328,52.328,0,0,0,17.21,24H14A1,1,0,0,0,13,25ZM27,42a1,1,0,0,0-1,1V60H15V27.7l4.24,4.95A1.011,1.011,0,0,0,20,33h9v2H27a1,1,0,0,0-1,1v3a1,1,0,0,0,1,1h3a1,1,0,0,0,1-1V37h2V35H31V33h7a1.011,1.011,0,0,0,.76-.35L43,27.7V42Zm2-5v1H28V37ZM60,60H28V45.75l15.55,9.11a.993.993,0,0,0,.5.14,1.03,1.03,0,0,0,.51-.14L60,45.75Z" style="fill:url(#gradient_ice)"/></g></svg>
