<?xml version="1.0"?>
<svg xmlns="http://www.w3.org/2000/svg" xmlns:xlink="http://www.w3.org/1999/xlink" viewBox="0 0 64 64" width="512" height="512"><defs><linearGradient id="gradient_ice" x1="-0.445" y1="71.248" x2="60.011" y2="-0.939" gradientUnits="userSpaceOnUse"><stop offset="0" stop-color="#fff200"/><stop offset="1" stop-color="#cd118c"/></linearGradient><linearGradient id="gradient_ice-2" x1="-0.026" y1="71.599" x2="60.43" y2="-0.588" xlink:href="#gradient_ice"/><linearGradient id="gradient_ice-3" x1="-14.494" y1="59.482" x2="45.963" y2="-12.704" xlink:href="#gradient_ice"/><linearGradient id="gradient_ice-4" x1="15.958" y1="84.986" x2="76.414" y2="12.799" xlink:href="#gradient_ice"/></defs><g id="mail-globe-tranfer-postal"><path d="M25,46H3a1,1,0,0,0-1,1V61a1,1,0,0,0,1,1H25a1,1,0,0,0,1-1V47A1,1,0,0,0,25,46ZM24,60H4V50.68l9.52,5.2a1.02,1.02,0,0,0,.96,0L24,50.68Zm0-11.59L14,53.86,4,48.41V48H24Z" style="fill:url(#gradient_ice)"/><path d="M39,2A23,23,0,1,0,62,25,23.026,23.026,0,0,0,39,2ZM59.949,24H47.98a51.921,51.921,0,0,0-1.289-11.342A22.752,22.752,0,0,0,52.9,9.3,20.926,20.926,0,0,1,59.949,24ZM34.921,45.6a20.859,20.859,0,0,1-8.209-3.6,20.755,20.755,0,0,1,5.125-2.718A18.956,18.956,0,0,0,34.921,45.6Zm-1.147-6.927a21.326,21.326,0,0,1,10.452,0C42.847,43.266,40.864,46,39,46S35.152,43.266,33.774,38.668Zm12.389.607a20.755,20.755,0,0,1,5.125,2.718,20.859,20.859,0,0,1-8.209,3.6A18.936,18.936,0,0,0,46.163,39.275Zm-1.428-2.539a23.3,23.3,0,0,0-11.47,0A50.6,50.6,0,0,1,32.019,26H45.981A50.6,50.6,0,0,1,44.735,36.736ZM32.019,24a50.656,50.656,0,0,1,1.245-10.735A23.205,23.205,0,0,0,39,14a23.205,23.205,0,0,0,5.736-.735A50.656,50.656,0,0,1,45.981,24ZM43.079,4.405a20.859,20.859,0,0,1,8.209,3.6,20.755,20.755,0,0,1-5.125,2.718A18.956,18.956,0,0,0,43.079,4.405Zm1.147,6.927a21.326,21.326,0,0,1-10.452,0C35.153,6.734,37.136,4,39,4S42.848,6.734,44.226,11.332Zm-12.389-.607a20.755,20.755,0,0,1-5.125-2.718,20.859,20.859,0,0,1,8.209-3.6A18.936,18.936,0,0,0,31.837,10.725ZM25.1,9.3a22.738,22.738,0,0,0,6.206,3.359A51.921,51.921,0,0,0,30.02,24H18.051A20.926,20.926,0,0,1,25.1,9.3ZM18.051,26H30.02a51.921,51.921,0,0,0,1.289,11.342A22.752,22.752,0,0,0,25.1,40.7,20.926,20.926,0,0,1,18.051,26ZM52.9,40.7a22.738,22.738,0,0,0-6.206-3.359A51.921,51.921,0,0,0,47.98,26H59.949A20.926,20.926,0,0,1,52.9,40.7Z" style="fill:url(#gradient_ice-2)"/><path d="M8,26h2v3l4-4-4-4v3H7a1,1,0,0,0-1,1V43H8Z" style="fill:url(#gradient_ice-3)"/><path d="M48,48l-4,4h3v3H32v2H48a1,1,0,0,0,1-1V52h3Z" style="fill:url(#gradient_ice-4)"/></g></svg>
