<svg height="512" viewBox="0 0 64 64" width="512" xmlns="http://www.w3.org/2000/svg" xmlns:xlink="http://www.w3.org/1999/xlink"><linearGradient id="gradient_ice" gradientUnits="userSpaceOnUse" x1="-22.193" x2="34.654" y1="40.047" y2="-20.409"><stop offset="0" stop-color="#fff200"/><stop offset="1" stop-color="#cd118c"/></linearGradient><linearGradient id="gradient_ice-2" x1="-18.106" x2="38.741" xlink:href="#gradient_ice" y1="43.89" y2="-16.566"/><linearGradient id="gradient_ice-3" x1="-20.76" x2="36.087" xlink:href="#gradient_ice" y1="41.395" y2="-19.061"/><linearGradient id="gradient_ice-4" x1="10.899" x2="67.746" xlink:href="#gradient_ice" y1="71.163" y2="10.707"/><linearGradient id="gradient_ice-5" x1="-.092" x2="56.755" xlink:href="#gradient_ice" y1="60.828" y2=".372"/><linearGradient id="gradient_ice-6" x1="-15.825" x2="41.022" xlink:href="#gradient_ice" y1="46.036" y2="-14.421"/><linearGradient id="gradient_ice-7" x1="-19.54" x2="37.307" xlink:href="#gradient_ice" y1="42.542" y2="-17.914"/><linearGradient id="gradient_ice-8" x1="-14.391" x2="42.456" xlink:href="#gradient_ice" y1="47.384" y2="-13.072"/><linearGradient id="gradient_ice-9" x1="-12.957" x2="43.89" xlink:href="#gradient_ice" y1="48.732" y2="-11.724"/><linearGradient id="gradient_ice-10" x1="-16.672" x2="40.175" xlink:href="#gradient_ice" y1="45.239" y2="-15.218"/><linearGradient id="gradient_ice-11" x1="-19.326" x2="37.521" xlink:href="#gradient_ice" y1="42.743" y2="-17.713"/><linearGradient id="gradient_ice-12" x1="-8.624" x2="48.223" xlink:href="#gradient_ice" y1="52.806" y2="-7.65"/><linearGradient id="gradient_ice-13" x1="-11.278" x2="45.569" xlink:href="#gradient_ice" y1="50.311" y2="-10.145"/><linearGradient id="gradient_ice-14" x1="-7.19" x2="49.657" xlink:href="#gradient_ice" y1="54.155" y2="-6.302"/><linearGradient id="gradient_ice-15" x1="-4.695" x2="52.152" xlink:href="#gradient_ice" y1="56.501" y2="-3.955"/><linearGradient id="gradient_ice-16" x1="-7.349" x2="49.498" xlink:href="#gradient_ice" y1="54.006" y2="-6.451"/><linearGradient id="gradient_ice-17" x1="-2.358" x2="54.489" xlink:href="#gradient_ice" y1="58.698" y2="-1.758"/><linearGradient id="gradient_ice-18" x1="-.235" x2="56.612" xlink:href="#gradient_ice" y1="60.694" y2=".238"/><linearGradient id="gradient_ice-19" x1="-2.73" x2="54.117" xlink:href="#gradient_ice" y1="58.348" y2="-2.108"/><g id="mail-Letter-postal-speed"><path d="m6 8h2v2h-2z" fill="url(#gradient_ice)"/><path d="m8 13h4v2h-4z" fill="url(#gradient_ice-2)"/><path d="m4 13h2v2h-2z" fill="url(#gradient_ice-3)"/><path d="m61.77 31.36a.992.992 0 0 0 -.77-.36h-46a1 1 0 0 0 -.98.81l-5 26a1 1 0 0 0 .98 1.19h46a1 1 0 0 0 .98-.81l5-26a1 1 0 0 0 -.21-.83zm-6.6 25.64h-43.96l4.15-21.56 17.09 11.39a.991.991 0 0 0 .55.17 1.046 1.046 0 0 0 .39-.08l25.85-11.08zm4.53-23.53-26.6 11.4-17.33-11.56.06-.31h43.96z" fill="url(#gradient_ice-4)"/><path d="m61.75 5.33a1.022 1.022 0 0 0 -.75-.33h-34a.989.989 0 0 0 -.99.89l-2 18a1 1 0 0 0 .24.78 1.022 1.022 0 0 0 .75.33h34a.989.989 0 0 0 .99-.89l2-18a1 1 0 0 0 -.24-.78zm-2.72 1.67-14.98 8.84-15.07-8.84zm-.93 16h-31.98l1.6-14.42 15.83 9.28a.993.993 0 0 0 .5.14 1.03 1.03 0 0 0 .51-.14l15.11-8.91z" fill="url(#gradient_ice-5)"/><path d="m16 8h6v2h-6z" fill="url(#gradient_ice-6)"/><path d="m10 8h4v2h-4z" fill="url(#gradient_ice-7)"/><path d="m14 13h6v2h-6z" fill="url(#gradient_ice-8)"/><path d="m12 18h6v2h-6z" fill="url(#gradient_ice-9)"/><path d="m6 18h4v2h-4z" fill="url(#gradient_ice-10)"/><path d="m2 18h2v2h-2z" fill="url(#gradient_ice-11)"/><path d="m8 32h4v2h-4z" fill="url(#gradient_ice-12)"/><path d="m4 32h2v2h-2z" fill="url(#gradient_ice-13)"/><path d="m5 37h6v2h-6z" fill="url(#gradient_ice-14)"/><path d="m6 42h4v2h-4z" fill="url(#gradient_ice-15)"/><path d="m2 42h2v2h-2z" fill="url(#gradient_ice-16)"/><path d="m2 52h2v2h-2z" fill="url(#gradient_ice-17)"/><path d="m6 52h2v2h-2z" fill="url(#gradient_ice-18)"/><path d="m5 47h4v2h-4z" fill="url(#gradient_ice-19)"/></g></svg>