<svg height="512" viewBox="0 0 64 64" width="512" xmlns="http://www.w3.org/2000/svg" xmlns:xlink="http://www.w3.org/1999/xlink"><linearGradient id="gradient_ice" gradientUnits="userSpaceOnUse" x1="-3.505" x2="56.952" y1="65.534" y2="4.176"><stop offset="0" stop-color="#fff200"/><stop offset="1" stop-color="#cd118c"/></linearGradient><linearGradient id="gradient_ice-2" x1="-9.806" x2="50.65" xlink:href="#gradient_ice" y1="59.326" y2="-2.033"/><g id="mail-mailbox-postbox-Letter_box" data-name="mail-mailbox-postbox-Letter box"><path d="m57 31h-16v-15h2a1 1 0 0 0 1-1v-6a1 1 0 0 0 -1-1h-1.07c-.66-3.9-9.02-6-16.93-6s-16.27 2.1-16.93 6h-1.07a1 1 0 0 0 -1 1v6a1 1 0 0 0 1 1h2v38h-2a1 1 0 0 0 -1 1v6a1 1 0 0 0 1 1h36a1 1 0 0 0 1-1v-6a1 1 0 0 0 -1-1h-2v-3h16a1 1 0 0 0 1-1v-18a1 1 0 0 0 -1-1zm-1.97 2-14.98 8.84-15.07-8.84zm-32.03 18h16v3h-28v-38h28v15h-16a1 1 0 0 0 -1 1v18a1 1 0 0 0 1 1zm2-47c8.49 0 13.98 2.19 14.86 4h-29.72c.88-1.81 6.37-4 14.86-4zm-17 10v-4h34v4zm34 42v4h-34v-4zm14-7h-32v-14.25l15.55 9.11a.993.993 0 0 0 .5.14 1.03 1.03 0 0 0 .51-.14l15.44-9.11z" fill="url(#gradient_ice)"/><path d="m36 19h-22a1 1 0 0 0 -1 1v8a1 1 0 0 0 1 1h22a1 1 0 0 0 1-1v-8a1 1 0 0 0 -1-1zm-1 8h-20v-3h20zm0-5h-20v-1h20z" fill="url(#gradient_ice-2)"/></g></svg>