<svg height="512" viewBox="0 0 64 64" width="512" xmlns="http://www.w3.org/2000/svg" xmlns:xlink="http://www.w3.org/1999/xlink"><linearGradient id="gradient_ice" gradientUnits="userSpaceOnUse" x1="-4.088" x2="59.977" y1="72.966" y2="4.389"><stop offset="0" stop-color="#fff200"/><stop offset="1" stop-color="#cd118c"/></linearGradient><linearGradient id="gradient_ice-2" x1="-8.746" x2="55.32" xlink:href="#gradient_ice" y1="68.615" y2=".038"/><g id="mail-pin-location-postal"><path d="m39.36 50.43c6.59-6.68 15.64-17.33 15.64-25.43a23 23 0 0 0 -46 0c0 8.1 9.05 18.75 15.64 25.43-5.96.74-11.64 2.5-11.64 5.57 0 3.94 9.56 6 19 6s19-2.06 19-6c0-3.07-5.68-4.83-11.64-5.57zm-28.36-25.43a21 21 0 0 1 42 0c0 10.4-17.39 26.45-21 29.67-3.61-3.22-21-19.27-21-29.67zm29.89 30.5c-.76.6-3.99 1.5-8.89 1.5s-8.13-.9-8.89-1.5c.5-.38 2.16-1.02 5.37-1.33 1.59 1.49 2.68 2.43 2.87 2.59a1 1 0 0 0 1.3 0c.19-.16 1.28-1.1 2.87-2.59 3.21.31 4.87.95 5.37 1.33zm-8.89 4.5c-11 0-17-2.64-17-4 0-.96 3.38-3.02 11.47-3.75l.14.14c-2.67.4-5.61 1.27-5.61 3.11 0 3.4 9.87 3.5 11 3.5s11-.1 11-3.5c0-1.84-2.94-2.71-5.61-3.11l.14-.14c8.09.73 11.47 2.79 11.47 3.75 0 1.36-6 4-17 4z" fill="url(#gradient_ice)"/><g fill="url(#gradient_ice-2)"><path d="m32 8a17 17 0 1 0 17 17 17.024 17.024 0 0 0 -17-17zm0 32a15 15 0 1 1 15-15 15.018 15.018 0 0 1 -15 15z"/><path d="m43 17h-22a1 1 0 0 0 -1 1v14a1 1 0 0 0 1 1h22a1 1 0 0 0 1-1v-14a1 1 0 0 0 -1-1zm-1 14h-20v-9.32l9.52 5.2a1.02 1.02 0 0 0 .96 0l9.52-5.2zm0-11.59-10 5.45-10-5.45v-.41h20z"/></g></g></svg>