<svg height="512" viewBox="0 0 64 64" width="512" xmlns="http://www.w3.org/2000/svg" xmlns:xlink="http://www.w3.org/1999/xlink"><linearGradient id="gradient_ice" gradientUnits="userSpaceOnUse" x1="6.63" x2="55.355" y1="61.189" y2="7.049"><stop offset="0" stop-color="#fff200"/><stop offset="1" stop-color="#cd118c"/></linearGradient><linearGradient id="gradient_ice-2" x1="-14.985" x2="33.741" xlink:href="#gradient_ice" y1="41.736" y2="-12.404"/><linearGradient id="gradient_ice-3" x1="6.132" x2="54.858" xlink:href="#gradient_ice" y1="60.742" y2="6.602"/><g id="monitor-mail-download-internet"><path d="m59 13h-18.75l1.41-1.25a1.008 1.008 0 0 0 .27-1.11.989.989 0 0 0 -.93-.64h-3v-7a1 1 0 0 0 -1-1h-10a1 1 0 0 0 -1 1v7h-3a.989.989 0 0 0 -.93.64 1.008 1.008 0 0 0 .27 1.11l1.41 1.25h-18.75a3.009 3.009 0 0 0 -3 3v34a3.009 3.009 0 0 0 3 3h21v3h-5a1 1 0 0 0 -1 1v4a1 1 0 0 0 1 1h22a1 1 0 0 0 1-1v-4a1 1 0 0 0 -1-1h-5v-3h21a3.009 3.009 0 0 0 3-3v-34a3.009 3.009 0 0 0 -3-3zm-32-1a1 1 0 0 0 1-1v-7h8v7a1 1 0 0 0 1 1h1.37l-6.37 5.66-6.37-5.66zm15 46v2h-20v-2zm-14-2v-3h8v3zm32-6a1 1 0 0 1 -1 1h-54a1 1 0 0 1 -1-1v-2h56zm0-4h-56v-30a1 1 0 0 1 1-1h21l5.34 4.75a1 1 0 0 0 1.32 0l5.34-4.75h21a1 1 0 0 1 1 1z" fill="url(#gradient_ice)"/><path d="m5 17v3h2v-2h2v-2h-3a1 1 0 0 0 -1 1z" fill="url(#gradient_ice-2)"/><path d="m49 22h-34a1 1 0 0 0 -1 1v18a1 1 0 0 0 1 1h34a1 1 0 0 0 1-1v-18a1 1 0 0 0 -1-1zm-1.97 2-14.98 8.84-15.07-8.84zm.97 16h-32v-14.25l15.55 9.11a.993.993 0 0 0 .5.14 1.03 1.03 0 0 0 .51-.14l15.44-9.11z" fill="url(#gradient_ice-3)"/></g></svg>