<svg height="512" viewBox="0 0 64 64" width="512" xmlns="http://www.w3.org/2000/svg" xmlns:xlink="http://www.w3.org/1999/xlink"><linearGradient id="gradient_ice" gradientUnits="userSpaceOnUse" x1="1.562" x2="66.53" y1="57.563" y2="7.032"><stop offset="0" stop-color="#fff200"/><stop offset="1" stop-color="#cd118c"/></linearGradient><linearGradient id="gradient_ice-2" x1="-15.437" x2="49.531" xlink:href="#gradient_ice" y1="35.707" y2="-14.824"/><linearGradient id="gradient_ice-3" x1=".647" x2="65.615" xlink:href="#gradient_ice" y1="56.386" y2="5.855"/><g id="monitor-mail-upload-internet"><path d="m61 45v-29a3.009 3.009 0 0 0 -3-3h-20v-1h3a.989.989 0 0 0 .93-.64 1.008 1.008 0 0 0 -.27-1.11l-9-8a1 1 0 0 0 -1.32 0l-9 8a1.008 1.008 0 0 0 -.27 1.11.989.989 0 0 0 .93.64h3v1h-20a3.009 3.009 0 0 0 -3 3v29a1 1 0 0 0 -1 1v5a3.009 3.009 0 0 0 3 3h54a3.009 3.009 0 0 0 3-3v-5a1 1 0 0 0 -1-1zm-35.37-35 6.37-5.66 6.37 5.66h-1.37a1 1 0 0 0 -1 1v7h-8v-7a1 1 0 0 0 -1-1zm-20.63 6a1 1 0 0 1 1-1h20v4a1 1 0 0 0 1 1h10a1 1 0 0 0 1-1v-4h20a1 1 0 0 1 1 1v29h-54zm31 31v1h-8v-1zm24 4a1 1 0 0 1 -1 1h-54a1 1 0 0 1 -1-1v-4h22v2a1 1 0 0 0 1 1h10a1 1 0 0 0 1-1v-2h22z" fill="url(#gradient_ice)"/><path d="m6 17v3h2v-2h2v-2h-3a1 1 0 0 0 -1 1z" fill="url(#gradient_ice-2)"/><path d="m49 22h-34a1 1 0 0 0 -1 1v18a1 1 0 0 0 1 1h34a1 1 0 0 0 1-1v-18a1 1 0 0 0 -1-1zm-1.97 2-14.98 8.84-15.07-8.84zm.97 16h-32v-14.25l15.55 9.11a.993.993 0 0 0 .5.14 1.03 1.03 0 0 0 .51-.14l15.44-9.11z" fill="url(#gradient_ice-3)"/></g></svg>