<svg id="package-delivery-postal" height="512" viewBox="0 0 64 64" width="512" xmlns="http://www.w3.org/2000/svg" xmlns:xlink="http://www.w3.org/1999/xlink"><linearGradient id="gradient_ice" gradientUnits="userSpaceOnUse" x1="9.999" x2="56.92" y1="72.077" y2="-9.133"><stop offset="0" stop-color="#fff200"/><stop offset="1" stop-color="#cd118c"/></linearGradient><linearGradient id="gradient_ice-2" x1="12.782" x2="59.703" xlink:href="#gradient_ice" y1="73.685" y2="-7.525"/><linearGradient id="gradient_ice-3" x1="24.344" x2="71.266" xlink:href="#gradient_ice" y1="80.366" y2="-.844"/><linearGradient id="gradient_ice-4" x1="27.343" x2="74.264" xlink:href="#gradient_ice" y1="82.098" y2=".889"/><linearGradient id="gradient_ice-5" x1="27.143" x2="74.064" xlink:href="#gradient_ice" y1="81.983" y2=".773"/><path d="m32 2a23.029 23.029 0 0 0 -23 23 23.393 23.393 0 0 0 .33 3.92 1 1 0 0 0 1.95.12l5.3 7.06a1 1 0 0 0 -.58.9v24a1 1 0 0 0 1 1h30a1 1 0 0 0 1-1v-24a1 1 0 0 0 -.58-.9l5.3-7.06a1.008 1.008 0 0 0 .96.71h.06a1.01 1.01 0 0 0 .93-.83 23.393 23.393 0 0 0 .33-3.92 23.029 23.029 0 0 0 -23-23zm0 2c2.45 0 5.85 7.86 5.99 20.7a7.985 7.985 0 0 0 -11.98.01c.14-12.85 3.54-20.71 5.99-20.71zm-3.14 32-2.51-8.02a5.991 5.991 0 0 1 11.29.01l-2.5 8.01zm5.14 2v5.59l-1.29-1.3a1.014 1.014 0 0 0 -1.42 0l-1.29 1.3v-5.59zm-23-12.65v-.35a21.01 21.01 0 0 1 17.37-20.66c-2.72 3.87-4.22 11.98-4.36 19.97a8.976 8.976 0 0 0 -6.01-2.31 9.072 9.072 0 0 0 -7 3.35zm1.25 1.66a7.056 7.056 0 0 1 5.75-3.01 6.984 6.984 0 0 1 6.1 3.57c.02.04.03.07.05.11l.03.06 2.59 8.26h-7.77zm15.75 10.99v2h-10v-2zm18 22h-28v-18h10v4a.987.987 0 0 0 .62.92 1 1 0 0 0 1.09-.21l2.29-2.3 2.29 2.3a1.007 1.007 0 0 0 .71.29.838.838 0 0 0 .38-.08.987.987 0 0 0 .62-.92v-4h10zm0-20h-10v-2h10zm-1-4h-7.76l2.56-8.21c.02-.03.03-.06.05-.09s.04-.09.06-.14a6.982 6.982 0 0 1 6.09-3.56 7.056 7.056 0 0 1 5.75 3.01zm8-10.65a9.072 9.072 0 0 0 -7-3.35 8.936 8.936 0 0 0 -6.01 2.32c-.14-7.99-1.64-16.11-4.36-19.98a21.01 21.01 0 0 1 17.37 20.66z" fill="url(#gradient_ice)"/><path d="m26 53h-6a1 1 0 0 0 -1 1v4a1 1 0 0 0 1 1h6a1 1 0 0 0 1-1v-4a1 1 0 0 0 -1-1zm-1 4h-4v-2h4z" fill="url(#gradient_ice-2)"/><path d="m38 54h2v2h-2z" fill="url(#gradient_ice-3)"/><path d="m42 54h2v2h-2z" fill="url(#gradient_ice-4)"/><path d="m38 57h6v2h-6z" fill="url(#gradient_ice-5)"/></svg>