<svg height="512" viewBox="0 0 64 64" width="512" xmlns="http://www.w3.org/2000/svg" xmlns:xlink="http://www.w3.org/1999/xlink"><linearGradient id="gradient_ice" gradientUnits="userSpaceOnUse" x1="2.349" x2="54.688" y1="60.717" y2=".258"><stop offset="0" stop-color="#fff200"/><stop offset="1" stop-color="#cd118c"/></linearGradient><linearGradient id="gradient_ice-2" x1="6.517" x2="58.852" xlink:href="#gradient_ice" y1="64.325" y2="3.869"/><linearGradient id="gradient_ice-3" x1="-16.792" x2="35.543" xlink:href="#gradient_ice" y1="44.147" y2="-16.309"/><linearGradient id="gradient_ice-4" x1="-7.744" x2="44.591" xlink:href="#gradient_ice" y1="51.98" y2="-8.476"/><g id="photo-mail-letter-postal"><path d="m35 27a4 4 0 1 0 -4-4 4 4 0 0 0 4 4zm0-6a2 2 0 1 1 -2 2 2 2 0 0 1 2-2z" fill="url(#gradient_ice)"/><path d="m61.71 29.29-3.71-3.7v-9.59a1 1 0 0 0 -1-1h-12v-12a1 1 0 0 0 -1-1h-36a1 1 0 0 0 -1 1v21.59l-4.71 4.7a1.033 1.033 0 0 0 -.29.71v31a1 1 0 0 0 1 1h58a1 1 0 0 0 1-1v-31a1.033 1.033 0 0 0 -.29-.71zm-3.71-.88 1.59 1.59h-1.59zm-2-11.41v16.59l-10.29-10.3a1 1 0 0 0 -1.34-.06l-9.51 7.77-3.21-2.76a.994.994 0 0 0 -1.25-.04l-10.4 7.8v-19zm-32.06 26-3.94-1.9v-2.6l10.96-8.22 6.39 5.48 1.3-1.52-2.24-1.92 8.52-6.97 10.32 10.32-15.19 7.33zm11.97 2-3.91 1.89-3.91-1.89zm-26.91-41h34v11h-24a1 1 0 0 0 -1 1v1h-6v2h6v3h-6v2h6v3h-6v2h6v3h-6v2h6v6.13l-9-4.34zm-2 23.41v2.59h-2.59zm-3 4.59h3v2.82l-3-1.45zm0 3.59 15.03 7.26-15.03 5.7zm56 24.41h-56v-9.31l17.51-6.64 10.06 4.85a.974.974 0 0 0 .86 0l10.06-4.85 17.51 6.64zm0-11.45-15.03-5.7 15.03-7.26zm0-15.18-2 .97v-2.34h2z" fill="url(#gradient_ice-2)"/><path d="m12 7h5v2h-5z" fill="url(#gradient_ice-3)"/><path d="m12 12h28v2h-28z" fill="url(#gradient_ice-4)"/></g></svg>