<svg height="512" viewBox="0 0 64 64" width="512" xmlns="http://www.w3.org/2000/svg" xmlns:xlink="http://www.w3.org/1999/xlink"><linearGradient id="gradient_ice" gradientUnits="userSpaceOnUse" x1="-.045" x2="70.336" y1="64.735" y2="-2.94"><stop offset="0" stop-color="#fff200"/><stop offset="1" stop-color="#cd118c"/></linearGradient><linearGradient id="gradient_ice-2" x1="-8.961" x2="61.424" xlink:href="#gradient_ice" y1="55.462" y2="-12.216"/><linearGradient id="gradient_ice-3" x1="-4.157" x2="66.228" xlink:href="#gradient_ice" y1="60.459" y2="-7.219"/><linearGradient id="gradient_ice-4" x1=".647" x2="71.032" xlink:href="#gradient_ice" y1="65.455" y2="-2.223"/><linearGradient id="gradient_ice-5" x1="5.451" x2="75.836" xlink:href="#gradient_ice" y1="70.451" y2="2.773"/><linearGradient id="gradient_ice-6" x1="6.546" x2="76.928" xlink:href="#gradient_ice" y1="71.59" y2="3.915"/><linearGradient id="gradient_ice-7" x1="9.429" x2="79.811" xlink:href="#gradient_ice" y1="74.588" y2="6.913"/><g id="Post_Office-mail-building-postal" data-name="Post Office-mail-building-postal"><path d="m61 56h-1v-39a1 1 0 0 0 1-1v-2a1 1 0 0 0 .83-.44 1.021 1.021 0 0 0 .1-.93l-4-10a1 1 0 0 0 -.93-.63h-50a1 1 0 0 0 -.93.63l-4 10a1.021 1.021 0 0 0 .1.93 1 1 0 0 0 .83.44v2a1 1 0 0 0 1 1v39h-1a1 1 0 0 0 -1 1v4a1 1 0 0 0 1 1h58a1 1 0 0 0 1-1v-4a1 1 0 0 0 -1-1zm-53.32-52h48.64l3.2 8h-14.52v-5a1 1 0 0 0 -1-1h-24a1 1 0 0 0 -1 1v5h-14.52zm45.32 11v-1h6v1zm5 2v39h-4v-39zm-26.07-4.08-10.93-4.59v-.33h22v.33zm11.07-2.42v9.5h-22v-9.5l10.54 4.42a1.006 1.006 0 0 0 .39.08 1 1 0 0 0 .38-.08zm-38 4.5v-1h6v1zm5 2v39h-4v-39zm2 43h-8v-2h8zm38 0h-36v-2h36zm-25-4v-12h6v12zm8 0v-12h6v12zm8 0v-13a1 1 0 0 0 -1-1h-16a1 1 0 0 0 -1 1v13h-11v-39a1 1 0 0 0 1-1v-2h6v7a1 1 0 0 0 1 1h24a1 1 0 0 0 1-1v-7h6v2a1 1 0 0 0 1 1v39zm19 4h-8v-2h8z" fill="url(#gradient_ice)"/><path d="m20 24h-6a1 1 0 0 0 -1 1v11a1 1 0 0 0 1 1h6a1 1 0 0 0 1-1v-11a1 1 0 0 0 -1-1zm-1 11h-4v-9h4z" fill="url(#gradient_ice-2)"/><path d="m30 24h-6a1 1 0 0 0 -1 1v11a1 1 0 0 0 1 1h6a1 1 0 0 0 1-1v-11a1 1 0 0 0 -1-1zm-1 11h-4v-9h4z" fill="url(#gradient_ice-3)"/><path d="m40 24h-6a1 1 0 0 0 -1 1v11a1 1 0 0 0 1 1h6a1 1 0 0 0 1-1v-11a1 1 0 0 0 -1-1zm-1 11h-4v-9h4z" fill="url(#gradient_ice-4)"/><path d="m50 24h-6a1 1 0 0 0 -1 1v11a1 1 0 0 0 1 1h6a1 1 0 0 0 1-1v-11a1 1 0 0 0 -1-1zm-1 11h-4v-9h4z" fill="url(#gradient_ice-5)"/><path d="m28 49h2v2h-2z" fill="url(#gradient_ice-6)"/><path d="m34 49h2v2h-2z" fill="url(#gradient_ice-7)"/></g></svg>