<svg height="512" viewBox="0 0 64 64" width="512" xmlns="http://www.w3.org/2000/svg" xmlns:xlink="http://www.w3.org/1999/xlink"><linearGradient id="gradient_ice" gradientUnits="userSpaceOnUse" x1="-7.082" x2="53.375" y1="61.879" y2="-5.796"><stop offset="0" stop-color="#fff200"/><stop offset="1" stop-color="#cd118c"/></linearGradient><linearGradient id="gradient_ice-2" x1="1.577" x2="62.033" xlink:href="#gradient_ice" y1="69.614" y2="1.939"/><g id="postbox-mail-postal"><path d="m41 22a1 1 0 0 0 1-1v-3h1v-2h-22v2h1v3a1 1 0 0 0 1 1zm-1-4v2h-16v-2z" fill="url(#gradient_ice)"/><path d="m59 29h-12v-17h1a1 1 0 0 0 1-1v-2a1.007 1.007 0 0 0 -.65-.94l-16-6a1.051 1.051 0 0 0 -.7 0l-16 6a1.007 1.007 0 0 0 -.65.94v2a1 1 0 0 0 1 1h1v14h-12a1 1 0 0 0 -1 1v20a1 1 0 0 0 1 1h12v7h-2a1 1 0 0 0 -1 1v5a1 1 0 0 0 1 1h34a1 1 0 0 0 1-1v-5a1 1 0 0 0 -1-1h-2v-10h12a1 1 0 0 0 1-1v-14a1 1 0 0 0 -1-1zm-42-19.31 15-5.62 15 5.62v.31h-30zm24 16.31h-22v-14h26v17h-3v-2a1 1 0 0 0 -1-1zm-5 13v1h-12v-1zm-9-2v-1h9v1zm9 5v1h-9v-1zm-11 0v2a1 1 0 0 0 1 1v1h-2v-4zm16 6a1 1 0 0 0 1-1v-2h3v10h-26v-7zm-1-2h-12v-1h12zm-4-16v4h-10a1 1 0 0 0 -1 1v2h-1v-9h16v1h-3a1 1 0 0 0 -1 1zm-30 16v-18h16v2h-1v2h1v10h-1v2h1v2zm42 11v3h-32v-3zm10-14h-20v-9.32l9.52 5.2a1.02 1.02 0 0 0 .96 0l9.52-5.2zm0-11.59-10 5.45-10-5.45v-.41h20z" fill="url(#gradient_ice-2)"/></g></svg>