<svg height="512" viewBox="0 0 64 64" width="512" xmlns="http://www.w3.org/2000/svg" xmlns:xlink="http://www.w3.org/1999/xlink"><linearGradient id="gradient_ice" gradientUnits="userSpaceOnUse" x1="4.909" x2="64.463" y1="74.31" y2="10.244"><stop offset="0" stop-color="#fff200"/><stop offset="1" stop-color="#cd118c"/></linearGradient><linearGradient id="gradient_ice-2" x1="-7.126" x2="52.428" xlink:href="#gradient_ice" y1="63.123" y2="-.943"/><linearGradient id="gradient_ice-3" x1="1.713" x2="61.267" xlink:href="#gradient_ice" y1="71.339" y2="7.273"/><linearGradient id="gradient_ice-4" x1="-22.933" x2="36.621" xlink:href="#gradient_ice" y1="48.428" y2="-15.637"/><linearGradient id="gradient_ice-5" x1="-20.402" x2="39.152" xlink:href="#gradient_ice" y1="50.781" y2="-13.284"/><linearGradient id="gradient_ice-6" x1="-15.574" x2="43.98" xlink:href="#gradient_ice" y1="55.269" y2="-8.796"/><linearGradient id="gradient_ice-7" x1="-20.017" x2="39.537" xlink:href="#gradient_ice" y1="51.139" y2="-12.926"/><linearGradient id="gradient_ice-8" x1="-16.262" x2="43.292" xlink:href="#gradient_ice" y1="54.63" y2="-9.436"/><g id="smartphone-mail-message-notification"><circle cx="21" cy="57" fill="url(#gradient_ice)" r="2"/><path d="m59 15h-20v-10a3.009 3.009 0 0 0 -3-3h-31a3.009 3.009 0 0 0 -3 3v54a3.009 3.009 0 0 0 3 3h31a3.009 3.009 0 0 0 3-3v-18h20a1 1 0 0 0 1-1v-24a1 1 0 0 0 -1-1zm-55-10a1 1 0 0 1 1-1h31a1 1 0 0 1 1 1v3h-33zm33 54a1 1 0 0 1 -1 1h-31a1 1 0 0 1 -1-1v-5h33zm0-7h-33v-42h33v5h-12a1 1 0 0 0 -1 1v29a1 1 0 0 0 .54.89 1.072 1.072 0 0 0 .46.11.939.939 0 0 0 .58-.19l6.74-4.81h4.68zm21-13h-26a1 1 0 0 0 -.58.19l-5.42 3.87v-26.06h32z" fill="url(#gradient_ice-2)"/><path d="m53 20h-22a1 1 0 0 0 -1 1v14a1 1 0 0 0 1 1h22a1 1 0 0 0 1-1v-14a1 1 0 0 0 -1-1zm-1 14h-20v-9.32l9.52 5.2a1.02 1.02 0 0 0 .96 0l9.52-5.2zm0-11.59-10 5.45-10-5.45v-.41h20z" fill="url(#gradient_ice-3)"/><path d="m6 12h8v2h-8z" fill="url(#gradient_ice-4)"/><path d="m6 16h10v2h-10z" fill="url(#gradient_ice-5)"/><path d="m18 16h4v2h-4z" fill="url(#gradient_ice-6)"/><path d="m6 20h4v2h-4z" fill="url(#gradient_ice-7)"/><path d="m12 20h6v2h-6z" fill="url(#gradient_ice-8)"/></g></svg>