<svg height="512" viewBox="0 0 64 64" width="512" xmlns="http://www.w3.org/2000/svg" xmlns:xlink="http://www.w3.org/1999/xlink"><linearGradient id="gradient_ice" gradientUnits="userSpaceOnUse" x1="9.644" x2="62.882" y1="69.318" y2="11.569"><stop offset="0" stop-color="#fff200"/><stop offset="1" stop-color="#cd118c"/></linearGradient><linearGradient id="gradient_ice-2" x1="-3.085" x2="50.153" xlink:href="#gradient_ice" y1="57.584" y2="-.166"/><linearGradient id="gradient_ice-3" x1="-2.483" x2="50.755" xlink:href="#gradient_ice" y1="58.139" y2=".39"/><linearGradient id="gradient_ice-4" x1="-5.019" x2="48.218" xlink:href="#gradient_ice" y1="55.801" y2="-1.949"/><g id="smartphone-pin-location-mail-postal"><circle cx="21" cy="57" fill="url(#gradient_ice)" r="2"/><path d="m61 14h-22v-9a3.009 3.009 0 0 0 -3-3h-31a3.009 3.009 0 0 0 -3 3v54a3.009 3.009 0 0 0 3 3h31a3.009 3.009 0 0 0 3-3v-25h22a1 1 0 0 0 1-1v-18a1 1 0 0 0 -1-1zm-1.97 2-14.98 8.84-15.07-8.84zm-55.03-11a1 1 0 0 1 1-1h31a1 1 0 0 1 1 1v3h-33zm33 54a1 1 0 0 1 -1 1h-31a1 1 0 0 1 -1-1v-5h33zm0-7h-33v-42h33v4h-10a1 1 0 0 0 -1 1v18a1 1 0 0 0 1 1h10zm23-20h-32v-14.25l15.55 9.11a.993.993 0 0 0 .5.14 1.03 1.03 0 0 0 .51-.14l15.44-9.11z" fill="url(#gradient_ice-2)"/><path d="m16 25a8.009 8.009 0 0 0 -8 8c0 2.557 2.506 6.483 4.584 9.3-2.442.459-4.584 1.468-4.584 3.2 0 2.405 4.146 3.5 8 3.5s8-1.095 8-3.5c0-1.732-2.142-2.741-4.584-3.2 2.078-2.817 4.584-6.743 4.584-9.3a8.009 8.009 0 0 0 -8-8zm0 2a6.006 6.006 0 0 1 6 6c0 2.534-3.818 7.756-6 10.439-2.183-2.683-6-7.9-6-10.439a6.006 6.006 0 0 1 6-6zm6 18.482c-.122.418-2.155 1.518-6 1.518s-5.878-1.1-6-1.482c.079-.268 1.23-1.082 3.981-1.4.62.778 1.1 1.339 1.263 1.534a1 1 0 0 0 1.516 0c.168-.2.643-.756 1.263-1.534 2.749.317 3.9 1.13 3.977 1.364z" fill="url(#gradient_ice-3)"/><path d="m19 33a3 3 0 1 0 -3 3 3 3 0 0 0 3-3zm-4 0a1 1 0 1 1 1 1 1 1 0 0 1 -1-1z" fill="url(#gradient_ice-4)"/></g></svg>