<?xml version="1.0" encoding="iso-8859-1"?>
<!-- Generator: Adobe Illustrator 19.0.0, SVG Export Plug-In . SVG Version: 6.00 Build 0)  -->
<svg version="1.1" id="Capa_1" xmlns="http://www.w3.org/2000/svg" xmlns:xlink="http://www.w3.org/1999/xlink" x="0px" y="0px"
	 viewBox="0 0 496 496" style="enable-background:new 0 0 496 496;" xml:space="preserve">
<linearGradient id="SVGID_1_" gradientUnits="userSpaceOnUse" x1="-67.3087" y1="569.8668" x2="-8.2407" y2="628.9358" gradientTransform="matrix(8 0 0 -8 515.7318 5013)">
	<stop  offset="0" style="stop-color:#003F8A"/>
	<stop  offset="0.518" style="stop-color:#00D7DF"/>
	<stop  offset="1" style="stop-color:#006DF0"/>
</linearGradient>
<path style="fill:url(#SVGID_1_);" d="M303.324,328c-4.418,0-8,3.582-8,8v136c0,4.418-3.582,8-8,8h-208c-4.418,0-8-3.582-8-8V24
	c0-4.418,3.582-8,8-8h208c4.418,0,8,3.582,8,8v136c0,4.418,3.582,8,8,8s8-3.582,8-8V24c0-13.255-10.745-24-24-24h-208
	c-13.255,0-24,10.745-24,24v448c0,13.255,10.745,24,24,24h208c13.255,0,24-10.745,24-24V336
	C311.324,331.582,307.742,328,303.324,328z"/>
<linearGradient id="SVGID_2_" gradientUnits="userSpaceOnUse" x1="-55.3096" y1="557.8657" x2="3.7584" y2="616.9366" gradientTransform="matrix(8 0 0 -8 515.7318 5013)">
	<stop  offset="0" style="stop-color:#003F8A"/>
	<stop  offset="0.518" style="stop-color:#00D7DF"/>
	<stop  offset="1" style="stop-color:#006DF0"/>
</linearGradient>
<path style="fill:url(#SVGID_2_);" d="M183.324,464c13.255,0,24-10.745,24-24s-10.745-24-24-24s-24,10.745-24,24
	S170.069,464,183.324,464z M183.324,432c4.418,0,8,3.582,8,8s-3.582,8-8,8s-8-3.582-8-8S178.906,432,183.324,432z"/>
<linearGradient id="SVGID_3_" gradientUnits="userSpaceOnUse" x1="-80.3086" y1="582.8667" x2="-21.2406" y2="641.9357" gradientTransform="matrix(8 0 0 -8 515.7318 5013)">
	<stop  offset="0" style="stop-color:#003F8A"/>
	<stop  offset="0.518" style="stop-color:#00D7DF"/>
	<stop  offset="1" style="stop-color:#006DF0"/>
</linearGradient>
<path style="fill:url(#SVGID_3_);" d="M231.324,40c0-4.418-3.582-8-8-8h-80c-4.418,0-8,3.582-8,8s3.582,8,8,8h80
	C227.742,48,231.324,44.418,231.324,40z"/>
<linearGradient id="SVGID_4_" gradientUnits="userSpaceOnUse" x1="-59.1203" y1="561.6783" x2="-0.0513" y2="620.7473" gradientTransform="matrix(8 0 0 -8 515.7318 5013)">
	<stop  offset="0" style="stop-color:#003F8A"/>
	<stop  offset="0.518" style="stop-color:#00D7DF"/>
	<stop  offset="1" style="stop-color:#006DF0"/>
</linearGradient>
<path style="fill:url(#SVGID_4_);" d="M359.396,194.296L408.564,240h-209.24c-4.418,0-8,3.582-8,8s3.582,8,8,8h209.264
	l-49.192,45.72l10.912,11.72L440.676,248l-70.4-65.44L359.396,194.296z"/>
<g>
</g>
<g>
</g>
<g>
</g>
<g>
</g>
<g>
</g>
<g>
</g>
<g>
</g>
<g>
</g>
<g>
</g>
<g>
</g>
<g>
</g>
<g>
</g>
<g>
</g>
<g>
</g>
<g>
</g>
</svg>
