<?xml version="1.0" encoding="iso-8859-1"?>
<!-- Generator: Adobe Illustrator 19.0.0, SVG Export Plug-In . SVG Version: 6.00 Build 0)  -->
<svg version="1.1" id="Capa_1" xmlns="http://www.w3.org/2000/svg" xmlns:xlink="http://www.w3.org/1999/xlink" x="0px" y="0px"
	 viewBox="0 0 496 496" style="enable-background:new 0 0 496 496;" xml:space="preserve">
<linearGradient id="SVGID_1_" gradientUnits="userSpaceOnUse" x1="-64.0229" y1="560.4957" x2="1.7061" y2="626.2217" gradientTransform="matrix(8 0 0 -8 595.1272 5013)">
	<stop  offset="0" style="stop-color:#003F8A"/>
	<stop  offset="0.518" style="stop-color:#00D7DF"/>
	<stop  offset="1" style="stop-color:#006DF0"/>
</linearGradient>
<path style="fill:url(#SVGID_1_);" d="M171.982,416c-13.255,0-24,10.745-24,24s10.745,24,24,24s24-10.745,24-24
	S185.237,416,171.982,416z M171.982,448c-4.418,0-8-3.582-8-8s3.582-8,8-8s8,3.582,8,8S176.4,448,171.982,448z"/>
<linearGradient id="SVGID_2_" gradientUnits="userSpaceOnUse" x1="-89.0235" y1="585.4963" x2="-23.2945" y2="651.2223" gradientTransform="matrix(8 0 0 -8 595.1272 5013)">
	<stop  offset="0" style="stop-color:#003F8A"/>
	<stop  offset="0.518" style="stop-color:#00D7DF"/>
	<stop  offset="1" style="stop-color:#006DF0"/>
</linearGradient>
<path style="fill:url(#SVGID_2_);" d="M211.982,32h-80c-4.418,0-8,3.582-8,8s3.582,8,8,8h80c4.418,0,8-3.582,8-8
	S216.4,32,211.982,32z"/>
<linearGradient id="SVGID_3_" gradientUnits="userSpaceOnUse" x1="-76.0232" y1="572.496" x2="-10.2942" y2="638.222" gradientTransform="matrix(8 0 0 -8 595.1272 5013)">
	<stop  offset="0" style="stop-color:#003F8A"/>
	<stop  offset="0.518" style="stop-color:#00D7DF"/>
	<stop  offset="1" style="stop-color:#006DF0"/>
</linearGradient>
<path style="fill:url(#SVGID_3_);" d="M275.982,0h-208c-13.255,0-24,10.745-24,24v448c0,13.255,10.745,24,24,24h208
	c13.255,0,24-10.745,24-24V24C299.982,10.745,289.237,0,275.982,0z M283.982,472c0,4.418-3.582,8-8,8h-208c-4.418,0-8-3.582-8-8V24
	c0-4.418,3.582-8,8-8h208c4.418,0,8,3.582,8,8V472z"/>
<linearGradient id="SVGID_4_" gradientUnits="userSpaceOnUse" x1="-65.9844" y1="562.4582" x2="-0.2564" y2="628.1822" gradientTransform="matrix(8 0 0 -8 595.1272 5013)">
	<stop  offset="0" style="stop-color:#003F8A"/>
	<stop  offset="0.518" style="stop-color:#00D7DF"/>
	<stop  offset="1" style="stop-color:#006DF0"/>
</linearGradient>
<path style="fill:url(#SVGID_4_);" d="M411.982,240c-0.18-49.102-28.262-93.83-72.408-115.328c-3.91-2.058-8.747-0.557-10.806,3.352
	c-2.058,3.91-0.557,8.747,3.352,10.806c0.164,0.086,0.331,0.167,0.501,0.242c55.736,26.897,79.115,93.885,52.218,149.621
	c-12.713,26.344-35.223,46.672-62.722,56.643c-4.153,1.507-6.298,6.096-4.791,10.249c1.147,3.161,4.148,5.267,7.511,5.271
	c0.93,0,1.853-0.159,2.728-0.472C378.17,341.935,411.88,293.862,411.982,240z"/>
<linearGradient id="SVGID_5_" gradientUnits="userSpaceOnUse" x1="-64.2082" y1="560.682" x2="1.5139" y2="626.406" gradientTransform="matrix(8 0 0 -8 595.1272 5013)">
	<stop  offset="0" style="stop-color:#003F8A"/>
	<stop  offset="0.518" style="stop-color:#00D7DF"/>
	<stop  offset="1" style="stop-color:#006DF0"/>
</linearGradient>
<path style="fill:url(#SVGID_5_);" d="M369.694,95.504c-3.724-2.378-8.67-1.286-11.048,2.438c-2.378,3.724-1.286,8.67,2.438,11.048
	c0.142,0.091,0.287,0.177,0.434,0.258c72.222,42.853,96.029,136.14,53.176,208.361c-14.928,25.159-36.797,45.478-62.984,58.519
	c-3.942,1.995-5.52,6.809-3.525,10.751c1.975,3.901,6.715,5.494,10.645,3.577c83.083-41.364,116.902-142.249,75.538-225.331
	C419.957,136.179,397.501,112.005,369.694,95.504z"/>
<g>
</g>
<g>
</g>
<g>
</g>
<g>
</g>
<g>
</g>
<g>
</g>
<g>
</g>
<g>
</g>
<g>
</g>
<g>
</g>
<g>
</g>
<g>
</g>
<g>
</g>
<g>
</g>
<g>
</g>
</svg>
