<?xml version="1.0" encoding="iso-8859-1"?>
<!-- Generator: Adobe Illustrator 19.0.0, SVG Export Plug-In . SVG Version: 6.00 Build 0)  -->
<svg version="1.1" id="Capa_1" xmlns="http://www.w3.org/2000/svg" xmlns:xlink="http://www.w3.org/1999/xlink" x="0px" y="0px"
	 viewBox="0 0 496 496" style="enable-background:new 0 0 496 496;" xml:space="preserve">
<linearGradient id="SVGID_1_" gradientUnits="userSpaceOnUse" x1="-49.2952" y1="569.2062" x2="9.3438" y2="627.8422" gradientTransform="matrix(8 0 0 -8 371 5013)">
	<stop  offset="0" style="stop-color:#003F8A"/>
	<stop  offset="0.518" style="stop-color:#00D7DF"/>
	<stop  offset="1" style="stop-color:#006DF0"/>
</linearGradient>
<path style="fill:url(#SVGID_1_);" d="M308,328c-4.418,0-8,3.582-8,8v136c0,4.418-3.582,8-8,8H84c-4.418,0-8-3.582-8-8V24
	c0-4.418,3.582-8,8-8h208c4.418,0,8,3.582,8,8v136c0,4.418,3.582,8,8,8s8-3.582,8-8V24c0-13.255-10.745-24-24-24H84
	C70.745,0,60,10.745,60,24v448c0,13.255,10.745,24,24,24h208c13.255,0,24-10.745,24-24V336C316,331.582,312.418,328,308,328z"/>
<linearGradient id="SVGID_2_" gradientUnits="userSpaceOnUse" x1="-37.2949" y1="557.2059" x2="21.3441" y2="615.8419" gradientTransform="matrix(8 0 0 -8 371 5013)">
	<stop  offset="0" style="stop-color:#003F8A"/>
	<stop  offset="0.518" style="stop-color:#00D7DF"/>
	<stop  offset="1" style="stop-color:#006DF0"/>
</linearGradient>
<path style="fill:url(#SVGID_2_);" d="M188,464c13.255,0,24-10.745,24-24s-10.745-24-24-24s-24,10.745-24,24S174.745,464,188,464z
	 M188,432c4.418,0,8,3.582,8,8s-3.582,8-8,8s-8-3.582-8-8S183.582,432,188,432z"/>
<linearGradient id="SVGID_3_" gradientUnits="userSpaceOnUse" x1="-62.2955" y1="582.2065" x2="-3.6565" y2="640.8425" gradientTransform="matrix(8 0 0 -8 371 5013)">
	<stop  offset="0" style="stop-color:#003F8A"/>
	<stop  offset="0.518" style="stop-color:#00D7DF"/>
	<stop  offset="1" style="stop-color:#006DF0"/>
</linearGradient>
<path style="fill:url(#SVGID_3_);" d="M236,40c0-4.418-3.582-8-8-8h-80c-4.418,0-8,3.582-8,8s3.582,8,8,8h80
	C232.418,48,236,44.418,236,40z"/>
<linearGradient id="SVGID_4_" gradientUnits="userSpaceOnUse" x1="-41.4841" y1="561.3951" x2="17.1549" y2="620.0311" gradientTransform="matrix(8 0 0 -8 371 5013)">
	<stop  offset="0" style="stop-color:#003F8A"/>
	<stop  offset="0.518" style="stop-color:#00D7DF"/>
	<stop  offset="1" style="stop-color:#006DF0"/>
</linearGradient>
<path style="fill:url(#SVGID_4_);" d="M428,240H218.736l49.192-45.72l-10.912-11.72L186.648,248l70.4,65.44l10.912-11.72L218.76,256
	H428c4.418,0,8-3.582,8-8S432.418,240,428,240z"/>
<g>
</g>
<g>
</g>
<g>
</g>
<g>
</g>
<g>
</g>
<g>
</g>
<g>
</g>
<g>
</g>
<g>
</g>
<g>
</g>
<g>
</g>
<g>
</g>
<g>
</g>
<g>
</g>
<g>
</g>
</svg>
