<?xml version="1.0" encoding="iso-8859-1"?>
<!-- Generator: Adobe Illustrator 19.0.0, SVG Export Plug-In . SVG Version: 6.00 Build 0)  -->
<svg version="1.1" id="Capa_1" xmlns="http://www.w3.org/2000/svg" xmlns:xlink="http://www.w3.org/1999/xlink" x="0px" y="0px"
	 viewBox="0 0 496 496" style="enable-background:new 0 0 496 496;" xml:space="preserve">
<linearGradient id="SVGID_1_" gradientUnits="userSpaceOnUse" x1="-53.9557" y1="566.5447" x2="7.1753" y2="627.6747" gradientTransform="matrix(8 0 0 -8 399 5013)">
	<stop  offset="0" style="stop-color:#003F8A"/>
	<stop  offset="0.518" style="stop-color:#00D7DF"/>
	<stop  offset="1" style="stop-color:#006DF0"/>
</linearGradient>
<path style="fill:url(#SVGID_1_);" d="M320,328c-4.418,0-8,3.582-8,8v136c0,4.418-3.582,8-8,8H96c-4.418,0-8-3.582-8-8V24
	c0-4.418,3.582-8,8-8h208c4.418,0,8,3.582,8,8v120c0,4.418,3.582,8,8,8s8-3.582,8-8V24c0-13.255-10.745-24-24-24H96
	C82.745,0,72,10.745,72,24v448c0,13.255,10.745,24,24,24h208c13.255,0,24-10.745,24-24V336C328,331.582,324.418,328,320,328z"/>
<linearGradient id="SVGID_2_" gradientUnits="userSpaceOnUse" x1="-41.9556" y1="554.5446" x2="19.1754" y2="615.6746" gradientTransform="matrix(8 0 0 -8 399 5013)">
	<stop  offset="0" style="stop-color:#003F8A"/>
	<stop  offset="0.518" style="stop-color:#00D7DF"/>
	<stop  offset="1" style="stop-color:#006DF0"/>
</linearGradient>
<path style="fill:url(#SVGID_2_);" d="M176,440c0,13.255,10.745,24,24,24s24-10.745,24-24s-10.745-24-24-24S176,426.745,176,440z
	 M208,440c0,4.418-3.582,8-8,8s-8-3.582-8-8s3.582-8,8-8S208,435.582,208,440z"/>
<linearGradient id="SVGID_3_" gradientUnits="userSpaceOnUse" x1="-66.955" y1="579.545" x2="-5.825" y2="640.675" gradientTransform="matrix(8 0 0 -8 399 5013)">
	<stop  offset="0" style="stop-color:#003F8A"/>
	<stop  offset="0.518" style="stop-color:#00D7DF"/>
	<stop  offset="1" style="stop-color:#006DF0"/>
</linearGradient>
<path style="fill:url(#SVGID_3_);" d="M248,40c0-4.418-3.582-8-8-8h-80c-4.418,0-8,3.582-8,8s3.582,8,8,8h80
	C244.418,48,248,44.418,248,40z"/>
<linearGradient id="SVGID_4_" gradientUnits="userSpaceOnUse" x1="-46.4558" y1="559.0448" x2="14.6752" y2="620.1748" gradientTransform="matrix(8 0 0 -8 399 5013)">
	<stop  offset="0" style="stop-color:#003F8A"/>
	<stop  offset="0.518" style="stop-color:#00D7DF"/>
	<stop  offset="1" style="stop-color:#006DF0"/>
</linearGradient>
<path style="fill:url(#SVGID_4_);" d="M416,168H240c-4.418,0-8,3.582-8,8v128c0,4.418,3.582,8,8,8h24v24
	c-0.001,3.235,1.947,6.153,4.936,7.392c0.971,0.405,2.012,0.611,3.064,0.608c2.122,0,4.156-0.844,5.656-2.344L307.312,312H416
	c4.418,0,8-3.582,8-8V176C424,171.582,420.418,168,416,168z M408,296H304c-2.122,0-4.156,0.844-5.656,2.344L280,316.688V304
	c0-4.418-3.582-8-8-8h-24V184h160V296z"/>
<g>
</g>
<g>
</g>
<g>
</g>
<g>
</g>
<g>
</g>
<g>
</g>
<g>
</g>
<g>
</g>
<g>
</g>
<g>
</g>
<g>
</g>
<g>
</g>
<g>
</g>
<g>
</g>
<g>
</g>
</svg>
