<?xml version="1.0" encoding="iso-8859-1"?>
<!-- Generator: Adobe Illustrator 19.0.0, SVG Export Plug-In . SVG Version: 6.00 Build 0)  -->
<svg version="1.1" id="Capa_1" xmlns="http://www.w3.org/2000/svg" xmlns:xlink="http://www.w3.org/1999/xlink" x="0px" y="0px"
	 viewBox="0 0 496 496" style="enable-background:new 0 0 496 496;" xml:space="preserve">
<linearGradient id="SVGID_1_" gradientUnits="userSpaceOnUse" x1="-47.8281" y1="566.6741" x2="20.8439" y2="635.3411" gradientTransform="matrix(8 0 0 -8 399 5013)">
	<stop  offset="0" style="stop-color:#003F8A"/>
	<stop  offset="0.518" style="stop-color:#00D7DF"/>
	<stop  offset="1" style="stop-color:#006DF0"/>
</linearGradient>
<path style="fill:url(#SVGID_1_);" d="M24,392h448c13.255,0,24-10.745,24-24V128c0-13.255-10.745-24-24-24H24
	c-13.255,0-24,10.745-24,24v240C0,381.255,10.745,392,24,392z M472,376H24c-4.418,0-8-3.582-8-8V158.128l227.88,136.728
	c2.535,1.523,5.705,1.523,8.24,0L480,158.128V368C480,372.418,476.418,376,472,376z M24,120h448c4.418,0,8,3.582,8,8v11.472
	l-232,139.2l-232-139.2V128C16,123.582,19.582,120,24,120z"/>
<linearGradient id="SVGID_2_" gradientUnits="userSpaceOnUse" x1="-30.3279" y1="549.1758" x2="38.3441" y2="617.8409" gradientTransform="matrix(8 0 0 -8 399 5013)">
	<stop  offset="0" style="stop-color:#003F8A"/>
	<stop  offset="0.518" style="stop-color:#00D7DF"/>
	<stop  offset="1" style="stop-color:#006DF0"/>
</linearGradient>
<path style="fill:url(#SVGID_2_);" d="M448,304c-4.418,0-8,3.582-8,8v24h-8c-4.418,0-8,3.582-8,8s3.582,8,8,8h16
	c4.418,0,8-3.582,8-8v-32C456,307.582,452.418,304,448,304z"/>
<linearGradient id="SVGID_3_" gradientUnits="userSpaceOnUse" x1="-32.8267" y1="551.6747" x2="35.8433" y2="620.3417" gradientTransform="matrix(8 0 0 -8 399 5013)">
	<stop  offset="0" style="stop-color:#003F8A"/>
	<stop  offset="0.518" style="stop-color:#00D7DF"/>
	<stop  offset="1" style="stop-color:#006DF0"/>
</linearGradient>
<path style="fill:url(#SVGID_3_);" d="M400,336h-16c-4.418,0-8,3.582-8,8s3.582,8,8,8h16c4.418,0,8-3.582,8-8S404.418,336,400,336z"
	/>
<g>
</g>
<g>
</g>
<g>
</g>
<g>
</g>
<g>
</g>
<g>
</g>
<g>
</g>
<g>
</g>
<g>
</g>
<g>
</g>
<g>
</g>
<g>
</g>
<g>
</g>
<g>
</g>
<g>
</g>
</svg>
