<?xml version="1.0" encoding="iso-8859-1"?>
<!-- Generator: Adobe Illustrator 19.0.0, SVG Export Plug-In . SVG Version: 6.00 Build 0)  -->
<svg version="1.1" id="Capa_1" xmlns="http://www.w3.org/2000/svg" xmlns:xlink="http://www.w3.org/1999/xlink" x="0px" y="0px"
	 viewBox="0 0 496 496" style="enable-background:new 0 0 496 496;" xml:space="preserve">
<linearGradient id="SVGID_1_" gradientUnits="userSpaceOnUse" x1="-58.5413" y1="557.8732" x2="6.0547" y2="622.4702" gradientTransform="matrix(8 0 0 -8 399 4977.0078)">
	<stop  offset="0" style="stop-color:#003F8A"/>
	<stop  offset="0.518" style="stop-color:#00D7DF"/>
	<stop  offset="1" style="stop-color:#006DF0"/>
</linearGradient>
<path style="fill:url(#SVGID_1_);" d="M472,100.001H24c-13.255,0-24,10.745-24,24v240c0,13.255,10.745,24,24,24h344
	c4.418,0,8-3.582,8-8s-3.582-8-8-8H24c-4.418,0-8-3.582-8-8V154.129l227.88,136.728c2.535,1.523,5.705,1.523,8.24,0L480,154.129
	v121.872c0,4.418,3.582,8,8,8s8-3.582,8-8v-152C496,110.746,485.255,100.001,472,100.001L472,100.001z M248,274.673l-232-139.2
	v-11.472c0-4.418,3.582-8,8-8h448c4.418,0,8,3.582,8,8v11.472L248,274.673z"/>
<linearGradient id="SVGID_2_" gradientUnits="userSpaceOnUse" x1="-37.086" y1="536.4168" x2="27.514" y2="601.0138" gradientTransform="matrix(8 0 0 -8 399 4977.0078)">
	<stop  offset="0" style="stop-color:#003F8A"/>
	<stop  offset="0.518" style="stop-color:#00D7DF"/>
	<stop  offset="1" style="stop-color:#006DF0"/>
</linearGradient>
<path style="fill:url(#SVGID_2_);" d="M394.344,393.657c3.124,3.123,8.188,3.123,11.312,0L440,359.313l34.344,34.344
	c3.178,3.07,8.242,2.982,11.312-0.196c2.995-3.1,2.995-8.016,0-11.116l-34.344-34.344l34.344-34.344
	c3.07-3.178,2.982-8.242-0.196-11.312c-3.1-2.995-8.016-2.995-11.116,0L440,336.689l-34.344-34.344
	c-3.178-3.07-8.242-2.982-11.312,0.196c-2.995,3.1-2.995,8.016,0,11.116l34.344,34.344l-34.344,34.344
	C391.221,385.469,391.221,390.533,394.344,393.657z"/>
<linearGradient id="SVGID_3_" gradientUnits="userSpaceOnUse" x1="-62.585" y1="561.9158" x2="2.012" y2="626.5128" gradientTransform="matrix(8 0 0 -8 399 4977.0078)">
	<stop  offset="0" style="stop-color:#003F8A"/>
	<stop  offset="0.518" style="stop-color:#00D7DF"/>
	<stop  offset="1" style="stop-color:#006DF0"/>
</linearGradient>
<path style="fill:url(#SVGID_3_);" d="M48,300.001c-4.418,0-8,3.582-8,8v32c0,4.418,3.582,8,8,8h16c4.418,0,8-3.582,8-8
	s-3.582-8-8-8h-8v-24C56,303.583,52.418,300.001,48,300.001z"/>
<linearGradient id="SVGID_4_" gradientUnits="userSpaceOnUse" x1="-58.585" y1="557.9158" x2="6.012" y2="622.5128" gradientTransform="matrix(8 0 0 -8 399 4977.0078)">
	<stop  offset="0" style="stop-color:#003F8A"/>
	<stop  offset="0.518" style="stop-color:#00D7DF"/>
	<stop  offset="1" style="stop-color:#006DF0"/>
</linearGradient>
<path style="fill:url(#SVGID_4_);" d="M96,332.001c-4.418,0-8,3.582-8,8s3.582,8,8,8h16c4.418,0,8-3.582,8-8s-3.582-8-8-8H96z"/>
<g>
</g>
<g>
</g>
<g>
</g>
<g>
</g>
<g>
</g>
<g>
</g>
<g>
</g>
<g>
</g>
<g>
</g>
<g>
</g>
<g>
</g>
<g>
</g>
<g>
</g>
<g>
</g>
<g>
</g>
</svg>
