<?xml version="1.0" encoding="iso-8859-1"?>
<!-- Generator: Adobe Illustrator 19.0.0, SVG Export Plug-In . SVG Version: 6.00 Build 0)  -->
<svg version="1.1" id="Capa_1" xmlns="http://www.w3.org/2000/svg" xmlns:xlink="http://www.w3.org/1999/xlink" x="0px" y="0px"
	 viewBox="0 0 496 496" style="enable-background:new 0 0 496 496;" xml:space="preserve">
<linearGradient id="SVGID_1_" gradientUnits="userSpaceOnUse" x1="-58.5416" y1="546.5886" x2="0.7444" y2="605.8746" gradientTransform="matrix(8 0 0 -8 399 4866.4438)">
	<stop  offset="0" style="stop-color:#003F8A"/>
	<stop  offset="0.518" style="stop-color:#00D7DF"/>
	<stop  offset="1" style="stop-color:#006DF0"/>
</linearGradient>
<path style="fill:url(#SVGID_1_);" d="M472,87.716H24c-13.255,0-24,10.745-24,24v240c0,13.255,10.745,24,24,24h304
	c4.418,0,8-3.582,8-8s-3.582-8-8-8H24c-4.418,0-8-3.582-8-8V141.844l227.88,136.728c2.535,1.523,5.705,1.523,8.24,0L480,141.844
	v105.872c0,4.418,3.582,8,8,8s8-3.582,8-8v-136C496,98.461,485.255,87.716,472,87.716L472,87.716z M248,262.388l-232-139.2v-11.472
	c0-4.418,3.582-8,8-8h448c4.418,0,8,3.582,8,8v11.472L248,262.388z"/>
<linearGradient id="SVGID_2_" gradientUnits="userSpaceOnUse" x1="-37.5862" y1="525.6321" x2="21.7038" y2="584.9192" gradientTransform="matrix(8 0 0 -8 399 4866.4438)">
	<stop  offset="0" style="stop-color:#003F8A"/>
	<stop  offset="0.518" style="stop-color:#00D7DF"/>
	<stop  offset="1" style="stop-color:#006DF0"/>
</linearGradient>
<path style="fill:url(#SVGID_2_);" d="M362.584,407.636l39.448-16.904l0.136-0.056c0.832-0.376,1.592-0.893,2.248-1.528
	c0.08-0.072,0.184-0.096,0.256-0.168l84.864-84.864c3.123-3.124,3.123-8.188,0-11.312l-22.624-22.624
	c-3.124-3.123-8.188-3.123-11.312,0l-84.856,84.848c-0.072,0.072-0.096,0.176-0.168,0.256c-0.635,0.656-1.152,1.416-1.528,2.248
	l-0.056,0.136l-16.912,39.464c-1.741,4.061,0.14,8.764,4.201,10.505c0.996,0.427,2.068,0.647,3.151,0.647
	C360.516,408.286,361.589,408.066,362.584,407.636L362.584,407.636z M374.664,385.052l4.44-10.352l5.912,5.912L374.664,385.052z
	 M461.256,287.148l11.312,11.312l-73.536,73.544l-11.32-11.32L461.256,287.148z"/>
<linearGradient id="SVGID_3_" gradientUnits="userSpaceOnUse" x1="-62.0855" y1="550.1315" x2="-2.7955" y2="609.4185" gradientTransform="matrix(8 0 0 -8 399 4866.4438)">
	<stop  offset="0" style="stop-color:#003F8A"/>
	<stop  offset="0.518" style="stop-color:#00D7DF"/>
	<stop  offset="1" style="stop-color:#006DF0"/>
</linearGradient>
<path style="fill:url(#SVGID_3_);" d="M48,287.716c-4.418,0-8,3.582-8,8v32c0,4.418,3.582,8,8,8h16c4.418,0,8-3.582,8-8
	s-3.582-8-8-8h-8v-24C56,291.298,52.418,287.716,48,287.716z"/>
<linearGradient id="SVGID_4_" gradientUnits="userSpaceOnUse" x1="-58.0855" y1="546.1315" x2="1.2045" y2="605.4185" gradientTransform="matrix(8 0 0 -8 399 4866.4438)">
	<stop  offset="0" style="stop-color:#003F8A"/>
	<stop  offset="0.518" style="stop-color:#00D7DF"/>
	<stop  offset="1" style="stop-color:#006DF0"/>
</linearGradient>
<path style="fill:url(#SVGID_4_);" d="M96,319.716c-4.418,0-8,3.582-8,8s3.582,8,8,8h16c4.418,0,8-3.582,8-8s-3.582-8-8-8H96z"/>
<g>
</g>
<g>
</g>
<g>
</g>
<g>
</g>
<g>
</g>
<g>
</g>
<g>
</g>
<g>
</g>
<g>
</g>
<g>
</g>
<g>
</g>
<g>
</g>
<g>
</g>
<g>
</g>
<g>
</g>
</svg>
