<?xml version="1.0" encoding="iso-8859-1"?>
<!-- Generator: Adobe Illustrator 19.0.0, SVG Export Plug-In . SVG Version: 6.00 Build 0)  -->
<svg version="1.1" id="Capa_1" xmlns="http://www.w3.org/2000/svg" xmlns:xlink="http://www.w3.org/1999/xlink" x="0px" y="0px"
	 viewBox="0 0 496 496" style="enable-background:new 0 0 496 496;" xml:space="preserve">
<linearGradient id="SVGID_1_" gradientUnits="userSpaceOnUse" x1="-54.5582" y1="553.8572" x2="7.2438" y2="615.6572" gradientTransform="matrix(8 0 0 -8 399 4905)">
	<stop  offset="0" style="stop-color:#003F8A"/>
	<stop  offset="0.518" style="stop-color:#00D7DF"/>
	<stop  offset="1" style="stop-color:#006DF0"/>
</linearGradient>
<path style="fill:url(#SVGID_1_);" d="M472,92H24c-13.255,0-24,10.745-24,24v240c0,13.255,10.745,24,24,24h344c4.418,0,8-3.582,8-8
	s-3.582-8-8-8H24c-4.418,0-8-3.582-8-8V146.128l227.88,136.728c2.535,1.523,5.705,1.523,8.24,0L480,146.128V268c0,4.418,3.582,8,8,8
	s8-3.582,8-8V116C496,102.745,485.255,92,472,92L472,92z M248,266.672l-232-139.2V116c0-4.418,3.582-8,8-8h448c4.418,0,8,3.582,8,8
	v11.472L248,266.672z"/>
<linearGradient id="SVGID_2_" gradientUnits="userSpaceOnUse" x1="-34.3768" y1="533.6758" x2="27.4242" y2="595.4758" gradientTransform="matrix(8 0 0 -8 399 4905)">
	<stop  offset="0" style="stop-color:#003F8A"/>
	<stop  offset="0.518" style="stop-color:#00D7DF"/>
	<stop  offset="1" style="stop-color:#006DF0"/>
</linearGradient>
<path style="fill:url(#SVGID_2_);" d="M424,404c4.418,0,8-3.582,8-8V288.896l29.6,31.856l8.208-7.64L424,263.856l-45.8,49.256
	l8.2,7.64L416,288.92V396C416,400.418,419.582,404,424,404L424,404z"/>
<linearGradient id="SVGID_3_" gradientUnits="userSpaceOnUse" x1="-58.6005" y1="557.8985" x2="3.1955" y2="619.6985" gradientTransform="matrix(8 0 0 -8 399 4905)">
	<stop  offset="0" style="stop-color:#003F8A"/>
	<stop  offset="0.518" style="stop-color:#00D7DF"/>
	<stop  offset="1" style="stop-color:#006DF0"/>
</linearGradient>
<path style="fill:url(#SVGID_3_);" d="M48,292c-4.418,0-8,3.582-8,8v32c0,4.418,3.582,8,8,8h16c4.418,0,8-3.582,8-8s-3.582-8-8-8h-8
	v-24C56,295.582,52.418,292,48,292z"/>
<linearGradient id="SVGID_4_" gradientUnits="userSpaceOnUse" x1="-54.6004" y1="553.8984" x2="7.1956" y2="615.6984" gradientTransform="matrix(8 0 0 -8 399 4905)">
	<stop  offset="0" style="stop-color:#003F8A"/>
	<stop  offset="0.518" style="stop-color:#00D7DF"/>
	<stop  offset="1" style="stop-color:#006DF0"/>
</linearGradient>
<path style="fill:url(#SVGID_4_);" d="M96,324c-4.418,0-8,3.582-8,8s3.582,8,8,8h16c4.418,0,8-3.582,8-8s-3.582-8-8-8H96z"/>
<g>
</g>
<g>
</g>
<g>
</g>
<g>
</g>
<g>
</g>
<g>
</g>
<g>
</g>
<g>
</g>
<g>
</g>
<g>
</g>
<g>
</g>
<g>
</g>
<g>
</g>
<g>
</g>
<g>
</g>
</svg>
