<?xml version="1.0" encoding="iso-8859-1"?>
<!-- Generator: Adobe Illustrator 19.0.0, SVG Export Plug-In . SVG Version: 6.00 Build 0)  -->
<svg version="1.1" id="Capa_1" xmlns="http://www.w3.org/2000/svg" xmlns:xlink="http://www.w3.org/1999/xlink" x="0px" y="0px"
	 viewBox="0 0 496 496" style="enable-background:new 0 0 496 496;" xml:space="preserve">
<linearGradient id="SVGID_1_" gradientUnits="userSpaceOnUse" x1="-55.8645" y1="560.5945" x2="15.7945" y2="632.2615" gradientTransform="matrix(8 0 0 -8 399 4977.4409)">
	<stop  offset="0" style="stop-color:#003F8A"/>
	<stop  offset="0.518" style="stop-color:#00D7DF"/>
	<stop  offset="1" style="stop-color:#006DF0"/>
</linearGradient>
<path style="fill:url(#SVGID_1_);" d="M472,100.049H24c-13.255,0-24,10.745-24,24v240c0,13.255,10.745,24,24,24h344
	c4.418,0,8-3.582,8-8s-3.582-8-8-8H24c-4.418,0-8-3.582-8-8V154.177l227.88,136.728c2.535,1.523,5.705,1.523,8.24,0L480,154.177
	v121.872c0,4.418,3.582,8,8,8s8-3.582,8-8v-152C496,110.794,485.255,100.049,472,100.049L472,100.049z M248,274.721l-232-139.2
	v-11.472c0-4.418,3.582-8,8-8h448c4.418,0,8,3.582,8,8v11.472L248,274.721z"/>
<linearGradient id="SVGID_2_" gradientUnits="userSpaceOnUse" x1="-34.9312" y1="539.6611" x2="36.7278" y2="611.3292" gradientTransform="matrix(8 0 0 -8 399 4977.4409)">
	<stop  offset="0" style="stop-color:#003F8A"/>
	<stop  offset="0.518" style="stop-color:#00D7DF"/>
	<stop  offset="1" style="stop-color:#006DF0"/>
</linearGradient>
<path style="fill:url(#SVGID_2_);" d="M424,284.049c-26.51-0.004-48.003,21.483-48.007,47.993s21.483,48.003,47.993,48.007
	c7.996,0.001,15.866-1.995,22.895-5.808l19.464,19.464c3.178,3.07,8.242,2.982,11.312-0.196c2.995-3.1,2.995-8.016,0-11.116
	l-18.152-18.152c17.823-19.564,16.412-49.872-3.152-67.696C447.507,288.487,435.966,284.029,424,284.049z M392,332.049
	c0-17.673,14.327-32,32-32s32,14.327,32,32s-14.327,32-32,32S392,349.722,392,332.049z"/>
<linearGradient id="SVGID_3_" gradientUnits="userSpaceOnUse" x1="-59.9049" y1="564.6439" x2="11.7551" y2="636.3049" gradientTransform="matrix(8 0 0 -8 399 4977.4409)">
	<stop  offset="0" style="stop-color:#003F8A"/>
	<stop  offset="0.518" style="stop-color:#00D7DF"/>
	<stop  offset="1" style="stop-color:#006DF0"/>
</linearGradient>
<path style="fill:url(#SVGID_3_);" d="M48,300.049c-4.418,0-8,3.582-8,8v32c0,4.418,3.582,8,8,8h16c4.418,0,8-3.582,8-8
	s-3.582-8-8-8h-8v-24C56,303.631,52.418,300.049,48,300.049z"/>
<linearGradient id="SVGID_4_" gradientUnits="userSpaceOnUse" x1="-55.9049" y1="560.6439" x2="15.7551" y2="632.3049" gradientTransform="matrix(8 0 0 -8 399 4977.4409)">
	<stop  offset="0" style="stop-color:#003F8A"/>
	<stop  offset="0.518" style="stop-color:#00D7DF"/>
	<stop  offset="1" style="stop-color:#006DF0"/>
</linearGradient>
<path style="fill:url(#SVGID_4_);" d="M96,332.049c-4.418,0-8,3.582-8,8s3.582,8,8,8h16c4.418,0,8-3.582,8-8s-3.582-8-8-8H96z"/>
<g>
</g>
<g>
</g>
<g>
</g>
<g>
</g>
<g>
</g>
<g>
</g>
<g>
</g>
<g>
</g>
<g>
</g>
<g>
</g>
<g>
</g>
<g>
</g>
<g>
</g>
<g>
</g>
<g>
</g>
</svg>
