<?xml version="1.0" encoding="iso-8859-1"?>
<!-- Generator: Adobe Illustrator 19.0.0, SVG Export Plug-In . SVG Version: 6.00 Build 0)  -->
<svg version="1.1" id="Capa_1" xmlns="http://www.w3.org/2000/svg" xmlns:xlink="http://www.w3.org/1999/xlink" x="0px" y="0px"
	 viewBox="0 0 496.032 496.032" style="enable-background:new 0 0 496.032 496.032;" xml:space="preserve">
<linearGradient id="SVGID_1_" gradientUnits="userSpaceOnUse" x1="-50.4174" y1="558.1006" x2="1.7866" y2="610.3076" gradientTransform="matrix(8 0 0 -8 398.7759 4977.5776)">
	<stop  offset="0" style="stop-color:#003F8A"/>
	<stop  offset="0.518" style="stop-color:#00D7DF"/>
	<stop  offset="1" style="stop-color:#006DF0"/>
</linearGradient>
<path style="fill:url(#SVGID_1_);" d="M495.816,154.552c-0.072-0.34-0.168-0.674-0.288-1c-0.122-0.377-0.275-0.744-0.456-1.096
	c-0.049-0.175-0.111-0.346-0.184-0.512c-0.056-0.104-0.168-0.152-0.232-0.256c-0.186-0.263-0.39-0.515-0.608-0.752
	c-0.272-0.32-0.568-0.616-0.888-0.888c-0.236-0.22-0.487-0.424-0.752-0.608c-0.104-0.072-0.152-0.176-0.256-0.232l-240-144
	c-2.535-1.523-5.705-1.523-8.24,0l-240,144c-0.096,0.056-0.152,0.16-0.248,0.224c-0.281,0.189-0.549,0.397-0.8,0.624
	c-0.317,0.269-0.611,0.563-0.88,0.88c-0.22,0.236-0.424,0.487-0.608,0.752c-0.064,0.104-0.176,0.152-0.232,0.256
	c-0.071,0.167-0.132,0.338-0.184,0.512c-0.18,0.353-0.332,0.719-0.456,1.096c-0.12,0.326-0.216,0.66-0.288,1
	c-0.057,0.323-0.095,0.649-0.112,0.976c0,0.184-0.104,0.344-0.104,0.536v256c0,13.255,10.745,24,24,24h319.512c4.418,0,8-3.582,8-8
	s-3.582-8-8-8H24.032c-4.418,0-8-3.582-8-8v-83.472l232-139.2l232,139.2v35.568c0,4.418,3.582,8,8,8s8-3.582,8-8V156.064
	c0-0.192-0.096-0.352-0.104-0.536C495.911,155.201,495.873,154.875,495.816,154.552L495.816,154.552z M16.032,170.192
	l116.448,69.872L16.032,309.936V170.192z M243.912,173.208l-95.88,57.528L23.584,156.064L248.032,21.392L472.48,156.064
	l-124.448,74.672l-95.88-57.528C249.617,171.685,246.447,171.685,243.912,173.208L243.912,173.208z M363.584,240.064l116.448-69.872
	v139.744L363.584,240.064z"/>
<linearGradient id="SVGID_2_" gradientUnits="userSpaceOnUse" x1="-27.4477" y1="535.137" x2="24.7593" y2="587.337" gradientTransform="matrix(8 0 0 -8 398.7759 4977.5776)">
	<stop  offset="0" style="stop-color:#003F8A"/>
	<stop  offset="0.518" style="stop-color:#00D7DF"/>
	<stop  offset="1" style="stop-color:#006DF0"/>
</linearGradient>
<path style="fill:url(#SVGID_2_);" d="M424.032,380.064c-26.51-0.004-48.003,21.483-48.007,47.993s21.483,48.003,47.993,48.007
	c7.996,0.001,15.866-1.995,22.895-5.808l19.464,19.464c3.178,3.07,8.242,2.982,11.312-0.196c2.995-3.1,2.995-8.016,0-11.116
	l-18.152-18.152c17.823-19.564,16.412-49.872-3.152-67.696C447.539,384.502,435.998,380.044,424.032,380.064z M392.032,428.064
	c0-17.673,14.327-32,32-32s32,14.327,32,32s-14.327,32-32,32S392.032,445.737,392.032,428.064z"/>
<linearGradient id="SVGID_3_" gradientUnits="userSpaceOnUse" x1="-55.4236" y1="563.1088" x2="-3.2186" y2="615.3128" gradientTransform="matrix(8 0 0 -8 398.7759 4977.5776)">
	<stop  offset="0" style="stop-color:#003F8A"/>
	<stop  offset="0.518" style="stop-color:#00D7DF"/>
	<stop  offset="1" style="stop-color:#006DF0"/>
</linearGradient>
<path style="fill:url(#SVGID_3_);" d="M40.032,356.064c-4.418,0-8,3.582-8,8v32c0,4.418,3.582,8,8,8h16c4.418,0,8-3.582,8-8
	s-3.582-8-8-8h-8v-24C48.032,359.646,44.45,356.064,40.032,356.064z"/>
<linearGradient id="SVGID_4_" gradientUnits="userSpaceOnUse" x1="-51.4236" y1="559.1088" x2="0.7814" y2="611.3128" gradientTransform="matrix(8 0 0 -8 398.7759 4977.5776)">
	<stop  offset="0" style="stop-color:#003F8A"/>
	<stop  offset="0.518" style="stop-color:#00D7DF"/>
	<stop  offset="1" style="stop-color:#006DF0"/>
</linearGradient>
<path style="fill:url(#SVGID_4_);" d="M88.032,388.064c-4.418,0-8,3.582-8,8s3.582,8,8,8h16c4.418,0,8-3.582,8-8s-3.582-8-8-8
	H88.032z"/>
<g>
</g>
<g>
</g>
<g>
</g>
<g>
</g>
<g>
</g>
<g>
</g>
<g>
</g>
<g>
</g>
<g>
</g>
<g>
</g>
<g>
</g>
<g>
</g>
<g>
</g>
<g>
</g>
<g>
</g>
</svg>
