<?xml version="1.0" encoding="iso-8859-1"?>
<!-- Generator: Adobe Illustrator 19.0.0, SVG Export Plug-In . SVG Version: 6.00 Build 0)  -->
<svg version="1.1" id="Capa_1" xmlns="http://www.w3.org/2000/svg" xmlns:xlink="http://www.w3.org/1999/xlink" x="0px" y="0px"
	 viewBox="0 0 496 496" style="enable-background:new 0 0 496 496;" xml:space="preserve">
<linearGradient id="SVGID_1_" gradientUnits="userSpaceOnUse" x1="-54.5096" y1="565.9046" x2="16.9994" y2="637.4136" gradientTransform="matrix(8 0 0 -8 399 5013)">
	<stop  offset="0" style="stop-color:#003F8A"/>
	<stop  offset="0.518" style="stop-color:#00D7DF"/>
	<stop  offset="1" style="stop-color:#006DF0"/>
</linearGradient>
<path style="fill:url(#SVGID_1_);" d="M472,104H24c-13.255,0-24,10.745-24,24v240c0,13.255,10.745,24,24,24h344c4.418,0,8-3.582,8-8
	s-3.582-8-8-8H24c-4.418,0-8-3.582-8-8V158.128l227.88,136.728c2.535,1.523,5.705,1.523,8.24,0L480,158.128V280c0,4.418,3.582,8,8,8
	s8-3.582,8-8V128C496,114.745,485.255,104,472,104L472,104z M248,278.672l-232-139.2V128c0-4.418,3.582-8,8-8h448
	c4.418,0,8,3.582,8,8v11.472L248,278.672z"/>
<linearGradient id="SVGID_2_" gradientUnits="userSpaceOnUse" x1="-36.2771" y1="547.6721" x2="35.2339" y2="619.1811" gradientTransform="matrix(8 0 0 -8 399 5013)">
	<stop  offset="0" style="stop-color:#003F8A"/>
	<stop  offset="0.518" style="stop-color:#00D7DF"/>
	<stop  offset="1" style="stop-color:#006DF0"/>
</linearGradient>
<path style="fill:url(#SVGID_2_);" d="M426.888,381.808L476.144,336l-49.256-45.8l-7.64,8.2L451.08,328H344c-4.418,0-8,3.582-8,8
	s3.582,8,8,8h107.104l-31.856,29.6L426.888,381.808z"/>
<linearGradient id="SVGID_3_" gradientUnits="userSpaceOnUse" x1="-58.552" y1="569.948" x2="12.956" y2="641.456" gradientTransform="matrix(8 0 0 -8 399 5013)">
	<stop  offset="0" style="stop-color:#003F8A"/>
	<stop  offset="0.518" style="stop-color:#00D7DF"/>
	<stop  offset="1" style="stop-color:#006DF0"/>
</linearGradient>
<path style="fill:url(#SVGID_3_);" d="M48,304c-4.418,0-8,3.582-8,8v32c0,4.418,3.582,8,8,8h16c4.418,0,8-3.582,8-8s-3.582-8-8-8h-8
	v-24C56,307.582,52.418,304,48,304z"/>
<linearGradient id="SVGID_4_" gradientUnits="userSpaceOnUse" x1="-54.552" y1="565.948" x2="16.956" y2="637.456" gradientTransform="matrix(8 0 0 -8 399 5013)">
	<stop  offset="0" style="stop-color:#003F8A"/>
	<stop  offset="0.518" style="stop-color:#00D7DF"/>
	<stop  offset="1" style="stop-color:#006DF0"/>
</linearGradient>
<path style="fill:url(#SVGID_4_);" d="M96,336c-4.418,0-8,3.582-8,8s3.582,8,8,8h16c4.418,0,8-3.582,8-8s-3.582-8-8-8H96z"/>
<g>
</g>
<g>
</g>
<g>
</g>
<g>
</g>
<g>
</g>
<g>
</g>
<g>
</g>
<g>
</g>
<g>
</g>
<g>
</g>
<g>
</g>
<g>
</g>
<g>
</g>
<g>
</g>
<g>
</g>
</svg>
