<?xml version="1.0" encoding="iso-8859-1"?>
<!-- Generator: Adobe Illustrator 19.0.0, SVG Export Plug-In . SVG Version: 6.00 Build 0)  -->
<svg version="1.1" id="Capa_1" xmlns="http://www.w3.org/2000/svg" xmlns:xlink="http://www.w3.org/1999/xlink" x="0px" y="0px"
	 viewBox="0 0 496 496" style="enable-background:new 0 0 496 496;" xml:space="preserve">
<linearGradient id="SVGID_1_" gradientUnits="userSpaceOnUse" x1="-50.4776" y1="570.934" x2="18.0714" y2="639.483" gradientTransform="matrix(8 0 0 -8 399 5012.9766)">
	<stop  offset="0" style="stop-color:#003F8A"/>
	<stop  offset="0.518" style="stop-color:#00D7DF"/>
	<stop  offset="1" style="stop-color:#006DF0"/>
</linearGradient>
<path style="fill:url(#SVGID_1_);" d="M472,95.997H24c-13.255,0-24,10.745-24,24v240c0,13.255,10.745,24,24,24h344
	c4.418,0,8-3.582,8-8s-3.582-8-8-8H24c-4.418,0-8-3.582-8-8V150.125l227.88,136.728c2.535,1.523,5.705,1.523,8.24,0L480,150.125
	v121.872c0,4.418,3.582,8,8,8s8-3.582,8-8v-152C496,106.743,485.255,95.997,472,95.997L472,95.997z M248,270.669l-232-139.2v-11.472
	c0-4.418,3.582-8,8-8h448c4.418,0,8,3.582,8,8v11.472L248,270.669z"/>
<linearGradient id="SVGID_2_" gradientUnits="userSpaceOnUse" x1="-28.5789" y1="549.0383" x2="39.9691" y2="617.5883" gradientTransform="matrix(8 0 0 -8 399 5012.9766)">
	<stop  offset="0" style="stop-color:#003F8A"/>
	<stop  offset="0.518" style="stop-color:#00D7DF"/>
	<stop  offset="1" style="stop-color:#006DF0"/>
</linearGradient>
<path style="fill:url(#SVGID_2_);" d="M400,322.141l-20.744,35.928h13.168c3.353,26.297,27.39,44.896,53.686,41.542
	s44.896-27.39,41.542-53.686c-3.058-23.982-23.476-41.947-47.653-41.928c-4.418,0-8,3.582-8,8s3.582,8,8,8
	c17.673-0.019,32.015,14.292,32.035,31.965c0.019,17.673-14.292,32.015-31.965,32.035c-15.345,0.017-28.542-10.862-31.453-25.928
	h12.128L400,322.141z"/>
<linearGradient id="SVGID_3_" gradientUnits="userSpaceOnUse" x1="-54.52" y1="574.9774" x2="14.028" y2="643.5254" gradientTransform="matrix(8 0 0 -8 399 5012.9766)">
	<stop  offset="0" style="stop-color:#003F8A"/>
	<stop  offset="0.518" style="stop-color:#00D7DF"/>
	<stop  offset="1" style="stop-color:#006DF0"/>
</linearGradient>
<path style="fill:url(#SVGID_3_);" d="M40,303.997c-4.418,0-8,3.582-8,8v32c0,4.418,3.582,8,8,8h16c4.418,0,8-3.582,8-8
	s-3.582-8-8-8h-8v-24C48,307.579,44.418,303.997,40,303.997z"/>
<linearGradient id="SVGID_4_" gradientUnits="userSpaceOnUse" x1="-50.52" y1="570.9774" x2="18.028" y2="639.5254" gradientTransform="matrix(8 0 0 -8 399 5012.9766)">
	<stop  offset="0" style="stop-color:#003F8A"/>
	<stop  offset="0.518" style="stop-color:#00D7DF"/>
	<stop  offset="1" style="stop-color:#006DF0"/>
</linearGradient>
<path style="fill:url(#SVGID_4_);" d="M88,335.997c-4.418,0-8,3.582-8,8s3.582,8,8,8h16c4.418,0,8-3.582,8-8s-3.582-8-8-8H88z"/>
<g>
</g>
<g>
</g>
<g>
</g>
<g>
</g>
<g>
</g>
<g>
</g>
<g>
</g>
<g>
</g>
<g>
</g>
<g>
</g>
<g>
</g>
<g>
</g>
<g>
</g>
<g>
</g>
<g>
</g>
</svg>
