<?xml version="1.0" encoding="iso-8859-1"?>
<!-- Generator: Adobe Illustrator 19.0.0, SVG Export Plug-In . SVG Version: 6.00 Build 0)  -->
<svg version="1.1" id="Capa_1" xmlns="http://www.w3.org/2000/svg" xmlns:xlink="http://www.w3.org/1999/xlink" x="0px" y="0px"
	 viewBox="0 0 496 496" style="enable-background:new 0 0 496 496;" xml:space="preserve">
<linearGradient id="SVGID_1_" gradientUnits="userSpaceOnUse" x1="-53.6075" y1="567.8085" x2="7.7335" y2="629.1465" gradientTransform="matrix(8 0 0 -8 399 5013)">
	<stop  offset="0" style="stop-color:#003F8A"/>
	<stop  offset="0.518" style="stop-color:#00D7DF"/>
	<stop  offset="1" style="stop-color:#006DF0"/>
</linearGradient>
<path style="fill:url(#SVGID_1_);" d="M472,96H24c-13.255,0-24,10.745-24,24v240c0,13.255,10.745,24,24,24h344c4.418,0,8-3.582,8-8
	s-3.582-8-8-8H24c-4.418,0-8-3.582-8-8V150.128l227.88,136.728c2.535,1.523,5.705,1.523,8.24,0L480,150.128V272c0,4.418,3.582,8,8,8
	s8-3.582,8-8V120C496,106.745,485.255,96,472,96L472,96z M248,270.672l-232-139.2V120c0-4.418,3.582-8,8-8h448c4.418,0,8,3.582,8,8
	v11.472L248,270.672z"/>
<linearGradient id="SVGID_2_" gradientUnits="userSpaceOnUse" x1="-34.147" y1="548.353" x2="27.187" y2="609.687" gradientTransform="matrix(8 0 0 -8 399 5013)">
	<stop  offset="0" style="stop-color:#003F8A"/>
	<stop  offset="0.518" style="stop-color:#00D7DF"/>
	<stop  offset="1" style="stop-color:#006DF0"/>
</linearGradient>
<path style="fill:url(#SVGID_2_);" d="M488,320h-56v-56c0-4.418-3.582-8-8-8s-8,3.582-8,8v56h-56c-4.418,0-8,3.582-8,8s3.582,8,8,8
	h56v56c0,4.418,3.582,8,8,8s8-3.582,8-8v-56h56c4.418,0,8-3.582,8-8S492.418,320,488,320z"/>
<linearGradient id="SVGID_3_" gradientUnits="userSpaceOnUse" x1="-57.6486" y1="571.8505" x2="3.6855" y2="633.1885" gradientTransform="matrix(8 0 0 -8 399 5013)">
	<stop  offset="0" style="stop-color:#003F8A"/>
	<stop  offset="0.518" style="stop-color:#00D7DF"/>
	<stop  offset="1" style="stop-color:#006DF0"/>
</linearGradient>
<path style="fill:url(#SVGID_3_);" d="M40,304c-4.418,0-8,3.582-8,8v32c0,4.418,3.582,8,8,8h16c4.418,0,8-3.582,8-8s-3.582-8-8-8h-8
	v-24C48,307.582,44.418,304,40,304z"/>
<linearGradient id="SVGID_4_" gradientUnits="userSpaceOnUse" x1="-53.6485" y1="567.8505" x2="7.6855" y2="629.1885" gradientTransform="matrix(8 0 0 -8 399 5013)">
	<stop  offset="0" style="stop-color:#003F8A"/>
	<stop  offset="0.518" style="stop-color:#00D7DF"/>
	<stop  offset="1" style="stop-color:#006DF0"/>
</linearGradient>
<path style="fill:url(#SVGID_4_);" d="M88,336c-4.418,0-8,3.582-8,8s3.582,8,8,8h16c4.418,0,8-3.582,8-8s-3.582-8-8-8H88z"/>
<g>
</g>
<g>
</g>
<g>
</g>
<g>
</g>
<g>
</g>
<g>
</g>
<g>
</g>
<g>
</g>
<g>
</g>
<g>
</g>
<g>
</g>
<g>
</g>
<g>
</g>
<g>
</g>
<g>
</g>
</svg>
