<?xml version="1.0" encoding="iso-8859-1"?>
<!-- Generator: Adobe Illustrator 19.0.0, SVG Export Plug-In . SVG Version: 6.00 Build 0)  -->
<svg version="1.1" id="Capa_1" xmlns="http://www.w3.org/2000/svg" xmlns:xlink="http://www.w3.org/1999/xlink" x="0px" y="0px"
	 viewBox="0 0 496 496" style="enable-background:new 0 0 496 496;" xml:space="preserve">
<linearGradient id="SVGID_1_" gradientUnits="userSpaceOnUse" x1="-54.2006" y1="550.2126" x2="18.2974" y2="622.7126" gradientTransform="matrix(8 0 0 -8 399 4869)">
	<stop  offset="0" style="stop-color:#003F8A"/>
	<stop  offset="0.518" style="stop-color:#00D7DF"/>
	<stop  offset="1" style="stop-color:#006DF0"/>
</linearGradient>
<path style="fill:url(#SVGID_1_);" d="M472,88H24C10.745,88,0,98.745,0,112v240c0,13.255,10.745,24,24,24h336c4.418,0,8-3.582,8-8
	s-3.582-8-8-8H24c-4.418,0-8-3.582-8-8V142.128l227.88,136.728c2.535,1.523,5.705,1.523,8.24,0L480,142.128V264c0,4.418,3.582,8,8,8
	s8-3.582,8-8V112C496,98.745,485.255,88,472,88L472,88z M248,262.672l-232-139.2V112c0-4.418,3.582-8,8-8h448c4.418,0,8,3.582,8,8
	v11.472L248,262.672z"/>
<linearGradient id="SVGID_2_" gradientUnits="userSpaceOnUse" x1="-31.4511" y1="527.4631" x2="41.0469" y2="599.9611" gradientTransform="matrix(8 0 0 -8 399 4869)">
	<stop  offset="0" style="stop-color:#003F8A"/>
	<stop  offset="0.518" style="stop-color:#00D7DF"/>
	<stop  offset="1" style="stop-color:#006DF0"/>
</linearGradient>
<path style="fill:url(#SVGID_2_);" d="M488,320h-16v-24c0-13.255-10.745-24-24-24h-16c-13.255,0-24,10.745-24,24v24h-16
	c-4.418,0-8,3.582-8,8v72c0,4.418,3.582,8,8,8h96c4.418,0,8-3.582,8-8v-72C496,323.582,492.418,320,488,320z M424,296
	c0-4.418,3.582-8,8-8h16c4.418,0,8,3.582,8,8v24h-32V296z M480,392h-80v-56h80V392z"/>
<linearGradient id="SVGID_3_" gradientUnits="userSpaceOnUse" x1="-58.2456" y1="554.2546" x2="14.2554" y2="626.7546" gradientTransform="matrix(8 0 0 -8 399 4869)">
	<stop  offset="0" style="stop-color:#003F8A"/>
	<stop  offset="0.518" style="stop-color:#00D7DF"/>
	<stop  offset="1" style="stop-color:#006DF0"/>
</linearGradient>
<path style="fill:url(#SVGID_3_);" d="M48,288c-4.418,0-8,3.582-8,8v32c0,4.418,3.582,8,8,8h16c4.418,0,8-3.582,8-8s-3.582-8-8-8h-8
	v-24C56,291.582,52.418,288,48,288z"/>
<linearGradient id="SVGID_4_" gradientUnits="userSpaceOnUse" x1="-54.2455" y1="550.2545" x2="18.2555" y2="622.7555" gradientTransform="matrix(8 0 0 -8 399 4869)">
	<stop  offset="0" style="stop-color:#003F8A"/>
	<stop  offset="0.518" style="stop-color:#00D7DF"/>
	<stop  offset="1" style="stop-color:#006DF0"/>
</linearGradient>
<path style="fill:url(#SVGID_4_);" d="M96,320c-4.418,0-8,3.582-8,8s3.582,8,8,8h16c4.418,0,8-3.582,8-8s-3.582-8-8-8H96z"/>
<g>
</g>
<g>
</g>
<g>
</g>
<g>
</g>
<g>
</g>
<g>
</g>
<g>
</g>
<g>
</g>
<g>
</g>
<g>
</g>
<g>
</g>
<g>
</g>
<g>
</g>
<g>
</g>
<g>
</g>
</svg>
