<?xml version="1.0" encoding="iso-8859-1"?>
<!-- Generator: Adobe Illustrator 19.0.0, SVG Export Plug-In . SVG Version: 6.00 Build 0)  -->
<svg version="1.1" id="Capa_1" xmlns="http://www.w3.org/2000/svg" xmlns:xlink="http://www.w3.org/1999/xlink" x="0px" y="0px"
	 viewBox="0 0 496 496" style="enable-background:new 0 0 496 496;" xml:space="preserve">
<linearGradient id="SVGID_1_" gradientUnits="userSpaceOnUse" x1="-42.5947" y1="550.892" x2="17.6543" y2="611.1359" gradientTransform="matrix(8 0 0 -8 399.0001 4868.9932)">
	<stop  offset="0" style="stop-color:#003F8A"/>
	<stop  offset="0.518" style="stop-color:#00D7DF"/>
	<stop  offset="1" style="stop-color:#006DF0"/>
</linearGradient>
<path style="fill:url(#SVGID_1_);" d="M495.784,166.487c-0.072-0.34-0.168-0.674-0.288-1c-0.122-0.377-0.275-0.744-0.456-1.096
	c-0.049-0.175-0.111-0.346-0.184-0.512c-0.056-0.104-0.168-0.152-0.232-0.256c-0.186-0.263-0.39-0.515-0.608-0.752
	c-0.272-0.32-0.568-0.616-0.888-0.888c-0.239-0.223-0.493-0.428-0.76-0.616c-0.096-0.064-0.152-0.168-0.248-0.224l-240-144
	c-2.535-1.523-5.705-1.523-8.24,0l-240,144c-0.096,0.056-0.152,0.16-0.248,0.232c-0.269,0.182-0.523,0.386-0.76,0.608
	c-0.318,0.274-0.614,0.57-0.888,0.888c-0.218,0.237-0.422,0.489-0.608,0.752c-0.064,0.104-0.176,0.152-0.232,0.256
	c-0.071,0.167-0.132,0.338-0.184,0.512c-0.18,0.353-0.332,0.719-0.456,1.096c-0.12,0.326-0.216,0.66-0.288,1
	c-0.057,0.323-0.095,0.649-0.112,0.976c0,0.184-0.104,0.344-0.104,0.536v256c0,13.255,10.745,24,24,24h319.48c4.418,0,8-3.582,8-8
	s-3.582-8-8-8H24c-4.418,0-8-3.582-8-8v-83.472l232-139.2l232,139.2v35.568c0,4.418,3.582,8,8,8s8-3.582,8-8V167.999
	c0-0.192-0.096-0.352-0.104-0.536C495.879,167.136,495.841,166.81,495.784,166.487L495.784,166.487z M16,182.127l116.448,69.872
	L16,321.871V182.127z M243.88,185.143L148,242.671L23.552,167.999L248,33.327l224.448,134.672L348,242.671l-95.88-57.528
	C249.585,183.62,246.415,183.62,243.88,185.143L243.88,185.143z M363.552,251.999L480,182.127v139.744L363.552,251.999z"/>
<linearGradient id="SVGID_2_" gradientUnits="userSpaceOnUse" x1="-21.806" y1="530.1052" x2="38.434" y2="590.3502" gradientTransform="matrix(8 0 0 -8 399.0001 4868.9932)">
	<stop  offset="0" style="stop-color:#003F8A"/>
	<stop  offset="0.518" style="stop-color:#00D7DF"/>
	<stop  offset="1" style="stop-color:#006DF0"/>
</linearGradient>
<path style="fill:url(#SVGID_2_);" d="M432,343.999h-16c-13.255,0-24,10.745-24,24v24h-16c-4.418,0-8,3.582-8,8v72
	c0,4.418,3.582,8,8,8h96c4.418,0,8-3.582,8-8v-72c0-4.418-3.582-8-8-8h-16v-24C456,354.744,445.255,343.999,432,343.999z
	 M408,367.999c0-4.418,3.582-8,8-8h16c4.418,0,8,3.582,8,8v24h-32V367.999z M464,463.999h-80v-56h80V463.999z"/>
<linearGradient id="SVGID_3_" gradientUnits="userSpaceOnUse" x1="-47.6011" y1="555.8983" x2="12.6449" y2="616.1423" gradientTransform="matrix(8 0 0 -8 399.0001 4868.9932)">
	<stop  offset="0" style="stop-color:#003F8A"/>
	<stop  offset="0.518" style="stop-color:#00D7DF"/>
	<stop  offset="1" style="stop-color:#006DF0"/>
</linearGradient>
<path style="fill:url(#SVGID_3_);" d="M40,367.999c-4.418,0-8,3.582-8,8v32c0,4.418,3.582,8,8,8h16c4.418,0,8-3.582,8-8
	s-3.582-8-8-8h-8v-24C48,371.581,44.418,367.999,40,367.999z"/>
<linearGradient id="SVGID_4_" gradientUnits="userSpaceOnUse" x1="-43.6011" y1="551.8983" x2="16.6449" y2="612.1423" gradientTransform="matrix(8 0 0 -8 399.0001 4868.9932)">
	<stop  offset="0" style="stop-color:#003F8A"/>
	<stop  offset="0.518" style="stop-color:#00D7DF"/>
	<stop  offset="1" style="stop-color:#006DF0"/>
</linearGradient>
<path style="fill:url(#SVGID_4_);" d="M88,399.999c-4.418,0-8,3.582-8,8s3.582,8,8,8h16c4.418,0,8-3.582,8-8s-3.582-8-8-8H88z"/>
<g>
</g>
<g>
</g>
<g>
</g>
<g>
</g>
<g>
</g>
<g>
</g>
<g>
</g>
<g>
</g>
<g>
</g>
<g>
</g>
<g>
</g>
<g>
</g>
<g>
</g>
<g>
</g>
<g>
</g>
</svg>
