<?xml version="1.0" encoding="iso-8859-1"?>
<!-- Generator: Adobe Illustrator 19.0.0, SVG Export Plug-In . SVG Version: 6.00 Build 0)  -->
<svg version="1.1" id="Capa_1" xmlns="http://www.w3.org/2000/svg" xmlns:xlink="http://www.w3.org/1999/xlink" x="0px" y="0px"
	 viewBox="0 0 496 496" style="enable-background:new 0 0 496 496;" xml:space="preserve">
<linearGradient id="SVGID_1_" gradientUnits="userSpaceOnUse" x1="-52.4451" y1="555.9691" x2="17.7349" y2="626.1491" gradientTransform="matrix(8 0 0 -8 399 4905)">
	<stop  offset="0" style="stop-color:#003F8A"/>
	<stop  offset="0.518" style="stop-color:#00D7DF"/>
	<stop  offset="1" style="stop-color:#006DF0"/>
</linearGradient>
<path style="fill:url(#SVGID_1_);" d="M472,92H24c-13.255,0-24,10.745-24,24v240c0,13.255,10.745,24,24,24h344c4.418,0,8-3.582,8-8
	s-3.582-8-8-8H24c-4.418,0-8-3.582-8-8V146.128l227.88,136.728c2.535,1.523,5.705,1.523,8.24,0L480,146.128V268c0,4.418,3.582,8,8,8
	s8-3.582,8-8V116C496,102.745,485.255,92,472,92L472,92z M248,266.672l-232-139.2V116c0-4.418,3.582-8,8-8h448c4.418,0,8,3.582,8,8
	v11.472L248,266.672z"/>
<linearGradient id="SVGID_2_" gradientUnits="userSpaceOnUse" x1="-31.2645" y1="534.7855" x2="38.9145" y2="604.9685" gradientTransform="matrix(8 0 0 -8 399 4905)">
	<stop  offset="0" style="stop-color:#003F8A"/>
	<stop  offset="0.518" style="stop-color:#00D7DF"/>
	<stop  offset="1" style="stop-color:#006DF0"/>
</linearGradient>
<path style="fill:url(#SVGID_2_);" d="M421.112,262.208L371.856,308l49.256,45.8l7.64-8.208L396.896,316H432
	c13.255,0,24,10.745,24,24v56c0,4.418,3.582,8,8,8s8-3.582,8-8v-56c-0.026-22.08-17.92-39.974-40-40h-35.08l31.832-29.6
	L421.112,262.208z"/>
<linearGradient id="SVGID_3_" gradientUnits="userSpaceOnUse" x1="-56.4883" y1="560.0123" x2="13.6947" y2="630.1923" gradientTransform="matrix(8 0 0 -8 399 4905)">
	<stop  offset="0" style="stop-color:#003F8A"/>
	<stop  offset="0.518" style="stop-color:#00D7DF"/>
	<stop  offset="1" style="stop-color:#006DF0"/>
</linearGradient>
<path style="fill:url(#SVGID_3_);" d="M48,292c-4.418,0-8,3.582-8,8v32c0,4.418,3.582,8,8,8h16c4.418,0,8-3.582,8-8s-3.582-8-8-8h-8
	v-24C56,295.582,52.418,292,48,292z"/>
<linearGradient id="SVGID_4_" gradientUnits="userSpaceOnUse" x1="-52.4872" y1="556.0142" x2="17.6958" y2="626.1912" gradientTransform="matrix(8 0 0 -8 399 4905)">
	<stop  offset="0" style="stop-color:#003F8A"/>
	<stop  offset="0.518" style="stop-color:#00D7DF"/>
	<stop  offset="1" style="stop-color:#006DF0"/>
</linearGradient>
<path style="fill:url(#SVGID_4_);" d="M96,324c-4.418,0-8,3.582-8,8s3.582,8,8,8h16c4.418,0,8-3.582,8-8s-3.582-8-8-8H96z"/>
<g>
</g>
<g>
</g>
<g>
</g>
<g>
</g>
<g>
</g>
<g>
</g>
<g>
</g>
<g>
</g>
<g>
</g>
<g>
</g>
<g>
</g>
<g>
</g>
<g>
</g>
<g>
</g>
<g>
</g>
</svg>
