<?xml version="1.0" encoding="iso-8859-1"?>
<!-- Generator: Adobe Illustrator 19.0.0, SVG Export Plug-In . SVG Version: 6.00 Build 0)  -->
<svg version="1.1" id="Capa_1" xmlns="http://www.w3.org/2000/svg" xmlns:xlink="http://www.w3.org/1999/xlink" x="0px" y="0px"
	 viewBox="0 0 496 496" style="enable-background:new 0 0 496 496;" xml:space="preserve">
<linearGradient id="SVGID_1_" gradientUnits="userSpaceOnUse" x1="-51.9468" y1="563.1822" x2="3.2732" y2="618.4032" gradientTransform="matrix(8 0 0 -8 399 4965.4385)">
	<stop  offset="0" style="stop-color:#003F8A"/>
	<stop  offset="0.518" style="stop-color:#00D7DF"/>
	<stop  offset="1" style="stop-color:#006DF0"/>
</linearGradient>
<path style="fill:url(#SVGID_1_);" d="M24,386.715h336c4.418,0,8-3.582,8-8s-3.582-8-8-8H24c-4.418,0-8-3.582-8-8V152.843
	l227.88,136.728c2.535,1.523,5.705,1.523,8.24,0L480,152.843v121.872c0,4.418,3.582,8,8,8s8-3.582,8-8v-152
	c0-13.255-10.745-24-24-24H24c-13.255,0-24,10.745-24,24v240C0,375.97,10.745,386.715,24,386.715L24,386.715z M24,114.715h448
	c4.418,0,8,3.582,8,8v11.472l-232,139.2l-232-139.2v-11.472C16,118.297,19.582,114.715,24,114.715z"/>
<linearGradient id="SVGID_2_" gradientUnits="userSpaceOnUse" x1="-31.1214" y1="542.3608" x2="24.0956" y2="597.5778" gradientTransform="matrix(8 0 0 -8 399 4965.4385)">
	<stop  offset="0" style="stop-color:#003F8A"/>
	<stop  offset="0.518" style="stop-color:#00D7DF"/>
	<stop  offset="1" style="stop-color:#006DF0"/>
</linearGradient>
<path style="fill:url(#SVGID_2_);" d="M488,314.715h-37.44l-11.568-35.608c-1.38-4.197-5.901-6.482-10.098-5.102
	c-2.415,0.794-4.308,2.687-5.102,5.102L412.2,314.715h-37.44c-4.418-0.001-8.001,3.58-8.002,7.998c0,2.561,1.225,4.968,3.298,6.474
	l30.288,22.008L388.8,386.803c-1.366,4.202,0.933,8.715,5.135,10.081c2.436,0.792,5.105,0.369,7.177-1.137l30.288-22.008
	l30.288,22.008c3.57,2.604,8.574,1.821,11.178-1.749c1.514-2.076,1.939-4.752,1.142-7.195L462.4,351.195l30.296-22.008
	c3.574-2.597,4.367-7.6,1.77-11.174C492.962,315.943,490.558,314.717,488,314.715L488,314.715z M448.304,341.667
	c-2.803,2.038-3.975,5.648-2.904,8.944l5.8,17.704l-15.12-10.936c-2.805-2.039-6.603-2.039-9.408,0L411.6,368.315l5.76-17.72
	c1.071-3.296-0.101-6.906-2.904-8.944l-15.08-10.936h18.632c3.469,0.003,6.544-2.229,7.616-5.528l5.752-17.72l5.76,17.72
	c1.071,3.296,4.142,5.528,7.608,5.528h18.632L448.304,341.667z"/>
<linearGradient id="SVGID_3_" gradientUnits="userSpaceOnUse" x1="-55.9864" y1="567.2288" x2="-0.7734" y2="622.4428" gradientTransform="matrix(8 0 0 -8 399 4965.4385)">
	<stop  offset="0" style="stop-color:#003F8A"/>
	<stop  offset="0.518" style="stop-color:#00D7DF"/>
	<stop  offset="1" style="stop-color:#006DF0"/>
</linearGradient>
<path style="fill:url(#SVGID_3_);" d="M48,298.715c-4.418,0-8,3.582-8,8v32c0,4.418,3.582,8,8,8h16c4.418,0,8-3.582,8-8
	s-3.582-8-8-8h-8v-24C56,302.297,52.418,298.715,48,298.715z"/>
<linearGradient id="SVGID_4_" gradientUnits="userSpaceOnUse" x1="-51.9864" y1="563.2288" x2="3.2266" y2="618.4427" gradientTransform="matrix(8 0 0 -8 399 4965.4385)">
	<stop  offset="0" style="stop-color:#003F8A"/>
	<stop  offset="0.518" style="stop-color:#00D7DF"/>
	<stop  offset="1" style="stop-color:#006DF0"/>
</linearGradient>
<path style="fill:url(#SVGID_4_);" d="M96,330.715c-4.418,0-8,3.582-8,8s3.582,8,8,8h16c4.418,0,8-3.582,8-8s-3.582-8-8-8H96z"/>
<g>
</g>
<g>
</g>
<g>
</g>
<g>
</g>
<g>
</g>
<g>
</g>
<g>
</g>
<g>
</g>
<g>
</g>
<g>
</g>
<g>
</g>
<g>
</g>
<g>
</g>
<g>
</g>
<g>
</g>
</svg>
