<?xml version="1.0" encoding="iso-8859-1"?>
<!-- Generator: Adobe Illustrator 19.0.0, SVG Export Plug-In . SVG Version: 6.00 Build 0)  -->
<svg version="1.1" id="Capa_1" xmlns="http://www.w3.org/2000/svg" xmlns:xlink="http://www.w3.org/1999/xlink" x="0px" y="0px"
	 viewBox="0 0 496 496" style="enable-background:new 0 0 496 496;" xml:space="preserve">
<linearGradient id="SVGID_1_" gradientUnits="userSpaceOnUse" x1="-51.3808" y1="554.9638" x2="15.5942" y2="621.9338" gradientTransform="matrix(8 0 0 -8 399 4886.3516)">
	<stop  offset="0" style="stop-color:#003F8A"/>
	<stop  offset="0.518" style="stop-color:#00D7DF"/>
	<stop  offset="1" style="stop-color:#006DF0"/>
</linearGradient>
<path style="fill:url(#SVGID_1_);" d="M472,89.928H24c-13.255,0-24,10.745-24,24v240c0,13.255,10.745,24,24,24h344
	c4.418,0,8-3.582,8-8s-3.582-8-8-8H24c-4.418,0-8-3.582-8-8V144.056l227.88,136.728c2.535,1.523,5.705,1.523,8.24,0L480,144.056
	v121.872c0,4.418,3.582,8,8,8s8-3.582,8-8v-152C496,100.673,485.255,89.928,472,89.928L472,89.928z M248,264.6L16,125.4v-11.472
	c0-4.418,3.582-8,8-8h448c4.418,0,8,3.582,8,8V125.4L248,264.6z"/>
<linearGradient id="SVGID_2_" gradientUnits="userSpaceOnUse" x1="-30.1469" y1="533.7318" x2="36.8261" y2="600.6998" gradientTransform="matrix(8 0 0 -8 399 4886.3516)">
	<stop  offset="0" style="stop-color:#003F8A"/>
	<stop  offset="0.518" style="stop-color:#00D7DF"/>
	<stop  offset="1" style="stop-color:#006DF0"/>
</linearGradient>
<path style="fill:url(#SVGID_2_);" d="M440,265.928c-4.418,0-8,3.582-8,8v107.104l-29.6-31.856l-8.208,7.64L440,406.072l45.8-49.256
	l-8.2-7.64L448,381.008v-107.08C448,269.51,444.418,265.928,440,265.928L440,265.928z"/>
<linearGradient id="SVGID_3_" gradientUnits="userSpaceOnUse" x1="-55.4234" y1="559.0034" x2="11.5446" y2="625.9774" gradientTransform="matrix(8 0 0 -8 399 4886.3516)">
	<stop  offset="0" style="stop-color:#003F8A"/>
	<stop  offset="0.518" style="stop-color:#00D7DF"/>
	<stop  offset="1" style="stop-color:#006DF0"/>
</linearGradient>
<path style="fill:url(#SVGID_3_);" d="M48,289.928c-4.418,0-8,3.582-8,8v32c0,4.418,3.582,8,8,8h16c4.418,0,8-3.582,8-8
	s-3.582-8-8-8h-8v-24C56,293.51,52.418,289.928,48,289.928z"/>
<linearGradient id="SVGID_4_" gradientUnits="userSpaceOnUse" x1="-51.4233" y1="555.0034" x2="15.5446" y2="621.9773" gradientTransform="matrix(8 0 0 -8 399 4886.3516)">
	<stop  offset="0" style="stop-color:#003F8A"/>
	<stop  offset="0.518" style="stop-color:#00D7DF"/>
	<stop  offset="1" style="stop-color:#006DF0"/>
</linearGradient>
<path style="fill:url(#SVGID_4_);" d="M96,321.928c-4.418,0-8,3.582-8,8s3.582,8,8,8h16c4.418,0,8-3.582,8-8s-3.582-8-8-8H96z"/>
<g>
</g>
<g>
</g>
<g>
</g>
<g>
</g>
<g>
</g>
<g>
</g>
<g>
</g>
<g>
</g>
<g>
</g>
<g>
</g>
<g>
</g>
<g>
</g>
<g>
</g>
<g>
</g>
<g>
</g>
</svg>
