<?xml version="1.0" encoding="iso-8859-1"?>
<!-- Generator: Adobe Illustrator 19.0.0, SVG Export Plug-In . SVG Version: 6.00 Build 0)  -->
<svg version="1.1" id="Capa_1" xmlns="http://www.w3.org/2000/svg" xmlns:xlink="http://www.w3.org/1999/xlink" x="0px" y="0px"
	 viewBox="0 0 496 496" style="enable-background:new 0 0 496 496;" xml:space="preserve">
<linearGradient id="SVGID_1_" gradientUnits="userSpaceOnUse" x1="-55.7679" y1="557.2797" x2="18.8641" y2="631.9107" gradientTransform="matrix(8 0 0 -8 399 4946.6953)">
	<stop  offset="0" style="stop-color:#003F8A"/>
	<stop  offset="0.518" style="stop-color:#00D7DF"/>
	<stop  offset="1" style="stop-color:#006DF0"/>
</linearGradient>
<path style="fill:url(#SVGID_1_);" d="M472,96.633H24c-13.255,0-24,10.745-24,24v240c0,13.255,10.745,24,24,24h344
	c4.418,0,8-3.582,8-8s-3.582-8-8-8H24c-4.418,0-8-3.582-8-8V150.761l227.88,136.728c2.535,1.523,5.705,1.523,8.24,0L480,150.761
	v121.872c0,4.418,3.582,8,8,8s8-3.582,8-8v-152C496,107.378,485.255,96.633,472,96.633L472,96.633z M248,271.305l-232-139.2v-11.472
	c0-4.418,3.582-8,8-8h448c4.418,0,8,3.582,8,8v11.472L248,271.305z"/>
<linearGradient id="SVGID_2_" gradientUnits="userSpaceOnUse" x1="-34.3099" y1="535.8177" x2="40.3151" y2="610.4527" gradientTransform="matrix(8 0 0 -8 399 4946.6953)">
	<stop  offset="0" style="stop-color:#003F8A"/>
	<stop  offset="0.518" style="stop-color:#00D7DF"/>
	<stop  offset="1" style="stop-color:#006DF0"/>
</linearGradient>
<path style="fill:url(#SVGID_2_);" d="M479.592,305.033c0,0-0.088-0.048-0.128-0.088c-22.618-21.094-58.054-19.859-79.148,2.759
	c-20.063,21.513-20.062,54.882,0.004,76.393c0.04,0.04,0.048,0.096,0.088,0.136s0.088,0.048,0.128,0.088
	c22.618,21.094,58.054,19.858,79.148-2.76c20.063-21.513,20.061-54.881-0.004-76.392
	C479.64,305.129,479.632,305.073,479.592,305.033L479.592,305.033z M440,304.633c7.838,0.002,15.5,2.32,22.024,6.664l-55.36,55.36
	c-12.199-18.375-7.192-43.161,11.184-55.36C424.413,306.939,432.12,304.62,440,304.633z M440,384.633
	c-7.838-0.002-15.5-2.32-22.024-6.664l55.36-55.36c12.199,18.375,7.192,43.161-11.184,55.36
	C455.587,382.327,447.88,384.646,440,384.633z"/>
<linearGradient id="SVGID_3_" gradientUnits="userSpaceOnUse" x1="-59.8094" y1="561.3223" x2="14.8156" y2="635.9523" gradientTransform="matrix(8 0 0 -8 399 4946.6953)">
	<stop  offset="0" style="stop-color:#003F8A"/>
	<stop  offset="0.518" style="stop-color:#00D7DF"/>
	<stop  offset="1" style="stop-color:#006DF0"/>
</linearGradient>
<path style="fill:url(#SVGID_3_);" d="M48,296.633c-4.418,0-8,3.582-8,8v32c0,4.418,3.582,8,8,8h16c4.418,0,8-3.582,8-8
	s-3.582-8-8-8h-8v-24C56,300.215,52.418,296.633,48,296.633z"/>
<linearGradient id="SVGID_4_" gradientUnits="userSpaceOnUse" x1="-55.8094" y1="557.3222" x2="18.8156" y2="631.9522" gradientTransform="matrix(8 0 0 -8 399 4946.6953)">
	<stop  offset="0" style="stop-color:#003F8A"/>
	<stop  offset="0.518" style="stop-color:#00D7DF"/>
	<stop  offset="1" style="stop-color:#006DF0"/>
</linearGradient>
<path style="fill:url(#SVGID_4_);" d="M96,328.633c-4.418,0-8,3.582-8,8s3.582,8,8,8h16c4.418,0,8-3.582,8-8s-3.582-8-8-8H96z"/>
<g>
</g>
<g>
</g>
<g>
</g>
<g>
</g>
<g>
</g>
<g>
</g>
<g>
</g>
<g>
</g>
<g>
</g>
<g>
</g>
<g>
</g>
<g>
</g>
<g>
</g>
<g>
</g>
<g>
</g>
</svg>
