<?xml version="1.0" encoding="iso-8859-1"?>
<!-- Generator: Adobe Illustrator 19.0.0, SVG Export Plug-In . SVG Version: 6.00 Build 0)  -->
<svg version="1.1" id="Capa_1" xmlns="http://www.w3.org/2000/svg" xmlns:xlink="http://www.w3.org/1999/xlink" x="0px" y="0px"
	 viewBox="0 0 496 496" style="enable-background:new 0 0 496 496;" xml:space="preserve">
<linearGradient id="SVGID_1_" gradientUnits="userSpaceOnUse" x1="-26.8914" y1="526.2717" x2="28.2346" y2="581.4037" gradientTransform="matrix(8 0 0 -8 399.0001 4874.9971)">
	<stop  offset="0" style="stop-color:#003F8A"/>
	<stop  offset="0.518" style="stop-color:#00D7DF"/>
	<stop  offset="1" style="stop-color:#006DF0"/>
</linearGradient>
<path style="fill:url(#SVGID_1_);" d="M384.528,464.338c22.647,21.063,58.081,19.778,79.144-2.869
	c19.991-21.495,19.991-54.78,0-76.275c0-0.04-0.04-0.088-0.08-0.12s-0.08-0.048-0.12-0.08
	c-22.647-21.063-58.081-19.779-79.144,2.868c-19.992,21.495-19.992,54.781,0,76.276c0,0.04,0.04,0.088,0.08,0.12
	S384.488,464.306,384.528,464.338L384.528,464.338z M424,464.666c-7.838-0.002-15.5-2.32-22.024-6.664l55.36-55.36
	c12.199,18.375,7.192,43.161-11.184,55.36C439.587,462.36,431.88,464.679,424,464.666z M424,384.666
	c7.838,0.002,15.5,2.32,22.024,6.664l-55.36,55.36c-12.199-18.375-7.192-43.161,11.184-55.36
	C408.413,386.972,416.12,384.654,424,384.666z"/>
<linearGradient id="SVGID_2_" gradientUnits="userSpaceOnUse" x1="-47.3834" y1="546.7707" x2="7.7456" y2="601.8957" gradientTransform="matrix(8 0 0 -8 399.0001 4874.9971)">
	<stop  offset="0" style="stop-color:#003F8A"/>
	<stop  offset="0.518" style="stop-color:#00D7DF"/>
	<stop  offset="1" style="stop-color:#006DF0"/>
</linearGradient>
<path style="fill:url(#SVGID_2_);" d="M495.784,167.154c-0.072-0.34-0.168-0.674-0.288-1c-0.122-0.377-0.275-0.744-0.456-1.096
	c-0.049-0.175-0.111-0.346-0.184-0.512c-0.056-0.104-0.168-0.152-0.232-0.256c-0.186-0.263-0.39-0.515-0.608-0.752
	c-0.272-0.32-0.568-0.616-0.888-0.888c-0.237-0.222-0.491-0.426-0.76-0.608c-0.096-0.072-0.152-0.176-0.248-0.232l-240-144
	c-2.535-1.523-5.705-1.523-8.24,0l-240,144c-0.104,0.056-0.152,0.16-0.256,0.232c-0.263,0.186-0.515,0.39-0.752,0.608
	c-0.32,0.272-0.616,0.568-0.888,0.888c-0.218,0.237-0.422,0.489-0.608,0.752c-0.064,0.104-0.176,0.152-0.232,0.256
	c-0.071,0.167-0.132,0.338-0.184,0.512c-0.18,0.353-0.332,0.719-0.456,1.096c-0.12,0.326-0.216,0.66-0.288,1
	c-0.057,0.323-0.095,0.649-0.112,0.976c0,0.184-0.104,0.344-0.104,0.536v256c0,13.255,10.745,24,24,24h319.48c4.418,0,8-3.582,8-8
	s-3.582-8-8-8H24c-4.418,0-8-3.582-8-8v-83.472l232-139.2l232,139.2v35.568c0,4.418,3.582,8,8,8s8-3.582,8-8V168.666
	c0-0.192-0.096-0.352-0.104-0.536C495.879,167.803,495.841,167.477,495.784,167.154L495.784,167.154z M16,182.794l116.448,69.872
	L16,322.538V182.794z M243.88,185.81L148,243.338L23.552,168.666L248,33.994l224.448,134.672L348,243.338l-95.88-57.528
	C249.585,184.287,246.415,184.287,243.88,185.81L243.88,185.81z M363.552,252.666L480,182.794v139.744L363.552,252.666z"/>
<linearGradient id="SVGID_3_" gradientUnits="userSpaceOnUse" x1="-52.3927" y1="551.773" x2="2.7353" y2="606.905" gradientTransform="matrix(8 0 0 -8 399.0001 4874.9971)">
	<stop  offset="0" style="stop-color:#003F8A"/>
	<stop  offset="0.518" style="stop-color:#00D7DF"/>
	<stop  offset="1" style="stop-color:#006DF0"/>
</linearGradient>
<path style="fill:url(#SVGID_3_);" d="M40,368.666c-4.418,0-8,3.582-8,8v32c0,4.418,3.582,8,8,8h16c4.418,0,8-3.582,8-8
	s-3.582-8-8-8h-8v-24C48,372.248,44.418,368.666,40,368.666z"/>
<linearGradient id="SVGID_4_" gradientUnits="userSpaceOnUse" x1="-48.3924" y1="547.7728" x2="6.7336" y2="602.9047" gradientTransform="matrix(8 0 0 -8 399.0001 4874.9971)">
	<stop  offset="0" style="stop-color:#003F8A"/>
	<stop  offset="0.518" style="stop-color:#00D7DF"/>
	<stop  offset="1" style="stop-color:#006DF0"/>
</linearGradient>
<path style="fill:url(#SVGID_4_);" d="M88,400.666c-4.418,0-8,3.582-8,8s3.582,8,8,8h16c4.418,0,8-3.582,8-8s-3.582-8-8-8H88z"/>
<g>
</g>
<g>
</g>
<g>
</g>
<g>
</g>
<g>
</g>
<g>
</g>
<g>
</g>
<g>
</g>
<g>
</g>
<g>
</g>
<g>
</g>
<g>
</g>
<g>
</g>
<g>
</g>
<g>
</g>
</svg>
