<?xml version="1.0" encoding="iso-8859-1"?>
<!-- Generator: Adobe Illustrator 19.0.0, SVG Export Plug-In . SVG Version: 6.00 Build 0)  -->
<svg version="1.1" id="Capa_1" xmlns="http://www.w3.org/2000/svg" xmlns:xlink="http://www.w3.org/1999/xlink" x="0px" y="0px"
	 viewBox="0 0 496.001 496.001" style="enable-background:new 0 0 496.001 496.001;" xml:space="preserve">
<linearGradient id="SVGID_1_" gradientUnits="userSpaceOnUse" x1="-58.3403" y1="558.576" x2="0.9767" y2="617.891" gradientTransform="matrix(8 0 0 -8 399 4977.0063)">
	<stop  offset="0" style="stop-color:#003F8A"/>
	<stop  offset="0.518" style="stop-color:#00D7DF"/>
	<stop  offset="1" style="stop-color:#006DF0"/>
</linearGradient>
<path style="fill:url(#SVGID_1_);" d="M472,100.001H24c-13.255,0-24,10.745-24,24v240c0,13.255,10.745,24,24,24h344
	c4.418,0,8-3.582,8-8s-3.582-8-8-8H24c-4.418,0-8-3.582-8-8V154.129l227.88,136.728c2.535,1.523,5.705,1.523,8.24,0L480,154.129
	v113.872c0,4.418,3.582,8,8,8s8-3.582,8-8v-144C496,110.746,485.255,100.001,472,100.001L472,100.001z M248,274.673l-232-139.2
	v-11.472c0-4.418,3.582-8,8-8h448c4.418,0,8,3.582,8,8v11.472L248,274.673z"/>
<linearGradient id="SVGID_2_" gradientUnits="userSpaceOnUse" x1="-37.1268" y1="537.3595" x2="22.1912" y2="596.6785" gradientTransform="matrix(8 0 0 -8 399 4977.0063)">
	<stop  offset="0" style="stop-color:#003F8A"/>
	<stop  offset="0.518" style="stop-color:#00D7DF"/>
	<stop  offset="1" style="stop-color:#006DF0"/>
</linearGradient>
<path style="fill:url(#SVGID_2_);" d="M424,396.001c0.208,0,0.416,0,0.624,0c2.334-0.182,4.471-1.378,5.848-3.272l64-88
	c2.598-3.574,1.806-8.578-1.768-11.176s-8.578-1.806-11.176,1.768l0,0l-58.496,80.4l-25.376-25.376
	c-3.178-3.07-8.242-2.982-11.312,0.196c-2.995,3.1-2.995,8.016,0,11.116l32,32C419.844,395.157,421.878,396,424,396.001L424,396.001
	z"/>
<linearGradient id="SVGID_3_" gradientUnits="userSpaceOnUse" x1="-62.1338" y1="562.3666" x2="-2.8158" y2="621.6855" gradientTransform="matrix(8 0 0 -8 399 4977.0063)">
	<stop  offset="0" style="stop-color:#003F8A"/>
	<stop  offset="0.518" style="stop-color:#00D7DF"/>
	<stop  offset="1" style="stop-color:#006DF0"/>
</linearGradient>
<path style="fill:url(#SVGID_3_);" d="M48,300.001c-4.418,0-8,3.582-8,8v32c0,4.418,3.582,8,8,8h16c4.418,0,8-3.582,8-8
	s-3.582-8-8-8h-8v-24C56,303.582,52.418,300.001,48,300.001z"/>
<linearGradient id="SVGID_4_" gradientUnits="userSpaceOnUse" x1="-58.1338" y1="558.3665" x2="1.1842" y2="617.6855" gradientTransform="matrix(8 0 0 -8 399 4977.0063)">
	<stop  offset="0" style="stop-color:#003F8A"/>
	<stop  offset="0.518" style="stop-color:#00D7DF"/>
	<stop  offset="1" style="stop-color:#006DF0"/>
</linearGradient>
<path style="fill:url(#SVGID_4_);" d="M96,332.001c-4.418,0-8,3.582-8,8s3.582,8,8,8h16c4.418,0,8-3.582,8-8s-3.582-8-8-8H96z"/>
<g>
</g>
<g>
</g>
<g>
</g>
<g>
</g>
<g>
</g>
<g>
</g>
<g>
</g>
<g>
</g>
<g>
</g>
<g>
</g>
<g>
</g>
<g>
</g>
<g>
</g>
<g>
</g>
<g>
</g>
</svg>
