<?xml version="1.0" encoding="iso-8859-1"?>
<!-- Generator: Adobe Illustrator 19.0.0, SVG Export Plug-In . SVG Version: 6.00 Build 0)  -->
<svg version="1.1" id="Capa_1" xmlns="http://www.w3.org/2000/svg" xmlns:xlink="http://www.w3.org/1999/xlink" x="0px" y="0px"
	 viewBox="0 0 496.016 496.016" style="enable-background:new 0 0 496.016 496.016;" xml:space="preserve">
<linearGradient id="SVGID_1_" gradientUnits="userSpaceOnUse" x1="-45.5186" y1="572.5549" x2="10.9474" y2="629.0189" gradientTransform="matrix(8 0 0 -8 398.888 5121.0928)">
	<stop  offset="0" style="stop-color:#003F8A"/>
	<stop  offset="0.518" style="stop-color:#00D7DF"/>
	<stop  offset="1" style="stop-color:#006DF0"/>
</linearGradient>
<path style="fill:url(#SVGID_1_);" d="M495.8,194.498c-0.071-0.344-0.17-0.681-0.296-1.008c-0.122-0.373-0.272-0.737-0.448-1.088
	c-0.052-0.174-0.113-0.345-0.184-0.512c-0.056-0.104-0.168-0.152-0.232-0.256c-0.631-0.859-1.389-1.617-2.248-2.248
	c-0.104-0.064-0.152-0.176-0.256-0.232L397,132.074c-3.789-2.273-8.703-1.045-10.976,2.744c-2.273,3.789-1.045,8.703,2.744,10.976
	l83.696,50.216L248.016,330.682L23.568,196.01l83.696-50.216c3.789-2.273,5.017-7.187,2.744-10.976
	c-2.273-3.789-7.187-5.017-10.976-2.744l-95.136,57.08c-0.096,0.056-0.144,0.16-0.24,0.224c-0.279,0.192-0.546,0.4-0.8,0.624
	c-0.31,0.273-0.602,0.567-0.872,0.88c-0.218,0.238-0.421,0.489-0.608,0.752c-0.064,0.104-0.176,0.152-0.232,0.256
	c-0.071,0.167-0.132,0.338-0.184,0.512c-0.176,0.351-0.326,0.715-0.448,1.088c-0.126,0.327-0.225,0.664-0.296,1.008
	c-0.057,0.323-0.095,0.649-0.112,0.976c0,0.184-0.104,0.344-0.104,0.536v256c0,13.255,10.745,24,24,24l0,0h448.016
	c13.255,0,24-10.745,24-24v-256c0-0.192-0.096-0.352-0.104-0.536C495.895,195.147,495.857,194.821,495.8,194.498z M472.016,460.01
	h-448c-4.418,0-8-3.582-8-8V210.138l227.88,136.728c2.535,1.523,5.705,1.523,8.24,0l227.88-136.728V452.01
	C480.016,456.429,476.434,460.01,472.016,460.01z"/>
<linearGradient id="SVGID_2_" gradientUnits="userSpaceOnUse" x1="-57.4861" y1="584.5154" x2="-1.0201" y2="640.9864" gradientTransform="matrix(8 0 0 -8 398.888 5121.0928)">
	<stop  offset="0" style="stop-color:#003F8A"/>
	<stop  offset="0.518" style="stop-color:#00D7DF"/>
	<stop  offset="1" style="stop-color:#006DF0"/>
</linearGradient>
<path style="fill:url(#SVGID_2_);" d="M320.016,204.01h8c13.255,0,24-10.745,24-24v-52.8c0.602-57.465-44.631-104.977-102.056-107.2
	c-57.438-0.537-104.435,45.59-104.972,103.028s45.59,104.435,103.028,104.972c4.418,0,8-3.582,8-8s-3.582-8-8-8
	c-48.601-0.455-87.631-40.223-87.176-88.824c0.455-48.601,40.223-87.631,88.824-87.176c48.721,2.022,86.991,42.441,86.352,91.2v52.8
	c0,4.418-3.582,8-8,8h-8c-4.418,0-8-3.582-8-8v-88c0-4.418-3.582-8-8-8c-3.684,0.031-6.856,2.608-7.64,6.208
	c-23.077-26.773-63.489-29.769-90.262-6.692s-29.769,63.489-6.692,90.262s63.489,29.769,90.262,6.692
	c2.254-1.943,4.37-4.041,6.332-6.278v5.808C296.016,193.265,306.761,204.01,320.016,204.01z M248.016,180.01
	c-26.51,0-48-21.49-48-48s21.49-48,48-48s48,21.49,48,48C295.99,158.509,274.515,179.984,248.016,180.01z"/>
<linearGradient id="SVGID_3_" gradientUnits="userSpaceOnUse" x1="-52.2292" y1="579.2645" x2="4.2318" y2="635.7296" gradientTransform="matrix(8 0 0 -8 398.888 5121.0928)">
	<stop  offset="0" style="stop-color:#003F8A"/>
	<stop  offset="0.518" style="stop-color:#00D7DF"/>
	<stop  offset="1" style="stop-color:#006DF0"/>
</linearGradient>
<path style="fill:url(#SVGID_3_);" d="M56.016,428.01h-8v-24c0-4.418-3.582-8-8-8s-8,3.582-8,8v32c0,4.418,3.582,8,8,8h16
	c4.418,0,8-3.582,8-8S60.434,428.01,56.016,428.01z"/>
<linearGradient id="SVGID_4_" gradientUnits="userSpaceOnUse" x1="-48.2291" y1="575.2645" x2="8.2319" y2="631.7294" gradientTransform="matrix(8 0 0 -8 398.888 5121.0928)">
	<stop  offset="0" style="stop-color:#003F8A"/>
	<stop  offset="0.518" style="stop-color:#00D7DF"/>
	<stop  offset="1" style="stop-color:#006DF0"/>
</linearGradient>
<path style="fill:url(#SVGID_4_);" d="M104.016,428.01h-16c-4.418,0-8,3.582-8,8s3.582,8,8,8h16c4.418,0,8-3.582,8-8
	S108.434,428.01,104.016,428.01z"/>
<g>
</g>
<g>
</g>
<g>
</g>
<g>
</g>
<g>
</g>
<g>
</g>
<g>
</g>
<g>
</g>
<g>
</g>
<g>
</g>
<g>
</g>
<g>
</g>
<g>
</g>
<g>
</g>
<g>
</g>
</svg>
