<?xml version="1.0" encoding="iso-8859-1"?>
<!-- Generator: Adobe Illustrator 19.0.0, SVG Export Plug-In . SVG Version: 6.00 Build 0)  -->
<svg version="1.1" id="Capa_1" xmlns="http://www.w3.org/2000/svg" xmlns:xlink="http://www.w3.org/1999/xlink" x="0px" y="0px"
	 viewBox="0 0 496.024 496.024" style="enable-background:new 0 0 496.024 496.024;" xml:space="preserve">
<linearGradient id="SVGID_1_" gradientUnits="userSpaceOnUse" x1="-41.8293" y1="564.2145" x2="11.8347" y2="617.8776" gradientTransform="matrix(8 0 0 -8 398.8319 5012.9209)">
	<stop  offset="0" style="stop-color:#003F8A"/>
	<stop  offset="0.518" style="stop-color:#00D7DF"/>
	<stop  offset="1" style="stop-color:#006DF0"/>
</linearGradient>
<path style="fill:url(#SVGID_1_);" d="M495.808,182.479c-0.071-0.344-0.17-0.681-0.296-1.008c-0.122-0.373-0.272-0.737-0.448-1.088
	c-0.052-0.174-0.113-0.345-0.184-0.512c-0.056-0.104-0.168-0.152-0.232-0.256c-0.442-0.584-0.943-1.12-1.496-1.6
	c-0.236-0.22-0.487-0.424-0.752-0.608c-0.104-0.064-0.152-0.176-0.256-0.232l-240-144c-2.535-1.523-5.705-1.523-8.24,0l-240,144
	c-0.096,0.056-0.144,0.16-0.24,0.224c-0.283,0.187-0.55,0.395-0.8,0.624c-0.315,0.271-0.609,0.565-0.88,0.88
	c-0.218,0.238-0.421,0.489-0.608,0.752c-0.064,0.104-0.176,0.152-0.232,0.256c-0.071,0.167-0.132,0.338-0.184,0.512
	c-0.176,0.351-0.326,0.715-0.448,1.088c-0.126,0.327-0.225,0.664-0.296,1.008c-0.057,0.323-0.095,0.649-0.112,0.976
	c0,0.184-0.104,0.344-0.104,0.536v255.96c0,13.255,10.745,24,24,24l0,0h448.024c13.255,0,24-10.745,24-24v-256
	c0-0.192-0.096-0.352-0.104-0.536C495.903,183.128,495.865,182.802,495.808,182.479L495.808,182.479z M480.024,337.863
	l-116.448-69.872l116.448-69.872V337.863z M248.024,49.319l224.448,134.672l-124.448,74.672l-95.88-57.528
	c-2.535-1.523-5.705-1.523-8.24,0l-95.88,57.528L23.576,183.991L248.024,49.319z M16.024,198.119l116.448,69.872L16.024,337.863
	V198.119z M472.024,447.991h-448c-4.418,0-8-3.582-8-8v-83.472l232-139.2l232,139.2v83.472
	C480.024,444.409,476.442,447.991,472.024,447.991z"/>
<linearGradient id="SVGID_2_" gradientUnits="userSpaceOnUse" x1="-48.5451" y1="570.9224" x2="5.1219" y2="624.5864" gradientTransform="matrix(8 0 0 -8 398.8319 5012.9209)">
	<stop  offset="0" style="stop-color:#003F8A"/>
	<stop  offset="0.518" style="stop-color:#00D7DF"/>
	<stop  offset="1" style="stop-color:#006DF0"/>
</linearGradient>
<path style="fill:url(#SVGID_2_);" d="M56.024,415.991h-8v-24c0-4.418-3.582-8-8-8s-8,3.582-8,8v32c0,4.418,3.582,8,8,8h16
	c4.418,0,8-3.582,8-8S60.442,415.991,56.024,415.991z"/>
<linearGradient id="SVGID_3_" gradientUnits="userSpaceOnUse" x1="-44.5452" y1="566.9224" x2="9.1218" y2="620.5864" gradientTransform="matrix(8 0 0 -8 398.8319 5012.9209)">
	<stop  offset="0" style="stop-color:#003F8A"/>
	<stop  offset="0.518" style="stop-color:#00D7DF"/>
	<stop  offset="1" style="stop-color:#006DF0"/>
</linearGradient>
<path style="fill:url(#SVGID_3_);" d="M104.024,415.991h-16c-4.418,0-8,3.582-8,8s3.582,8,8,8h16c4.418,0,8-3.582,8-8
	S108.442,415.991,104.024,415.991z"/>
<g>
</g>
<g>
</g>
<g>
</g>
<g>
</g>
<g>
</g>
<g>
</g>
<g>
</g>
<g>
</g>
<g>
</g>
<g>
</g>
<g>
</g>
<g>
</g>
<g>
</g>
<g>
</g>
<g>
</g>
</svg>
