<?xml version="1.0" encoding="iso-8859-1"?>
<!-- Generator: Adobe Illustrator 19.0.0, SVG Export Plug-In . SVG Version: 6.00 Build 0)  -->
<svg version="1.1" id="Capa_1" xmlns="http://www.w3.org/2000/svg" xmlns:xlink="http://www.w3.org/1999/xlink" x="0px" y="0px"
	 viewBox="0 0 496 496" style="enable-background:new 0 0 496 496;" xml:space="preserve">
<linearGradient id="SVGID_1_" gradientUnits="userSpaceOnUse" x1="-43.4509" y1="582.1341" x2="26.5051" y2="652.0901" gradientTransform="matrix(8 0 0 -8 398.9998 5156.9927)">
	<stop  offset="0" style="stop-color:#003F8A"/>
	<stop  offset="0.518" style="stop-color:#00D7DF"/>
	<stop  offset="1" style="stop-color:#006DF0"/>
</linearGradient>
<path style="fill:url(#SVGID_1_);" d="M495.784,182.487c-0.072-0.34-0.168-0.674-0.288-1c-0.124-0.376-0.276-0.743-0.456-1.096
	c-0.052-0.174-0.113-0.345-0.184-0.512c-0.056-0.104-0.168-0.152-0.232-0.256c-0.184-0.265-0.388-0.516-0.608-0.752
	c-0.274-0.318-0.57-0.614-0.888-0.888c-0.238-0.218-0.489-0.421-0.752-0.608c-0.104-0.064-0.152-0.176-0.256-0.232L408,126.671
	V71.999c0-4.418-3.582-8-8-8h-96.424L252.12,33.143c-2.535-1.523-5.705-1.523-8.24,0l-51.456,30.856H96c-4.418,0-8,3.582-8,8v54.672
	L3.88,177.143c-0.104,0.056-0.152,0.168-0.256,0.232c-0.265,0.184-0.516,0.388-0.752,0.608c-0.553,0.48-1.054,1.016-1.496,1.6
	c-0.064,0.104-0.176,0.152-0.232,0.256c-0.072,0.169-0.133,0.343-0.184,0.52c-0.177,0.349-0.329,0.71-0.456,1.08
	c-0.12,0.329-0.216,0.665-0.288,1.008c-0.057,0.323-0.095,0.649-0.112,0.976c0,0.184-0.104,0.344-0.104,0.536v256.04
	c0,13.255,10.745,24,24,24l0,0h448c13.255,0,24-10.745,24-24l0,0v-256c0-0.192-0.096-0.352-0.104-0.536
	C495.879,183.136,495.841,182.81,495.784,182.487L495.784,182.487z M472.448,183.999L408,222.671v-77.344L472.448,183.999z
	 M248,49.327l24.464,14.672h-48.928L248,49.327z M392,79.999v152.272l-144,86.4l-144-86.4V79.999H392z M88,222.671l-64.448-38.672
	L88,145.327V222.671z M472,447.999H24c-4.418,0-8-3.582-8-8V198.127l227.88,136.728c2.535,1.523,5.705,1.523,8.24,0L480,198.127
	v241.872C480,444.417,476.418,447.999,472,447.999z"/>
<linearGradient id="SVGID_2_" gradientUnits="userSpaceOnUse" x1="-49.406" y1="588.0932" x2="20.546" y2="658.0452" gradientTransform="matrix(8 0 0 -8 398.9998 5156.9927)">
	<stop  offset="0" style="stop-color:#003F8A"/>
	<stop  offset="0.518" style="stop-color:#00D7DF"/>
	<stop  offset="1" style="stop-color:#006DF0"/>
</linearGradient>
<path style="fill:url(#SVGID_2_);" d="M56,415.999h-8v-24c0-4.418-3.582-8-8-8s-8,3.582-8,8v32c0,4.418,3.582,8,8,8h16
	c4.418,0,8-3.582,8-8S60.418,415.999,56,415.999z"/>
<linearGradient id="SVGID_3_" gradientUnits="userSpaceOnUse" x1="-45.406" y1="584.0932" x2="24.546" y2="654.0452" gradientTransform="matrix(8 0 0 -8 398.9998 5156.9927)">
	<stop  offset="0" style="stop-color:#003F8A"/>
	<stop  offset="0.518" style="stop-color:#00D7DF"/>
	<stop  offset="1" style="stop-color:#006DF0"/>
</linearGradient>
<path style="fill:url(#SVGID_3_);" d="M104,415.999H88c-4.418,0-8,3.582-8,8s3.582,8,8,8h16c4.418,0,8-3.582,8-8
	S108.418,415.999,104,415.999z"/>
<g>
</g>
<g>
</g>
<g>
</g>
<g>
</g>
<g>
</g>
<g>
</g>
<g>
</g>
<g>
</g>
<g>
</g>
<g>
</g>
<g>
</g>
<g>
</g>
<g>
</g>
<g>
</g>
<g>
</g>
</svg>
