<?xml version="1.0" encoding="iso-8859-1"?>
<!-- Generator: Adobe Illustrator 19.0.0, SVG Export Plug-In . SVG Version: 6.00 Build 0)  -->
<svg version="1.1" id="Capa_1" xmlns="http://www.w3.org/2000/svg" xmlns:xlink="http://www.w3.org/1999/xlink" x="0px" y="0px"
	 viewBox="0 0 496.032 496.032" style="enable-background:new 0 0 496.032 496.032;" xml:space="preserve">
<linearGradient id="SVGID_1_" gradientUnits="userSpaceOnUse" x1="-47.4544" y1="576.6097" x2="23.1116" y2="647.1716" gradientTransform="matrix(8 0 0 -8 398.7759 5157.1372)">
	<stop  offset="0" style="stop-color:#003F8A"/>
	<stop  offset="0.518" style="stop-color:#00D7DF"/>
	<stop  offset="1" style="stop-color:#006DF0"/>
</linearGradient>
<path style="fill:url(#SVGID_1_);" d="M495.816,182.503c-0.072-0.34-0.168-0.674-0.288-1c-0.124-0.376-0.276-0.743-0.456-1.096
	c-0.052-0.174-0.113-0.345-0.184-0.512c-0.056-0.104-0.168-0.152-0.232-0.256c-0.184-0.265-0.388-0.516-0.608-0.752
	c-0.272-0.32-0.568-0.616-0.888-0.888c-0.236-0.22-0.487-0.424-0.752-0.608c-0.104-0.064-0.152-0.176-0.256-0.232l-240-144
	c-2.535-1.523-5.705-1.523-8.24,0l-240,144c-0.096,0.056-0.152,0.16-0.248,0.232c-0.281,0.186-0.549,0.392-0.8,0.616
	c-0.315,0.271-0.609,0.565-0.88,0.88c-0.218,0.238-0.421,0.489-0.608,0.752c-0.064,0.104-0.176,0.152-0.232,0.256
	c-0.072,0.169-0.133,0.343-0.184,0.52c-0.177,0.349-0.329,0.71-0.456,1.08c-0.12,0.329-0.216,0.665-0.288,1.008
	c-0.057,0.323-0.095,0.649-0.112,0.976c0,0.184-0.104,0.344-0.104,0.536v256c0,13.255,10.745,24,24,24h448.032
	c13.255,0,24-10.745,24-24v-256c0-0.192-0.096-0.352-0.104-0.536C495.911,183.152,495.874,182.826,495.816,182.503z M248.032,49.343
	L472.48,184.015L248.032,318.687L23.584,184.015L248.032,49.343z M472.032,448.015h-448c-4.418,0-8-3.582-8-8V198.143
	l227.88,136.728c2.535,1.523,5.705,1.523,8.24,0l227.88-136.728v241.872C480.032,444.434,476.45,448.015,472.032,448.015z"/>
<linearGradient id="SVGID_2_" gradientUnits="userSpaceOnUse" x1="-54.1645" y1="583.3187" x2="16.3985" y2="653.8817" gradientTransform="matrix(8 0 0 -8 398.7759 5157.1372)">
	<stop  offset="0" style="stop-color:#003F8A"/>
	<stop  offset="0.518" style="stop-color:#00D7DF"/>
	<stop  offset="1" style="stop-color:#006DF0"/>
</linearGradient>
<path style="fill:url(#SVGID_2_);" d="M56.032,416.015h-8v-24c0-4.418-3.582-8-8-8s-8,3.582-8,8v32c0,4.418,3.582,8,8,8h16
	c4.418,0,8-3.582,8-8S60.45,416.015,56.032,416.015z"/>
<linearGradient id="SVGID_3_" gradientUnits="userSpaceOnUse" x1="-50.1645" y1="579.3187" x2="20.3985" y2="649.8817" gradientTransform="matrix(8 0 0 -8 398.7759 5157.1372)">
	<stop  offset="0" style="stop-color:#003F8A"/>
	<stop  offset="0.518" style="stop-color:#00D7DF"/>
	<stop  offset="1" style="stop-color:#006DF0"/>
</linearGradient>
<path style="fill:url(#SVGID_3_);" d="M104.032,416.015h-16c-4.418,0-8,3.582-8,8s3.582,8,8,8h16c4.418,0,8-3.582,8-8
	S108.45,416.015,104.032,416.015z"/>
<g>
</g>
<g>
</g>
<g>
</g>
<g>
</g>
<g>
</g>
<g>
</g>
<g>
</g>
<g>
</g>
<g>
</g>
<g>
</g>
<g>
</g>
<g>
</g>
<g>
</g>
<g>
</g>
<g>
</g>
</svg>
