<?xml version="1.0" encoding="iso-8859-1"?>
<!-- Generator: Adobe Illustrator 19.0.0, SVG Export Plug-In . SVG Version: 6.00 Build 0)  -->
<svg version="1.1" id="Capa_1" xmlns="http://www.w3.org/2000/svg" xmlns:xlink="http://www.w3.org/1999/xlink" x="0px" y="0px"
	 viewBox="0 0 496 496" style="enable-background:new 0 0 496 496;" xml:space="preserve">
<linearGradient id="SVGID_1_" gradientUnits="userSpaceOnUse" x1="-48.9872" y1="574.5142" x2="17.9528" y2="641.4512" gradientTransform="matrix(8 0 0 -8 399 5085)">
	<stop  offset="0" style="stop-color:#003F8A"/>
	<stop  offset="0.518" style="stop-color:#00D7DF"/>
	<stop  offset="1" style="stop-color:#006DF0"/>
</linearGradient>
<path style="fill:url(#SVGID_1_);" d="M472,112H24c-13.255,0-24,10.745-24,24v224c0,13.255,10.745,24,24,24h448
	c13.255,0,24-10.745,24-24V136C496,122.745,485.255,112,472,112z M480,360c0,4.418-3.582,8-8,8H24c-4.418,0-8-3.582-8-8V136
	c0-4.418,3.582-8,8-8h448c4.418,0,8,3.582,8,8V360z"/>
<linearGradient id="SVGID_2_" gradientUnits="userSpaceOnUse" x1="-41.9874" y1="567.5144" x2="24.9526" y2="634.4514" gradientTransform="matrix(8 0 0 -8 399 5085)">
	<stop  offset="0" style="stop-color:#003F8A"/>
	<stop  offset="0.518" style="stop-color:#00D7DF"/>
	<stop  offset="1" style="stop-color:#006DF0"/>
</linearGradient>
<path style="fill:url(#SVGID_2_);" d="M448,152H328c-4.418,0-8,3.582-8,8v120c0,4.418,3.582,8,8,8h120c4.418,0,8-3.582,8-8V160
	C456,155.582,452.418,152,448,152z M440,272H336V168h104V272z"/>
<linearGradient id="SVGID_3_" gradientUnits="userSpaceOnUse" x1="-62.238" y1="587.762" x2="4.705" y2="654.705" gradientTransform="matrix(8 0 0 -8 399 5085)">
	<stop  offset="0" style="stop-color:#003F8A"/>
	<stop  offset="0.518" style="stop-color:#00D7DF"/>
	<stop  offset="1" style="stop-color:#006DF0"/>
</linearGradient>
<path style="fill:url(#SVGID_3_);" d="M48,176h136c4.418,0,8-3.582,8-8s-3.582-8-8-8H48c-4.418,0-8,3.582-8,8S43.582,176,48,176z"/>
<linearGradient id="SVGID_4_" gradientUnits="userSpaceOnUse" x1="-53.238" y1="578.762" x2="13.705" y2="645.705" gradientTransform="matrix(8 0 0 -8 399 5085)">
	<stop  offset="0" style="stop-color:#003F8A"/>
	<stop  offset="0.518" style="stop-color:#00D7DF"/>
	<stop  offset="1" style="stop-color:#006DF0"/>
</linearGradient>
<path style="fill:url(#SVGID_4_);" d="M184,304H48c-4.418,0-8,3.582-8,8s3.582,8,8,8h136c4.418,0,8-3.582,8-8S188.418,304,184,304z"
	/>
<linearGradient id="SVGID_5_" gradientUnits="userSpaceOnUse" x1="-50.3913" y1="575.9153" x2="16.5457" y2="642.8553" gradientTransform="matrix(8 0 0 -8 399 5085)">
	<stop  offset="0" style="stop-color:#003F8A"/>
	<stop  offset="0.518" style="stop-color:#00D7DF"/>
	<stop  offset="1" style="stop-color:#006DF0"/>
</linearGradient>
<path style="fill:url(#SVGID_5_);" d="M272,208h-28.928c-4.418,0-8,3.582-8,8s3.582,8,8,8H272c4.418,0,8-3.582,8-8
	S276.418,208,272,208z"/>
<linearGradient id="SVGID_6_" gradientUnits="userSpaceOnUse" x1="-58.6833" y1="584.2053" x2="8.2547" y2="651.1473" gradientTransform="matrix(8 0 0 -8 399 5085)">
	<stop  offset="0" style="stop-color:#003F8A"/>
	<stop  offset="0.518" style="stop-color:#00D7DF"/>
	<stop  offset="1" style="stop-color:#006DF0"/>
</linearGradient>
<path style="fill:url(#SVGID_6_);" d="M48,224h153.76c4.418,0,8-3.582,8-8s-3.582-8-8-8H48c-4.418,0-8,3.582-8,8S43.582,224,48,224z
	"/>
<linearGradient id="SVGID_7_" gradientUnits="userSpaceOnUse" x1="-54.7375" y1="580.2645" x2="12.2055" y2="647.2015" gradientTransform="matrix(8 0 0 -8 399 5085)">
	<stop  offset="0" style="stop-color:#003F8A"/>
	<stop  offset="0.518" style="stop-color:#00D7DF"/>
	<stop  offset="1" style="stop-color:#006DF0"/>
</linearGradient>
<path style="fill:url(#SVGID_7_);" d="M232,256H48c-4.418,0-8,3.582-8,8s3.582,8,8,8h184c4.418,0,8-3.582,8-8S236.418,256,232,256z"
	/>
<g>
</g>
<g>
</g>
<g>
</g>
<g>
</g>
<g>
</g>
<g>
</g>
<g>
</g>
<g>
</g>
<g>
</g>
<g>
</g>
<g>
</g>
<g>
</g>
<g>
</g>
<g>
</g>
<g>
</g>
</svg>
