<?xml version="1.0" encoding="iso-8859-1"?>
<!-- Generator: Adobe Illustrator 19.0.0, SVG Export Plug-In . SVG Version: 6.00 Build 0)  -->
<svg version="1.1" id="Capa_1" xmlns="http://www.w3.org/2000/svg" xmlns:xlink="http://www.w3.org/1999/xlink" x="0px" y="0px"
	 viewBox="0 0 496 496" style="enable-background:new 0 0 496 496;" xml:space="preserve">
<linearGradient id="SVGID_1_" gradientUnits="userSpaceOnUse" x1="-39.9875" y1="581.5145" x2="21.3055" y2="642.8015" gradientTransform="matrix(8 0 0 -8 399 5121)">
	<stop  offset="0" style="stop-color:#003F8A"/>
	<stop  offset="0.518" style="stop-color:#00D7DF"/>
	<stop  offset="1" style="stop-color:#006DF0"/>
</linearGradient>
<path style="fill:url(#SVGID_1_);" d="M472,164H24c-13.255,0-24,10.745-24,24v224c0,13.255,10.745,24,24,24h448
	c13.255,0,24-10.745,24-24V188C496,174.745,485.255,164,472,164z M480,412c0,4.418-3.582,8-8,8H24c-4.418,0-8-3.582-8-8V188
	c0-4.418,3.582-8,8-8h448c4.418,0,8,3.582,8,8V412z"/>
<linearGradient id="SVGID_2_" gradientUnits="userSpaceOnUse" x1="-32.988" y1="574.5151" x2="28.305" y2="635.8021" gradientTransform="matrix(8 0 0 -8 399 5121)">
	<stop  offset="0" style="stop-color:#003F8A"/>
	<stop  offset="0.518" style="stop-color:#00D7DF"/>
	<stop  offset="1" style="stop-color:#006DF0"/>
</linearGradient>
<path style="fill:url(#SVGID_2_);" d="M448,204H328c-4.418,0-8,3.582-8,8v120c0,4.418,3.582,8,8,8h120c4.418,0,8-3.582,8-8V212
	C456,207.582,452.418,204,448,204z M440,324H336V220h104V324z"/>
<linearGradient id="SVGID_3_" gradientUnits="userSpaceOnUse" x1="-52.238" y1="593.762" x2="9.052" y2="655.052" gradientTransform="matrix(8 0 0 -8 399 5121)">
	<stop  offset="0" style="stop-color:#003F8A"/>
	<stop  offset="0.518" style="stop-color:#00D7DF"/>
	<stop  offset="1" style="stop-color:#006DF0"/>
</linearGradient>
<path style="fill:url(#SVGID_3_);" d="M80,228h104c4.418,0,8-3.582,8-8s-3.582-8-8-8H80c-4.418,0-8,3.582-8,8S75.582,228,80,228z"/>
<linearGradient id="SVGID_4_" gradientUnits="userSpaceOnUse" x1="-44.238" y1="585.762" x2="17.052" y2="647.052" gradientTransform="matrix(8 0 0 -8 399 5121)">
	<stop  offset="0" style="stop-color:#003F8A"/>
	<stop  offset="0.518" style="stop-color:#00D7DF"/>
	<stop  offset="1" style="stop-color:#006DF0"/>
</linearGradient>
<path style="fill:url(#SVGID_4_);" d="M184,356H48c-4.418,0-8,3.582-8,8s3.582,8,8,8h136c4.418,0,8-3.582,8-8S188.418,356,184,356z"
	/>
<linearGradient id="SVGID_5_" gradientUnits="userSpaceOnUse" x1="-42.5074" y1="584.0344" x2="18.7857" y2="645.3214" gradientTransform="matrix(8 0 0 -8 399 5121)">
	<stop  offset="0" style="stop-color:#003F8A"/>
	<stop  offset="0.518" style="stop-color:#00D7DF"/>
	<stop  offset="1" style="stop-color:#006DF0"/>
</linearGradient>
<path style="fill:url(#SVGID_5_);" d="M272,260h-64.632c-4.418,0-8,3.582-8,8s3.582,8,8,8H272c4.418,0,8-3.582,8-8
	S276.418,260,272,260z"/>
<linearGradient id="SVGID_6_" gradientUnits="userSpaceOnUse" x1="-50.44" y1="591.964" x2="10.85" y2="653.254" gradientTransform="matrix(8 0 0 -8 399 5121)">
	<stop  offset="0" style="stop-color:#003F8A"/>
	<stop  offset="0.518" style="stop-color:#00D7DF"/>
	<stop  offset="1" style="stop-color:#006DF0"/>
</linearGradient>
<path style="fill:url(#SVGID_6_);" d="M48,276h129.536c4.418,0,8-3.582,8-8s-3.582-8-8-8H48c-4.418,0-8,3.582-8,8S43.582,276,48,276
	z"/>
<linearGradient id="SVGID_7_" gradientUnits="userSpaceOnUse" x1="-45.7372" y1="587.2642" x2="15.5558" y2="648.5511" gradientTransform="matrix(8 0 0 -8 399 5121)">
	<stop  offset="0" style="stop-color:#003F8A"/>
	<stop  offset="0.518" style="stop-color:#00D7DF"/>
	<stop  offset="1" style="stop-color:#006DF0"/>
</linearGradient>
<path style="fill:url(#SVGID_7_);" d="M232,308H48c-4.418,0-8,3.582-8,8s3.582,8,8,8h184c4.418,0,8-3.582,8-8S236.418,308,232,308z"
	/>
<linearGradient id="SVGID_8_" gradientUnits="userSpaceOnUse" x1="-49.988" y1="591.515" x2="11.305" y2="652.802" gradientTransform="matrix(8 0 0 -8 399 5121)">
	<stop  offset="0" style="stop-color:#003F8A"/>
	<stop  offset="0.518" style="stop-color:#00D7DF"/>
	<stop  offset="1" style="stop-color:#006DF0"/>
</linearGradient>
<path style="fill:url(#SVGID_8_);" d="M24,140c0,4.418,3.582,8,8,8h432c4.418,0,8-3.582,8-8s-3.582-8-8-8H32
	C27.582,132,24,135.582,24,140z"/>
<linearGradient id="SVGID_9_" gradientUnits="userSpaceOnUse" x1="-52.4963" y1="594.0037" x2="8.7947" y2="655.2947" gradientTransform="matrix(8 0 0 -8 399 5121)">
	<stop  offset="0" style="stop-color:#003F8A"/>
	<stop  offset="0.518" style="stop-color:#00D7DF"/>
	<stop  offset="1" style="stop-color:#006DF0"/>
</linearGradient>
<path style="fill:url(#SVGID_9_);" d="M72,100c0,4.418,3.582,8,8,8h336c4.418,0,8-3.582,8-8s-3.582-8-8-8H80
	C75.582,92,72,95.582,72,100z"/>
<linearGradient id="SVGID_10_" gradientUnits="userSpaceOnUse" x1="-54.488" y1="596.012" x2="6.802" y2="657.302" gradientTransform="matrix(8 0 0 -8 399 5121)">
	<stop  offset="0" style="stop-color:#003F8A"/>
	<stop  offset="0.518" style="stop-color:#00D7DF"/>
	<stop  offset="1" style="stop-color:#006DF0"/>
</linearGradient>
<path style="fill:url(#SVGID_10_);" d="M336,76c4.418,0,8-3.582,8-8s-3.582-8-8-8H160c-4.418,0-8,3.582-8,8s3.582,8,8,8H336z"/>
<g>
</g>
<g>
</g>
<g>
</g>
<g>
</g>
<g>
</g>
<g>
</g>
<g>
</g>
<g>
</g>
<g>
</g>
<g>
</g>
<g>
</g>
<g>
</g>
<g>
</g>
<g>
</g>
<g>
</g>
</svg>
