<?xml version="1.0" encoding="iso-8859-1"?>
<!-- Generator: Adobe Illustrator 19.0.0, SVG Export Plug-In . SVG Version: 6.00 Build 0)  -->
<svg version="1.1" id="Capa_1" xmlns="http://www.w3.org/2000/svg" xmlns:xlink="http://www.w3.org/1999/xlink" x="0px" y="0px"
	 viewBox="0 0 496 496" style="enable-background:new 0 0 496 496;" xml:space="preserve">
<linearGradient id="SVGID_1_" gradientUnits="userSpaceOnUse" x1="-46.6422" y1="550.3562" x2="19.0948" y2="616.0972" gradientTransform="matrix(8 0 0 -8 399 4905)">
	<stop  offset="0" style="stop-color:#003F8A"/>
	<stop  offset="0.518" style="stop-color:#00D7DF"/>
	<stop  offset="1" style="stop-color:#006DF0"/>
</linearGradient>
<path style="fill:url(#SVGID_1_);" d="M495.48,233.152l-64-168c-1.182-3.103-4.159-5.154-7.48-5.152H72
	c-3.321-0.002-6.298,2.049-7.48,5.152l-64,168c-0.292,0.823-0.449,1.687-0.464,2.56C0.056,235.816,0,235.896,0,236v192
	c0,4.418,3.582,8,8,8h480c4.418,0,8-3.582,8-8V236c0-0.104-0.056-0.184-0.056-0.288C495.929,234.839,495.772,233.975,495.48,233.152
	L495.48,233.152z M77.512,76h340.976l57.904,152H360c-4.418,0-8,3.582-8,8c0,57.438-46.562,104-104,104s-104-46.562-104-104
	c0-4.418-3.582-8-8-8H19.608L77.512,76z M480,420H16V244h112.264c4.394,66.128,61.563,116.174,127.692,111.78
	c60.006-3.987,107.793-51.775,111.78-111.78H480V420z"/>
<linearGradient id="SVGID_2_" gradientUnits="userSpaceOnUse" x1="-52.895" y1="556.605" x2="12.846" y2="622.346" gradientTransform="matrix(8 0 0 -8 399 4905)">
	<stop  offset="0" style="stop-color:#003F8A"/>
	<stop  offset="0.518" style="stop-color:#00D7DF"/>
	<stop  offset="1" style="stop-color:#006DF0"/>
</linearGradient>
<path style="fill:url(#SVGID_2_);" d="M56,388h-8v-24c0-4.418-3.582-8-8-8s-8,3.582-8,8v32c0,4.418,3.582,8,8,8h16
	c4.418,0,8-3.582,8-8S60.418,388,56,388z"/>
<linearGradient id="SVGID_3_" gradientUnits="userSpaceOnUse" x1="-48.8926" y1="552.6066" x2="16.8434" y2="618.3476" gradientTransform="matrix(8 0 0 -8 399 4905)">
	<stop  offset="0" style="stop-color:#003F8A"/>
	<stop  offset="0.518" style="stop-color:#00D7DF"/>
	<stop  offset="1" style="stop-color:#006DF0"/>
</linearGradient>
<path style="fill:url(#SVGID_3_);" d="M104,388H88c-4.418,0-8,3.582-8,8s3.582,8,8,8h16c4.418,0,8-3.582,8-8S108.418,388,104,388z"
	/>
<g>
</g>
<g>
</g>
<g>
</g>
<g>
</g>
<g>
</g>
<g>
</g>
<g>
</g>
<g>
</g>
<g>
</g>
<g>
</g>
<g>
</g>
<g>
</g>
<g>
</g>
<g>
</g>
<g>
</g>
</svg>
