<?xml version="1.0" encoding="iso-8859-1"?>
<!-- Generator: Adobe Illustrator 19.0.0, SVG Export Plug-In . SVG Version: 6.00 Build 0)  -->
<svg version="1.1" id="Capa_1" xmlns="http://www.w3.org/2000/svg" xmlns:xlink="http://www.w3.org/1999/xlink" x="0px" y="0px"
	 viewBox="0 0 496 496" style="enable-background:new 0 0 496 496;" xml:space="preserve">
<linearGradient id="SVGID_1_" gradientUnits="userSpaceOnUse" x1="-46.1411" y1="569.5352" x2="24.0389" y2="639.7151" gradientTransform="matrix(8 0 0 -8 399 5091.084)">
	<stop  offset="0" style="stop-color:#003F8A"/>
	<stop  offset="0.518" style="stop-color:#00D7DF"/>
	<stop  offset="1" style="stop-color:#006DF0"/>
</linearGradient>
<path style="fill:url(#SVGID_1_);" d="M495.48,269.828l-64-168c-1.182-3.103-4.159-5.154-7.48-5.152h-88c-4.418,0-8,3.582-8,8
	s3.582,8,8,8h82.488l57.904,152H360c-4.418,0-8,3.582-8,8c0,57.438-46.562,104-104,104s-104-46.562-104-104c0-4.418-3.582-8-8-8
	H19.608l57.904-152H160c4.418,0,8-3.582,8-8s-3.582-8-8-8H72c-3.321-0.002-6.298,2.049-7.48,5.152l-64,168
	c-0.292,0.823-0.449,1.687-0.464,2.56c0,0.104-0.056,0.184-0.056,0.288v192c0,4.418,3.582,8,8,8h480c4.418,0,8-3.582,8-8v-192
	c0-0.104-0.056-0.184-0.056-0.288C495.929,271.515,495.772,270.651,495.48,269.828z M480,456.676H16v-176h112.264
	c4.394,66.128,61.563,116.174,127.691,111.781c60.006-3.987,107.794-51.775,111.781-111.781H480L480,456.676z"/>
<linearGradient id="SVGID_2_" gradientUnits="userSpaceOnUse" x1="-56.5812" y1="579.9733" x2="13.6028" y2="650.1552" gradientTransform="matrix(8 0 0 -8 399 5091.084)">
	<stop  offset="0" style="stop-color:#003F8A"/>
	<stop  offset="0.518" style="stop-color:#00D7DF"/>
	<stop  offset="1" style="stop-color:#006DF0"/>
</linearGradient>
<path style="fill:url(#SVGID_2_);" d="M248,272.676c4.418,0,8-3.582,8-8V55.412l45.72,49.192l11.72-10.912L248,23.324l-65.44,70.4
	l11.72,10.912l45.72-49.2v209.24C240,269.094,243.582,272.676,248,272.676z"/>
<linearGradient id="SVGID_3_" gradientUnits="userSpaceOnUse" x1="-52.3925" y1="575.7825" x2="17.7835" y2="645.9665" gradientTransform="matrix(8 0 0 -8 399 5091.084)">
	<stop  offset="0" style="stop-color:#003F8A"/>
	<stop  offset="0.518" style="stop-color:#00D7DF"/>
	<stop  offset="1" style="stop-color:#006DF0"/>
</linearGradient>
<path style="fill:url(#SVGID_3_);" d="M56,424.676h-8v-24c0-4.418-3.582-8-8-8s-8,3.582-8,8v32c0,4.418,3.582,8,8,8h16
	c4.418,0,8-3.582,8-8S60.418,424.676,56,424.676z"/>
<linearGradient id="SVGID_4_" gradientUnits="userSpaceOnUse" x1="-48.3924" y1="571.7824" x2="21.7836" y2="641.9664" gradientTransform="matrix(8 0 0 -8 399 5091.084)">
	<stop  offset="0" style="stop-color:#003F8A"/>
	<stop  offset="0.518" style="stop-color:#00D7DF"/>
	<stop  offset="1" style="stop-color:#006DF0"/>
</linearGradient>
<path style="fill:url(#SVGID_4_);" d="M104,424.676H88c-4.418,0-8,3.582-8,8s3.582,8,8,8h16c4.418,0,8-3.582,8-8
	S108.418,424.676,104,424.676z"/>
<g>
</g>
<g>
</g>
<g>
</g>
<g>
</g>
<g>
</g>
<g>
</g>
<g>
</g>
<g>
</g>
<g>
</g>
<g>
</g>
<g>
</g>
<g>
</g>
<g>
</g>
<g>
</g>
<g>
</g>
</svg>
