<?xml version="1.0" encoding="iso-8859-1"?>
<!-- Generator: Adobe Illustrator 19.0.0, SVG Export Plug-In . SVG Version: 6.00 Build 0)  -->
<svg version="1.1" id="Capa_1" xmlns="http://www.w3.org/2000/svg" xmlns:xlink="http://www.w3.org/1999/xlink" x="0px" y="0px"
	 viewBox="0 0 496 496" style="enable-background:new 0 0 496 496;" xml:space="preserve">
<linearGradient id="SVGID_1_" gradientUnits="userSpaceOnUse" x1="-42.9327" y1="559.0667" x2="21.2133" y2="623.2147" gradientTransform="matrix(8 0 0 -8 399 4977)">
	<stop  offset="0" style="stop-color:#003F8A"/>
	<stop  offset="0.518" style="stop-color:#00D7DF"/>
	<stop  offset="1" style="stop-color:#006DF0"/>
</linearGradient>
<path style="fill:url(#SVGID_1_);" d="M495.48,265.152l-64-168c-1.182-3.103-4.159-5.154-7.48-5.152h-88c-4.418,0-8,3.582-8,8
	s3.582,8,8,8h82.488l57.904,152H360c-4.418,0-8,3.582-8,8c0,57.438-46.562,104-104,104s-104-46.562-104-104c0-4.418-3.582-8-8-8
	H19.608l57.904-152H160c4.418,0,8-3.582,8-8s-3.582-8-8-8H72c-3.321-0.002-6.298,2.049-7.48,5.152l-64,168
	c-0.293,0.825-0.449,1.693-0.464,2.568C0.056,267.816,0,267.904,0,268v192c0,4.418,3.582,8,8,8h480c4.418,0,8-3.582,8-8V268
	c0-0.096-0.056-0.184-0.056-0.28C495.93,266.845,495.773,265.977,495.48,265.152z M480,452H16V276h112.264
	c4.394,66.128,61.563,116.174,127.691,111.781c60.006-3.987,107.794-51.775,111.781-111.781H480L480,452z"/>
<linearGradient id="SVGID_2_" gradientUnits="userSpaceOnUse" x1="-52.9924" y1="569.1344" x2="11.1556" y2="633.2744" gradientTransform="matrix(8 0 0 -8 399 4977)">
	<stop  offset="0" style="stop-color:#003F8A"/>
	<stop  offset="0.518" style="stop-color:#00D7DF"/>
	<stop  offset="1" style="stop-color:#006DF0"/>
</linearGradient>
<path style="fill:url(#SVGID_2_);" d="M248,28c-4.418,0-8,3.582-8,8v209.264l-45.72-49.192l-11.72,10.912L248,277.352l65.44-70.4
	l-11.72-10.912L256,245.232V36C256,31.582,252.418,28,248,28z"/>
<linearGradient id="SVGID_3_" gradientUnits="userSpaceOnUse" x1="-49.1828" y1="565.3168" x2="14.9612" y2="629.4648" gradientTransform="matrix(8 0 0 -8 399 4977)">
	<stop  offset="0" style="stop-color:#003F8A"/>
	<stop  offset="0.518" style="stop-color:#00D7DF"/>
	<stop  offset="1" style="stop-color:#006DF0"/>
</linearGradient>
<path style="fill:url(#SVGID_3_);" d="M56,420h-8v-24c0-4.418-3.582-8-8-8s-8,3.582-8,8v32c0,4.418,3.582,8,8,8h16
	c4.418,0,8-3.582,8-8S60.418,420,56,420z"/>
<linearGradient id="SVGID_4_" gradientUnits="userSpaceOnUse" x1="-45.1828" y1="561.3168" x2="18.9612" y2="625.4648" gradientTransform="matrix(8 0 0 -8 399 4977)">
	<stop  offset="0" style="stop-color:#003F8A"/>
	<stop  offset="0.518" style="stop-color:#00D7DF"/>
	<stop  offset="1" style="stop-color:#006DF0"/>
</linearGradient>
<path style="fill:url(#SVGID_4_);" d="M104,420H88c-4.418,0-8,3.582-8,8s3.582,8,8,8h16c4.418,0,8-3.582,8-8S108.418,420,104,420z"
	/>
<g>
</g>
<g>
</g>
<g>
</g>
<g>
</g>
<g>
</g>
<g>
</g>
<g>
</g>
<g>
</g>
<g>
</g>
<g>
</g>
<g>
</g>
<g>
</g>
<g>
</g>
<g>
</g>
<g>
</g>
</svg>
