<?xml version="1.0" encoding="iso-8859-1"?>
<!-- Generator: Adobe Illustrator 19.0.0, SVG Export Plug-In . SVG Version: 6.00 Build 0)  -->
<svg version="1.1" id="Capa_1" xmlns="http://www.w3.org/2000/svg" xmlns:xlink="http://www.w3.org/1999/xlink" x="0px" y="0px"
	 viewBox="0 0 496 496" style="enable-background:new 0 0 496 496;" xml:space="preserve">
<linearGradient id="SVGID_1_" gradientUnits="userSpaceOnUse" x1="-45.6888" y1="561.3138" x2="26.6262" y2="633.6229" gradientTransform="matrix(8 0 0 -8 399 5013)">
	<stop  offset="0" style="stop-color:#003F8A"/>
	<stop  offset="0.518" style="stop-color:#00D7DF"/>
	<stop  offset="1" style="stop-color:#006DF0"/>
</linearGradient>
<path style="fill:url(#SVGID_1_);" d="M495.48,269.152l-64-168c-1.182-3.103-4.159-5.154-7.48-5.152h-16V64c0-4.418-3.582-8-8-8H96
	c-4.418,0-8,3.582-8,8v32H72c-3.321-0.002-6.298,2.049-7.48,5.152l-64,168c-0.292,0.823-0.449,1.687-0.464,2.56
	C0.056,271.816,0,271.896,0,272v192c0,4.418,3.582,8,8,8h480c4.418,0,8-3.582,8-8V272c0-0.104-0.056-0.184-0.056-0.288
	C495.929,270.839,495.772,269.975,495.48,269.152z M418.488,112l57.904,152H408V112L418.488,112z M104,72h288v192h-32
	c-4.418,0-8,3.582-8,8c0,57.438-46.562,104-104,104s-104-46.562-104-104c0-4.418-3.582-8-8-8h-32V72z M77.512,112H88v152H19.608
	L77.512,112z M480,456H16V280h112.264c4.394,66.128,61.563,116.174,127.691,111.781c60.006-3.987,107.794-51.775,111.781-111.781
	H480L480,456z"/>
<linearGradient id="SVGID_2_" gradientUnits="userSpaceOnUse" x1="-62.935" y1="578.565" x2="9.375" y2="650.875" gradientTransform="matrix(8 0 0 -8 399 5013)">
	<stop  offset="0" style="stop-color:#003F8A"/>
	<stop  offset="0.518" style="stop-color:#00D7DF"/>
	<stop  offset="1" style="stop-color:#006DF0"/>
</linearGradient>
<path style="fill:url(#SVGID_2_);" d="M88,32c0,4.418,3.582,8,8,8h304c4.418,0,8-3.582,8-8s-3.582-8-8-8H96
	C91.582,24,88,27.582,88,32z"/>
<linearGradient id="SVGID_3_" gradientUnits="userSpaceOnUse" x1="-51.4378" y1="567.0628" x2="20.8772" y2="639.3718" gradientTransform="matrix(8 0 0 -8 399 5013)">
	<stop  offset="0" style="stop-color:#003F8A"/>
	<stop  offset="0.518" style="stop-color:#00D7DF"/>
	<stop  offset="1" style="stop-color:#006DF0"/>
</linearGradient>
<path style="fill:url(#SVGID_3_);" d="M56,424h-8v-24c0-4.418-3.582-8-8-8s-8,3.582-8,8v32c0,4.418,3.582,8,8,8h16
	c4.418,0,8-3.582,8-8S60.418,424,56,424z"/>
<linearGradient id="SVGID_4_" gradientUnits="userSpaceOnUse" x1="-47.4379" y1="563.0629" x2="24.8771" y2="635.3719" gradientTransform="matrix(8 0 0 -8 399 5013)">
	<stop  offset="0" style="stop-color:#003F8A"/>
	<stop  offset="0.518" style="stop-color:#00D7DF"/>
	<stop  offset="1" style="stop-color:#006DF0"/>
</linearGradient>
<path style="fill:url(#SVGID_4_);" d="M104,424H88c-4.418,0-8,3.582-8,8s3.582,8,8,8h16c4.418,0,8-3.582,8-8S108.418,424,104,424z"
	/>
<g>
</g>
<g>
</g>
<g>
</g>
<g>
</g>
<g>
</g>
<g>
</g>
<g>
</g>
<g>
</g>
<g>
</g>
<g>
</g>
<g>
</g>
<g>
</g>
<g>
</g>
<g>
</g>
<g>
</g>
</svg>
