<svg height="492pt" viewBox="0 0 492 492" width="492pt" xmlns="http://www.w3.org/2000/svg" xmlns:xlink="http://www.w3.org/1999/xlink"><linearGradient id="a"><stop offset="0" stop-color="#fff200"/><stop offset="1" stop-color="#cd118c"/></linearGradient><linearGradient id="b" gradientTransform="matrix(1 0 0 -1 0 490)" gradientUnits="userSpaceOnUse" x1="6.6585" x2="498.6339" xlink:href="#a" y1="16.6221" y2="484.0058"/><linearGradient id="c" gradientTransform="matrix(1 0 0 -1 0 490)" gradientUnits="userSpaceOnUse" x1="37.3664" x2="529.3419" xlink:href="#a" y1="-15.7012" y2="451.6743"/><linearGradient id="d" gradientTransform="matrix(1 0 0 -1 0 490)" gradientUnits="userSpaceOnUse" x1="6.8625" x2="498.8379" xlink:href="#a" y1="16.4099" y2="483.7854"/><linearGradient id="e" gradientTransform="matrix(1 0 0 -1 0 490)" gradientUnits="userSpaceOnUse" x1="-23.6414" x2="468.334" xlink:href="#a" y1="48.5211" y2="515.8964"/><linearGradient id="f" gradientTransform="matrix(1 0 0 -1 0 490)" gradientUnits="userSpaceOnUse" x1="56.776" x2="548.7513" xlink:href="#a" y1="-36.1276" y2="431.2478"/><path d="m246 0c-135.863281 0-246 110.136719-246 246s110.136719 246 246 246 246-110.136719 246-246c-.152344-135.796875-110.203125-245.847656-246-246zm0 475.601562c-126.804688 0-229.601562-102.796874-229.601562-229.601562s102.796874-229.601562 229.601562-229.601562 229.601562 102.796874 229.601562 229.601562c-.148437 126.746094-102.855468 229.453125-229.601562 229.601562zm0 0" fill="url(#b)"/><path d="m303.398438 319.800781h49.203124c4.527344 0 8.199219-3.671875 8.199219-8.199219v-164c0-4.53125-3.671875-8.203124-8.199219-8.203124h-49.203124c-4.527344 0-8.199219 3.671874-8.199219 8.203124v164c0 4.527344 3.671875 8.199219 8.199219 8.199219zm8.203124-164h32.796876v147.597657h-32.796876zm0 0" fill="url(#c)"/><path d="m213.199219 319.800781h49.199219c4.53125 0 8.203124-3.671875 8.203124-8.199219v-114.800781c0-4.53125-3.671874-8.199219-8.203124-8.199219h-49.199219c-4.527344 0-8.199219 3.667969-8.199219 8.199219v114.800781c0 4.527344 3.671875 8.199219 8.199219 8.199219zm8.199219-114.800781h32.800781v98.398438h-32.800781zm0 0" fill="url(#d)"/><path d="m123 319.800781h49.199219c4.53125 0 8.199219-3.671875 8.199219-8.199219v-65.601562c0-4.527344-3.667969-8.199219-8.199219-8.199219h-49.199219c-4.527344 0-8.199219 3.671875-8.199219 8.199219v65.601562c0 4.527344 3.671875 8.199219 8.199219 8.199219zm8.199219-65.601562h32.800781v49.199219h-32.800781zm0 0" fill="url(#e)"/><path d="m385.398438 344.398438h-303.398438v16.402343h311.601562c4.527344 0 8.199219-3.671875 8.199219-8.199219v-229.601562h-16.402343zm0 0" fill="url(#f)"/></svg>