<svg height="492pt" viewBox="0 0 492 492" width="492pt" xmlns="http://www.w3.org/2000/svg" xmlns:xlink="http://www.w3.org/1999/xlink"><linearGradient id="a"><stop offset="0" stop-color="#fff200"/><stop offset="1" stop-color="#cd118c"/></linearGradient><linearGradient id="b" gradientTransform="matrix(1 0 0 -1 0 490)" gradientUnits="userSpaceOnUse" x1="-17.5074" x2="499.0679" xlink:href="#a" y1="5.5855" y2="472.9691"/><linearGradient id="c" gradientTransform="matrix(1 0 0 -1 0 490)" gradientUnits="userSpaceOnUse" x1="-5.2706" x2="511.3047" xlink:href="#a" y1="-7.939" y2="459.4364"/><path d="m246 0c-135.863281 0-246 110.136719-246 246s110.136719 246 246 246 246-110.136719 246-246c-.152344-135.796875-110.203125-245.847656-246-246zm0 475.601562c-126.804688 0-229.601562-102.796874-229.601562-229.601562s102.796874-229.601562 229.601562-229.601562 229.601562 102.796874 229.601562 229.601562c-.148437 126.746094-102.855468 229.453125-229.601562 229.601562zm0 0" fill="url(#b)"/><path d="m401.800781 155.800781h-82v-41c0-4.53125-3.671875-8.199219-8.199219-8.199219h-131.203124c-4.527344 0-8.199219 3.667969-8.199219 8.199219v41h-82c-4.527344 0-8.199219 3.671875-8.199219 8.199219v213.199219c0 4.53125 3.671875 8.199219 8.199219 8.199219h311.601562c4.527344 0 8.199219-3.667969 8.199219-8.199219v-213.199219c0-4.527344-3.671875-8.199219-8.199219-8.199219zm-213.199219-32.800781h114.796876v32.800781h-114.796876zm205 49.199219v41h-32.800781v-16.398438c0-4.53125-3.671875-8.199219-8.199219-8.199219h-32.800781c-4.53125 0-8.199219 3.667969-8.199219 8.199219v16.398438h-131.203124v-16.398438c0-4.53125-3.667969-8.199219-8.199219-8.199219h-32.800781c-4.527344 0-8.199219 3.667969-8.199219 8.199219v16.398438h-32.800781v-41zm-65.601562 57.402343h16.398438v8.199219h-16.398438zm0-16.402343v-8.199219h16.398438v8.199219zm-180.398438 16.402343h16.398438v8.199219h-16.398438zm0-16.402343v-8.199219h16.398438v8.199219zm-49.203124 155.800781v-139.398438h32.800781v16.398438c0 4.527344 3.671875 8.199219 8.199219 8.199219h32.800781c4.53125 0 8.199219-3.671875 8.199219-8.199219v-16.398438h131.203124v16.398438c0 4.527344 3.667969 8.199219 8.199219 8.199219h32.800781c4.527344 0 8.199219-3.671875 8.199219-8.199219v-16.398438h32.800781v139.398438zm0 0" fill="url(#c)"/></svg>