<svg height="492pt" viewBox="0 0 492 492" width="492pt" xmlns="http://www.w3.org/2000/svg" xmlns:xlink="http://www.w3.org/1999/xlink"><linearGradient id="a"><stop offset="0" stop-color="#fff200"/><stop offset="1" stop-color="#cd118c"/></linearGradient><linearGradient id="b" gradientTransform="matrix(1 0 0 -1 0 490)" gradientUnits="userSpaceOnUse" x1="32.7426" x2="463.218" xlink:href="#a" y1="30.7426" y2="461.218"/><linearGradient id="c" gradientTransform="matrix(1 0 0 -1 0 490)" gradientUnits="userSpaceOnUse" x1="21.2876" x2="451.763" xlink:href="#a" y1="42.1894" y2="472.6648"/><linearGradient id="d" gradientTransform="matrix(1 0 0 -1 0 490)" gradientUnits="userSpaceOnUse" x1="69.6426" x2="500.118" xlink:href="#a" y1="-6.1574" y2="424.318"/><linearGradient id="e" gradientTransform="matrix(1 0 0 -1 0 490)" gradientUnits="userSpaceOnUse" x1="-57.4574" x2="373.018" xlink:href="#a" y1="120.9426" y2="551.418"/><linearGradient id="f" gradientTransform="matrix(1 0 0 -1 0 490)" gradientUnits="userSpaceOnUse" x1="-73.8574" x2="356.618" xlink:href="#a" y1="137.3426" y2="567.8181"/><path d="m246 0c-135.863281 0-246 110.136719-246 246s110.136719 246 246 246 246-110.136719 246-246c-.152344-135.796875-110.203125-245.847656-246-246zm0 475.601562c-126.804688 0-229.601562-102.796874-229.601562-229.601562s102.796874-229.601562 229.601562-229.601562 229.601562 102.796874 229.601562 229.601562c-.148437 126.746094-102.855468 229.453125-229.601562 229.601562zm0 0" fill="url(#b)"/><path d="m385.398438 98.398438h-278.796876c-4.53125 0-8.203124 3.671874-8.203124 8.203124v278.796876c0 4.53125 3.671874 8.203124 8.203124 8.203124h278.796876c4.53125 0 8.203124-3.671874 8.203124-8.203124v-278.796876c0-4.53125-3.671874-8.203124-8.203124-8.203124zm-8.199219 16.402343v41h-262.398438v-41zm-262.398438 262.398438v-205h262.398438v205zm0 0" fill="url(#b)"/><path d="m229.601562 205h-65.601562v16.398438h57.398438v41h-57.398438v16.402343h57.398438v41h-57.398438v16.398438h65.601562c4.527344 0 8.199219-3.671875 8.199219-8.199219v-114.800781c0-4.527344-3.671875-8.199219-8.199219-8.199219zm0 0" fill="url(#c)"/><path d="m328 205h-65.601562c-4.527344 0-8.199219 3.671875-8.199219 8.199219v114.800781c0 4.527344 3.671875 8.199219 8.199219 8.199219h65.601562c4.527344 0 8.199219-3.671875 8.199219-8.199219v-114.800781c0-4.527344-3.671875-8.199219-8.199219-8.199219zm-8.199219 114.800781h-49.199219v-98.402343h49.199219zm0 0" fill="url(#d)"/><path d="m172.199219 123h16.402343v16.398438h-16.402343zm0 0" fill="url(#e)"/><path d="m139.398438 123h16.402343v16.398438h-16.402343zm0 0" fill="url(#f)"/></svg>