<svg height="492pt" viewBox="0 0 492 492" width="492pt" xmlns="http://www.w3.org/2000/svg" xmlns:xlink="http://www.w3.org/1999/xlink"><linearGradient id="a"><stop offset="0" stop-color="#fff200"/><stop offset="1" stop-color="#cd118c"/></linearGradient><linearGradient id="b" gradientTransform="matrix(1 0 0 -1 0 490)" gradientUnits="userSpaceOnUse" x1="23.4198" x2="478.5035" xlink:href="#a" y1="15.408" y2="482.7834"/><linearGradient id="c" gradientTransform="matrix(1 0 0 -1 0 490)" gradientUnits="userSpaceOnUse" x1="34.9989" x2="490.0743" xlink:href="#a" y1="4.1406" y2="471.5159"/><path d="m246 0c-135.863281 0-246 110.136719-246 246s110.136719 246 246 246 246-110.136719 246-246c-.152344-135.796875-110.203125-245.847656-246-246zm0 475.601562c-126.804688 0-229.601562-102.796874-229.601562-229.601562s102.796874-229.601562 229.601562-229.601562 229.601562 102.796874 229.601562 229.601562c-.148437 126.746094-102.855468 229.453125-229.601562 229.601562zm0 0" fill="url(#b)"/><path d="m311.601562 352.601562c-.039062-10.726562-7.035156-20.1875-17.277343-23.363281l-19.164063-140.636719h20.039063c4.53125 0 8.199219-3.671874 8.199219-8.203124v-41c0-4.527344-3.667969-8.199219-8.199219-8.199219h-98.398438c-4.53125 0-8.199219 3.671875-8.199219 8.199219v41c0 4.53125 3.667969 8.203124 8.199219 8.203124h20.039063l-19.160156 140.636719c-10.234376 3.191407-17.226563 12.640625-17.277344 23.363281v16.398438h-8.203125v16.398438h147.601562v-16.398438h-8.199219zm-94.964843-41h58.726562l2.238281 16.398438h-63.203124zm-11.636719-164h8.199219v16.398438h16.402343v-16.398438h8.199219v16.398438h16.398438v-16.398438h8.199219v16.398438h16.402343v-16.398438h8.199219v24.597657h-82zm53.601562 41 14.523438 106.597657h-54.25l14.519531-106.597657zm-61.800781 180.398438v-16.398438c0-4.53125 3.671875-8.203124 8.199219-8.203124h82c4.527344 0 8.199219 3.671874 8.199219 8.203124v16.398438zm0 0" fill="url(#c)"/></svg>