<svg height="492pt" viewBox="0 0 492 492" width="492pt" xmlns="http://www.w3.org/2000/svg" xmlns:xlink="http://www.w3.org/1999/xlink"><linearGradient id="a"><stop offset="0" stop-color="#fff200"/><stop offset="1" stop-color="#cd118c"/></linearGradient><linearGradient id="b" gradientTransform="matrix(1 0 0 -1 0 490)" gradientUnits="userSpaceOnUse" x1="8.7502" x2="476.1256" xlink:href="#a" y1="25.4773" y2="455.9609"/><linearGradient id="c" gradientTransform="matrix(1 0 0 -1 0 490)" gradientUnits="userSpaceOnUse" x1="18.9847" x2="486.3602" xlink:href="#a" y1="14.366" y2="444.8496"/><path d="m246 0c-135.863281 0-246 110.136719-246 246s110.136719 246 246 246 246-110.136719 246-246c-.152344-135.796875-110.203125-245.847656-246-246zm0 475.601562c-126.804688 0-229.601562-102.796874-229.601562-229.601562s102.796874-229.601562 229.601562-229.601562 229.601562 102.796874 229.601562 229.601562c-.148437 126.746094-102.855468 229.453125-229.601562 229.601562zm0 0" fill="url(#b)"/><path d="m294.324219 329.238281-19.164063-140.636719h20.039063v-16.402343h-16.613281c5.429687-7.054688 8.382812-15.699219 8.414062-24.597657 0-22.644531-18.355469-41-41-41s-41 18.355469-41 41c.03125 8.898438 2.984375 17.542969 8.414062 24.597657h-16.613281v16.402343h20.039063l-19.160156 140.636719c-10.234376 3.191407-17.226563 12.640625-17.277344 23.363281v24.597657c0 4.53125 3.667968 8.199219 8.199218 8.199219h114.800782c4.527344 0 8.199218-3.667969 8.199218-8.199219v-24.597657c-.054687-10.722656-7.042968-20.171874-17.277343-23.363281zm-77.6875-17.636719h58.726562l2.238281 16.398438h-63.203124zm4.761719-164c0-13.585937 11.015624-24.601562 24.601562-24.601562s24.601562 11.015625 24.601562 24.601562c0 13.585938-11.015624 24.597657-24.601562 24.597657s-24.601562-11.011719-24.601562-24.597657zm37.203124 41 14.523438 106.597657h-54.25l14.519531-106.597657zm36.597657 180.398438h-98.398438v-16.398438c0-4.53125 3.671875-8.203124 8.199219-8.203124h82c4.527344 0 8.199219 3.671874 8.199219 8.203124zm0 0" fill="url(#c)"/></svg>