<svg height="492pt" viewBox="0 0 492 492" width="492pt" xmlns="http://www.w3.org/2000/svg" xmlns:xlink="http://www.w3.org/1999/xlink"><linearGradient id="a"><stop offset="0" stop-color="#fff200"/><stop offset="1" stop-color="#cd118c"/></linearGradient><linearGradient id="b" gradientTransform="matrix(1 0 0 -1 0 490)" gradientUnits="userSpaceOnUse" x1="21.474" x2="513.4494" xlink:href="#a" y1="13.8605" y2="518.136"/><linearGradient id="c" gradientTransform="matrix(1 0 0 -1 0 490)" gradientUnits="userSpaceOnUse" x1="21.474" x2="513.4494" xlink:href="#a" y1="13.8606" y2="518.136"/><linearGradient id="d" gradientTransform="matrix(1 0 0 -1 0 490)" gradientUnits="userSpaceOnUse" x1="-18.4402" x2="473.5352" xlink:href="#a" y1="52.799" y2="557.0662"/><linearGradient id="e" gradientTransform="matrix(1 0 0 -1 0 490)" gradientUnits="userSpaceOnUse" x1="-53.3297" x2="438.6457" xlink:href="#a" y1="86.8358" y2="591.1111"/><linearGradient id="f" gradientTransform="matrix(1 0 0 -1 0 490)" gradientUnits="userSpaceOnUse" x1="61.3828" x2="553.3582" xlink:href="#a" y1="-25.0807" y2="479.1948"/><linearGradient id="g" gradientTransform="matrix(1 0 0 -1 0 490)" gradientUnits="userSpaceOnUse" x1="35.9321" x2="527.9075" xlink:href="#a" y1="-.2537" y2="504.0217"/><linearGradient id="h" gradientTransform="matrix(1 0 0 -1 0 490)" gradientUnits="userSpaceOnUse" x1="7.012" x2="498.9874" xlink:href="#a" y1="27.9706" y2="532.246"/><linearGradient id="i" gradientTransform="matrix(1 0 0 -1 0 490)" gradientUnits="userSpaceOnUse" x1="96.2737" x2="588.2491" xlink:href="#a" y1="-59.1188" y2="445.1567"/><linearGradient id="j" gradientTransform="matrix(1 0 0 -1 0 490)" gradientUnits="userSpaceOnUse" x1="-19.516" x2="472.4594" xlink:href="#a" y1="53.8502" y2="558.1174"/><linearGradient id="k" gradientTransform="matrix(1 0 0 -1 0 490)" gradientUnits="userSpaceOnUse" x1="62.4578" x2="554.4332" xlink:href="#a" y1="-26.131" y2="478.1444"/><path d="m246 0c-135.863281 0-246 110.136719-246 246s110.136719 246 246 246 246-110.136719 246-246c-.152344-135.796875-110.203125-245.847656-246-246zm0 475.601562c-126.804688 0-229.601562-102.796874-229.601562-229.601562s102.796874-229.601562 229.601562-229.601562 229.601562 102.796874 229.601562 229.601562c-.148437 126.746094-102.855468 229.453125-229.601562 229.601562zm0 0" fill="url(#b)"/><path d="m385.398438 114.800781h-278.796876c-4.53125 0-8.203124 3.671875-8.203124 8.199219v246c0 4.527344 3.671874 8.199219 8.203124 8.199219h278.796876c4.53125 0 8.203124-3.671875 8.203124-8.199219v-246c0-4.527344-3.671874-8.199219-8.203124-8.199219zm-8.199219 246h-262.398438v-229.601562h262.398438zm0 0" fill="url(#c)"/><path d="m221.398438 303.398438h49.203124c4.527344 0 8.199219-3.667969 8.199219-8.199219v-98.398438c0-4.53125-3.671875-8.199219-8.199219-8.199219h-49.203124c-4.527344 0-8.199219 3.667969-8.199219 8.199219v98.398438c0 4.53125 3.671875 8.199219 8.199219 8.199219zm8.203124-98.398438h32.796876v82h-32.796876zm0 0" fill="url(#b)"/><path d="m147.601562 262.398438c5.832032-.015626 11.210938-3.140626 14.117188-8.199219h12.761719c4.527343 7.84375 14.558593 10.53125 22.402343 6.003906s10.53125-14.558594 6.003907-22.402344c-4.53125-7.84375-14.5625-10.53125-22.40625-6.003906-2.492188 1.4375-4.5625 3.511719-6 6.003906h-12.761719c-4.527344-7.84375-14.558594-10.53125-22.402344-6.003906s-10.53125 14.558594-6.003906 22.402344c2.945312 5.101562 8.398438 8.230469 14.289062 8.199219zm0 0" fill="url(#d)"/><path d="m139.398438 178.121094v18.679687c0 4.527344 3.671874 8.199219 8.203124 8.199219h18.679688c4.527344 7.84375 14.558594 10.53125 22.402344 6.003906 7.84375-4.53125 10.53125-14.558594 6.003906-22.402344-4.53125-7.84375-14.558594-10.535156-22.40625-6.003906-2.492188 1.4375-4.5625 3.507813-6 6.003906h-10.480469v-10.480468c7.84375-4.53125 10.53125-14.558594 6.003907-22.402344-4.53125-7.847656-14.5625-10.535156-22.40625-6.003906-7.84375 4.527344-10.53125 14.558594-6 22.402344 1.4375 2.492187 3.507812 4.5625 6 6.003906zm0 0" fill="url(#e)"/><path d="m303.398438 262.398438c5.835937-.015626 11.214843-3.140626 14.121093-8.199219h12.757813c4.53125 7.84375 14.5625 10.53125 22.40625 6.003906s10.53125-14.558594 6-22.402344c-4.527344-7.84375-14.558594-10.53125-22.402344-6.003906-2.492188 1.4375-4.5625 3.511719-6.003906 6.003906h-12.757813c-4.527343-7.84375-14.558593-10.53125-22.402343-6.003906s-10.53125 14.558594-6.003907 22.402344c2.945313 5.101562 8.398438 8.230469 14.285157 8.199219zm0 0" fill="url(#f)"/><path d="m311.601562 213.199219c5.832032-.015625 11.210938-3.140625 14.117188-8.199219h18.679688c4.53125 0 8.203124-3.671875 8.203124-8.199219v-18.679687c7.84375-4.53125 10.53125-14.558594 6-22.402344-4.527343-7.847656-14.558593-10.535156-22.402343-6.003906-7.84375 4.527344-10.53125 14.558594-6.003907 22.402344 1.441407 2.492187 3.511719 4.5625 6.003907 6.003906v10.480468h-10.480469c-4.527344-7.84375-14.558594-10.53125-22.402344-6.003906s-10.53125 14.558594-6 22.402344c2.941406 5.101562 8.394532 8.230469 14.285156 8.199219zm0 0" fill="url(#g)"/><path d="m147.601562 344.398438c9.027344.023437 16.367188-7.277344 16.390626-16.308594.015624-5.863282-3.109376-11.285156-8.191407-14.210938v-10.480468h10.480469c4.527344 7.84375 14.558594 10.535156 22.402344 6.003906 7.84375-4.527344 10.53125-14.558594 6.003906-22.402344-4.53125-7.84375-14.558594-10.53125-22.40625-6.003906-2.492188 1.441406-4.5625 3.511718-6 6.003906h-18.679688c-4.53125 0-8.203124 3.671875-8.203124 8.199219v18.679687c-7.824219 4.507813-10.515626 14.503906-6.007813 22.332032 2.925781 5.078124 8.347656 8.203124 14.210937 8.1875zm0 0" fill="url(#h)"/><path d="m352.601562 313.878906v-18.679687c0-4.527344-3.671874-8.199219-8.203124-8.199219h-18.679688c-4.527344-7.84375-14.558594-10.53125-22.402344-6.003906-7.84375 4.53125-10.53125 14.558594-6.003906 22.402344 4.53125 7.84375 14.558594 10.535156 22.40625 6.003906 2.492188-1.4375 4.5625-3.507813 6-6.003906h10.480469v10.480468c-7.84375 4.53125-10.53125 14.558594-6.003907 22.402344 4.53125 7.847656 14.5625 10.535156 22.40625 6.003906 7.84375-4.527344 10.53125-14.558594 6-22.402344-1.4375-2.492187-3.507812-4.5625-6-6.003906zm0 0" fill="url(#i)"/><path d="m237.800781 155.800781h16.398438v16.398438h-16.398438zm0 0" fill="url(#j)"/><path d="m237.800781 319.800781h16.398438v16.398438h-16.398438zm0 0" fill="url(#k)"/></svg>