<svg height="492pt" viewBox="0 0 492 492" width="492pt" xmlns="http://www.w3.org/2000/svg" xmlns:xlink="http://www.w3.org/1999/xlink"><linearGradient id="a"><stop offset="0" stop-color="#fff200"/><stop offset="1" stop-color="#cd118c"/></linearGradient><linearGradient id="b" gradientTransform="matrix(1 0 0 -1 0 490)" gradientUnits="userSpaceOnUse" x1="-29.2825" x2="511.8929" xlink:href="#a" y1="12.5144" y2="467.5898"/><linearGradient id="c" gradientTransform="matrix(1 0 0 -1 0 490)" gradientUnits="userSpaceOnUse" x1="-59.0733" x2="482.1021" xlink:href="#a" y1="47.9386" y2="503.014"/><linearGradient id="d" gradientTransform="matrix(1 0 0 -1 0 490)" gradientUnits="userSpaceOnUse" x1="-128.6995" x2="412.4677" xlink:href="#a" y1="130.7422" y2="585.8176"/><linearGradient id="e" gradientTransform="matrix(1 0 0 -1 0 490)" gradientUnits="userSpaceOnUse" x1="-10.6014" x2="530.574" xlink:href="#a" y1="-9.7012" y2="445.3741"/><linearGradient id="f" gradientTransform="matrix(1 0 0 -1 0 490)" gradientUnits="userSpaceOnUse" x1="-80.2279" x2="460.9393" xlink:href="#a" y1="73.1027" y2="528.1781"/><linearGradient id="g" gradientTransform="matrix(1 0 0 -1 0 490)" gradientUnits="userSpaceOnUse" x1="37.8684" x2="579.0437" xlink:href="#a" y1="-67.3468" y2="387.7368"/><linearGradient id="h" gradientTransform="matrix(1 0 0 -1 0 490)" gradientUnits="userSpaceOnUse" x1="-31.7601" x2="509.4153" xlink:href="#a" y1="15.4596" y2="470.5432"/><path d="m246 0c-135.863281 0-246 110.136719-246 246s110.136719 246 246 246 246-110.136719 246-246c-.152344-135.796875-110.203125-245.847656-246-246zm0 475.601562c-126.804688 0-229.601562-102.796874-229.601562-229.601562s102.796874-229.601562 229.601562-229.601562 229.601562 102.796874 229.601562 229.601562c-.148437 126.746094-102.855468 229.453125-229.601562 229.601562zm0 0" fill="url(#b)"/><path d="m401.800781 106.601562h-221.402343c-4.527344 0-8.199219 3.667969-8.199219 8.199219v65.597657c0 4.53125 3.671875 8.203124 8.199219 8.203124h221.402343c4.527344 0 8.199219-3.671874 8.199219-8.203124v-65.597657c0-4.53125-3.671875-8.199219-8.199219-8.199219zm-213.199219 16.398438h16.398438v49.199219h-16.398438zm32.796876 49.199219v-49.199219h172.203124v49.199219zm0 0" fill="url(#c)"/><path d="m123 106.601562c-22.644531 0-41 18.355469-41 41 0 22.640626 18.355469 41 41 41s41-18.359374 41-41c-.027344-22.632812-18.367188-40.972656-41-41zm0 65.597657c-13.585938 0-24.601562-11.011719-24.601562-24.597657 0-13.585937 11.015624-24.601562 24.601562-24.601562s24.601562 11.015625 24.601562 24.601562c0 13.585938-11.015624 24.597657-24.601562 24.597657zm0 0" fill="url(#d)"/><path d="m401.800781 205h-221.402343c-4.527344 0-8.199219 3.671875-8.199219 8.199219v65.601562c0 4.527344 3.671875 8.199219 8.199219 8.199219h221.402343c4.527344 0 8.199219-3.671875 8.199219-8.199219v-65.601562c0-4.527344-3.671875-8.199219-8.199219-8.199219zm-213.199219 16.398438h73.796876v49.203124h-73.796876zm90.199219 49.203124v-49.203124h114.800781v49.203124zm0 0" fill="url(#e)"/><path d="m123 205c-22.644531 0-41 18.355469-41 41s18.355469 41 41 41 41-18.355469 41-41c-.027344-22.632812-18.367188-40.972656-41-41zm0 65.601562c-13.585938 0-24.601562-11.015624-24.601562-24.601562s11.015624-24.601562 24.601562-24.601562 24.601562 11.015624 24.601562 24.601562-11.015624 24.601562-24.601562 24.601562zm0 0" fill="url(#f)"/><path d="m401.800781 303.398438h-221.402343c-4.527344 0-8.199219 3.671874-8.199219 8.203124v65.597657c0 4.53125 3.671875 8.199219 8.199219 8.199219h221.402343c4.527344 0 8.199219-3.667969 8.199219-8.199219v-65.597657c0-4.53125-3.671875-8.203124-8.199219-8.203124zm-213.199219 16.402343h32.796876v49.199219h-32.796876zm49.199219 49.199219v-49.199219h155.800781v49.199219zm0 0" fill="url(#g)"/><path d="m123 303.398438c-22.644531 0-41 18.359374-41 41 0 22.644531 18.355469 41 41 41s41-18.355469 41-41c-.027344-22.628907-18.367188-40.972657-41-41zm0 65.601562c-13.585938 0-24.601562-11.015625-24.601562-24.601562 0-13.585938 11.015624-24.597657 24.601562-24.597657s24.601562 11.011719 24.601562 24.597657c0 13.585937-11.015624 24.601562-24.601562 24.601562zm0 0" fill="url(#h)"/></svg>