<svg height="492pt" viewBox="0 0 492 492" width="492pt" xmlns="http://www.w3.org/2000/svg" xmlns:xlink="http://www.w3.org/1999/xlink"><linearGradient id="a"><stop offset="0" stop-color="#fff200"/><stop offset="1" stop-color="#cd118c"/></linearGradient><linearGradient id="b" gradientTransform="matrix(1 0 0 -1 0 490)" gradientUnits="userSpaceOnUse" x1="8.2984" x2="524.8738" xlink:href="#a" y1="6.2984" y2="522.8738"/><linearGradient id="c" gradientTransform="matrix(1 0 0 -1 0 490)" gradientUnits="userSpaceOnUse" x1="-61.4016" x2="455.1738" xlink:href="#a" y1="75.9984" y2="592.5738"/><linearGradient id="d" gradientTransform="matrix(1 0 0 -1 0 490)" gradientUnits="userSpaceOnUse" x1="4.1984" x2="520.7738" xlink:href="#a" y1="10.3984" y2="526.9738"/><linearGradient id="e" gradientTransform="matrix(1 0 0 -1 0 490)" gradientUnits="userSpaceOnUse" x1="12.3984" x2="528.9738" xlink:href="#a" y1="2.1984" y2="518.7738"/><linearGradient id="f" gradientTransform="matrix(1 0 0 -1 0 490)" gradientUnits="userSpaceOnUse" x1="36.9984" x2="553.5738" xlink:href="#a" y1="-22.4016" y2="494.1738"/><linearGradient id="g" gradientTransform="matrix(1 0 0 -1 0 490)" gradientUnits="userSpaceOnUse" x1="-45.0016" x2="471.5738" xlink:href="#a" y1="59.5984" y2="576.1738"/><path d="m246 0c-135.863281 0-246 110.136719-246 246s110.136719 246 246 246 246-110.136719 246-246c-.152344-135.796875-110.203125-245.847656-246-246zm0 475.601562c-126.804688 0-229.601562-102.796874-229.601562-229.601562s102.796874-229.601562 229.601562-229.601562 229.601562 102.796874 229.601562 229.601562c-.148437 126.746094-102.855468 229.453125-229.601562 229.601562zm0 0" fill="url(#b)"/><path d="m377.199219 131.199219h-262.398438c-4.53125 0-8.199219 3.671875-8.199219 8.199219v213.203124c0 4.527344 3.667969 8.199219 8.199219 8.199219h21.203125l-18.800781 18.800781 11.59375 11.597657 30.398437-30.398438h218.003907c4.53125 0 8.199219-3.671875 8.199219-8.199219v-213.203124c0-4.527344-3.667969-8.199219-8.199219-8.199219zm-132.699219 179.800781c-2.210938.402344-4.453125.605469-6.699219.601562-22.628906-.042968-40.960937-18.375-41-41 .027344-22.632812 18.367188-40.972656 41-41 2.300781-.003906 4.597657.207032 6.863281.621094 22.296876 3.75 37.332032 24.867188 33.582032 47.167969-2.902344 17.265625-16.46875 30.777344-33.746094 33.609375zm-121.5 33.398438v-196.796876h114.800781v65.597657c-31.6875.035156-57.363281 25.714843-57.402343 57.402343-.027344 12.390626 4.007812 24.449219 11.480468 34.332032l-39.472656 39.464844zm80.46875-27.878907c9.882812 7.472657 21.941406 11.503907 34.332031 11.480469v16.398438h-62.207031zm165.53125 27.878907h-114.800781v-18.808594c.238281-.074219.453125-.191406.691406-.261719 2.65625-.808594 5.25-1.804687 7.761719-2.984375.238281-.117188.46875-.246094.707031-.371094 5.132813-2.523437 9.855469-5.8125 14.003906-9.75.191407-.179687.394531-.34375.574219-.523437 1.921875-1.890625 3.710938-3.914063 5.347656-6.054688.238282-.320312.492188-.621093.722656-.941406 1.5625-2.121094 2.972657-4.347656 4.222657-6.667969l.621093-1.171875c1.210938-2.363281 2.253907-4.804687 3.132813-7.304687.132813-.394532.253906-.820313.378906-1.191406.261719-.820313.558594-1.640626.820313-2.460938.328125-1.195312.574218-2.457031.820312-3.65625.089844-.441406.210938-.867188.292969-1.3125 0-.179688.042969-.375.074219-.554688.03125-.183593.074218-.601562.121094-.894531.125-.820312.246093-1.640625.335937-2.460937 0-.386719.117187-.761719.15625-1.148438.148437-1.730468.230469-3.46875.230469-5.230468-.015625-2.96875-.253906-5.933594-.722656-8.867188-.046876-.300781-.070313-.605469-.121094-.898438-.472656-2.71875-1.140625-5.398437-1.992188-8.023437-.132812-.382813-.238281-.820313-.378906-1.164063-.875-2.53125-1.925781-4.996093-3.148438-7.378906-.1875-.367187-.382812-.730468-.582031-1.089844-1.269531-2.363281-2.707031-4.628906-4.296875-6.789062-.1875-.253906-.382812-.5-.582031-.753906-1.6875-2.214844-3.53125-4.308594-5.519531-6.257813l-.269532-.238281c-4.289062-4.121094-9.195312-7.542969-14.546874-10.136719l-.222657-.113281c-2.617187-1.242188-5.324219-2.28125-8.101562-3.109375-.179688-.046875-.335938-.148437-.515625-.195313v-68.03125h114.785156zm0 0" fill="url(#b)"/><path d="m155.800781 164h49.199219v16.398438h-49.199219zm0 0" fill="url(#c)"/><path d="m270.601562 164h82v16.398438h-82zm0 0" fill="url(#d)"/><path d="m270.601562 196.800781h49.199219v16.398438h-49.199219zm0 0" fill="url(#e)"/><path d="m336.199219 196.800781h16.402343v16.398438h-16.402343zm0 0" fill="url(#f)"/><path d="m139.398438 196.800781h82v16.398438h-82zm0 0" fill="url(#g)"/></svg>