<svg height="492pt" viewBox="0 0 492 492" width="492pt" xmlns="http://www.w3.org/2000/svg" xmlns:xlink="http://www.w3.org/1999/xlink"><linearGradient id="a"><stop offset="0" stop-color="#fff200"/><stop offset="1" stop-color="#cd118c"/></linearGradient><linearGradient id="b" gradientTransform="matrix(1 0 0 -1 0 490)" gradientUnits="userSpaceOnUse" x1="4.8218" x2="459.8972" xlink:href="#a" y1="9.3404" y2="452.1158"/><linearGradient id="c" gradientTransform="matrix(1 0 0 -1 0 490)" gradientUnits="userSpaceOnUse" x1="9.0362" x2="464.1116" xlink:href="#a" y1="5.0194" y2="447.7948"/><linearGradient id="d" gradientTransform="matrix(1 0 0 -1 0 490)" gradientUnits="userSpaceOnUse" x1="7.6978" x2="462.7814" xlink:href="#a" y1="6.3825" y2="449.1579"/><path d="m246 0c-135.863281 0-246 110.136719-246 246s110.136719 246 246 246 246-110.136719 246-246c-.152344-135.796875-110.203125-245.847656-246-246zm0 475.601562c-126.804688 0-229.601562-102.796874-229.601562-229.601562s102.796874-229.601562 229.601562-229.601562 229.601562 102.796874 229.601562 229.601562c-.148437 126.746094-102.855468 229.453125-229.601562 229.601562zm0 0" fill="url(#b)"/><path d="m369 254.199219h-123v-123c0-4.527344-3.671875-8.199219-8.199219-8.199219-76.988281 0-139.402343 62.410156-139.402343 139.398438 0 76.992187 62.414062 139.402343 139.402343 139.402343s139.398438-62.410156 139.398438-139.402343c0-4.527344-3.671875-8.199219-8.199219-8.199219zm-131.199219 131.199219c-67.933593.027343-123.019531-55.019532-123.046875-122.953126-.023437-64.78125 50.207032-118.480468 114.847656-122.773437v122.726563c0 4.53125 3.667969 8.203124 8.199219 8.203124h122.726563c-4.394532 64.5625-58.011719 114.714844-122.726563 114.796876zm0 0" fill="url(#c)"/><path d="m270.601562 90.199219c-4.53125 0-8.203124 3.671875-8.203124 8.199219v131.203124c0 4.527344 3.671874 8.199219 8.203124 8.199219h131.199219c4.527344 0 8.199219-3.671875 8.199219-8.199219-.085938-76.953124-62.445312-139.316406-139.398438-139.402343zm8.199219 131.199219v-114.527344c61.433594 4.1875 110.34375 53.09375 114.527344 114.527344zm0 0" fill="url(#d)"/></svg>