<svg height="492pt" viewBox="0 0 492 492" width="492pt" xmlns="http://www.w3.org/2000/svg" xmlns:xlink="http://www.w3.org/1999/xlink"><linearGradient id="a"><stop offset="0" stop-color="#fff200"/><stop offset="1" stop-color="#cd118c"/></linearGradient><linearGradient id="b" gradientTransform="matrix(1 0 0 -1 0 490)" gradientUnits="userSpaceOnUse" x1="6.1161" x2="510.3915" xlink:href="#a" y1="33.3678" y2="476.1514"/><linearGradient id="c" gradientTransform="matrix(1 0 0 -1 0 490)" gradientUnits="userSpaceOnUse" x1="26.4434" x2="530.7188" xlink:href="#a" y1="10.2199" y2="452.9952"/><path d="m246 0c-135.863281 0-246 110.136719-246 246s110.136719 246 246 246 246-110.136719 246-246c-.152344-135.796875-110.203125-245.847656-246-246zm0 475.601562c-126.804688 0-229.601562-102.796874-229.601562-229.601562s102.796874-229.601562 229.601562-229.601562 229.601562 102.796874 229.601562 229.601562c-.148437 126.746094-102.855468 229.453125-229.601562 229.601562zm0 0" fill="url(#b)"/><path d="m344.398438 196.800781h-24.597657v-82c0-4.53125-3.671875-8.199219-8.199219-8.199219h-41c-4.53125 0-8.203124 3.667969-8.203124 8.199219v41h-32.796876c-4.53125 0-8.203124 3.671875-8.203124 8.199219h-32.796876c-4.53125 0-8.203124 3.671875-8.203124 8.199219v16.402343h-24.597657c-4.53125 0-8.199219 3.667969-8.199219 8.199219v91.222657c0 .691406.085938 1.378906.253907 2.050781l5.558593 21.527343h-5.8125c-4.53125 0-8.203124 3.667969-8.203124 8.199219v57.398438c0 4.53125 3.671874 8.199219 8.203124 8.199219h188.597657c4.53125 0 8.199219-3.667969 8.199219-8.199219v-57.398438c0-4.53125-3.667969-8.199219-8.199219-8.199219h-7.535157l22.140626-27.675781c1.164062-1.457031 1.796874-3.261719 1.796874-5.125v-73.800781c0-4.527344-3.671874-8.199219-8.203124-8.199219zm-180.398438 90.199219v-82h16.398438v16.398438h16.402343v-41h24.597657v41h16.402343v-49.199219h24.597657v49.199219h16.402343v-98.398438h24.597657v188.601562h-133.050782zm164 82h-172.199219v-41h172.199219zm8.199219-93.078125-16.398438 20.5v-83.222656h16.398438zm0 0" fill="url(#c)"/></svg>