<svg height="492pt" viewBox="0 0 492 492" width="492pt" xmlns="http://www.w3.org/2000/svg" xmlns:xlink="http://www.w3.org/1999/xlink"><linearGradient id="a"><stop offset="0" stop-color="#fff200"/><stop offset="1" stop-color="#cd118c"/></linearGradient><linearGradient id="b" gradientTransform="matrix(1 0 0 -1 0 490)" gradientUnits="userSpaceOnUse" x1="32.0473" x2="425.6309" xlink:href="#a" y1="23.361" y2="429.2446"/><linearGradient id="c" gradientTransform="matrix(1 0 0 -1 0 490)" gradientUnits="userSpaceOnUse" x1="52.1693" x2="445.7529" xlink:href="#a" y1="3.8539" y2="409.7293"/><linearGradient id="d" gradientTransform="matrix(1 0 0 -1 0 490)" gradientUnits="userSpaceOnUse" x1="27.3598" x2="420.9352" xlink:href="#a" y1="27.9176" y2="433.793"/><path d="m246 0c-135.863281 0-246 110.136719-246 246s110.136719 246 246 246 246-110.136719 246-246c-.152344-135.796875-110.203125-245.847656-246-246zm0 475.601562c-126.804688 0-229.601562-102.796874-229.601562-229.601562s102.796874-229.601562 229.601562-229.601562 229.601562 102.796874 229.601562 229.601562c-.148437 126.746094-102.855468 229.453125-229.601562 229.601562zm0 0" fill="url(#b)"/><path d="m273.003906 235.398438 16.398438 16.398437c3.203125 3.199219 8.394531 3.199219 11.59375 0l24.601562-24.601563-11.59375-11.59375-18.804687 18.804688-10.601563-10.605469zm0 0" fill="url(#c)"/><path d="m295.199219 147.601562c-33.003907.015626-63.800781 16.585938-82 44.121094v-11.324218c0-13.585938-11.011719-24.597657-24.597657-24.597657h-49.203124c-13.585938 0-24.597657 11.011719-24.597657 24.597657v49.203124c0 13.585938 11.011719 24.597657 24.597657 24.597657v8.199219h-24.597657c-13.585937 0-24.601562 11.015624-24.601562 24.601562v49.199219c0 4.53125 3.671875 8.199219 8.199219 8.199219h131.203124c4.527344 0 8.199219-3.667969 8.199219-8.199219v-10.257813c16.691407 12.078125 36.792969 18.542969 57.398438 18.457032 54.347656 0 98.402343-44.054688 98.402343-98.398438s-44.054687-98.398438-98.402343-98.398438zm-98.167969 105.015626c.222656 3.277343.617188 6.542968 1.179688 9.78125h-9.609376v-8.199219c2.878907-.023438 5.734376-.5625 8.429688-1.582031zm-65.832031-23.015626v-49.203124c0-4.527344 3.671875-8.199219 8.199219-8.199219h49.203124c4.527344 0 8.199219 3.671875 8.199219 8.199219v49.203124c0 4.527344-3.671875 8.199219-8.199219 8.199219h-49.203124c-4.527344 0-8.199219-3.671875-8.199219-8.199219zm24.601562 24.597657h16.398438v8.199219h-16.398438zm65.597657 73.800781h-16.398438v-16.398438h-16.398438v16.398438h-49.203124v-16.398438h-16.398438v16.398438h-16.398438v-41c0-4.527344 3.667969-8.199219 8.199219-8.199219h98.398438c4.53125 0 8.199219 3.671875 8.199219 8.199219zm82-131.199219v-7.542969c25.140624 3.652344 44.890624 23.402344 48.546874 48.542969h-7.546874v16.398438h7.546874c-3.65625 25.140625-23.40625 44.890625-48.546874 48.542969v-7.542969h-16.398438v7.542969c-25.140625-3.652344-44.890625-23.402344-48.542969-48.542969h7.542969v-16.398438h-7.542969c3.652344-25.140625 23.402344-44.890625 48.542969-48.542969v7.542969zm-8.199219 131.199219c-21.503907.089844-42.160157-8.386719-57.398438-23.558594v-12.152344c25.804688 32.226563 72.847657 37.429688 105.070313 11.625 32.226562-25.804687 37.433594-72.847656 11.628906-105.070312-25.804688-32.226562-72.847656-37.433594-105.074219-11.628906-23.183593 18.566406-33.179687 49.09375-25.460937 77.777344-2.777344-1.363282-5.792969-2.179688-8.878906-2.402344-1.207032-5.449219-1.839844-11.011719-1.886719-16.589844 0-45.289062 36.710937-82 82-82 45.285156 0 82 36.710938 82 82 0 45.285156-36.710938 82-82 82zm0 0" fill="url(#d)"/></svg>