<svg height="492pt" viewBox="0 0 492 492" width="492pt" xmlns="http://www.w3.org/2000/svg" xmlns:xlink="http://www.w3.org/1999/xlink"><linearGradient id="a"><stop offset="0" stop-color="#fff200"/><stop offset="1" stop-color="#cd118c"/></linearGradient><linearGradient id="b" gradientTransform="matrix(1 0 0 -1 0 490)" gradientUnits="userSpaceOnUse" x1="11.7101" x2="454.4937" xlink:href="#a" y1="55.2682" y2="411.9518"/><linearGradient id="c" gradientTransform="matrix(1 0 0 -1 0 490)" gradientUnits="userSpaceOnUse" x1="-50.219" x2="392.5646" xlink:href="#a" y1="132.1465" y2="488.8219"/><linearGradient id="d" gradientTransform="matrix(1 0 0 -1 -.000255 489.9996)" gradientUnits="userSpaceOnUse" x1="-65.7797" x2="376.9957" xlink:href="#a" y1="151.4711" y2="508.1465"/><linearGradient id="e" gradientTransform="matrix(1 0 0 -1 .000376 490.0002)" gradientUnits="userSpaceOnUse" x1="-61.6597" x2="381.1239" xlink:href="#a" y1="146.3506" y2="503.0342"/><linearGradient id="f" gradientTransform="matrix(1 0 0 -1 0 490)" gradientUnits="userSpaceOnUse" x1="-38.9497" x2="403.8258" xlink:href="#a" y1="118.1624" y2="474.846"/><linearGradient id="g" gradientTransform="matrix(1 0 0 -1 -.000237 489.9995)" gradientUnits="userSpaceOnUse" x1="-3.7423" x2="439.0331" xlink:href="#a" y1="74.4542" y2="431.1378"/><linearGradient id="h" gradientTransform="matrix(1 0 0 -1 .000051 490.0003)" gradientUnits="userSpaceOnUse" x1="77.0744" x2="519.8499" xlink:href="#a" y1="-25.8755" y2="330.8081"/><linearGradient id="i" gradientTransform="matrix(1 0 0 -1 0 490)" gradientUnits="userSpaceOnUse" x1="54.367" x2="497.1424" xlink:href="#a" y1="2.3201" y2="359.0038"/><linearGradient id="j" gradientTransform="matrix(1 0 0 -1 .000618 489.9998)" gradientUnits="userSpaceOnUse" x1="19.1554" x2="461.9308" xlink:href="#a" y1="46.0341" y2="402.7177"/><linearGradient id="k" gradientTransform="matrix(1 0 0 -1 .000958 489.9998)" gradientUnits="userSpaceOnUse" x1="-19.1157" x2="423.6597" xlink:href="#a" y1="93.5484" y2="450.2321"/><linearGradient id="l" gradientTransform="matrix(1 0 0 -1 0 490)" gradientUnits="userSpaceOnUse" x1="23.4072" x2="466.1826" xlink:href="#a" y1="40.7468" y2="397.4304"/><path d="m246 0c-135.863281 0-246 110.136719-246 246s110.136719 246 246 246 246-110.136719 246-246c-.152344-135.796875-110.203125-245.847656-246-246zm0 475.601562c-126.804688 0-229.601562-102.796874-229.601562-229.601562s102.796874-229.601562 229.601562-229.601562 229.601562 102.796874 229.601562 229.601562c-.148437 126.746094-102.855468 229.453125-229.601562 229.601562zm0 0" fill="url(#b)"/><path d="m237.800781 107.28125h16.398438v23.917969h-16.398438zm0 0" fill="url(#c)"/><path d="m173.648438 128.867188 14.203124-8.195313 11.953126 20.707031-14.203126 8.199219zm0 0" fill="url(#d)"/><path d="m128.878906 179.640625 8.195313-14.195313 20.707031 11.957032-8.195312 14.195312zm0 0" fill="url(#e)"/><path d="m115.480469 229.601562h23.917969v16.398438h-23.917969zm0 0" fill="url(#f)"/><path d="m128.867188 295.960938 20.703124-11.957032 8.199219 14.191406-20.703125 11.960938zm0 0" fill="url(#g)"/><path d="m334.226562 298.199219 8.199219-14.195313 20.703125 11.960938-8.195312 14.191406zm0 0" fill="url(#h)"/><path d="m352.601562 229.601562h23.917969v16.398438h-23.917969zm0 0" fill="url(#i)"/><path d="m334.222656 177.398438 20.707032-11.957032 8.199218 14.195313-20.707031 11.957031zm0 0" fill="url(#j)"/><path d="m292.203125 141.382812 11.953125-20.707031 14.207031 8.195313-11.957031 20.710937zm0 0" fill="url(#k)"/><path d="m336.199219 237.800781c.109375-49.816406-40.183594-90.289062-90-90.398437-49.816407-.113282-90.289063 40.183594-90.398438 90-.0625 26.996094 11.972657 52.597656 32.800781 69.777344v37.21875c0 31.703124 25.699219 57.402343 57.398438 57.402343s57.398438-25.699219 57.398438-57.402343v-37.21875c20.804687-17.023438 32.851562-42.5 32.800781-69.378907zm-164 0c-.003907-40.761719 33.035156-73.804687 73.792969-73.808593 40.761718 0 73.804687 33.039062 73.808593 73.796874 0 22.296876-10.078125 43.398438-27.421875 57.410157h-21.777344v-49.199219c0-4.527344 3.667969-8.199219 8.199219-8.199219 4.527344 0 8.199219 3.671875 8.199219 8.199219s-3.671875 8.199219-8.199219 8.199219v16.402343c13.585938 0 24.597657-11.015624 24.597657-24.601562s-11.011719-24.601562-24.597657-24.601562c-13.585937 0-24.601562 11.015624-24.601562 24.601562v49.199219h-16.398438v-49.199219c0-13.585938-11.015625-24.601562-24.601562-24.601562-13.585938 0-24.597657 11.015624-24.597657 24.601562s11.011719 24.601562 24.597657 24.601562v-16.402343c-4.527344 0-8.199219-3.671875-8.199219-8.199219s3.671875-8.199219 8.199219-8.199219c4.53125 0 8.199219 3.671875 8.199219 8.199219v49.199219h-21.777344c-17.398438-13.964844-27.492188-35.089844-27.421875-57.398438zm32.800781 73.800781h82v24.597657h-82zm41 73.796876c-19.476562-.023438-36.257812-13.722657-40.179688-32.796876h80.359376c-3.921876 19.074219-20.703126 32.773438-40.179688 32.796876zm0 0" fill="url(#l)"/></svg>