<svg height="492pt" viewBox="0 0 492 492" width="492pt" xmlns="http://www.w3.org/2000/svg" xmlns:xlink="http://www.w3.org/1999/xlink"><linearGradient id="a"><stop offset="0" stop-color="#fff200"/><stop offset="1" stop-color="#cd118c"/></linearGradient><linearGradient id="b" gradientTransform="matrix(1 0 0 -1 0 490)" gradientUnits="userSpaceOnUse" x1="17.1639" x2="472.2475" xlink:href="#a" y1="-3.387" y2="488.5884"/><linearGradient id="c" gradientTransform="matrix(1 0 0 -1 0 490)" gradientUnits="userSpaceOnUse" x1="10.6459" x2="465.7295" xlink:href="#a" y1="2.6391" y2="494.6145"/><path d="m246 0c-135.863281 0-246 110.136719-246 246s110.136719 246 246 246 246-110.136719 246-246c-.152344-135.796875-110.203125-245.847656-246-246zm0 475.601562c-126.804688 0-229.601562-102.796874-229.601562-229.601562s102.796874-229.601562 229.601562-229.601562 229.601562 102.796874 229.601562 229.601562c-.148437 126.746094-102.855468 229.453125-229.601562 229.601562zm0 0" fill="url(#b)"/><path d="m425.464844 250.566406h.074218l-36.777343-73.578125 15.628906-5.214843-5.179687-15.582032-22.011719 7.367188-22.007813-7.332032c-.835937-.28125-1.710937-.425781-2.589844-.425781h-82v-8.199219h8.199219v-16.402343h-8.199219v-8.199219c0-13.585938-11.015624-24.601562-24.601562-24.601562s-24.601562 11.015624-24.601562 24.601562v8.199219h-8.199219v16.402343h8.199219v8.199219h-82c-.878907 0-1.753907.144531-2.589844.425781l-22.007813 7.332032-22.011719-7.332032-5.179687 15.578126 15.757813 5.257812-33.90625 70.378906c-2.359376 1.441406-3.816407 3.992188-3.859376 6.757813v16.402343c0 13.585938 11.011719 24.597657 24.597657 24.597657h49.199219c13.585937 0 24.601562-11.011719 24.601562-24.597657v-16.402343c-.023438-1.265625-.34375-2.511719-.933594-3.632813h.074219l-36.777344-73.578125 14.363281-4.789062h80.671876v164h-16.398438c-13.585938 0-24.601562 11.015625-24.601562 24.601562v16.398438h-8.199219v16.398437h147.601562v-16.398437h-8.199219v-16.398438c0-13.585937-11.015624-24.601562-24.601562-24.601562h-16.398438v-164h80.671876l14.496093 4.828125-33.90625 70.382812c-2.371093 1.449219-3.828125 4.011719-3.863281 6.789063v16.402343c0 13.585938 11.015625 24.597657 24.601562 24.597657h49.199219c13.585938 0 24.601563-11.011719 24.601563-24.597657v-16.402343c-.027344-1.265625-.347656-2.511719-.9375-3.632813zm-310.527344-59.753906 27.59375 55.1875h-54.175781zm32.664062 79.789062c0 4.527344-3.671874 8.199219-8.203124 8.199219h-49.199219c-4.527344 0-8.199219-3.671875-8.199219-8.199219v-8.203124h65.601562zm90.199219-147.601562c0-4.527344 3.671875-8.199219 8.199219-8.199219s8.199219 3.671875 8.199219 8.199219v8.199219h-16.398438zm0 24.601562h16.398438v8.199219h-16.398438zm57.398438 213.199219v16.398438h-98.398438v-16.398438c0-4.53125 3.671875-8.199219 8.199219-8.199219h82c4.527344 0 8.199219 3.667969 8.199219 8.199219zm-41-24.601562h-16.398438v-164h16.398438zm123.140625-145.386719 27.59375 55.1875h-54.179688zm32.660156 79.789062c0 4.527344-3.671875 8.199219-8.199219 8.199219h-49.199219c-4.53125 0-8.203124-3.671875-8.203124-8.199219v-8.203124h65.601562zm0 0" fill="url(#c)"/></svg>