<svg height="492pt" viewBox="0 0 492 492" width="492pt" xmlns="http://www.w3.org/2000/svg" xmlns:xlink="http://www.w3.org/1999/xlink"><linearGradient id="a"><stop offset="0" stop-color="#fff200"/><stop offset="1" stop-color="#cd118c"/></linearGradient><linearGradient id="b" gradientTransform="matrix(1 0 0 -1 0 490)" gradientUnits="userSpaceOnUse" x1="28.9622" x2="508.6376" xlink:href="#a" y1="54.7852" y2="472.9689"/><linearGradient id="c" gradientTransform="matrix(1 0 0 -1 0 490)" gradientUnits="userSpaceOnUse" x1="25.0707" x2="504.746" xlink:href="#a" y1="59.2548" y2="477.4302"/><linearGradient id="d" gradientTransform="matrix(1 0 0 -1 0 490)" gradientUnits="userSpaceOnUse" x1="25.0538" x2="504.7292" xlink:href="#a" y1="59.266" y2="477.4496"/><path d="m246 0c-135.863281 0-246 110.136719-246 246s110.136719 246 246 246 246-110.136719 246-246c-.152344-135.796875-110.203125-245.847656-246-246zm0 475.601562c-126.804688 0-229.601562-102.796874-229.601562-229.601562s102.796874-229.601562 229.601562-229.601562 229.601562 102.796874 229.601562 229.601562c-.148437 126.746094-102.855468 229.453125-229.601562 229.601562zm0 0" fill="url(#b)"/><path d="m330.566406 121.835938c-3.203125-3.199219-8.390625-3.199219-11.59375 0l-112.851562 112.847656c-25.277344-14.601563-57.128906-10.984375-78.488282 8.914062-25.574218 25.574219-22.960937 69.796875 5.796876 98.570313 13.277343 13.554687 31.023437 21.828125 49.9375 23.289062 1.640624.113281 3.183593.164063 4.742187.164063 16.40625.246094 32.226563-6.113282 43.894531-17.65625 19.875-21.371094 23.484375-53.207032 8.902344-78.488282l37.484375-37.472656 5.796875 5.796875c3.203125 3.199219 8.390625 3.199219 11.59375 0l23.199219-23.191406c3.199219-3.203125 3.199219-8.394531 0-11.59375l-5.804688-5.808594 11.59375-11.59375 17.398438 17.390625c3.203125 3.203125 8.394531 3.203125 11.597656 0l23.195313-23.1875c3.203124-3.203125 3.203124-8.394531 0-11.597656zm17.402344 63.777343-17.402344-17.390625c-3.203125-3.199218-8.390625-3.199218-11.59375 0l-23.191406 23.191406c-3.199219 3.199219-3.199219 8.390626 0 11.59375l5.796875 5.804688-11.59375 11.597656-5.796875-5.796875c-3.253906-3.078125-8.34375-3.078125-11.59375 0l-47.71875 47.714844c-2.707031 2.710937-3.179688 6.9375-1.132812 10.175781 13.792968 21.84375 12.425781 48.101563-3.335938 63.871094-9.542969 9.269531-22.65625 13.917969-35.90625 12.726562-14.957031-1.199218-28.972656-7.785156-39.441406-18.535156-22.378906-22.375-24.980469-56.183594-5.796875-75.371094 8.640625-8.421874 20.292969-13.039062 32.355469-12.816406 11.1875.125 22.113281 3.410156 31.511718 9.484375 3.242188 2.046875 7.46875 1.574219 10.175782-1.140625l111.519531-111.519531 34.792969 34.792969zm0 0" fill="url(#c)"/><path d="m156.621094 272.59375c-12.8125 12.804688-12.816406 33.574219-.007813 46.386719 12.808594 12.808593 33.574219 12.8125 46.386719.003906 12.808594-12.804687 12.8125-33.574219.007812-46.382813-.003906-.003906-.007812-.007812-.007812-.007812-12.972656-12.402344-33.40625-12.402344-46.378906 0zm34.78125 34.785156c-6.488282 6.195313-16.699219 6.195313-23.1875 0-6.40625-6.40625-6.40625-16.789062-.003906-23.195312 6.402343-6.40625 16.789062-6.40625 23.191406-.003906 6.40625 6.40625 6.410156 16.789062.003906 23.195312 0 0 0 0-.003906.003906zm0 0" fill="url(#d)"/></svg>