<svg height="492pt" viewBox="0 0 492 492" width="492pt" xmlns="http://www.w3.org/2000/svg" xmlns:xlink="http://www.w3.org/1999/xlink"><linearGradient id="a"><stop offset="0" stop-color="#fff200"/><stop offset="1" stop-color="#cd118c"/></linearGradient><linearGradient id="b" gradientTransform="matrix(1 0 0 -1 0 490)" gradientUnits="userSpaceOnUse" x1="-6.5904" x2="497.685" xlink:href="#a" y1="16.0538" y2="471.1292"/><linearGradient id="c" gradientTransform="matrix(1 0 0 -1 0 490)" gradientUnits="userSpaceOnUse" x1="-4.1381" x2="500.1372" xlink:href="#a" y1="13.3408" y2="468.4162"/><path d="m246 0c-135.863281 0-246 110.136719-246 246s110.136719 246 246 246 246-110.136719 246-246c-.152344-135.796875-110.203125-245.847656-246-246zm0 475.601562c-126.804688 0-229.601562-102.796874-229.601562-229.601562s102.796874-229.601562 229.601562-229.601562 229.601562 102.796874 229.601562 229.601562c-.148437 126.746094-102.855468 229.453125-229.601562 229.601562zm0 0" fill="url(#b)"/><path d="m410.925781 263.21875-46.386719-46.394531c-3.199218-3.203125-8.390624-3.203125-11.59375 0l-75.382812 75.382812c-19.214844 19.214844-50.367188 19.210938-69.582031-.003906-19.210938-19.214844-19.210938-50.367187.003906-69.582031l75.375-75.375c3.199219-3.199219 3.199219-8.390625 0-11.59375l-46.378906-46.371094c-3.203125-3.199219-8.394531-3.199219-11.59375 0l-75.382813 75.375c-50.925781 51.546875-50.421875 134.617188 1.125 185.539062 51.105469 50.488282 133.308594 50.488282 184.414063 0l75.382812-75.371093c3.207031-3.203125 3.207031-8.394531.007813-11.597657-.003906-.003906-.003906-.003906-.007813-.007812zm-179.75-156.542969 34.792969 34.78125-28.988281 28.996094-34.785157-34.792969zm92.773438 231.925781c-44.835938 44.835938-117.527344 44.835938-162.359375 0-44.835938-44.832031-44.835938-117.523437 0-162.359374l28.996094-28.996094 34.792968 34.792968-28.988281 28.996094c-25.777344 25.460938-26.03125 66.996094-.570313 92.773438 25.460938 25.773437 66.996094 26.027344 92.773438.566406l.5625-.5625 24.902344-24.898438 34.792968 34.804688zm36.488281-36.480468-34.792969-34.800782 33.097657-33.09375 34.792968 34.800782zm0 0" fill="url(#c)"/></svg>