<svg height="492pt" viewBox="0 0 492 492" width="492pt" xmlns="http://www.w3.org/2000/svg" xmlns:xlink="http://www.w3.org/1999/xlink"><linearGradient id="a"><stop offset="0" stop-color="#fff200"/><stop offset="1" stop-color="#cd118c"/></linearGradient><linearGradient id="b" gradientTransform="matrix(1 0 0 -1 0 490)" gradientUnits="userSpaceOnUse" x1="-24.7551" x2="491.8203" xlink:href="#a" y1="-.9676" y2="466.4077"/><linearGradient id="c" gradientTransform="matrix(1 0 0 -1 0 490)" gradientUnits="userSpaceOnUse" x1="-17.7624" x2="498.813" xlink:href="#a" y1="-8.698" y2="458.6773"/><path d="m246 0c-135.863281 0-246 110.136719-246 246s110.136719 246 246 246 246-110.136719 246-246c-.152344-135.796875-110.203125-245.847656-246-246zm0 475.601562c-126.804688 0-229.601562-102.796874-229.601562-229.601562s102.796874-229.601562 229.601562-229.601562 229.601562 102.796874 229.601562 229.601562c-.148437 126.746094-102.855468 229.453125-229.601562 229.601562zm0 0" fill="url(#b)"/><path d="m410 164h-41v-8.199219h-.074219c.027344-2.167969-.8125-4.253906-2.328125-5.796875l-49.199218-49.199218c-1.546876-1.519532-3.632813-2.351563-5.796876-2.324219v-.082031h-180.402343c-4.527344 0-8.199219 3.671874-8.199219 8.203124v57.398438h-41c-4.527344 0-8.199219 3.671875-8.199219 8.199219v196.800781c0 4.527344 3.671875 8.199219 8.199219 8.199219h328c4.527344 0 8.199219-3.671875 8.199219-8.199219v-196.800781c0-4.527344-3.671875-8.199219-8.199219-8.199219zm-8.199219 16.398438v21.722656l-32.800781 14.261718v-35.984374zm-82-54.003907 21.203125 21.207031h-21.203125zm-180.402343-11.59375h164v41c0 4.527344 3.671874 8.199219 8.203124 8.199219h41v59.515625l-106.714843 46.394531-106.488281-43.140625zm-16.398438 65.597657v39.730468l-32.800781-13.285156v-26.445312zm-32.800781 180.402343v-136.269531l152.726562 61.871094c.976563.394531 2.019531.601562 3.074219.597656 1.128906 0 2.246094-.230469 3.28125-.679688l152.519531-66.324218v140.804687zm0 0" fill="url(#c)"/></svg>