<svg height="492pt" viewBox="0 0 492 492" width="492pt" xmlns="http://www.w3.org/2000/svg" xmlns:xlink="http://www.w3.org/1999/xlink"><linearGradient id="a"><stop offset="0" stop-color="#fff200"/><stop offset="1" stop-color="#cd118c"/></linearGradient><linearGradient id="b" gradientTransform="matrix(1 0 0 -1 0 490)" gradientUnits="userSpaceOnUse" x1="1.2276" x2="480.903" xlink:href="#a" y1="-7.0489" y2="484.9265"/><linearGradient id="c" gradientTransform="matrix(1 0 0 -1 0 490)" gradientUnits="userSpaceOnUse" x1="19.3685" x2="499.0439" xlink:href="#a" y1="-24.7334" y2="467.242"/><linearGradient id="d" gradientTransform="matrix(1 0 0 -1 0 490)" gradientUnits="userSpaceOnUse" x1="-4.0672" x2="475.6082" xlink:href="#a" y1="-1.877" y2="490.0984"/><path d="m246 0c-135.863281 0-246 110.136719-246 246s110.136719 246 246 246 246-110.136719 246-246c-.152344-135.796875-110.203125-245.847656-246-246zm0 475.601562c-126.804688 0-229.601562-102.796874-229.601562-229.601562s102.796874-229.601562 229.601562-229.601562 229.601562 102.796874 229.601562 229.601562c-.148437 126.746094-102.855468 229.453125-229.601562 229.601562zm0 0" fill="url(#b)"/><path d="m246 114.800781c-72.460938-.1875-131.351562 58.398438-131.539062 130.859375-.1875 72.460938 58.402343 131.351563 130.859374 131.539063 14.761719.039062 29.421876-2.414063 43.367188-7.257813l79.542969 7.226563h.738281c4.527344.019531 8.214844-3.636719 8.230469-8.167969.003906-.257812-.007813-.519531-.03125-.777344l-7.21875-79.378906c4.808593-13.773438 7.257812-28.257812 7.25-42.84375-.085938-72.425781-58.773438-131.113281-131.199219-131.199219zm113.980469 245.179688-71.585938-6.558594c-1.1875-.125-2.390625.023437-3.511719.441406-59.628906 21.4375-125.347656-9.519531-146.785156-69.148437-21.441406-59.628906 9.519532-125.347656 69.148438-146.789063 59.628906-21.4375 125.347656 9.519531 146.785156 69.148438 4.492188 12.488281 6.78125 25.65625 6.769531 38.925781.011719 13.304688-2.320312 26.507812-6.882812 39.007812-.414063 1.132813-.574219 2.347657-.464844 3.550782zm0 0" fill="url(#c)"/><path d="m213.199219 283.605469-27.003907-27.003907-11.59375 11.59375 32.800782 32.800782c3.203125 3.203125 8.394531 3.203125 11.59375 0l98.402344-98.398438-11.597657-11.59375zm0 0" fill="url(#d)"/></svg>