<svg height="492pt" viewBox="0 0 492 492" width="492pt" xmlns="http://www.w3.org/2000/svg" xmlns:xlink="http://www.w3.org/1999/xlink"><linearGradient id="a"><stop offset="0" stop-color="#fff200"/><stop offset="1" stop-color="#cd118c"/></linearGradient><linearGradient id="b" gradientTransform="matrix(1 0 0 -1 0 490)" gradientUnits="userSpaceOnUse" x1="-3.6392" x2="463.7362" xlink:href="#a" y1="-18.7787" y2="473.1966"/><linearGradient id="c" gradientTransform="matrix(1 0 0 -1 0 490)" gradientUnits="userSpaceOnUse" x1="14.7128" x2="482.0964" xlink:href="#a" y1="-36.218" y2="455.7574"/><linearGradient id="d" gradientTransform="matrix(1 0 0 -1 0 490)" gradientUnits="userSpaceOnUse" x1="-38.1232" x2="429.2522" xlink:href="#a" y1="13.975" y2="505.9503"/><linearGradient id="e" gradientTransform="matrix(1 0 0 -1 0 490)" gradientUnits="userSpaceOnUse" x1="30.8408" x2="498.2162" xlink:href="#a" y1="-51.5368" y2="440.4386"/><path d="m246 0c-135.863281 0-246 110.136719-246 246s110.136719 246 246 246 246-110.136719 246-246c-.152344-135.796875-110.203125-245.847656-246-246zm0 475.601562c-126.804688 0-229.601562-102.796874-229.601562-229.601562s102.796874-229.601562 229.601562-229.601562 229.601562 102.796874 229.601562 229.601562c-.148437 126.746094-102.855468 229.453125-229.601562 229.601562zm0 0" fill="url(#b)"/><path d="m246 114.800781c-72.460938-.175781-131.339844 58.421875-131.515625 130.882813-.175781 72.460937 58.421875 131.339844 130.882813 131.515625 14.746093.035156 29.390624-2.414063 43.320312-7.246094l79.542969 7.214844h.738281c4.527344.019531 8.214844-3.636719 8.230469-8.167969 0-.257812-.007813-.515625-.03125-.769531l-7.21875-79.382813c4.808593-13.773437 7.257812-28.257812 7.25-42.847656-.085938-72.425781-58.773438-131.113281-131.199219-131.199219zm113.980469 245.179688-71.585938-6.558594c-1.1875-.109375-2.382812.046875-3.5.449219-59.628906 21.445312-125.347656-9.511719-146.792969-69.136719-21.445312-59.628906 9.511719-125.347656 69.136719-146.792969 59.628907-21.445312 125.347657 9.511719 146.792969 69.136719 4.488281 12.484375 6.78125 25.65625 6.769531 38.921875.011719 13.304688-2.316406 26.507812-6.878906 39.007812-.417969 1.132813-.578125 2.347657-.46875 3.550782zm0 0" fill="url(#c)"/><path d="m246 221.398438c-13.585938 0-24.601562 11.015624-24.601562 24.601562s11.015624 24.601562 24.601562 24.601562 24.601562-11.015624 24.601562-24.601562-11.015624-24.601562-24.601562-24.601562zm0 32.800781c-4.527344 0-8.199219-3.671875-8.199219-8.199219s3.671875-8.199219 8.199219-8.199219 8.199219 3.671875 8.199219 8.199219-3.671875 8.199219-8.199219 8.199219zm0 0" fill="url(#b)"/><path d="m180.398438 221.398438c-13.585938 0-24.597657 11.015624-24.597657 24.601562s11.011719 24.601562 24.597657 24.601562c13.585937 0 24.601562-11.015624 24.601562-24.601562s-11.015625-24.601562-24.601562-24.601562zm0 32.800781c-4.527344 0-8.199219-3.671875-8.199219-8.199219s3.671875-8.199219 8.199219-8.199219c4.53125 0 8.203124 3.671875 8.203124 8.199219s-3.671874 8.199219-8.203124 8.199219zm0 0" fill="url(#d)"/><path d="m311.601562 221.398438c-13.585937 0-24.601562 11.015624-24.601562 24.601562s11.015625 24.601562 24.601562 24.601562c13.585938 0 24.597657-11.015624 24.597657-24.601562s-11.011719-24.601562-24.597657-24.601562zm0 32.800781c-4.53125 0-8.203124-3.671875-8.203124-8.199219s3.671874-8.199219 8.203124-8.199219c4.527344 0 8.199219 3.671875 8.199219 8.199219s-3.671875 8.199219-8.199219 8.199219zm0 0" fill="url(#e)"/></svg>