<svg height="492pt" viewBox="0 0 492 492" width="492pt" xmlns="http://www.w3.org/2000/svg" xmlns:xlink="http://www.w3.org/1999/xlink"><linearGradient id="a"><stop offset="0" stop-color="#fff200"/><stop offset="1" stop-color="#cd118c"/></linearGradient><linearGradient id="b" gradientTransform="matrix(1 0 0 -1 0 490)" gradientUnits="userSpaceOnUse" x1="28.5271" x2="508.2025" xlink:href="#a" y1="43.2566" y2="486.032"/><linearGradient id="c" gradientTransform="matrix(1 0 0 -1 0 490)" gradientUnits="userSpaceOnUse" x1="51.0047" x2="530.6801" xlink:href="#a" y1="18.9011" y2="461.6847"/><linearGradient id="d" gradientTransform="matrix(1 0 0 -1 0 490)" gradientUnits="userSpaceOnUse" x1="12.1786" x2="491.854" xlink:href="#a" y1="60.966" y2="503.7414"/><linearGradient id="e" gradientTransform="matrix(1 0 0 -1 0 490)" gradientUnits="userSpaceOnUse" x1="20.1974" x2="499.8728" xlink:href="#a" y1="52.2831" y2="495.0585"/><linearGradient id="f" gradientTransform="matrix(1 0 0 -1 0 490)" gradientUnits="userSpaceOnUse" x1="42.8284" x2="522.5038" xlink:href="#a" y1="27.758" y2="470.5334"/><linearGradient id="g" gradientTransform="matrix(1 0 0 -1 0 490)" gradientUnits="userSpaceOnUse" x1="65.4679" x2="545.1433" xlink:href="#a" y1="3.2408" y2="446.0161"/><linearGradient id="h" gradientTransform="matrix(1 0 0 -1 0 490)" gradientUnits="userSpaceOnUse" x1="44.7155" x2="524.3908" xlink:href="#a" y1="25.7151" y2="468.4904"/><linearGradient id="i" gradientTransform="matrix(1 0 0 -1 0 490)" gradientUnits="userSpaceOnUse" x1="67.355" x2="547.0303" xlink:href="#a" y1="1.1978" y2="443.9732"/><linearGradient id="j" gradientTransform="matrix(1 0 0 -1 0 490)" gradientUnits="userSpaceOnUse" x1="89.986" x2="569.6614" xlink:href="#a" y1="-23.3273" y2="419.4481"/><linearGradient id="k" gradientTransform="matrix(1 0 0 -1 0 490)" gradientUnits="userSpaceOnUse" x1="69.2395" x2="548.9149" xlink:href="#a" y1="-.8506" y2="441.9331"/><linearGradient id="l" gradientTransform="matrix(1 0 0 -1 0 490)" gradientUnits="userSpaceOnUse" x1="91.873" x2="571.5483" xlink:href="#a" y1="-25.3702" y2="417.4051"/><linearGradient id="m" gradientTransform="matrix(1 0 0 -1 0 490)" gradientUnits="userSpaceOnUse" x1="114.5126" x2="594.1879" xlink:href="#a" y1="-49.8875" y2="392.8878"/><linearGradient id="n" gradientTransform="matrix(1 0 0 -1 0 490)" gradientUnits="userSpaceOnUse" x1="7.779" x2="487.4544" xlink:href="#a" y1="65.735" y2="508.5104"/><path d="m246 0c-135.863281 0-246 110.136719-246 246s110.136719 246 246 246 246-110.136719 246-246c-.152344-135.796875-110.203125-245.847656-246-246zm0 475.601562c-126.804688 0-229.601562-102.796874-229.601562-229.601562s102.796874-229.601562 229.601562-229.601562 229.601562 102.796874 229.601562 229.601562c-.148437 126.746094-102.855468 229.453125-229.601562 229.601562zm0 0" fill="url(#b)"/><path d="m393.601562 106.601562h-188.601562c-4.527344 0-8.199219 3.667969-8.199219 8.199219v114.914063c-36.167969-27.257813-87.582031-20.035156-114.839843 16.132812-27.257813 36.167969-20.03125 87.582032 16.132812 114.839844 29.21875 22.019531 69.488281 22.019531 98.707031 0v8.3125c0 4.527344 3.667969 8.199219 8.199219 8.199219h188.597656c4.53125 0 8.203125-3.671875 8.203125-8.199219v-254.199219c0-4.53125-3.671875-8.199219-8.199219-8.199219zm-246 254.199219c-36.230468 0-65.601562-29.371093-65.601562-65.601562s29.371094-65.597657 65.601562-65.597657c18.886719-.03125 36.851563 8.171876 49.199219 22.464844v86.265625c-12.347656 14.292969-30.3125 22.496094-49.199219 22.46875zm237.796876 0h-172.199219v-237.800781h172.199219zm0 0" fill="url(#c)"/><path d="m237.800781 188.601562h123c4.527344 0 8.199219-3.671874 8.199219-8.203124v-32.796876c0-4.53125-3.671875-8.203124-8.199219-8.203124h-123c-4.53125 0-8.199219 3.671874-8.199219 8.203124v32.796876c0 4.53125 3.667969 8.203124 8.199219 8.203124zm8.199219-32.800781h106.601562v16.398438h-106.601562zm0 0" fill="url(#d)"/><path d="m237.800781 246h24.597657c4.53125 0 8.203124-3.671875 8.203124-8.199219v-24.601562c0-4.527344-3.671874-8.199219-8.203124-8.199219h-24.597657c-4.53125 0-8.199219 3.671875-8.199219 8.199219v24.601562c0 4.527344 3.667969 8.199219 8.199219 8.199219zm8.199219-24.601562h8.199219v8.203124h-8.199219zm0 0" fill="url(#e)"/><path d="m311.601562 205h-24.601562c-4.527344 0-8.199219 3.671875-8.199219 8.199219v24.601562c0 4.527344 3.671875 8.199219 8.199219 8.199219h24.601562c4.527344 0 8.199219-3.671875 8.199219-8.199219v-24.601562c0-4.527344-3.671875-8.199219-8.199219-8.199219zm-8.203124 24.601562h-8.199219v-8.203124h8.199219zm0 0" fill="url(#f)"/><path d="m360.800781 205h-24.601562c-4.527344 0-8.199219 3.671875-8.199219 8.199219v24.601562c0 4.527344 3.671875 8.199219 8.199219 8.199219h24.601562c4.527344 0 8.199219-3.671875 8.199219-8.199219v-24.601562c0-4.527344-3.671875-8.199219-8.199219-8.199219zm-8.199219 24.601562h-8.203124v-8.203124h8.203124zm0 0" fill="url(#g)"/><path d="m237.800781 295.199219h24.597657c4.53125 0 8.203124-3.671875 8.203124-8.199219v-24.601562c0-4.527344-3.671874-8.199219-8.203124-8.199219h-24.597657c-4.53125 0-8.199219 3.671875-8.199219 8.199219v24.601562c0 4.527344 3.667969 8.199219 8.199219 8.199219zm8.199219-24.597657h8.199219v8.199219h-8.199219zm0 0" fill="url(#h)"/><path d="m311.601562 254.199219h-24.601562c-4.527344 0-8.199219 3.671875-8.199219 8.199219v24.601562c0 4.527344 3.671875 8.199219 8.199219 8.199219h24.601562c4.527344 0 8.199219-3.671875 8.199219-8.199219v-24.601562c0-4.527344-3.671875-8.199219-8.199219-8.199219zm-8.203124 24.601562h-8.199219v-8.199219h8.199219zm0 0" fill="url(#i)"/><path d="m360.800781 254.199219h-24.601562c-4.527344 0-8.199219 3.671875-8.199219 8.199219v24.601562c0 4.527344 3.671875 8.199219 8.199219 8.199219h24.601562c4.527344 0 8.199219-3.671875 8.199219-8.199219v-24.601562c0-4.527344-3.671875-8.199219-8.199219-8.199219zm-8.199219 24.601562h-8.203124v-8.199219h8.203124zm0 0" fill="url(#j)"/><path d="m237.800781 344.398438h24.597657c4.53125 0 8.203124-3.667969 8.203124-8.199219v-24.597657c0-4.53125-3.671874-8.203124-8.203124-8.203124h-24.597657c-4.53125 0-8.199219 3.671874-8.199219 8.203124v24.597657c0 4.53125 3.667969 8.199219 8.199219 8.199219zm8.199219-24.597657h8.199219v8.199219h-8.199219zm0 0" fill="url(#k)"/><path d="m311.601562 303.398438h-24.601562c-4.527344 0-8.199219 3.671874-8.199219 8.203124v24.597657c0 4.53125 3.671875 8.199219 8.199219 8.199219h24.601562c4.527344 0 8.199219-3.667969 8.199219-8.199219v-24.597657c0-4.53125-3.671875-8.203124-8.199219-8.203124zm-8.203124 24.601562h-8.199219v-8.199219h8.199219zm0 0" fill="url(#l)"/><path d="m360.800781 303.398438h-24.601562c-4.527344 0-8.199219 3.671874-8.199219 8.203124v24.597657c0 4.53125 3.671875 8.199219 8.199219 8.199219h24.601562c4.527344 0 8.199219-3.667969 8.199219-8.199219v-24.597657c0-4.53125-3.671875-8.203124-8.199219-8.203124zm-8.199219 24.601562h-8.203124v-8.199219h8.203124zm0 0" fill="url(#m)"/><path d="m147.601562 270.601562c10.011719 0 16.398438 4.851563 16.398438 8.199219h16.398438c0-11.652343-10.324219-21.082031-24.597657-23.78125v-9.019531h-16.402343v9.019531c-14.273438 2.679688-24.597657 12.113281-24.597657 23.78125 0 13.792969 14.40625 24.597657 32.800781 24.597657 10.011719 0 16.398438 4.855468 16.398438 8.203124 0 3.34375-6.386719 8.199219-16.398438 8.199219-10.011718 0-16.402343-4.855469-16.402343-8.199219h-16.398438c0 11.652344 10.324219 21.082032 24.597657 23.777344v9.019532h16.402343v-9.019532c14.273438-2.679687 24.597657-12.109375 24.597657-23.777344 0-13.792968-14.40625-24.601562-32.796876-24.601562-10.011718 0-16.402343-4.855469-16.402343-8.199219 0-3.347656 6.390625-8.199219 16.402343-8.199219zm0 0" fill="url(#n)"/></svg>