<svg height="492pt" viewBox="0 0 492 492" width="492pt" xmlns="http://www.w3.org/2000/svg" xmlns:xlink="http://www.w3.org/1999/xlink"><linearGradient id="a"><stop offset="0" stop-color="#fff200"/><stop offset="1" stop-color="#cd118c"/></linearGradient><linearGradient id="b" gradientTransform="matrix(1 0 0 -1 0 490)" gradientUnits="userSpaceOnUse" x1="28.6754" x2="496.0508" xlink:href="#a" y1="26.6754" y2="494.0508"/><linearGradient id="c" gradientTransform="matrix(1 0 0 -1 0 490)" gradientUnits="userSpaceOnUse" x1="29.3157" x2="496.6911" xlink:href="#a" y1="26.0351" y2="493.4105"/><linearGradient id="d" gradientTransform="matrix(1 0 0 -1 0 490)" gradientUnits="userSpaceOnUse" x1="110.6754" x2="578.0508" xlink:href="#a" y1="-55.3246" y2="412.0508"/><path d="m246 0c-135.863281 0-246 110.136719-246 246s110.136719 246 246 246 246-110.136719 246-246c-.152344-135.796875-110.203125-245.847656-246-246zm0 475.601562c-126.804688 0-229.601562-102.796874-229.601562-229.601562s102.796874-229.601562 229.601562-229.601562 229.601562 102.796874 229.601562 229.601562c-.148437 126.746094-102.855468 229.453125-229.601562 229.601562zm0 0" fill="url(#b)"/><path d="m360.382812 230.019531c-.816406-12.132812-3.539062-24.058593-8.070312-35.34375 10.621094-3.824219 21.800781-5.878906 33.085938-6.074219 4.53125 0 8.203124-3.671874 8.203124-8.203124 0-4.527344-3.671874-8.199219-8.203124-8.199219-13.71875.1875-27.300782 2.78125-40.121094 7.667969-24.167969-40.796876-68.261719-65.601563-115.675782-65.066407-20.945312-.011719-41.621093 4.726563-60.46875 13.855469l-42.476562-21.195312c-4.050781-2.023438-8.976562-.382813-11 3.667968-1.023438 2.042969-1.144531 4.417969-.339844 6.558594l15.007813 39.941406c-10.542969 11.390625-18.816407 24.683594-24.378907 39.171875h-32.144531c-4.53125 0-8.199219 3.667969-8.199219 8.199219v65.597656c0 4.53125 3.667969 8.203125 8.199219 8.203125h32.136719c5.699219 14.921875 14.285156 28.574219 25.261719 40.179688v50.019531c0 4.527344 3.671875 8.199219 8.199219 8.199219h49.203124c4.527344 0 8.199219-3.671875 8.199219-8.199219v-12.121094c21.554688 5.242188 44.054688 5.214844 65.597657-.074218v12.195312c0 4.527344 3.671874 8.199219 8.203124 8.199219h49.199219c3.15625-.007813 6.023438-1.832031 7.378907-4.679688 38.203124 14.105469 80.605468-5.425781 94.714843-43.625 14.105469-38.203125-5.425781-80.605469-43.625-94.714843-5.753906-2.121094-11.75-3.523438-17.847656-4.160157zm-81.582031 130.78125v-14.84375c0-4.527343-3.671875-8.199219-8.203125-8.199219-.859375 0-1.714844.136719-2.53125.402344-24.96875 8.25-51.925781 8.28125-76.917968.089844-4.300782-1.40625-8.933594.9375-10.34375 5.242188-.269532.824218-.40625 1.683593-.40625 2.546874v14.761719h-32.800782v-45.101562c-.007812-2.152344-.867187-4.214844-2.382812-5.738281-11.730469-11.71875-20.515625-26.050782-25.636719-41.820313-1.070313-3.414063-4.234375-5.738281-7.8125-5.742187h-29.765625v-49.199219h29.765625c3.578125-.003907 6.742187-2.328125 7.816406-5.738281 5.207031-15.910157 14.128907-30.347657 26.027344-42.125 2.273437-2.273438 3.007813-5.671876 1.875-8.683594l-9.46875-25.230469 27.496094 13.71875c2.359375 1.1875 5.148437 1.160156 7.484375-.082031 17.46875-9.132813 36.894531-13.886719 56.605468-13.859375 60.507813 0 110.234376 43.691406 114.503907 98.894531-1.390625.15625-2.746094.425781-4.097657.664062-.820312.148438-1.640624.238282-2.460937.402344-2.296875.484375-4.550781 1.058594-6.765625 1.746094-.5.15625-.976562.367188-1.46875.53125-1.710938.574219-3.417969 1.164062-5.082031 1.863281-.820313.351563-1.640625.777344-2.460938 1.164063-1.261719.582031-2.535156 1.15625-3.761719 1.8125-.878906.464844-1.722656 1-2.585937 1.507812-1.121094.65625-2.246094 1.3125-3.328125 2.023438-.859375.566406-1.679688 1.183594-2.507812 1.78125-1.027344.738281-2.042969 1.476562-3.027344 2.261718-.820313.65625-1.589844 1.34375-2.378906 2.035157-.941407.820312-1.867188 1.640625-2.761719 2.507812-.753907.730469-1.476563 1.476563-2.199219 2.238281-.851562.890626-1.671875 1.808594-2.457031 2.75-.683594.796876-1.351563 1.617188-1.996094 2.457032-.769531.972656-1.511719 1.96875-2.230469 2.984375-.605468.820312-1.203125 1.714843-1.769531 2.59375-.679687 1.058593-1.328125 2.132812-1.960937 3.222656-.515626.902344-1.03125 1.796875-1.515626 2.722656-.597656 1.140625-1.140624 2.292969-1.640624 3.46875-.425782.933594-.820313 1.851563-1.246094 2.804688-.507813 1.226562-.941406 2.457031-1.378906 3.746093-.328126.941407-.671876 1.871094-.957032 2.828126-.410156 1.351562-.730468 2.730468-1.058594 4.101562-.222656.910156-.476562 1.808594-.65625 2.738281-.300781 1.550781-.507812 3.132813-.722656 4.707031-.105468.820313-.253906 1.574219-.335937 2.378907-.359375 2.34375-.492188 4.804687-.492188 7.261719.011719 3.054687.214844 6.101562.609375 9.128906.121094.976562.34375 1.933594.5 2.902344.335938 2.015624.710938 4.019531 1.210938 5.984374.28125 1.117188.625 2.207032.953125 3.28125.539062 1.789063 1.140625 3.550782 1.8125 5.289063.433593 1.109375.875 2.199219 1.359375 3.28125.746094 1.6875 1.574218 3.328125 2.460937 4.917969.558594 1.027344 1.089844 2.058594 1.6875 3.058594 1.011719 1.640624 2.125 3.28125 3.28125 4.921874.597657.820313 1.140625 1.695313 1.761719 2.460938 1.792969 2.320312 3.726562 4.53125 5.789062 6.617188.425782.433593.917969.820312 1.371094 1.238281 1.515625 1.457031 3.050782 2.917969 4.707032 4.246093zm73.800781 0c-10.089843.019531-20-2.660156-28.703124-7.765625-27.367188-15.910156-36.652344-50.992187-20.742188-78.359375 15.910156-27.367187 50.992188-36.65625 78.359375-20.746093 27.367187 15.910156 36.65625 50.992187 20.746094 78.359374-10.28125 17.683594-29.207031 28.550782-49.660157 28.511719zm0 0" fill="url(#c)"/><path d="m369 287h16.398438c0-11.652344-10.324219-21.089844-24.597657-23.78125v-9.019531h-16.402343v9.019531c-14.273438 2.675781-24.597657 12.113281-24.597657 23.78125s10.324219 21.089844 24.597657 23.78125v15.972656c-5.132813-1.640625-8.199219-4.640625-8.199219-6.9375h-16.398438c0 11.652344 10.324219 21.089844 24.597657 23.78125v9.003906h16.402343v-9.019531c14.273438-2.675781 24.597657-12.113281 24.597657-23.78125s-10.324219-21.089843-24.597657-23.78125v-15.957031c5.132813 1.664062 8.199219 4.640625 8.199219 6.9375zm-32.800781 0c0-2.296875 3.066406-5.273438 8.199219-6.9375v13.875c-5.132813-1.664062-8.199219-4.640625-8.199219-6.9375zm32.800781 32.800781c0 2.296875-3.066406 5.273438-8.199219 6.9375v-13.875c5.132813 1.664063 8.199219 4.640625 8.199219 6.9375zm0 0" fill="url(#d)"/></svg>