<svg height="492pt" viewBox="0 0 492 492" width="492pt" xmlns="http://www.w3.org/2000/svg" xmlns:xlink="http://www.w3.org/1999/xlink"><linearGradient id="a"><stop offset="0" stop-color="#fff200"/><stop offset="1" stop-color="#cd118c"/></linearGradient><linearGradient id="b" gradientTransform="matrix(1 0 0 -1 0 490)" gradientUnits="userSpaceOnUse" x1="24.0346" x2="479.11" xlink:href="#a" y1="40.0328" y2="458.2082"/><linearGradient id="c" gradientTransform="matrix(1 0 0 -1 0 490)" gradientUnits="userSpaceOnUse" x1="9.3925" x2="464.4679" xlink:href="#a" y1="55.9656" y2="474.141"/><linearGradient id="d" gradientTransform="matrix(1 0 0 -1 0 490)" gradientUnits="userSpaceOnUse" x1="119.6122" x2="574.6957" xlink:href="#a" y1="-63.9824" y2="354.1929"/><linearGradient id="e" gradientTransform="matrix(1 0 0 -1 0 490)" gradientUnits="userSpaceOnUse" x1="122.941" x2="578.0164" xlink:href="#a" y1="-67.6065" y2="350.5771"/><linearGradient id="f" gradientTransform="matrix(1 0 0 -1 0 490)" gradientUnits="userSpaceOnUse" x1="128.9578" x2="584.0332" xlink:href="#a" y1="-74.1472" y2="344.0282"/><path d="m246 0c-135.863281 0-246 110.136719-246 246s110.136719 246 246 246 246-110.136719 246-246c-.152344-135.796875-110.203125-245.847656-246-246zm0 475.601562c-126.804688 0-229.601562-102.796874-229.601562-229.601562s102.796874-229.601562 229.601562-229.601562 229.601562 102.796874 229.601562 229.601562c-.148437 126.746094-102.855468 229.453125-229.601562 229.601562zm0 0" fill="url(#b)"/><path d="m386.859375 162.015625c-46.382813-77.796875-147.050781-103.261719-224.847656-56.878906-77.796875 46.382812-103.261719 147.050781-56.878907 224.847656 29.585938 49.621094 83.09375 80.015625 140.867188 80.015625v-16.398438c-81.515625.027344-147.625-66.03125-147.652344-147.546874-.03125-81.519532 66.027344-147.625 147.542969-147.65625 50.378906-.015626 97.289063 25.660156 124.421875 68.109374l-38.148438 10.375 69.636719 69.117188 25.050781-94.867188zm0 0" fill="url(#c)"/><path d="m254.199219 352.601562v-16.960937c27.773437-3.433594 49.199219-23.902344 49.199219-48.640625s-21.425782-45.207031-49.199219-48.640625v-65.496094c18.6875 3.050781 32.800781 16.292969 32.800781 32.136719h16.398438c0-24.738281-21.425782-45.207031-49.199219-48.640625v-16.960937h-16.398438v16.960937c-27.773437 3.433594-49.199219 23.902344-49.199219 48.640625s21.425782 45.207031 49.199219 48.640625v65.496094c-18.6875-3.050781-32.800781-16.292969-32.800781-32.136719h-16.398438c0 24.738281 21.425782 45.207031 49.199219 48.640625v16.960937zm32.800781-65.601562c0 15.84375-14.113281 29.085938-32.800781 32.136719v-64.273438c18.6875 3.050781 32.800781 16.292969 32.800781 32.136719zm-82-82c0-15.84375 14.113281-29.085938 32.800781-32.136719v64.273438c-18.6875-3.050781-32.800781-16.292969-32.800781-32.136719zm0 0" fill="url(#b)"/><path d="m375.984375 315.988281 14.441406 7.78125c5.042969-9.359375 9.164063-19.183593 12.300781-29.339843l-15.671874-4.839844c-2.816407 9.140625-6.523438 17.980468-11.070313 26.398437zm0 0" fill="url(#d)"/><path d="m289.632812 387.039062 4.84375 15.671876c10.15625-3.136719 19.980469-7.257813 29.332032-12.300782l-7.789063-14.425781c-8.414062 4.535156-17.253906 8.238281-26.386719 11.054687zm0 0" fill="url(#e)"/><path d="m339.765625 359.980469 10.429687 12.660156c8.199219-6.761719 15.726563-14.296875 22.476563-22.5l-12.691406-10.398437c-6.070313 7.378906-12.839844 14.15625-20.214844 20.238281zm0 0" fill="url(#f)"/></svg>