<svg height="492pt" viewBox="0 0 492 492" width="492pt" xmlns="http://www.w3.org/2000/svg" xmlns:xlink="http://www.w3.org/1999/xlink"><linearGradient id="a" gradientTransform="matrix(1 0 0 -1 0 490)" gradientUnits="userSpaceOnUse" x1="26.6992" x2="469.4746" y1="24.6992" y2="467.4746"><stop offset="0" stop-color="#fff200"/><stop offset="1" stop-color="#cd118c"/></linearGradient><g fill="url(#a)"><path d="m246 0c-135.863281 0-246 110.136719-246 246s110.136719 246 246 246 246-110.136719 246-246c-.152344-135.796875-110.203125-245.847656-246-246zm0 475.601562c-126.804688 0-229.601562-102.796874-229.601562-229.601562s102.796874-229.601562 229.601562-229.601562 229.601562 102.796874 229.601562 229.601562c-.148437 126.746094-102.855468 229.453125-229.601562 229.601562zm0 0"/><path d="m287 205h16.398438c0-24.738281-21.425782-45.207031-49.199219-48.640625v-16.960937h-16.398438v16.960937c-27.773437 3.433594-49.199219 23.902344-49.199219 48.640625s21.425782 45.207031 49.199219 48.640625v65.496094c-18.6875-3.050781-32.800781-16.292969-32.800781-32.136719h-16.398438c0 24.738281 21.425782 45.207031 49.199219 48.640625v16.960937h16.398438v-16.960937c27.773437-3.433594 49.199219-23.902344 49.199219-48.640625s-21.425782-45.207031-49.199219-48.640625v-65.496094c18.6875 3.050781 32.800781 16.292969 32.800781 32.136719zm-82 0c0-15.84375 14.113281-29.085938 32.800781-32.136719v64.273438c-18.6875-3.050781-32.800781-16.292969-32.800781-32.136719zm82 82c0 15.84375-14.113281 29.085938-32.800781 32.136719v-64.273438c18.6875 3.050781 32.800781 16.292969 32.800781 32.136719zm0 0"/><path d="m426.398438 237.800781h-16.816407c-4.273437-83.980469-71.402343-151.109375-155.382812-155.382812v-16.816407h-16.398438v16.816407c-83.980469 4.273437-151.109375 71.402343-155.382812 155.382812h-16.816407v16.398438h16.816407c4.273437 83.980469 71.402343 151.109375 155.382812 155.382812v16.816407h16.398438v-16.816407c83.980469-4.273437 151.109375-71.402343 155.382812-155.382812h16.816407zm-172.199219 155.382813v-15.984375h-16.398438v15.984375c-74.933593-4.242188-134.742187-64.050782-138.984375-138.984375h15.984375v-16.398438h-15.984375c4.242188-74.933593 64.050782-134.742187 138.984375-138.984375v15.984375h16.398438v-15.984375c74.933593 4.242188 134.742187 64.050782 138.984375 138.984375h-15.984375v16.398438h15.984375c-4.242188 74.933593-64.050782 134.742187-138.984375 138.984375zm0 0"/></g></svg>