<svg height="492pt" viewBox="0 0 492 492" width="492pt" xmlns="http://www.w3.org/2000/svg" xmlns:xlink="http://www.w3.org/1999/xlink"><linearGradient id="a"><stop offset="0" stop-color="#fff200"/><stop offset="1" stop-color="#cd118c"/></linearGradient><linearGradient id="b" gradientTransform="matrix(1 0 0 -1 0 490)" gradientUnits="userSpaceOnUse" x1="8.1244" x2="450.8997" xlink:href="#a" y1="-13.6997" y2="465.9756"/><linearGradient id="c" gradientTransform="matrix(1 0 0 -1 0 490)" gradientUnits="userSpaceOnUse" x1="31.2826" x2="474.058" xlink:href="#a" y1="-35.0784" y2="444.597"/><linearGradient id="d" gradientTransform="matrix(1 0 0 -1 0 490)" gradientUnits="userSpaceOnUse" x1="-53.1787" x2="389.5967" xlink:href="#a" y1="42.8884" y2="522.5638"/><linearGradient id="e" gradientTransform="matrix(1 0 0 -1 0 490)" gradientUnits="userSpaceOnUse" x1="-38.1959" x2="404.5795" xlink:href="#a" y1="29.0537" y2="508.7291"/><linearGradient id="f" gradientTransform="matrix(1 0 0 -1 0 490)" gradientUnits="userSpaceOnUse" x1="32.6457" x2="475.4211" xlink:href="#a" y1="-36.3348" y2="443.3406"/><linearGradient id="g" gradientTransform="matrix(1 0 0 -1 0 490)" gradientUnits="userSpaceOnUse" x1="103.4833" x2="546.2587" xlink:href="#a" y1="-101.7277" y2="377.9477"/><path d="m246 0c-135.863281 0-246 110.136719-246 246s110.136719 246 246 246 246-110.136719 246-246c-.152344-135.796875-110.203125-245.847656-246-246zm0 475.601562c-126.804688 0-229.601562-102.796874-229.601562-229.601562s102.796874-229.601562 229.601562-229.601562 229.601562 102.796874 229.601562 229.601562c-.148437 126.746094-102.855468 229.453125-229.601562 229.601562zm0 0" fill="url(#b)"/><path d="m418.199219 262.398438h-32.800781v-41c0-4.527344-3.667969-8.199219-8.199219-8.199219h-123v-32.800781h32.800781c4.527344 0 8.199219-3.667969 8.199219-8.199219v-82c0-4.527344-3.671875-8.199219-8.199219-8.199219h-82c-4.527344 0-8.199219 3.671875-8.199219 8.199219v82c0 4.53125 3.671875 8.199219 8.199219 8.199219h32.800781v32.800781h-123c-4.53125 0-8.199219 3.671875-8.199219 8.199219v41h-32.800781c-4.53125 0-8.199219 3.671874-8.199219 8.203124v82c0 4.527344 3.667969 8.199219 8.199219 8.199219h82c4.527344 0 8.199219-3.671875 8.199219-8.199219v-82c0-4.53125-3.671875-8.203124-8.199219-8.203124h-32.800781v-32.796876h114.800781v32.796876h-32.800781c-4.527344 0-8.199219 3.671874-8.199219 8.203124v82c0 4.527344 3.671875 8.199219 8.199219 8.199219h82c4.527344 0 8.199219-3.671875 8.199219-8.199219v-82c0-4.53125-3.671875-8.203124-8.199219-8.203124h-32.800781v-32.796876h114.800781v32.796876h-32.800781c-4.527344 0-8.199219 3.671874-8.199219 8.203124v82c0 4.527344 3.671875 8.199219 8.199219 8.199219h82c4.53125 0 8.199219-3.671875 8.199219-8.199219v-82c0-4.53125-3.667969-8.203124-8.199219-8.203124zm-205-164h65.601562v65.601562h-65.601562zm-65.597657 246h-65.601562v-65.597657h65.601562zm131.199219 0h-65.601562v-65.597657h65.601562zm131.199219 0h-65.601562v-65.597657h65.601562zm0 0" fill="url(#c)"/><path d="m229.601562 114.800781h32.796876v16.398438h-32.796876zm0 0" fill="url(#d)"/><path d="m98.398438 287h32.800781v16.398438h-32.800781zm0 0" fill="url(#e)"/><path d="m229.601562 287h32.796876v16.398438h-32.796876zm0 0" fill="url(#f)"/><path d="m360.800781 287h32.800781v16.398438h-32.800781zm0 0" fill="url(#g)"/></svg>