<svg height="492pt" viewBox="0 0 492 492" width="492pt" xmlns="http://www.w3.org/2000/svg" xmlns:xlink="http://www.w3.org/1999/xlink"><linearGradient id="a"><stop offset="0" stop-color="#fff200"/><stop offset="1" stop-color="#cd118c"/></linearGradient><linearGradient id="b" gradientTransform="matrix(1 0 0 -1 0 490)" gradientUnits="userSpaceOnUse" x1="-7.9395" x2="484.0358" xlink:href="#a" y1="2.7581" y2="470.1335"/><linearGradient id="c" gradientTransform="matrix(1 0 0 -1 0 490)" gradientUnits="userSpaceOnUse" x1="-5.8938" x2="486.0816" xlink:href="#a" y1=".5973" y2="467.9809"/><path d="m246 0c-135.863281 0-246 110.136719-246 246s110.136719 246 246 246 246-110.136719 246-246c-.152344-135.796875-110.203125-245.847656-246-246zm0 475.601562c-126.804688 0-229.601562-102.796874-229.601562-229.601562s102.796874-229.601562 229.601562-229.601562 229.601562 102.796874 229.601562 229.601562c-.148437 126.746094-102.855468 229.453125-229.601562 229.601562zm0 0" fill="url(#b)"/><path d="m382.996094 162.304688-82-82c-1.542969-1.523438-3.628906-2.363282-5.796875-2.332032v-.074218h-180.398438c-4.53125 0-8.199219 3.671874-8.199219 8.203124v328c0 4.527344 3.667969 8.199219 8.199219 8.199219h262.398438c4.53125 0 8.199219-3.671875 8.199219-8.199219v-246h-.074219c.019531-2.164062-.816407-4.25-2.328125-5.796874zm-79.597656-56.410157 54.007812 54.003907h-54.007812zm-180.398438 300.003907v-311.597657h164v73.800781c0 4.527344 3.671875 8.199219 8.199219 8.199219h73.800781v229.597657zm0 0" fill="url(#c)"/></svg>