<svg height="492pt" viewBox="0 0 492 492" width="492pt" xmlns="http://www.w3.org/2000/svg" xmlns:xlink="http://www.w3.org/1999/xlink"><linearGradient id="a"><stop offset="0" stop-color="#fff200"/><stop offset="1" stop-color="#cd118c"/></linearGradient><linearGradient id="b" gradientTransform="matrix(1 0 0 -1 0 490)" gradientUnits="userSpaceOnUse" x1="4.8937" x2="447.6692" xlink:href="#a" y1="-10.5018" y2="456.8736"/><linearGradient id="c" gradientTransform="matrix(1 0 0 -1 0 490)" gradientUnits="userSpaceOnUse" x1="32.2423" x2="475.0177" xlink:href="#a" y1="-36.4153" y2="430.9601"/><linearGradient id="d" gradientTransform="matrix(1 0 0 -1 0 490)" gradientUnits="userSpaceOnUse" x1="51.9717" x2="494.7552" xlink:href="#a" y1="-55.1033" y2="412.2721"/><path d="m246 0c-135.863281 0-246 110.136719-246 246s110.136719 246 246 246 246-110.136719 246-246c-.152344-135.796875-110.203125-245.847656-246-246zm0 475.601562c-126.804688 0-229.601562-102.796874-229.601562-229.601562s102.796874-229.601562 229.601562-229.601562 229.601562 102.796874 229.601562 229.601562c-.148437 126.746094-102.855468 229.453125-229.601562 229.601562zm0 0" fill="url(#b)"/><path d="m319.800781 188.601562c-45.269531.046876-81.949219 36.730469-82 82 1.292969 15.039063 5.988281 29.589844 13.734375 42.546876l-82.164062-44.523438 156.226562-156.226562c3.203125-3.203126 3.203125-8.394532.003906-11.597657-.214843-.214843-.441406-.414062-.675781-.605469l-41-32.800781c-3.265625-2.609375-7.96875-2.347656-10.921875.609375l-209.101562 209.097656c-3.203125 3.203126-3.203125 8.394532 0 11.597657.585937.585937 1.257812 1.082031 1.992187 1.464843l258.300781 135.300782c3.847657 2.015625 8.59375.679687 10.832032-3.039063l24.601562-41c2.328125-3.886719 1.070313-8.921875-2.808594-11.253906-.101562-.058594-.199218-.113281-.300781-.167969l-4.5-2.460937c22.089844-28.546875 49.78125-69.726563 49.78125-96.941407-.050781-45.269531-36.734375-81.953124-82-82zm0 16.398438c36.210938.039062 65.558594 29.386719 65.597657 65.601562 0 28.058594-42.851563 83.949219-65.597657 110.542969-22.746093-26.59375-65.601562-82.484375-65.601562-110.542969.042969-36.214843 29.386719-65.5625 65.601562-65.601562zm5.148438 202.34375-241.5625-126.535156 195.980469-195.980469 28.132812 22.453125-157.523438 157.523438c-3.199218 3.199218-3.203124 8.390624 0 11.59375.558594.558593 1.195313 1.035156 1.886719 1.410156l116.398438 63.066406c13.902343 20.347656 29.078125 39.789062 45.4375 58.21875 3.023437 3.371094 8.210937 3.648438 11.578125.625.21875-.199219.425781-.40625.621094-.625 1.78125-1.984375 6.808593-7.671875 13.375-15.578125zm0 0" fill="url(#c)"/><path d="m352.601562 262.398438c0-18.113282-14.6875-32.796876-32.800781-32.796876-18.117187 0-32.800781 14.683594-32.800781 32.796876 0 18.117187 14.683594 32.800781 32.800781 32.800781 18.113281 0 32.800781-14.683594 32.800781-32.800781zm-49.203124 0c0-9.054688 7.34375-16.398438 16.402343-16.398438 9.054688 0 16.398438 7.34375 16.398438 16.398438 0 9.058593-7.34375 16.402343-16.398438 16.402343-9.058593 0-16.402343-7.34375-16.402343-16.402343zm0 0" fill="url(#d)"/></svg>