<svg height="492pt" viewBox="0 0 492 492" width="492pt" xmlns="http://www.w3.org/2000/svg" xmlns:xlink="http://www.w3.org/1999/xlink"><linearGradient id="a"><stop offset="0" stop-color="#fff200"/><stop offset="1" stop-color="#cd118c"/></linearGradient><linearGradient id="b" gradientTransform="matrix(1 0 0 -1 0 490)" gradientUnits="userSpaceOnUse" x1="-45.4378" x2="508.0294" xlink:href="#a" y1="-2.1047" y2="465.2708"/><linearGradient id="c" gradientTransform="matrix(1 0 0 -1 0 490)" gradientUnits="userSpaceOnUse" x1="-89.9042" x2="463.5712" xlink:href="#a" y1="50.5449" y2="517.9285"/><linearGradient id="d" gradientTransform="matrix(1 0 0 -1 0 490)" gradientUnits="userSpaceOnUse" x1="-69.9614" x2="483.514" xlink:href="#a" y1="26.9366" y2="494.3121"/><linearGradient id="e" gradientTransform="matrix(1 0 0 -1 0 490)" gradientUnits="userSpaceOnUse" x1="-29.003" x2="524.4725" xlink:href="#a" y1="-21.5739" y2="445.8097"/><linearGradient id="f" gradientTransform="matrix(1 0 0 -1 0 490)" gradientUnits="userSpaceOnUse" x1="-25.5016" x2="527.9738" xlink:href="#a" y1="-25.7231" y2="441.6605"/><linearGradient id="g" gradientTransform="matrix(1 0 0 -1 0 490)" gradientUnits="userSpaceOnUse" x1="15.4569" x2="568.9324" xlink:href="#a" y1="-74.2255" y2="393.1499"/><linearGradient id="h" gradientTransform="matrix(1 0 0 -1 -.0011 490.0004)" gradientUnits="userSpaceOnUse" x1="15.4511" x2="568.9266" xlink:href="#a" y1="-74.2308" y2="393.1446"/><path d="m246 0c-135.863281 0-246 110.136719-246 246s110.136719 246 246 246 246-110.136719 246-246c-.152344-135.796875-110.203125-245.847656-246-246zm0 475.601562c-126.804688 0-229.601562-102.796874-229.601562-229.601562s102.796874-229.601562 229.601562-229.601562 229.601562 102.796874 229.601562 229.601562c-.148437 126.746094-102.855468 229.453125-229.601562 229.601562zm0 0" fill="url(#b)"/><path d="m360.800781 90.199219h-229.601562c-4.527344 0-8.199219 3.671875-8.199219 8.199219v295.203124c0 4.527344 3.671875 8.199219 8.199219 8.199219h229.601562c4.527344 0 8.199219-3.671875 8.199219-8.199219v-295.203124c0-4.527344-3.671875-8.199219-8.199219-8.199219zm-8.199219 295.199219h-213.203124v-278.796876h213.203124zm0 0" fill="url(#b)"/><path d="m164 188.601562h164c4.527344 0 8.199219-3.671874 8.199219-8.203124v-49.199219c0-4.527344-3.671875-8.199219-8.199219-8.199219h-164c-4.527344 0-8.199219 3.671875-8.199219 8.199219v49.199219c0 4.53125 3.671875 8.203124 8.199219 8.203124zm8.199219-49.203124h147.601562v32.800781h-147.601562zm0 0" fill="url(#c)"/><path d="m164 278.800781h65.601562c4.527344 0 8.199219-3.671875 8.199219-8.199219v-65.601562c0-4.527344-3.671875-8.199219-8.199219-8.199219h-65.601562c-4.527344 0-8.199219 3.671875-8.199219 8.199219v65.601562c0 4.527344 3.671875 8.199219 8.199219 8.199219zm8.199219-65.601562h49.199219v49.199219h-49.199219zm0 0" fill="url(#d)"/><path d="m328 196.800781h-65.601562c-4.527344 0-8.199219 3.671875-8.199219 8.199219v65.601562c0 4.527344 3.671875 8.199219 8.199219 8.199219h65.601562c4.527344 0 8.199219-3.671875 8.199219-8.199219v-65.601562c0-4.527344-3.671875-8.199219-8.199219-8.199219zm-8.199219 65.597657h-49.199219v-49.199219h49.199219zm0 0" fill="url(#e)"/><path d="m205 221.398438h-16.398438v8.203124h-8.203124v16.398438h8.203124v8.199219h16.398438v-8.199219h8.199219v-16.398438h-8.199219zm0 0" fill="url(#d)"/><path d="m278.800781 229.601562h32.800781v16.398438h-32.800781zm0 0" fill="url(#e)"/><path d="m164 369h65.601562c4.527344 0 8.199219-3.671875 8.199219-8.199219v-65.601562c0-4.527344-3.671875-8.199219-8.199219-8.199219h-65.601562c-4.527344 0-8.199219 3.671875-8.199219 8.199219v65.601562c0 4.527344 3.671875 8.199219 8.199219 8.199219zm8.199219-65.601562h49.199219v49.203124h-49.199219zm0 0" fill="url(#f)"/><path d="m328 287h-65.601562c-4.527344 0-8.199219 3.671875-8.199219 8.199219v65.601562c0 4.527344 3.671875 8.199219 8.199219 8.199219h65.601562c4.527344 0 8.199219-3.671875 8.199219-8.199219v-65.601562c0-4.527344-3.671875-8.199219-8.199219-8.199219zm-8.199219 65.601562h-49.199219v-49.203124h49.199219zm0 0" fill="url(#g)"/><path d="m202.597656 310.609375-5.796875 5.796875-5.796875-5.796875-11.597656 11.59375 5.796875 5.796875-5.796875 5.796875 11.597656 11.59375 5.796875-5.796875 5.796875 5.796875 11.59375-11.59375-5.796875-5.796875 5.796875-5.796875zm0 0" fill="url(#f)"/><path d="m273 338.601562 32.800781-32.800781 11.597657 11.597657-32.800782 32.800781zm0 0" fill="url(#h)"/></svg>