<svg height="492pt" viewBox="0 0 492 492" width="492pt" xmlns="http://www.w3.org/2000/svg" xmlns:xlink="http://www.w3.org/1999/xlink"><linearGradient id="a"><stop offset="0" stop-color="#fff200"/><stop offset="1" stop-color="#cd118c"/></linearGradient><linearGradient id="b" gradientTransform="matrix(1 0 0 -1 0 490)" gradientUnits="userSpaceOnUse" x1=".01" x2="504.2854" xlink:href="#a" y1="40.0064" y2="458.19"/><linearGradient id="c" gradientTransform="matrix(1 0 0 -1 0 490)" gradientUnits="userSpaceOnUse" x1="-7.8061" x2="496.4693" xlink:href="#a" y1="49.4382" y2="467.6137"/><linearGradient id="d" gradientTransform="matrix(1 0 0 -1 0 490)" gradientUnits="userSpaceOnUse" x1="-16.1049" x2="488.1706" xlink:href="#a" y1="59.4427" y2="477.6263"/><linearGradient id="e" gradientTransform="matrix(1 0 0 -1 .000998 489.9996)" gradientUnits="userSpaceOnUse" x1="-16.0996" x2="488.1758" xlink:href="#a" y1="59.4482" y2="477.6318"/><linearGradient id="f" gradientTransform="matrix(1 0 0 -1 0 490)" gradientUnits="userSpaceOnUse" x1="-34.8741" x2="469.4013" xlink:href="#a" y1="82.0822" y2="500.2576"/><linearGradient id="g" gradientTransform="matrix(1 0 0 -1 0 490)" gradientUnits="userSpaceOnUse" x1="2.6642" x2="506.9396" xlink:href="#a" y1="36.8115" y2="454.9869"/><path d="m246 0c-135.863281 0-246 110.136719-246 246s110.136719 246 246 246 246-110.136719 246-246c-.152344-135.796875-110.203125-245.847656-246-246zm0 475.601562c-126.804688 0-229.601562-102.796874-229.601562-229.601562s102.796874-229.601562 229.601562-229.601562 229.601562 102.796874 229.601562 229.601562c-.148437 126.746094-102.855468 229.453125-229.601562 229.601562zm0 0" fill="url(#b)"/><path d="m246 98.398438c-63.375.070312-114.730469 51.425781-114.800781 114.800781 0 61.417969 104.378906 173.09375 108.824219 177.816406 3.097656 3.300781 8.289062 3.464844 11.589843.367187.125-.117187.246094-.238281.363281-.367187 4.445313-4.722656 108.824219-116.398437 108.824219-177.816406-.070312-63.375-51.425781-114.730469-114.800781-114.800781zm0 274.839843c-22.140625-24.648437-98.398438-112.839843-98.398438-160.039062 0-54.34375 44.054688-98.398438 98.398438-98.398438s98.398438 44.054688 98.398438 98.398438c0 47.199219-76.257813 135.390625-98.398438 160.039062zm0 0" fill="url(#c)"/><path d="m246 139.398438c-40.757812 0-73.800781 33.042968-73.800781 73.800781 0 40.761719 33.042969 73.800781 73.800781 73.800781s73.800781-33.039062 73.800781-73.800781c-.046875-40.738281-33.0625-73.753907-73.800781-73.800781zm0 131.203124c-31.699219 0-57.398438-25.699218-57.398438-57.402343 0-31.699219 25.699219-57.398438 57.398438-57.398438s57.398438 25.699219 57.398438 57.398438c-.035157 31.6875-25.710938 57.363281-57.398438 57.402343zm0 0" fill="url(#d)"/><path d="m207.402344 240.199219 65.605468-65.601563 11.59375 11.597656-65.601562 65.601563zm0 0" fill="url(#e)"/><path d="m246 188.601562c0 9.054688-7.34375 16.398438-16.398438 16.398438-9.058593 0-16.402343-7.34375-16.402343-16.398438 0-9.058593 7.34375-16.402343 16.402343-16.402343 9.054688 0 16.398438 7.34375 16.398438 16.402343zm0 0" fill="url(#f)"/><path d="m278.800781 237.800781c0 9.058594-7.34375 16.398438-16.402343 16.398438-9.054688 0-16.398438-7.339844-16.398438-16.398438 0-9.058593 7.34375-16.402343 16.398438-16.402343 9.058593 0 16.402343 7.34375 16.402343 16.402343zm0 0" fill="url(#g)"/></svg>