<svg height="492pt" viewBox="0 0 492 492" width="492pt" xmlns="http://www.w3.org/2000/svg" xmlns:xlink="http://www.w3.org/1999/xlink"><linearGradient id="a"><stop offset="0" stop-color="#fff200"/><stop offset="1" stop-color="#cd118c"/></linearGradient><linearGradient id="b" gradientTransform="matrix(1 0 0 -1 0 490)" gradientUnits="userSpaceOnUse" x1="8.1918" x2="475.5672" xlink:href="#a" y1="6.1918" y2="473.5672"/><linearGradient id="c" gradientTransform="matrix(1 0 0 -1 0 490)" gradientUnits="userSpaceOnUse" x1="8.2088" x2="475.5842" xlink:href="#a" y1="6.1748" y2="473.5502"/><linearGradient id="d" gradientTransform="matrix(1 0 0 -1 0 490)" gradientUnits="userSpaceOnUse" x1="19.6467" x2="487.0222" xlink:href="#a" y1="-5.2549" y2="462.1204"/><path d="m246 0c-135.863281 0-246 110.136719-246 246s110.136719 246 246 246 246-110.136719 246-246c-.152344-135.796875-110.203125-245.847656-246-246zm0 475.601562c-126.804688 0-229.601562-102.796874-229.601562-229.601562s102.796874-229.601562 229.601562-229.601562 229.601562 102.796874 229.601562 229.601562c-.148437 126.746094-102.855468 229.453125-229.601562 229.601562zm0 0" fill="url(#b)"/><path d="m295.199219 73.800781c-67.890625-.039062-122.957031 54.964844-122.996094 122.855469-.019531 32.53125 12.859375 63.746094 35.8125 86.800781l-5.535156-5.535156-13.878907 13.882813-10.605468-10.601563c-3.199219-3.203125-8.390625-3.203125-11.59375 0l-73.800782 73.800781c-3.199218 3.199219-3.199218 8.390625 0 11.59375l32.800782 32.800782c3.203125 3.199218 8.394531 3.199218 11.59375 0l73.800781-73.800782c3.199219-3.203125 3.199219-8.394531 0-11.59375l-10.601563-10.605468 13.882813-13.882813-5.535156-5.535156c48.148437 47.921875 126.027343 47.734375 173.949219-.414063 47.917968-48.152344 47.730468-126.03125-.417969-173.949218-23.078125-22.964844-54.316407-35.847657-86.875-35.816407zm-164 308.203125-21.203125-21.203125 62.203125-62.207031 21.207031 21.207031zm164-78.605468c-58.875 0-106.597657-47.722657-106.597657-106.597657s47.722657-106.601562 106.597657-106.601562 106.601562 47.726562 106.601562 106.601562c-.070312 58.84375-47.753906 106.53125-106.601562 106.597657zm0 0" fill="url(#c)"/><path d="m352.601562 221.398438v-73.796876c0-4.53125-3.671874-8.203124-8.203124-8.203124h-32.796876c-4.53125 0-8.203124 3.671874-8.203124 8.203124v73.796876h-16.398438v-41c0-4.527344-3.671875-8.199219-8.199219-8.199219h-32.800781c-4.527344 0-8.199219 3.671875-8.199219 8.199219v41h-24.601562v16.402343h32.800781c4.527344 0 8.199219-3.671875 8.199219-8.199219v-41h16.402343v41c0 4.527344 3.667969 8.199219 8.199219 8.199219h32.800781c4.527344 0 8.199219-3.671875 8.199219-8.199219v-73.800781h16.398438v73.800781c0 4.527344 3.671875 8.199219 8.199219 8.199219h32.800781v-16.402343zm0 0" fill="url(#d)"/></svg>