<svg height="492pt" viewBox="0 0 492 492" width="492pt" xmlns="http://www.w3.org/2000/svg" xmlns:xlink="http://www.w3.org/1999/xlink"><linearGradient id="a"><stop offset="0" stop-color="#fff200"/><stop offset="1" stop-color="#cd118c"/></linearGradient><linearGradient id="b" gradientTransform="matrix(1 0 0 -1 0 490)" gradientUnits="userSpaceOnUse" x1="56.3025" x2="474.4861" xlink:href="#a" y1="37.5638" y2="492.6474"/><linearGradient id="c" gradientTransform="matrix(1 0 0 -1 0 490)" gradientUnits="userSpaceOnUse" x1="-50.8739" x2="367.3015" xlink:href="#a" y1="136.0562" y2="591.1398"/><linearGradient id="d" gradientTransform="matrix(1 0 0 -1 0 490)" gradientUnits="userSpaceOnUse" x1="-33.0934" x2="385.0902" xlink:href="#a" y1="119.7192" y2="574.7946"/><linearGradient id="e" gradientTransform="matrix(1 0 0 -1 0 490)" gradientUnits="userSpaceOnUse" x1="-15.3073" x2="402.8681" xlink:href="#a" y1="103.3763" y2="558.4517"/><linearGradient id="f" gradientTransform="matrix(1 0 0 -1 0 490)" gradientUnits="userSpaceOnUse" x1="31.4003" x2="449.5839" xlink:href="#a" y1="60.4483" y2="515.5318"/><linearGradient id="g" gradientTransform="matrix(1 0 0 -1 0 490)" gradientUnits="userSpaceOnUse" x1="28.5516" x2="446.727" xlink:href="#a" y1="63.076" y2="518.1514"/><linearGradient id="h" gradientTransform="matrix(1 0 0 -1 0 490)" gradientUnits="userSpaceOnUse" x1="110.5527" x2="528.7363" xlink:href="#a" y1="-12.2804" y2="442.795"/><path d="m246 0c-135.863281 0-246 110.136719-246 246s110.136719 246 246 246 246-110.136719 246-246c-.152344-135.796875-110.203125-245.847656-246-246zm0 475.601562c-126.804688 0-229.601562-102.796874-229.601562-229.601562s102.796874-229.601562 229.601562-229.601562 229.601562 102.796874 229.601562 229.601562c-.148437 126.746094-102.855468 229.453125-229.601562 229.601562zm0 0" fill="url(#b)"/><path d="m393.601562 123h-295.203124c-4.527344 0-8.199219 3.671875-8.199219 8.199219v229.601562c0 4.527344 3.671875 8.199219 8.199219 8.199219h295.203124c4.527344 0 8.199219-3.671875 8.199219-8.199219v-229.601562c0-4.527344-3.671875-8.199219-8.199219-8.199219zm-8.203124 16.398438v32.800781h-278.796876v-32.800781zm-131.199219 213.203124v-16.402343h-16.398438v16.402343h-131.199219v-164h131.199219v131.199219h16.398438v-131.199219h131.199219v164zm0 0" fill="url(#b)"/><path d="m123 147.601562h16.398438v16.398438h-16.398438zm0 0" fill="url(#c)"/><path d="m155.800781 147.601562h16.398438v16.398438h-16.398438zm0 0" fill="url(#d)"/><path d="m188.601562 147.601562h16.398438v16.398438h-16.398438zm0 0" fill="url(#e)"/><path d="m205 237.800781h-8.199219v-8.199219c0-13.585937-11.015625-24.601562-24.601562-24.601562-13.585938 0-24.597657 11.015625-24.597657 24.601562v8.199219h-8.203124c-4.527344 0-8.199219 3.671875-8.199219 8.199219v65.601562c0 4.527344 3.671875 8.199219 8.199219 8.199219h65.601562c4.527344 0 8.199219-3.671875 8.199219-8.199219v-65.601562c0-4.527344-3.671875-8.199219-8.199219-8.199219zm-41-8.199219c0-4.53125 3.671875-8.203124 8.199219-8.203124 4.53125 0 8.199219 3.671874 8.199219 8.203124v8.199219h-16.398438zm32.800781 73.796876h-49.199219v-49.199219h49.199219zm0 0" fill="url(#f)"/><path d="m164 262.398438h16.398438v16.402343h-16.398438zm0 0" fill="url(#g)"/><path d="m311.601562 229.601562v42.507813c-12.8125 4.527344-19.523437 18.582031-14.996093 31.394531 4.53125 12.808594 18.585937 19.519532 31.394531 14.992188 12.808594-4.53125 19.523438-18.585938 14.992188-31.394532-2.476563-7.003906-7.988282-12.515624-14.992188-14.992187v-9.710937h8.199219v-16.398438h-8.199219v-8.199219h16.398438v-16.402343h-24.597657c-4.53125 0-8.199219 3.671874-8.199219 8.203124zm8.199219 73.796876c-4.53125 0-8.199219-3.667969-8.199219-8.199219 0-4.527344 3.667969-8.199219 8.199219-8.199219 4.527344 0 8.199219 3.671875 8.199219 8.199219 0 4.53125-3.671875 8.199219-8.199219 8.199219zm0 0" fill="url(#h)"/></svg>