<svg height="492pt" viewBox="0 0 492 492" width="492pt" xmlns="http://www.w3.org/2000/svg" xmlns:xlink="http://www.w3.org/1999/xlink"><linearGradient id="a"><stop offset="0" stop-color="#fff200"/><stop offset="1" stop-color="#cd118c"/></linearGradient><linearGradient id="b" gradientTransform="matrix(1 0 0 -1 0 490)" gradientUnits="userSpaceOnUse" x1="34.6599" x2="502.0353" xlink:href="#a" y1="60.4693" y2="466.3447"/><linearGradient id="c" gradientTransform="matrix(1 0 0 -1 0 490)" gradientUnits="userSpaceOnUse" x1="61.6705" x2="529.0459" xlink:href="#a" y1="29.367" y2="435.2424"/><path d="m246 0c-135.863281 0-246 110.136719-246 246s110.136719 246 246 246 246-110.136719 246-246c-.152344-135.796875-110.203125-245.847656-246-246zm0 475.601562c-126.804688 0-229.601562-102.796874-229.601562-229.601562s102.796874-229.601562 229.601562-229.601562 229.601562 102.796874 229.601562 229.601562c-.148437 126.746094-102.855468 229.453125-229.601562 229.601562zm0 0" fill="url(#b)"/><path d="m335.445312 250.765625c-1.898437-4.113281-6.769531-5.90625-10.882812-4.007813-.875.402344-1.675781.960938-2.359375 1.644532l-14.703125 14.695312-53.300781-77.082031v-13.816406h57.402343c4.527344-.003907 8.195313-3.675781 8.195313-8.203125-.003906-2.640625-1.273437-5.113282-3.414063-6.652344l-23.914062-17.222656 24.183594-18.859375c3.570312-2.789063 4.199218-7.941407 1.414062-11.507813-1.554687-1.992187-3.941406-3.152344-6.464844-3.152344h-65.601562c-4.527344 0-8.199219 3.671876-8.199219 8.199219v71.128907l-44.574219 61.292968-15.230468-15.21875c-3.199219-3.203125-8.394532-3.199218-11.59375.003906-.675782.671876-1.226563 1.460938-1.632813 2.324219l-55.191406 118.269531h-11.179687v16.398438h295.203124v-16.398438h-11.152343zm-61.425781-103.671875 12.160157 8.707031h-31.980469v-32.800781h33.621093l-14.039062 10.964844c-3.566406 2.789062-4.195312 7.941406-1.40625 11.507812.480469.613282 1.046875 1.15625 1.679688 1.609375zm-146.34375 205.507812 46.984375-100.722656 8.78125 8.773438-9.683594 13.332031 13.285157 9.628906 58.785156-80.84375 49.890625 72.160157-30.914062 30.914062 11.59375 11.59375 49.085937-49.085938 38.898437 84.25zm0 0" fill="url(#c)"/></svg>