<svg height="492pt" viewBox="0 0 492 492" width="492pt" xmlns="http://www.w3.org/2000/svg" xmlns:xlink="http://www.w3.org/1999/xlink"><linearGradient id="a"><stop offset="0" stop-color="#fff200"/><stop offset="1" stop-color="#cd118c"/></linearGradient><linearGradient id="b" gradientTransform="matrix(1 0 0 -1 0 490)" gradientUnits="userSpaceOnUse" x1="16.8431" x2="484.2185" xlink:href="#a" y1="26.9047" y2="469.68"/><linearGradient id="c" gradientTransform="matrix(1 0 0 -1 0 490)" gradientUnits="userSpaceOnUse" x1="17.0642" x2="484.4397" xlink:href="#a" y1="26.6667" y2="469.4421"/><path d="m246 0c-135.863281 0-246 110.136719-246 246s110.136719 246 246 246 246-110.136719 246-246c-.152344-135.796875-110.203125-245.847656-246-246zm0 475.601562c-126.804688 0-229.601562-102.796874-229.601562-229.601562s102.796874-229.601562 229.601562-229.601562 229.601562 102.796874 229.601562 229.601562c-.148437 126.746094-102.855468 229.453125-229.601562 229.601562zm0 0" fill="url(#b)"/><path d="m371.164062 135.832031h-14.996093v-14.996093c-.003907-4.53125-3.675781-8.199219-8.203125-8.199219-2.175782 0-4.257813.863281-5.796875 2.402343l-34.792969 34.792969c-2.195312 2.195313-2.960938 5.449219-1.976562 8.394531l1.503906 4.519532c-50.757813-38.417969-123.046875-28.410156-161.464844 22.34375-38.414062 50.757812-28.410156 123.046875 22.347656 161.464844 50.753906 38.414062 123.042969 28.410156 161.460938-22.347657 31.140625-41.144531 31.140625-97.972656 0-139.117187l4.535156 1.511718c.835938.28125 1.710938.425782 2.589844.425782 2.175781 0 4.261718-.867188 5.796875-2.40625l34.792969-34.792969c3.203124-3.199219 3.203124-8.394531 0-11.59375-1.539063-1.539063-3.621094-2.402344-5.796876-2.402344zm-133.363281 216.769531c-54.347656.078126-98.464843-43.910156-98.546875-98.253906-.082031-54.34375 43.90625-98.464844 98.253906-98.546875 23.347657-.035156 45.945313 8.234375 63.761719 23.328125l-17.460937 17.464844c-31.917969-25.515625-78.476563-20.320312-103.988282 11.597656-25.515624 31.917969-20.324218 78.476563 11.59375 103.988282 31.917969 25.515624 78.476563 20.324218 103.992188-11.59375 21.59375-27.015626 21.59375-65.382813 0-92.394532l17.464844-17.46875c35.109375 41.410156 30.007812 103.441406-11.402344 138.550782-17.785156 15.082031-40.351562 23.347656-63.667969 23.328124zm57.398438-98.402343c.117187 31.828125-25.585938 57.726562-57.414063 57.84375-31.828125.117187-57.726562-25.589844-57.84375-57.414063-.117187-31.828125 25.585938-57.726562 57.414063-57.84375 12.527343-.046875 24.726562 3.988282 34.753906 11.496094l-17.753906 17.75c-5-3.007812-10.71875-4.605469-16.554688-4.632812-18.117187 0-32.800781 14.6875-32.800781 32.800781 0 18.117187 14.683594 32.800781 32.800781 32.800781 18.113281 0 32.796875-14.683594 32.796875-32.800781-.027344-5.835938-1.632812-11.554688-4.648437-16.554688l17.769531-17.753906c7.453125 9.886719 11.480469 21.929687 11.480469 34.308594zm-41 0c0 9.058593-7.34375 16.402343-16.398438 16.402343-9.058593 0-16.402343-7.34375-16.402343-16.402343 0-9.054688 7.34375-16.398438 16.402343-16.398438 1.417969.019531 2.828125.226563 4.1875.613281l-9.984375 9.988282c-3.257812 3.148437-3.351562 8.335937-.203125 11.59375 3.144531 3.257812 8.335938 3.351562 11.59375.203125.070313-.066407.136719-.132813.203125-.203125l9.988282-9.984375c.386718 1.359375.59375 2.769531.613281 4.1875zm79.957031-84.761719-8.699219-2.894531-2.902343-8.691407 17.21875-17.222656v3.402344c0 4.53125 3.671874 8.203125 8.203124 8.203125h3.394532zm0 0" fill="url(#c)"/></svg>