<svg height="492pt" viewBox="0 0 492 492" width="492pt" xmlns="http://www.w3.org/2000/svg" xmlns:xlink="http://www.w3.org/1999/xlink"><linearGradient id="a"><stop offset="0" stop-color="#fff200"/><stop offset="1" stop-color="#cd118c"/></linearGradient><linearGradient id="b" gradientTransform="matrix(1 0 0 -1 0 490)" gradientUnits="userSpaceOnUse" x1="8.1918" x2="463.2672" xlink:href="#a" y1="6.1918" y2="461.2672"/><linearGradient id="c" gradientTransform="matrix(1 0 0 -1 0 490)" gradientUnits="userSpaceOnUse" x1="-7.6997" x2="447.3839" xlink:href="#a" y1="22.0833" y2="477.1587"/><linearGradient id="d" gradientTransform="matrix(1 0 0 -1 0 490)" gradientUnits="userSpaceOnUse" x1="-57.4" x2="397.6754" xlink:href="#a" y1="71.8" y2="526.8754"/><linearGradient id="e" gradientTransform="matrix(1 0 0 -1 .000381 489.9999)" gradientUnits="userSpaceOnUse" x1="-81.4192" x2="373.6563" xlink:href="#a" y1="95.8063" y2="550.89"/><linearGradient id="f" gradientTransform="matrix(1 0 0 -1 .000395 490.0003)" gradientUnits="userSpaceOnUse" x1="-81.4124" x2="373.6631" xlink:href="#a" y1="95.7965" y2="550.8801"/><linearGradient id="g" gradientTransform="matrix(1 0 0 -1 .000111 489.9995)" gradientUnits="userSpaceOnUse" x1="-15.8193" x2="439.2561" xlink:href="#a" y1="30.2075" y2="485.2911"/><linearGradient id="h" gradientTransform="matrix(1 0 0 -1 .000176 490.0003)" gradientUnits="userSpaceOnUse" x1="32.2013" x2="487.2849" xlink:href="#a" y1="-17.819" y2="437.2565"/><linearGradient id="i" gradientTransform="matrix(1 0 0 -1 0 490)" gradientUnits="userSpaceOnUse" x1="73.8" x2="528.8754" xlink:href="#a" y1="-59.4" y2="395.6754"/><linearGradient id="j" gradientTransform="matrix(1 0 0 -1 .000712 489.9998)" gradientUnits="userSpaceOnUse" x1="97.8018" x2="552.8854" xlink:href="#a" y1="-83.4113" y2="371.6642"/><linearGradient id="k" gradientTransform="matrix(1 0 0 -1 .000196 489.9996)" gradientUnits="userSpaceOnUse" x1="97.8048" x2="552.8884" xlink:href="#a" y1="-83.4166" y2="371.6588"/><linearGradient id="l" gradientTransform="matrix(1 0 0 -1 -.000018 490.0002)" gradientUnits="userSpaceOnUse" x1="32.1968" x2="487.2804" xlink:href="#a" y1="-17.8145" y2="437.261"/><linearGradient id="m" gradientTransform="matrix(1 0 0 -1 .000415 489.9995)" gradientUnits="userSpaceOnUse" x1="-15.814" x2="439.2614" xlink:href="#a" y1="30.2039" y2="485.2875"/><path d="m246 0c-135.863281 0-246 110.136719-246 246s110.136719 246 246 246 246-110.136719 246-246c-.152344-135.796875-110.203125-245.847656-246-246zm0 475.601562c-126.804688 0-229.601562-102.796874-229.601562-229.601562s102.796874-229.601562 229.601562-229.601562 229.601562 102.796874 229.601562 229.601562c-.148437 126.746094-102.855468 229.453125-229.601562 229.601562zm0 0" fill="url(#b)"/><path d="m246 82c-90.574219 0-164 73.425781-164 164s73.425781 164 164 164 164-73.425781 164-164c-.105469-90.53125-73.46875-163.894531-164-164zm0 311.601562c-81.515625 0-147.601562-66.085937-147.601562-147.601562s66.085937-147.601562 147.601562-147.601562 147.601562 66.085937 147.601562 147.601562c-.097656 81.476562-66.125 147.503906-147.601562 147.601562zm0 0" fill="url(#b)"/><path d="m254.199219 222.910156v-67.109375h-16.398438v67.109375c-6.945312 2.480469-12.410156 7.945313-14.890625 14.890625h-42.511718v16.398438h42.511718c4.492188 12.789062 18.5 19.511719 31.289063 15.019531 12.789062-4.496094 19.511719-18.503906 15.019531-31.292969-2.46875-7.023437-7.992188-12.546875-15.019531-15.015625zm-8.199219 31.289063c-4.527344 0-8.199219-3.671875-8.199219-8.199219s3.671875-8.199219 8.199219-8.199219 8.199219 3.671875 8.199219 8.199219-3.671875 8.199219-8.199219 8.199219zm0 0" fill="url(#c)"/><path d="m237.800781 106.601562h16.398438v16.398438h-16.398438zm0 0" fill="url(#d)"/><path d="m169.195312 129.367188 14.207032-8.195313 8.195312 14.203125-14.203125 8.199219zm0 0" fill="url(#e)"/><path d="m121.179688 183.410156 8.199218-14.203125 14.199219 8.199219-8.195313 14.203125zm0 0" fill="url(#f)"/><path d="m106.601562 237.800781h16.398438v16.398438h-16.398438zm0 0" fill="url(#d)"/><path d="m121.171875 308.59375 14.203125-8.199219 8.199219 14.203125-14.203125 8.199219zm0 0" fill="url(#g)"/><path d="m169.195312 362.628906 8.199219-14.203125 14.203125 8.199219-8.199218 14.203125zm0 0" fill="url(#h)"/><path d="m237.800781 369h16.398438v16.398438h-16.398438zm0 0" fill="url(#i)"/><path d="m300.402344 356.613281 14.203125-8.199219 8.199219 14.203126-14.203126 8.199218zm0 0" fill="url(#j)"/><path d="m348.421875 314.605469 8.195313-14.203125 14.207031 8.199218-8.199219 14.203126zm0 0" fill="url(#k)"/><path d="m369 237.800781h16.398438v16.398438h-16.398438zm0 0" fill="url(#i)"/><path d="m348.414062 177.398438 14.203126-8.199219 8.199218 14.203125-14.203125 8.199218zm0 0" fill="url(#l)"/><path d="m300.398438 135.378906 8.199218-14.203125 14.203125 8.195313-8.199219 14.207031zm0 0" fill="url(#m)"/></svg>