<svg height="492pt" viewBox="0 0 492 492" width="492pt" xmlns="http://www.w3.org/2000/svg" xmlns:xlink="http://www.w3.org/1999/xlink"><linearGradient id="a"><stop offset="0" stop-color="#fff200"/><stop offset="1" stop-color="#cd118c"/></linearGradient><linearGradient id="b" gradientTransform="matrix(1 0 0 -1 0 490)" gradientUnits="userSpaceOnUse" x1="7.7159" x2="487.3914" xlink:href="#a" y1="30.1525" y2="460.6361"/><linearGradient id="c" gradientTransform="matrix(1 0 0 -1 0 490)" gradientUnits="userSpaceOnUse" x1="12.2107" x2="491.8861" xlink:href="#a" y1="25.1492" y2="455.6246"/><linearGradient id="d" gradientTransform="matrix(1 0 0 -1 0 490)" gradientUnits="userSpaceOnUse" x1="31.757" x2="511.4324" xlink:href="#a" y1="3.3728" y2="433.8483"/><linearGradient id="e" gradientTransform="matrix(1 0 0 -1 0 490)" gradientUnits="userSpaceOnUse" x1="32.5935" x2="512.2689" xlink:href="#a" y1="2.4379" y2="432.9215"/><path d="m246 0c-135.863281 0-246 110.136719-246 246s110.136719 246 246 246 246-110.136719 246-246c-.152344-135.796875-110.203125-245.847656-246-246zm0 475.601562c-126.804688 0-229.601562-102.796874-229.601562-229.601562s102.796874-229.601562 229.601562-229.601562 229.601562 102.796874 229.601562 229.601562c-.148437 126.746094-102.855468 229.453125-229.601562 229.601562zm0 0" fill="url(#b)"/><path d="m229.601562 254.199219h16.398438v16.402343h-16.398438zm0 0" fill="url(#c)"/><path d="m246 278.800781h16.398438v16.398438h-16.398438zm0 0" fill="url(#d)"/><path d="m328 90.199219h-164c-4.527344 0-8.199219 3.671875-8.199219 8.199219v32.800781c0 4.53125 3.671875 8.199219 8.199219 8.199219h8.199219v49.203124c-.023438 22.300782 10.066406 43.410157 27.4375 57.398438-17.371094 13.988281-27.460938 35.097656-27.4375 57.398438v49.203124h-8.199219c-4.527344 0-8.199219 3.667969-8.199219 8.199219v32.800781c0 4.527344 3.671875 8.199219 8.199219 8.199219h164c4.527344 0 8.199219-3.671875 8.199219-8.199219v-32.800781c0-4.53125-3.671875-8.199219-8.199219-8.199219h-8.199219v-49.203124c.023438-22.300782-10.066406-43.410157-27.4375-57.398438 17.371094-13.988281 27.460938-35.097656 27.4375-57.398438v-49.203124h8.199219c4.527344 0 8.199219-3.667969 8.199219-8.199219v-32.800781c0-4.527344-3.671875-8.199219-8.199219-8.199219zm-8.199219 295.199219h-147.601562v-16.398438h147.601562zm-131.199219-32.796876v-4.765624c1.097657.050781 2.121094.171874 3.277344.171874 7.226563.15625 14.398438-1.273437 21.007813-4.191406 9.585937-4.035156 20.394531-4.035156 29.980469 0 13.5 5.582032 28.664062 5.582032 42.164062 0 4.730469-2.148437 9.894531-3.1875 15.085938-3.03125 1.207031 0 2.289062 0 3.28125.105469v11.710937zm85.121094-113.800781c-3.976562 2.167969-5.441406 7.148438-3.273437 11.125.753906 1.382813 1.890625 2.519531 3.273437 3.273438 18.332032 10.046875 29.710938 29.300781 29.675782 50.199219v21.164062c-1.097657-.046875-2.121094-.171875-3.277344-.171875-7.28125-.160156-14.507813 1.273437-21.171875 4.199219-9.589844 4.027344-20.394531 4.027344-29.980469 0-13.503906-5.597656-28.683594-5.597656-42.1875 0-4.671875 2.128906-9.769531 3.15625-14.898438 3.007812-1.207031 0-2.289062 0-3.28125-.105468v-28.09375c-.035156-20.902344 11.34375-40.152344 29.675782-50.199219 3.976562-2.167969 5.441406-7.148438 3.273437-11.125-.753906-1.382813-1.890625-2.519531-3.273437-3.273438-12.015625-6.609375-21.238282-17.332031-25.96875-30.203125 7.082031.105469 14.101562-1.320312 20.582031-4.179687 9.585937-4.035157 20.390625-4.035157 29.976563 0 13.503906 5.582031 28.664062 5.582031 42.164062 0 4.734375-2.152344 9.894531-3.1875 15.089844-3.035157.613281 0 1.121094.058594 1.714844.082032-3.601563 15.894531-13.832032 29.484375-28.113282 37.335937zm29.675782-53.636719c-1.097657-.058593-2.113282-.171874-3.277344-.171874-7.28125-.160157-14.507813 1.273437-21.171875 4.199218-9.589844 4.027344-20.394531 4.027344-29.980469 0-13.503906-5.597656-28.683594-5.597656-42.1875 0-4.671875 2.125-9.769531 3.15625-14.898438 3.007813-1.125 0-2.058593-.074219-3.042968-.140625-.074219-1.148438-.238282-2.285156-.238282-3.457032v-49.203124h114.800782v45.765624zm16.402343-62.164062h-147.601562v-16.398438h147.601562zm0 0" fill="url(#b)"/><path d="m229.601562 295.199219h16.398438v16.402343h-16.398438zm0 0" fill="url(#e)"/></svg>